<svg width="17" height="17" viewBox="0 0 17 17" fill="none" xmlns="http://www.w3.org/2000/svg">
<path d="M9.79602 13.4581C9.6902 13.4584 9.58564 13.4351 9.49003 13.3897C9.39442 13.3444 9.31019 13.2782 9.24352 13.196L5.82227 8.946C5.71809 8.81925 5.66113 8.66027 5.66113 8.49621C5.66113 8.33214 5.71809 8.17316 5.82227 8.04641L9.36394 3.79641C9.48417 3.65176 9.65694 3.56079 9.84424 3.54352C10.0315 3.52626 10.218 3.5841 10.3627 3.70433C10.5073 3.82456 10.5983 3.99733 10.6156 4.18464C10.6328 4.37194 10.575 4.55843 10.4548 4.70308L7.28852 8.49975L10.3485 12.2964C10.4351 12.4004 10.4902 12.527 10.5071 12.6613C10.524 12.7955 10.5021 12.9318 10.444 13.054C10.3858 13.1762 10.2939 13.2792 10.1791 13.3508C10.0643 13.4224 9.93134 13.4597 9.79602 13.4581Z" fill="#10A7FF"/>
</svg>
