<svg width="18" height="18" viewBox="0 0 18 18" fill="none" xmlns="http://www.w3.org/2000/svg">
<path d="M15.5 4H11V16.5H16.5V5C16.5 4.73478 16.3946 4.48043 16.2071 4.29289C16.0196 4.10536 15.7652 4 15.5 4V4ZM13 12.5H12V11.5H13V12.5ZM13 10H12V9H13V10ZM13 7.5H12V6.5H13V7.5ZM15 12.5H14V11.5H15V12.5ZM15 10H14V9H15V10ZM15 7.5H14V6.5H15V7.5Z" fill="#FEFEFE"/>
<path d="M8.94 1.5H3.06C2.77887 1.5 2.50926 1.61168 2.31047 1.81047C2.11168 2.00926 2 2.27887 2 2.56V16.5H4.5V15H7.5V16.5H10V2.56C10 2.27887 9.88832 2.00926 9.68953 1.81047C9.49074 1.61168 9.22113 1.5 8.94 1.5V1.5ZM4.5 12.5H3.5V11.5H4.5V12.5ZM4.5 10H3.5V9H4.5V10ZM4.5 7.5H3.5V6.5H4.5V7.5ZM4.5 5H3.5V4H4.5V5ZM6.5 12.5H5.5V11.5H6.5V12.5ZM6.5 10H5.5V9H6.5V10ZM6.5 7.5H5.5V6.5H6.5V7.5ZM6.5 5H5.5V4H6.5V5ZM8.5 12.5H7.5V11.5H8.5V12.5ZM8.5 10H7.5V9H8.5V10ZM8.5 7.5H7.5V6.5H8.5V7.5ZM8.5 5H7.5V4H8.5V5Z" fill="#FEFEFE"/>
</svg>
