<svg width="25" height="25" viewBox="0 0 25 25" fill="none" xmlns="http://www.w3.org/2000/svg">
<path d="M12.4896 2.08334C6.73962 2.08334 2.08337 6.75001 2.08337 12.5C2.08337 18.25 6.73962 22.9167 12.4896 22.9167C18.25 22.9167 22.9167 18.25 22.9167 12.5C22.9167 6.75001 18.25 2.08334 12.4896 2.08334ZM12.5 20.8333C7.89587 20.8333 4.16671 17.1042 4.16671 12.5C4.16671 7.89584 7.89587 4.16668 12.5 4.16668C17.1042 4.16668 20.8334 7.89584 20.8334 12.5C20.8334 17.1042 17.1042 20.8333 12.5 20.8333ZM12.2709 7.29168H12.2084C11.7917 7.29168 11.4584 7.62501 11.4584 8.04168V12.9583C11.4584 13.3229 11.6459 13.6667 11.9688 13.8542L16.2917 16.4479C16.6459 16.6563 17.1042 16.5521 17.3125 16.1979C17.3648 16.1136 17.3996 16.0196 17.4149 15.9215C17.4301 15.8234 17.4254 15.7233 17.4011 15.6271C17.3768 15.5308 17.3334 15.4405 17.2734 15.3614C17.2135 15.2823 17.1382 15.2161 17.0521 15.1667L13.0209 12.7708V8.04168C13.0209 7.62501 12.6875 7.29168 12.2709 7.29168V7.29168Z" fill="black"/>
</svg>
