<svg width="22" height="22" viewBox="0 0 22 22" fill="none" xmlns="http://www.w3.org/2000/svg">
<path d="M14.4375 11.3493V18.7344C14.4375 19.7785 13.6189 20.625 12.592 20.625H4.59766C3.56855 20.625 2.75 19.7785 2.75 18.7344V7.39062C2.75293 6.8901 2.95306 6.41092 3.30699 6.05699C3.66092 5.70306 4.1401 5.50293 4.64062 5.5H8.68484C8.82483 5.50021 8.96337 5.52829 9.0924 5.58258C9.22142 5.63688 9.33835 5.71631 9.43637 5.81625L14.1264 10.5858C14.326 10.7898 14.4376 11.0639 14.4375 11.3493V11.3493Z" stroke="#101010" stroke-width="1.5" stroke-linejoin="round"/>
<path d="M8.59375 5.5V10.1406C8.59754 10.4585 8.72552 10.7624 8.95033 10.9872C9.17514 11.212 9.47896 11.34 9.79688 11.3438H14.4375" stroke="#101010" stroke-width="1.5" stroke-linecap="round" stroke-linejoin="round"/>
<path d="M7.5625 5.5V3.26562C7.56543 2.7651 7.76556 2.28592 8.11949 1.93199C8.47342 1.57806 8.9526 1.37793 9.45312 1.375H13.4922C13.6329 1.3752 13.7723 1.40324 13.9021 1.45752C14.032 1.51179 14.1498 1.59123 14.2489 1.69125L18.9389 6.46078C19.1383 6.66265 19.2501 6.935 19.25 7.21875V14.6094C19.25 15.6535 18.4314 16.5 17.4045 16.5H14.7812" stroke="#101010" stroke-width="1.5" stroke-linejoin="round"/>
<path d="M13.4062 1.375V6.01562C13.41 6.33354 13.538 6.63736 13.7628 6.86217C13.9876 7.08698 14.2915 7.21496 14.6094 7.21875H19.25" stroke="#101010" stroke-width="1.5" stroke-linecap="round" stroke-linejoin="round"/>
</svg>
