<svg width="22" height="22" viewBox="0 0 22 22" fill="none" xmlns="http://www.w3.org/2000/svg">
<path d="M20.9663 10.0398L18.2188 7.59752V3.84025L15.066 0.6875H6.53125V6.1875H3.4375C3.16409 6.18782 2.90198 6.29657 2.70865 6.4899C2.51532 6.68323 2.40657 6.94534 2.40625 7.21875V20.2812C2.40657 20.5547 2.51532 20.8168 2.70865 21.0101C2.90198 21.2034 3.16409 21.3122 3.4375 21.3125H21.3125V10.8106C21.3124 10.665 21.2816 10.521 21.2219 10.3882C21.1622 10.2553 21.0751 10.1366 20.9663 10.0398V10.0398ZM6.53125 19.9375H3.78125V7.5625H6.53125V19.9375ZM14.0938 2.0625H14.4965L16.8438 4.40975V4.8125H14.0938V2.0625ZM7.90625 2.0625H12.7188V6.1875H16.8438V9.28125H7.90625V2.0625ZM19.9375 19.9375H7.90625V10.6562H18.2188V9.43718L19.9375 10.965V19.9375Z" fill="#FEFEFE"/>
<path d="M9.96875 14.7812H11.3438V16.1562H9.96875V14.7812Z" fill="#FEFEFE"/>
<path d="M12.7188 14.7812H14.0938V16.1562H12.7188V14.7812Z" fill="#FEFEFE"/>
<path d="M9.96875 17.5312H11.3438V18.9062H9.96875V17.5312Z" fill="#FEFEFE"/>
<path d="M12.7188 17.5312H14.0938V18.9062H12.7188V17.5312Z" fill="#FEFEFE"/>
<path d="M15.4688 14.7812H16.8438V16.1562H15.4688V14.7812Z" fill="#FEFEFE"/>
<path d="M15.4688 17.5312H16.8438V18.9062H15.4688V17.5312Z" fill="#FEFEFE"/>
<path d="M9.96875 12.0312H16.8438V13.4062H9.96875V12.0312Z" fill="#FEFEFE"/>
</svg>
