<svg width="212" height="88" viewBox="0 0 212 88" fill="none" xmlns="http://www.w3.org/2000/svg">
<mask id="mask0" mask-type="alpha" maskUnits="userSpaceOnUse" x="1" y="3" width="211" height="83">
<path d="M85.9663 36.414V36.414C86.0367 36.3475 86.0983 36.2721 86.1495 36.1899L94.8404 22.2274C95.7532 20.7611 97.3581 19.8696 99.0853 19.8696H101.096" stroke="white" stroke-width="2"/>
<path d="M127.233 69.021H141.465" stroke="white" stroke-width="2"/>
<ellipse cx="126.734" cy="69.0228" rx="1.24845" ry="1.23965" fill="white"/>
<ellipse cx="141.965" cy="69.0214" rx="1.24845" ry="1.23965" fill="white"/>
<path d="M124.146 69.019C124.146 69.7036 123.587 70.2586 122.897 70.2586C122.208 70.2586 121.649 69.7036 121.649 69.019C121.649 68.3343 122.208 67.7793 122.897 67.7793C123.587 67.7793 124.146 68.3343 124.146 69.019Z" fill="white"/>
<ellipse cx="186.036" cy="60.4872" rx="1.37329" ry="1.36362" fill="white"/>
<ellipse cx="186.036" cy="25.2816" rx="1.37329" ry="1.36362" fill="white"/>
<ellipse cx="158.07" cy="60.7347" rx="1.37329" ry="1.36362" fill="white"/>
<ellipse cx="104.263" cy="15.7353" rx="1.24845" ry="1.23965" fill="white"/>
<ellipse cx="147.209" cy="15.9843" rx="1.24845" ry="1.23965" fill="white"/>
<path d="M69.0571 40.0332H84.9201C86.6263 40.0332 88.2148 40.9033 89.1335 42.3412L101.604 61.8597C102.118 62.6636 102.391 63.5977 102.391 64.5517V69.6609" stroke="white" stroke-width="2"/>
<path d="M69.0571 36.3141H78.2706C79.9947 36.3141 81.5972 35.4258 82.5108 33.9637L92.4324 18.0862C93.3461 16.6241 94.9485 15.7358 96.6726 15.7358H103.764" stroke="white" stroke-width="2"/>
<ellipse cx="69.0561" cy="67.0571" rx="1.24845" ry="1.23965" fill="white"/>
<path d="M69.0567 15.2393V66.8088" stroke="white" stroke-width="2"/>
<ellipse cx="69.0561" cy="15.2397" rx="1.24845" ry="1.23965" fill="white"/>
<ellipse cx="101.005" cy="19.7782" rx="1.24845" ry="1.23965" fill="white"/>
<ellipse cx="86.0668" cy="36.1322" rx="1.24845" ry="1.23965" fill="white"/>
<ellipse cx="102.391" cy="69.9087" rx="1.1236" ry="1.11569" fill="white"/>
<ellipse cx="97.2549" cy="67.8178" rx="1.24845" ry="1.23965" fill="white"/>
<path d="M81.5255 44.3535H82.6291C84.3505 44.3535 85.9508 45.239 86.8653 46.6974L96.4921 62.0511C96.9912 62.8471 97.2559 63.7676 97.2559 64.7072V68.1549" stroke="white" stroke-width="2"/>
<ellipse cx="81.3669" cy="44.5083" rx="1.1236" ry="1.11569" fill="white"/>
<ellipse cx="65.0005" cy="22.1371" rx="1.24845" ry="1.23965" fill="white"/>
<ellipse cx="65.0004" cy="69.4921" rx="1.24845" ry="1.23965" fill="white"/>
<path d="M64.999 22.3848V68.9957" stroke="white" stroke-width="2"/>
<path d="M158.196 61.1068V21.2332V20.9834C158.196 18.222 160.435 15.9834 163.196 15.9834H197.647" stroke="white" stroke-width="2"/>
<ellipse cx="154.326" cy="16.099" rx="1.37329" ry="1.36362" fill="white"/>
<ellipse cx="154.451" cy="67.2803" rx="1.49814" ry="1.48758" fill="white"/>
<path d="M154.326 16.5776L154.451 67.7753" stroke="white" stroke-width="2"/>
<ellipse cx="189.992" cy="20.2821" rx="1.37329" ry="1.36362" fill="white"/>
<ellipse cx="190.116" cy="71.4633" rx="1.49814" ry="1.48758" fill="white"/>
<path d="M189.99 20.7612L190.115 71.9589" stroke="white" stroke-width="2"/>
<ellipse cx="198.022" cy="16.1082" rx="1.37329" ry="1.36362" fill="white"/>
<path d="M122.68 69.2413H121.998C119.236 69.2413 116.998 67.0027 116.998 64.2413V19.5784V19.5784C116.998 17.8424 118.2 16.2935 119.913 16.01C120.015 15.9931 120.088 15.9834 120.119 15.9834C120.368 15.9834 146.586 15.9834 146.586 15.9834" stroke="white" stroke-width="2"/>
<ellipse cx="142.029" cy="21.3549" rx="1.24845" ry="1.23965" fill="white"/>
<ellipse cx="125.549" cy="21.3549" rx="1.24845" ry="1.23965" fill="white"/>
<path d="M126.297 21.3545L141.028 21.3545" stroke="white" stroke-width="2"/>
<path d="M138.951 45.8491H125.767C123.005 45.8491 120.767 48.0877 120.767 50.8491V59.5638C120.767 62.3252 123.005 64.5638 125.767 64.5638H146.977" stroke="white" stroke-width="2"/>
<ellipse cx="139.684" cy="45.9189" rx="1.24845" ry="1.23965" fill="white"/>
<ellipse cx="147.048" cy="64.6332" rx="1.24845" ry="1.23965" fill="white"/>
<rect x="112.015" y="21.2261" width="1.78108" height="46.7806" fill="#FAFAFA"/>
<ellipse cx="112.732" cy="20.7795" rx="1.48423" ry="1.47378" fill="#FAFAFA"/>
<ellipse cx="112.732" cy="67.5792" rx="1.48423" ry="1.47378" fill="#FAFAFA"/>
<path d="M121.061 21.8701V35C121.061 37.7614 123.3 40 126.061 40H135.491" stroke="white" stroke-width="2"/>
<ellipse cx="121.127" cy="21.4759" rx="1.24845" ry="1.27722" fill="white"/>
<ellipse cx="135.268" cy="40.1078" rx="1.24845" ry="1.27722" fill="white"/>
<path d="M186.16 25.9009V60.1153" stroke="white" stroke-width="2"/>
<ellipse cx="182.7" cy="21.5199" rx="1.24845" ry="1.23965" fill="white"/>
<ellipse cx="163.224" cy="21.5206" rx="1.24845" ry="1.23965" fill="white"/>
<path d="M182.199 21.5195H163.223" stroke="white" stroke-width="2"/>
<path d="M38.1971 18.5812C65.0031 18.5813 65.3555 57.758 38.5495 57.758" stroke="#FAFAFA" stroke-width="2"/>
<path d="M38.2995 23.1627C58.3904 23.1628 59.3742 53.3988 39.2833 53.3988" stroke="#FAFAFA" stroke-width="2"/>
<path d="M33.4569 18.5812C6.65092 18.5813 6.2985 57.758 33.1045 57.758" stroke="#FAFAFA" stroke-width="2"/>
<path d="M32.8899 23.1627C13.3363 23.1628 12.3716 53.3988 31.9251 53.3988" stroke="#FAFAFA" stroke-width="2"/>
<path d="M33.3008 14.9162V46.9847" stroke="#FAFAFA" stroke-width="2"/>
<path d="M37.9155 30.4923V69.8908" stroke="#FAFAFA" stroke-width="2"/>
<ellipse cx="33.258" cy="15.2398" rx="1.24845" ry="1.23965" fill="white"/>
<ellipse cx="37.8708" cy="69.3897" rx="1.24845" ry="1.23965" fill="white"/>
<ellipse cx="31.7807" cy="53.3555" rx="1.24845" ry="1.23965" fill="white"/>
<ellipse cx="38.2408" cy="23.1197" rx="1.24845" ry="1.23965" fill="white"/>
<path d="M6.864 7.62C7.608 7.26 8.052 6.624 8.052 5.772C8.052 4.38 6.9 3.6 4.956 3.6H1.044V12H5.184C7.308 12 8.448 11.1 8.448 9.636C8.448 8.616 7.884 7.92 6.864 7.62ZM2.976 5.04H4.788C5.628 5.04 6.072 5.4 6.072 6.06C6.072 6.732 5.628 7.08 4.788 7.08H2.976V5.04ZM5.112 10.56H2.976V8.436H5.112C6.012 8.436 6.48 8.772 6.48 9.48C6.48 10.212 6.012 10.56 5.112 10.56ZM14.0774 12.144C15.5414 12.144 16.7534 11.616 17.5454 10.644L16.2974 9.492C15.7334 10.152 15.0254 10.488 14.1854 10.488C12.6134 10.488 11.4974 9.384 11.4974 7.8C11.4974 6.216 12.6134 5.112 14.1854 5.112C15.0254 5.112 15.7334 5.448 16.2974 6.096L17.5454 4.944C16.7534 3.984 15.5414 3.456 14.0894 3.456C11.4734 3.456 9.52941 5.268 9.52941 7.8C9.52941 10.332 11.4734 12.144 14.0774 12.144ZM18.9324 3.6V12H20.8644V5.184H24.6564V12H26.5884V3.6H18.9324Z" fill="black"/>
<path d="M154.044 85H155.976V76.6H154.044V85ZM168.132 80.776C168.132 78.58 166.572 77.26 163.74 77.092V76.24H161.952V77.104C159.108 77.272 157.548 78.568 157.548 80.776C157.548 82.972 159.108 84.28 161.952 84.448V85.372H163.74V84.46C166.584 84.316 168.132 82.984 168.132 80.776ZM163.74 82.936V78.628C165.408 78.772 166.26 79.468 166.26 80.764C166.26 82.072 165.432 82.78 163.74 82.936ZM159.432 80.776C159.432 79.468 160.248 78.784 161.952 78.628V82.936C160.332 82.768 159.432 82.072 159.432 80.776ZM175.466 76.6V79.912H171.65V76.6H169.706V85H171.65V81.556H175.466V85H177.41V76.6H175.466ZM186.054 76.6H178.77V78.184H181.446V85H183.366V78.184H186.054V76.6ZM192.708 76.6L190.404 81.112L188.172 76.6H186.096L189.408 82.768L189.336 82.864C189.012 83.368 188.64 83.584 188.16 83.584C187.908 83.584 187.632 83.524 187.32 83.428L186.852 84.904C187.32 85.096 187.776 85.192 188.22 85.192C189.348 85.192 190.344 84.544 191.04 83.248L194.616 76.6H192.708ZM201.42 76.6V79.912H197.604V76.6H195.66V85H197.604V81.556H201.42V85H203.364V76.6H201.42ZM211.516 76.6H205.588V85H207.52L207.508 78.184H211.504L211.516 76.6Z" fill="black"/>
</mask>
<g mask="url(#mask0)">
<path d="M1 -2H224V89H1V-2Z" fill="url(#paint0_linear)"/>
</g>
<defs>
<linearGradient id="paint0_linear" x1="48.6099" y1="12.4919" x2="155.568" y2="127.426" gradientUnits="userSpaceOnUse">
<stop stop-color="#00C0FF"/>
<stop offset="1" stop-color="#5581F1"/>
</linearGradient>
</defs>
</svg>
