<svg width="188" height="60" viewBox="0 0 188 60" fill="none" xmlns="http://www.w3.org/2000/svg">
<mask id="mask0" mask-type="alpha" maskUnits="userSpaceOnUse" x="0" y="0" width="188" height="60">
<path d="M73.9648 22.995V22.995C74.0352 22.9285 74.0968 22.8532 74.148 22.7709L82.839 8.80846C83.7517 7.34212 85.3566 6.45068 87.0838 6.45068H89.0944" stroke="white" stroke-width="2"/>
<path d="M115.232 55.6021H129.465" stroke="white" stroke-width="2"/>
<ellipse cx="114.734" cy="55.6039" rx="1.24845" ry="1.23965" fill="white"/>
<ellipse cx="129.964" cy="55.6024" rx="1.24845" ry="1.23965" fill="white"/>
<path d="M112.145 55.6C112.145 56.2846 111.586 56.8397 110.897 56.8397C110.207 56.8397 109.648 56.2846 109.648 55.6C109.648 54.9154 110.207 54.3604 110.897 54.3604C111.586 54.3604 112.145 54.9154 112.145 55.6Z" fill="white"/>
<ellipse cx="174.034" cy="47.0682" rx="1.37329" ry="1.36362" fill="white"/>
<ellipse cx="174.034" cy="11.8626" rx="1.37329" ry="1.36362" fill="white"/>
<ellipse cx="146.07" cy="47.3158" rx="1.37329" ry="1.36362" fill="white"/>
<ellipse cx="92.2621" cy="2.31631" rx="1.24845" ry="1.23965" fill="white"/>
<ellipse cx="135.207" cy="2.56534" rx="1.24845" ry="1.23965" fill="white"/>
<path d="M57.0557 26.6143H72.9187C74.625 26.6143 76.2134 27.4844 77.1321 28.9223L89.6026 48.4407C90.1162 49.2446 90.3892 50.1787 90.3892 51.1327V56.242" stroke="white" stroke-width="2"/>
<path d="M57.0557 22.8951H66.2692C67.9933 22.8951 69.5958 22.0069 70.5094 20.5448L80.431 4.66726C81.3447 3.20515 82.9472 2.31689 84.6713 2.31689H91.7625" stroke="white" stroke-width="2"/>
<ellipse cx="57.0551" cy="53.6381" rx="1.24845" ry="1.23965" fill="white"/>
<path d="M57.0557 1.82031V53.3899" stroke="white" stroke-width="2"/>
<ellipse cx="57.0551" cy="1.82071" rx="1.24845" ry="1.23965" fill="white"/>
<ellipse cx="89.0043" cy="6.35928" rx="1.24845" ry="1.23965" fill="white"/>
<ellipse cx="74.0658" cy="22.7133" rx="1.24845" ry="1.23965" fill="white"/>
<ellipse cx="90.3892" cy="56.4897" rx="1.1236" ry="1.11569" fill="white"/>
<ellipse cx="85.2533" cy="54.3988" rx="1.24845" ry="1.23965" fill="white"/>
<path d="M69.5244 30.9346H70.6281C72.3495 30.9346 73.9498 31.8201 74.8642 33.2785L84.491 48.6322C84.9901 49.4282 85.2548 50.3487 85.2548 51.2882V54.7359" stroke="white" stroke-width="2"/>
<ellipse cx="69.3658" cy="31.0893" rx="1.1236" ry="1.11569" fill="white"/>
<ellipse cx="52.9994" cy="8.71817" rx="1.24845" ry="1.23965" fill="white"/>
<ellipse cx="52.9994" cy="56.0732" rx="1.24845" ry="1.23965" fill="white"/>
<path d="M52.998 8.96582V55.5768" stroke="white" stroke-width="2"/>
<path d="M146.195 47.6878V7.81426V7.56445C146.195 4.80303 148.434 2.56445 151.195 2.56445H185.646" stroke="white" stroke-width="2"/>
<ellipse cx="142.325" cy="2.68002" rx="1.37329" ry="1.36362" fill="white"/>
<ellipse cx="142.45" cy="53.8616" rx="1.49814" ry="1.48758" fill="white"/>
<path d="M142.325 3.15869L142.45 54.3564" stroke="white" stroke-width="2"/>
<ellipse cx="177.99" cy="6.86313" rx="1.37329" ry="1.36362" fill="white"/>
<ellipse cx="178.114" cy="58.0442" rx="1.49814" ry="1.48758" fill="white"/>
<path d="M177.989 7.34229L178.114 58.54" stroke="white" stroke-width="2"/>
<ellipse cx="186.021" cy="2.6893" rx="1.37329" ry="1.36362" fill="white"/>
<path d="M110.68 55.8223H109.997C107.236 55.8223 104.997 53.5838 104.997 50.8223V6.15945V6.15945C104.997 4.42348 106.2 2.87454 107.912 2.59109C108.015 2.57414 108.087 2.56445 108.118 2.56445C108.368 2.56445 134.585 2.56445 134.585 2.56445" stroke="white" stroke-width="2"/>
<ellipse cx="130.029" cy="7.93594" rx="1.24845" ry="1.23965" fill="white"/>
<ellipse cx="113.548" cy="7.93594" rx="1.24845" ry="1.23965" fill="white"/>
<path d="M114.296 7.93555L129.028 7.93555" stroke="white" stroke-width="2"/>
<path d="M126.95 32.4302H113.767C111.005 32.4302 108.767 34.6688 108.767 37.4302V46.1449C108.767 48.9063 111.005 51.1449 113.767 51.1449H134.976" stroke="white" stroke-width="2"/>
<ellipse cx="127.684" cy="32.4999" rx="1.24845" ry="1.23965" fill="white"/>
<ellipse cx="135.047" cy="51.2143" rx="1.24845" ry="1.23965" fill="white"/>
<rect x="100.015" y="7.80713" width="1.78108" height="46.7806" fill="#FAFAFA"/>
<ellipse cx="100.731" cy="7.3605" rx="1.48423" ry="1.47378" fill="#FAFAFA"/>
<ellipse cx="100.731" cy="54.1603" rx="1.48423" ry="1.47378" fill="#FAFAFA"/>
<path d="M109.061 8.45117V21.581C109.061 24.3425 111.299 26.581 114.061 26.581H123.491" stroke="white" stroke-width="2"/>
<ellipse cx="109.126" cy="8.057" rx="1.24845" ry="1.27722" fill="white"/>
<ellipse cx="123.267" cy="26.6888" rx="1.24845" ry="1.27722" fill="white"/>
<path d="M174.159 12.4819V46.6964" stroke="white" stroke-width="2"/>
<ellipse cx="170.7" cy="8.10098" rx="1.24845" ry="1.23965" fill="white"/>
<ellipse cx="151.223" cy="8.10147" rx="1.24845" ry="1.23965" fill="white"/>
<path d="M170.199 8.10059H151.223" stroke="white" stroke-width="2"/>
<path d="M26.1963 5.16211C53.0023 5.16217 53.3547 44.3389 26.5487 44.3389" stroke="#FAFAFA" stroke-width="2"/>
<path d="M26.2988 9.74365C46.3897 9.7437 47.3735 39.9797 27.2826 39.9797" stroke="#FAFAFA" stroke-width="2"/>
<path d="M21.4561 5.16211C-5.34997 5.16217 -5.70239 44.3389 21.1036 44.3389" stroke="#FAFAFA" stroke-width="2"/>
<path d="M20.8887 9.74365C1.33511 9.7437 0.370349 39.9797 19.9239 39.9797" stroke="#FAFAFA" stroke-width="2"/>
<path d="M21.2998 1.49707V33.5656" stroke="#FAFAFA" stroke-width="2"/>
<path d="M25.915 17.0732V56.4717" stroke="#FAFAFA" stroke-width="2"/>
<ellipse cx="21.2572" cy="1.82071" rx="1.24845" ry="1.23965" fill="white"/>
<ellipse cx="25.8695" cy="55.9706" rx="1.24845" ry="1.23965" fill="white"/>
<ellipse cx="19.7797" cy="39.9364" rx="1.24845" ry="1.23965" fill="white"/>
<ellipse cx="26.2397" cy="9.70059" rx="1.24845" ry="1.23965" fill="white"/>
</mask>
<g mask="url(#mask0)">
<path d="M-8 -15H199V76H-8V-15Z" fill="url(#paint0_linear)"/>
</g>
<defs>
<linearGradient id="paint0_linear" x1="36.194" y1="-0.50808" x2="143.428" y2="106.455" gradientUnits="userSpaceOnUse">
<stop stop-color="#00C0FF"/>
<stop offset="1" stop-color="#5581F1"/>
</linearGradient>
</defs>
</svg>
