<svg width="203" height="103" viewBox="0 0 203 103" fill="none" xmlns="http://www.w3.org/2000/svg">
<mask id="mask0" mask-type="alpha" maskUnits="userSpaceOnUse" x="0" y="0" width="203" height="96">
<path d="M80.0753 24.4631V24.4631C80.1516 24.3905 80.2183 24.3084 80.2737 24.2188L89.8174 8.77761C90.7284 7.30359 92.3377 6.40637 94.0705 6.40637H96.4717" stroke="white" stroke-width="2"/>
<path d="M124.798 60.0504H140.222" stroke="white" stroke-width="2"/>
<circle cx="124.257" cy="60.0515" r="1.35297" fill="white"/>
<circle cx="140.763" cy="60.0506" r="1.35297" fill="white"/>
<path d="M121.451 60.0482C121.451 60.7954 120.845 61.4011 120.098 61.4011C119.35 61.4011 118.745 60.7954 118.745 60.0482C118.745 59.3009 119.35 58.6952 120.098 58.6952C120.845 58.6952 121.451 59.3009 121.451 60.0482Z" fill="white"/>
<circle cx="188.522" cy="50.7366" r="1.48827" fill="white"/>
<circle cx="188.522" cy="12.3124" r="1.48827" fill="white"/>
<circle cx="158.216" cy="51.0068" r="1.48827" fill="white"/>
<circle cx="99.9034" cy="1.89399" r="1.35297" fill="white"/>
<circle cx="146.446" cy="2.16535" r="1.35297" fill="white"/>
<path d="M61.7498 28.4126H79.1598C80.8718 28.4126 82.4647 29.2885 83.3818 30.7341L97.0962 52.3516C97.6043 53.1526 97.8741 54.0816 97.8741 55.0301V60.7486" stroke="white" stroke-width="2"/>
<path d="M61.7498 24.3538H71.9564C73.6862 24.3538 75.293 23.4597 76.205 21.9899L87.2072 4.25823C88.1192 2.78844 89.7261 1.89441 91.4558 1.89441H99.3624" stroke="white" stroke-width="2"/>
<circle cx="61.7494" cy="57.9074" r="1.35297" fill="white"/>
<path d="M61.7498 1.35278V57.6365" stroke="white" stroke-width="2"/>
<circle cx="61.7493" cy="1.35297" r="1.35297" fill="white"/>
<circle cx="96.3723" cy="6.30604" r="1.35297" fill="white"/>
<circle cx="80.183" cy="24.1553" r="1.35297" fill="white"/>
<circle cx="97.8737" cy="61.0193" r="1.21768" fill="white"/>
<circle cx="92.3085" cy="58.7372" r="1.35297" fill="white"/>
<path d="M75.2614 33.1279H76.6787C78.4057 33.1279 80.0105 34.0192 80.9233 35.4853L91.5534 52.5595C92.0472 53.3525 92.3088 54.268 92.3088 55.2022V59.105" stroke="white" stroke-width="2"/>
<circle cx="75.0902" cy="33.2965" r="1.21768" fill="white"/>
<circle cx="57.353" cy="8.88093" r="1.35297" fill="white"/>
<circle cx="57.353" cy="60.5648" r="1.35297" fill="white"/>
<path d="M57.3528 9.15167V60.0235" stroke="white" stroke-width="2"/>
<path d="M158.352 51.4128V7.89426V7.16455C158.352 4.40313 160.591 2.16455 163.352 2.16455H201.106" stroke="white" stroke-width="2"/>
<circle cx="154.158" cy="2.29064" r="1.48827" fill="white"/>
<circle cx="154.293" cy="58.1504" r="1.62357" fill="white"/>
<path d="M154.158 2.81305L154.293 58.6908" stroke="white" stroke-width="2"/>
<circle cx="192.81" cy="6.85668" r="1.48827" fill="white"/>
<circle cx="192.945" cy="62.7165" r="1.62357" fill="white"/>
<path d="M192.81 7.37976L192.945 63.2575" stroke="white" stroke-width="2"/>
<circle cx="201.512" cy="2.30065" r="1.48827" fill="white"/>
<path d="M119.862 60.2909H118.704C115.942 60.2909 113.704 58.0523 113.704 55.2909V6.08817V6.08817C113.704 4.19289 115.015 2.49542 116.886 2.18984C116.985 2.17369 117.055 2.16455 117.086 2.16455C117.357 2.16455 145.769 2.16455 145.769 2.16455" stroke="white" stroke-width="2"/>
<circle cx="140.83" cy="8.0268" r="1.35297" fill="white"/>
<circle cx="122.97" cy="8.02698" r="1.35297" fill="white"/>
<path d="M123.782 8.02661L139.747 8.02661" stroke="white" stroke-width="2"/>
<path d="M137.494 34.7599H122.788C120.026 34.7599 117.788 36.9985 117.788 39.7599V50.1853C117.788 52.9468 120.026 55.1853 122.788 55.1853H146.192" stroke="white" stroke-width="2"/>
<circle cx="138.29" cy="34.8361" r="1.35297" fill="white"/>
<circle cx="146.269" cy="55.2615" r="1.35297" fill="white"/>
<rect x="108.302" y="7.88654" width="1.9302" height="51.057" fill="#FAFAFA"/>
<circle cx="109.08" cy="7.39909" r="1.6085" fill="#FAFAFA"/>
<circle cx="109.08" cy="58.477" r="1.6085" fill="#FAFAFA"/>
<path d="M118.106 8.58917V23.3763C118.106 26.1378 120.345 28.3763 123.106 28.3763H133.745" stroke="white" stroke-width="2"/>
<ellipse cx="118.179" cy="8.15911" rx="1.35297" ry="1.39397" fill="white"/>
<ellipse cx="133.502" cy="28.4941" rx="1.35297" ry="1.39397" fill="white"/>
<path d="M188.658 12.9886V50.3307" stroke="white" stroke-width="2"/>
<circle cx="184.907" cy="8.20685" r="1.35297" fill="white"/>
<circle cx="163.8" cy="8.20753" r="1.35297" fill="white"/>
<path d="M184.365 8.20667H163.8" stroke="white" stroke-width="2"/>
<path d="M28.306 5C57.3564 5.00007 57.7383 47.758 28.688 47.758" stroke="#FAFAFA" stroke-width="2"/>
<path d="M28.4182 10C50.1911 10.0001 51.2573 43 29.4843 43" stroke="#FAFAFA" stroke-width="2"/>
<path d="M23.1697 5C-5.88064 5.00007 -6.26257 47.758 22.7878 47.758" stroke="#FAFAFA" stroke-width="2"/>
<path d="M22.5541 10C1.36338 10.0001 0.317843 43 21.5085 43" stroke="#FAFAFA" stroke-width="2"/>
<path d="M23 1V36" stroke="#FAFAFA" stroke-width="2"/>
<path d="M28 18V61" stroke="#FAFAFA" stroke-width="2"/>
<circle cx="22.9529" cy="1.35297" r="1.35297" fill="white"/>
<circle cx="27.9529" cy="60.4529" r="1.35297" fill="white"/>
<circle cx="21.353" cy="42.9529" r="1.35297" fill="white"/>
<circle cx="28.353" cy="9.95295" r="1.35297" fill="white"/>
<path d="M21.0156 95H16.3281V72.25H21.0156V95ZM45.4544 74.2812H45.7356C47.5169 74.2812 49.1262 74.6771 50.5637 75.4688C52.0117 76.25 53.1367 77.3646 53.9387 78.8125C54.7408 80.2604 55.1419 81.9062 55.1419 83.75C55.1419 86.4792 54.2669 88.7083 52.5169 90.4375C50.7773 92.1667 48.4231 93.0312 45.4544 93.0312V95.9375H40.9387V93.0312H40.6419C38.8398 93.0312 37.2148 92.6458 35.7669 91.875C34.319 91.0938 33.194 90 32.3919 88.5938C31.6002 87.1875 31.2044 85.5833 31.2044 83.7812C31.2044 81.9583 31.6002 80.3281 32.3919 78.8906C33.1835 77.4531 34.2929 76.3333 35.72 75.5312C37.1471 74.7188 38.7408 74.3021 40.5012 74.2812H40.9387V71.3125H45.4544V74.2812ZM40.6419 78.1719C39.0898 78.1719 37.8658 78.6615 36.97 79.6406C36.0846 80.6198 35.6419 82 35.6419 83.7812C35.6419 85.4479 36.0846 86.7604 36.97 87.7188C37.8554 88.6667 39.1002 89.1406 40.7044 89.1406H40.9387V78.1719H40.6419ZM45.4544 78.1719V89.1406H45.7669C47.2981 89.1406 48.5012 88.6615 49.3762 87.7031C50.2617 86.7344 50.7044 85.4167 50.7044 83.75C50.7044 82.0104 50.2721 80.6458 49.4075 79.6562C48.5429 78.6667 47.3033 78.1719 45.6887 78.1719H45.4544ZM83.4556 95H78.7681V85.25H69.6275V95H64.94V72.25H69.6275V81.4688H78.7681V72.25H83.4556V95ZM110.941 76.0469H103.972V95H99.285V76.0469H92.41V72.25H110.941V76.0469ZM128.88 83L133.021 72.25H138.083L130.13 91.0156L129.489 92.25C128.312 94.3021 126.51 95.3281 124.083 95.3281L122.442 95.2656L122.396 91.5C122.646 91.5417 123.052 91.5625 123.614 91.5625C124.271 91.5625 124.797 91.4479 125.192 91.2188C125.599 90.9896 125.937 90.5677 126.208 89.9531L126.786 88.4688L118.802 72.25H123.849L128.88 83ZM165.803 95H161.116V85.25H151.975V95H147.288V72.25H151.975V81.4688H161.116V72.25H165.803V95ZM191.554 76.0469H181.351V95H176.664V72.25H191.554V76.0469Z" fill="black"/>
</mask>
<g mask="url(#mask0)">
<path d="M-3 -20H209V106H-3V-20Z" fill="url(#paint0_linear)"/>
</g>
<defs>
<linearGradient id="paint0_linear" x1="42.2615" y1="0.065736" x2="184.13" y2="104.737" gradientUnits="userSpaceOnUse">
<stop stop-color="#00C0FF"/>
<stop offset="1" stop-color="#5581F1"/>
</linearGradient>
</defs>
</svg>
