<svg width="203" height="65" viewBox="0 0 203 65" fill="none" xmlns="http://www.w3.org/2000/svg">
<mask id="mask0" mask-type="alpha" maskUnits="userSpaceOnUse" x="0" y="0" width="203" height="65">
<path d="M80.0753 24.4631V24.4631C80.1516 24.3904 80.2183 24.3083 80.2737 24.2187L89.8174 8.77758C90.7284 7.30356 92.3377 6.40634 94.0705 6.40634H96.4717" stroke="white" stroke-width="2"/>
<path d="M124.798 60.0504H140.222" stroke="white" stroke-width="2"/>
<circle cx="124.257" cy="60.0515" r="1.35297" fill="white"/>
<circle cx="140.763" cy="60.0506" r="1.35297" fill="white"/>
<path d="M121.451 60.0481C121.451 60.7953 120.845 61.4011 120.098 61.4011C119.35 61.4011 118.745 60.7953 118.745 60.0481C118.745 59.3009 119.35 58.6951 120.098 58.6951C120.845 58.6951 121.451 59.3009 121.451 60.0481Z" fill="white"/>
<circle cx="188.522" cy="50.7366" r="1.48827" fill="white"/>
<circle cx="188.522" cy="12.3123" r="1.48827" fill="white"/>
<circle cx="158.216" cy="51.0068" r="1.48827" fill="white"/>
<circle cx="99.9034" cy="1.89393" r="1.35297" fill="white"/>
<circle cx="146.446" cy="2.16535" r="1.35297" fill="white"/>
<path d="M61.7498 28.4126H79.1598C80.8718 28.4126 82.4647 29.2885 83.3818 30.7341L97.0962 52.3516C97.6043 53.1526 97.8741 54.0816 97.8741 55.0301V60.7486" stroke="white" stroke-width="2"/>
<path d="M61.7498 24.3537H71.9564C73.6862 24.3537 75.293 23.4597 76.205 21.9899L87.2072 4.25817C88.1192 2.78838 89.7261 1.89435 91.4558 1.89435H99.3624" stroke="white" stroke-width="2"/>
<circle cx="61.7494" cy="57.9074" r="1.35297" fill="white"/>
<path d="M61.7498 1.35272V57.6364" stroke="white" stroke-width="2"/>
<circle cx="61.7493" cy="1.35294" r="1.35297" fill="white"/>
<circle cx="96.3723" cy="6.30601" r="1.35297" fill="white"/>
<circle cx="80.183" cy="24.1553" r="1.35297" fill="white"/>
<circle cx="97.8737" cy="61.0192" r="1.21768" fill="white"/>
<circle cx="92.3085" cy="58.7372" r="1.35297" fill="white"/>
<path d="M75.2614 33.1279H76.6787C78.4057 33.1279 80.0105 34.0192 80.9233 35.4853L91.5534 52.5595C92.0472 53.3525 92.3088 54.268 92.3088 55.2021V59.105" stroke="white" stroke-width="2"/>
<circle cx="75.0902" cy="33.2965" r="1.21768" fill="white"/>
<circle cx="57.353" cy="8.88087" r="1.35297" fill="white"/>
<circle cx="57.353" cy="60.5647" r="1.35297" fill="white"/>
<path d="M57.3528 9.15161V60.0234" stroke="white" stroke-width="2"/>
<path d="M158.352 51.4128V7.89426V7.16455C158.352 4.40313 160.591 2.16455 163.352 2.16455H201.106" stroke="white" stroke-width="2"/>
<circle cx="154.158" cy="2.29061" r="1.48827" fill="white"/>
<circle cx="154.293" cy="58.1504" r="1.62357" fill="white"/>
<path d="M154.158 2.81299L154.293 58.6908" stroke="white" stroke-width="2"/>
<circle cx="192.81" cy="6.85662" r="1.48827" fill="white"/>
<circle cx="192.945" cy="62.7164" r="1.62357" fill="white"/>
<path d="M192.81 7.3797L192.945 63.2575" stroke="white" stroke-width="2"/>
<circle cx="201.512" cy="2.30065" r="1.48827" fill="white"/>
<path d="M119.862 60.2909H118.704C115.942 60.2909 113.704 58.0523 113.704 55.2909V6.08817V6.08817C113.704 4.19289 115.015 2.49542 116.886 2.18984C116.985 2.17369 117.055 2.16455 117.086 2.16455C117.357 2.16455 145.769 2.16455 145.769 2.16455" stroke="white" stroke-width="2"/>
<circle cx="140.83" cy="8.02677" r="1.35297" fill="white"/>
<circle cx="122.97" cy="8.02695" r="1.35297" fill="white"/>
<path d="M123.782 8.02658L139.747 8.02658" stroke="white" stroke-width="2"/>
<path d="M137.494 34.7599H122.788C120.026 34.7599 117.788 36.9985 117.788 39.7599V50.1853C117.788 52.9468 120.026 55.1853 122.788 55.1853H146.192" stroke="white" stroke-width="2"/>
<circle cx="138.29" cy="34.8361" r="1.35297" fill="white"/>
<circle cx="146.269" cy="55.2615" r="1.35297" fill="white"/>
<rect x="108.302" y="7.88657" width="1.9302" height="51.057" fill="#FAFAFA"/>
<circle cx="109.08" cy="7.39909" r="1.6085" fill="#FAFAFA"/>
<circle cx="109.08" cy="58.477" r="1.6085" fill="#FAFAFA"/>
<path d="M118.106 8.58917V23.3763C118.106 26.1378 120.345 28.3763 123.106 28.3763H133.745" stroke="white" stroke-width="2"/>
<ellipse cx="118.179" cy="8.15908" rx="1.35297" ry="1.39397" fill="white"/>
<ellipse cx="133.502" cy="28.4941" rx="1.35297" ry="1.39397" fill="white"/>
<path d="M188.658 12.9886V50.3306" stroke="white" stroke-width="2"/>
<circle cx="184.907" cy="8.20685" r="1.35297" fill="white"/>
<circle cx="163.8" cy="8.20753" r="1.35297" fill="white"/>
<path d="M184.365 8.20667H163.8" stroke="white" stroke-width="2"/>
<path d="M28.306 5C57.3564 5.00007 57.7383 47.758 28.688 47.758" stroke="#FAFAFA" stroke-width="2"/>
<path d="M28.4182 10C50.1911 10.0001 51.2573 43 29.4844 43" stroke="#FAFAFA" stroke-width="2"/>
<path d="M23.1697 5C-5.88067 5.00007 -6.2626 47.758 22.7878 47.758" stroke="#FAFAFA" stroke-width="2"/>
<path d="M22.5541 10C1.36341 10.0001 0.317874 43 21.5086 43" stroke="#FAFAFA" stroke-width="2"/>
<path d="M23 1V36" stroke="#FAFAFA" stroke-width="2"/>
<path d="M28 18V61" stroke="#FAFAFA" stroke-width="2"/>
<circle cx="22.953" cy="1.35297" r="1.35297" fill="white"/>
<circle cx="27.953" cy="60.453" r="1.35297" fill="white"/>
<circle cx="21.353" cy="42.953" r="1.35297" fill="white"/>
<circle cx="28.353" cy="9.95298" r="1.35297" fill="white"/>
</mask>
<g mask="url(#mask0)">
<path d="M-3 -20H209V77H-3V-20Z" fill="url(#paint0_linear)"/>
</g>
<defs>
<linearGradient id="paint0_linear" x1="42.2615" y1="-4.55257" x2="156.463" y2="104.896" gradientUnits="userSpaceOnUse">
<stop stop-color="#00C0FF"/>
<stop offset="1" stop-color="#5581F1"/>
</linearGradient>
</defs>
</svg>
