<svg width="26" height="26" viewBox="0 0 26 26" fill="none" xmlns="http://www.w3.org/2000/svg">
<path d="M2.1665 17.3333C2.1665 17.046 2.28064 16.7705 2.4838 16.5673C2.68697 16.3641 2.96252 16.25 3.24984 16.25H11.9165C12.2038 16.25 12.4794 16.3641 12.6825 16.5673C12.8857 16.7705 12.9998 17.046 12.9998 17.3333C12.9998 17.8826 13.1732 18.7298 13.6618 19.409C14.1113 20.0308 14.8697 20.5833 16.2498 20.5833C16.5372 20.5833 16.8127 20.6975 17.0159 20.9006C17.219 21.1038 17.3332 21.3793 17.3332 21.6667C17.3332 21.954 17.219 22.2295 17.0159 22.4327C16.8127 22.6359 16.5372 22.75 16.2498 22.75H6.49984C4.84667 22.75 3.70917 22.0372 3.02017 21.0817C2.47234 20.3003 2.17466 19.3709 2.1665 18.4167V17.3333ZM11.8407 20.5833C11.3981 19.9293 11.0929 19.1922 10.9437 18.4167H4.33317C4.33317 18.785 4.45234 19.3613 4.7795 19.8142C5.0655 20.2128 5.553 20.5833 6.49984 20.5833H11.8407Z" fill="#5581F1"/>
<path d="M7.58301 5.41667C7.29569 5.41667 7.02014 5.5308 6.81698 5.73397C6.61381 5.93713 6.49967 6.21268 6.49967 6.5V17.3333C6.49967 17.6207 6.38554 17.8962 6.18237 18.0994C5.97921 18.3025 5.70366 18.4167 5.41634 18.4167C5.12902 18.4167 4.85347 18.3025 4.65031 18.0994C4.44714 17.8962 4.33301 17.6207 4.33301 17.3333V6.5C4.33301 5.63805 4.67542 4.8114 5.28491 4.2019C5.8944 3.59241 6.72105 3.25 7.58301 3.25H19.4997C19.787 3.25 20.0625 3.36414 20.2657 3.5673C20.4689 3.77047 20.583 4.04602 20.583 4.33333V18.4167C20.583 19.1317 20.3772 20.1803 19.7293 21.0817C19.0403 22.0361 17.9028 22.75 16.2497 22.75C15.9624 22.75 15.6868 22.6359 15.4836 22.4327C15.2805 22.2295 15.1663 21.954 15.1663 21.6667C15.1663 21.3793 15.2805 21.1038 15.4836 20.9006C15.6868 20.6975 15.9624 20.5833 16.2497 20.5833C17.1965 20.5833 17.684 20.2128 17.97 19.8142C18.2972 19.3613 18.4163 18.785 18.4163 18.4167V5.41667H7.58301Z" fill="#5581F1"/>
<path d="M18.4165 4.33333C18.4165 4.04602 18.5306 3.77047 18.7338 3.5673C18.937 3.36414 19.2125 3.25 19.4998 3.25C20.2148 3.25 21.2635 3.45583 22.1648 4.10367C23.1193 4.79267 23.8332 5.93017 23.8332 7.58333C23.8332 9.2365 23.1203 10.374 22.1648 11.0619C21.3836 11.6101 20.4542 11.9082 19.4998 11.9167C19.2125 11.9167 18.937 11.8025 18.7338 11.5994C18.5306 11.3962 18.4165 11.1207 18.4165 10.8333C18.4165 10.546 18.5306 10.2705 18.7338 10.0673C18.937 9.86414 19.2125 9.75 19.4998 9.75C19.8682 9.75 20.4445 9.63083 20.8973 9.30367C21.296 9.01767 21.6665 8.53017 21.6665 7.58333C21.6665 6.6365 21.296 6.149 20.8973 5.863C20.4853 5.58061 19.9993 5.42541 19.4998 5.41667C19.2125 5.41667 18.937 5.30253 18.7338 5.09937C18.5306 4.8962 18.4165 4.62065 18.4165 4.33333Z" fill="#5581F1"/>
</svg>
