<svg width="25" height="24" viewBox="0 0 25 24" fill="none" xmlns="http://www.w3.org/2000/svg">
<path d="M20.7032 3H4.29692C3.07608 3 2.08337 3.897 2.08337 5V19C2.08337 20.103 3.07608 21 4.29692 21H20.7032C21.924 21 22.9167 20.103 22.9167 19V5C22.9167 3.897 21.924 3 20.7032 3ZM20.7032 19H4.29692C4.23754 19 4.19692 18.984 4.17921 18.984C4.17192 18.984 4.16775 18.986 4.16671 18.992L4.15421 5.046C4.1615 5.036 4.20837 5 4.29692 5H20.7032C20.7855 5.001 20.8303 5.028 20.8334 5.008L20.8459 18.954C20.8386 18.964 20.7917 19 20.7032 19Z" fill="black"/>
<path d="M6.25 7H12.5V13H6.25V7ZM13.5417 15H6.25V17H18.75V15H14.5833H13.5417ZM14.5833 11H18.75V13H14.5833V11ZM14.5833 7H18.75V9H14.5833V7Z" fill="black"/>
</svg>
