<svg width="22" height="22" viewBox="0 0 22 22" fill="none" xmlns="http://www.w3.org/2000/svg">
<path d="M11 9.625H12.375V11H11V9.625Z" fill="#242424"/>
<path d="M13.75 9.625H15.125V11H13.75V9.625Z" fill="#242424"/>
<path d="M16.5 9.625H17.875V11H16.5V9.625Z" fill="#242424"/>
<path d="M11 12.375H12.375V13.75H11V12.375Z" fill="#242424"/>
<path d="M13.75 12.375H15.125V13.75H13.75V12.375Z" fill="#242424"/>
<path d="M16.5 12.375H17.875V13.75H16.5V12.375Z" fill="#242424"/>
<path d="M11 15.125H12.375V16.5H11V15.125Z" fill="#242424"/>
<path d="M13.75 15.125H15.125V16.5H13.75V15.125Z" fill="#242424"/>
<path d="M16.5 15.125H17.875V16.5H16.5V15.125Z" fill="#242424"/>
<path d="M11 6.875H17.875V8.25H11V6.875Z" fill="#242424"/>
<path d="M19.25 4.125H9.625V3.4375C9.62464 3.07294 9.47965 2.72341 9.22187 2.46563C8.96409 2.20785 8.61456 2.06286 8.25 2.0625H5.5C5.13544 2.06286 4.78591 2.20785 4.52813 2.46563C4.27035 2.72341 4.12536 3.07294 4.125 3.4375V4.125H2.75C2.38544 4.12536 2.03591 4.27035 1.77813 4.52813C1.52035 4.78591 1.37536 5.13544 1.375 5.5V17.875C1.37536 18.2396 1.52035 18.5891 1.77813 18.8469C2.03591 19.1047 2.38544 19.2496 2.75 19.25H19.25C19.6146 19.2496 19.9641 19.1047 20.2219 18.8469C20.4797 18.5891 20.6246 18.2396 20.625 17.875V5.5C20.6246 5.13544 20.4797 4.78591 20.2219 4.52813C19.9641 4.27035 19.6146 4.12536 19.25 4.125V4.125ZM5.5 3.4375H8.25V15.125H5.5V3.4375ZM19.25 17.875H2.75V5.5H4.125V15.125C4.12536 15.4896 4.27035 15.8391 4.52813 16.0969C4.78591 16.3547 5.13544 16.4996 5.5 16.5H8.25C8.61456 16.4996 8.96409 16.3547 9.22187 16.0969C9.47965 15.8391 9.62464 15.4896 9.625 15.125V5.5H19.25V17.875Z" fill="#242424"/>
</svg>
