<svg width="22" height="22" viewBox="0 0 22 22" fill="none" xmlns="http://www.w3.org/2000/svg">
<path d="M14.4375 9.625H18.5625C18.927 9.62459 19.2765 9.47959 19.5343 9.22182C19.7921 8.96405 19.9371 8.61455 19.9375 8.25V4.125C19.9371 3.76045 19.7921 3.41095 19.5343 3.15318C19.2765 2.89541 18.927 2.75041 18.5625 2.75H14.4375C14.073 2.75041 13.7235 2.89541 13.4657 3.15318C13.2079 3.41095 13.0629 3.76045 13.0625 4.125V5.5H12.375C11.6459 5.50082 10.9469 5.79081 10.4314 6.30636C9.91581 6.82191 9.62582 7.52091 9.625 8.25V10.3125H7.5625V9.28125C7.56209 8.9167 7.41709 8.5672 7.15932 8.30943C6.90155 8.05166 6.55205 7.90666 6.1875 7.90625H2.75C2.38545 7.90666 2.03595 8.05166 1.77818 8.30943C1.52041 8.5672 1.37541 8.9167 1.375 9.28125V12.7188C1.37541 13.0833 1.52041 13.4328 1.77818 13.6906C2.03595 13.9483 2.38545 14.0933 2.75 14.0938H6.1875C6.55205 14.0933 6.90155 13.9483 7.15932 13.6906C7.41709 13.4328 7.56209 13.0833 7.5625 12.7188V11.6875H9.625V13.75C9.62582 14.4791 9.91581 15.1781 10.4314 15.6936C10.9469 16.2092 11.6459 16.4992 12.375 16.5H13.0625V17.875C13.0629 18.2395 13.2079 18.589 13.4657 18.8468C13.7235 19.1046 14.073 19.2496 14.4375 19.25H18.5625C18.927 19.2496 19.2765 19.1046 19.5343 18.8468C19.7921 18.589 19.9371 18.2395 19.9375 17.875V13.75C19.9371 13.3855 19.7921 13.036 19.5343 12.7782C19.2765 12.5204 18.927 12.3754 18.5625 12.375H14.4375C14.073 12.3754 13.7235 12.5204 13.4657 12.7782C13.2079 13.036 13.0629 13.3855 13.0625 13.75V15.125H12.375C12.0105 15.1246 11.661 14.9796 11.4032 14.7218C11.1454 14.464 11.0004 14.1145 11 13.75V8.25C11.0004 7.88545 11.1454 7.53595 11.4032 7.27818C11.661 7.02041 12.0105 6.87541 12.375 6.875H13.0625V8.25C13.0629 8.61455 13.2079 8.96405 13.4657 9.22182C13.7235 9.47959 14.073 9.62459 14.4375 9.625ZM6.1875 12.7188H2.75V9.28125H6.1875L6.18793 10.9918C6.18793 10.9945 6.1875 10.9973 6.1875 11C6.1875 11.0028 6.18793 11.0055 6.18793 11.0083L6.1875 12.7188ZM14.4375 13.75H18.5625L18.5634 17.875H14.4375V13.75ZM14.4375 4.125H18.5625L18.5634 8.25H14.4375V4.125Z" fill="#101010"/>
</svg>
