<svg xmlns="http://www.w3.org/2000/svg" viewBox="0 0 255 89">
  <g fill="#f24e5e">
    <path d="M120.9 36h-3v-2.6h-9.7v-12h3.7v9h4v-9h3.7v9.2h1.3V36zM122.5 21.4h9.9V24h-6.2v1.9h5.7v2.4h-5.7v2.4h6.4v2.7h-10v-12zM134.6 21.4h3.7v4.2h4v-4.2h3.7v11.9h-3.7v-4.8h-4v4.8h-3.7V21.4zM147.6 21.4h11.2v3H155v9h-3.7v-9h-3.8v-3zM160.4 21.4h6.1c1.3 0 2.3.3 3 1 .7.6 1 1.5 1 2.7 0 1.2-.4 2.1-1.1 2.8-.7.7-1.8 1-3.3 1h-2v4.4h-3.7V21.4zm3.7 5.1h.9c.7 0 1.2-.1 1.5-.4.3-.2.4-.6.4-.9 0-.4-.1-.7-.4-1-.2-.3-.7-.4-1.4-.4h-1v2.7z">
    </path>
  </g>
  <g fill="#6d6e71">
    <path d="M108.2 45.8c0-2 .5-3.5 1.6-4.6 1.1-1.1 2.6-1.6 4.5-1.6 2 0 3.5.5 4.6 1.6 1.1 1.1 1.6 2.6 1.6 4.5 0 1.4-.2 2.5-.7 3.4-.5.9-1.1 1.6-2 2.1-.9.5-2 .7-3.3.7-1.3 0-2.5-.2-3.3-.6-.9-.4-1.6-1.1-2.1-2-.6-.9-.9-2.1-.9-3.5zm3.7 0c0 1.2.2 2.1.7 2.6.4.5 1.1.8 1.8.8.8 0 1.4-.3 1.8-.8.4-.5.7-1.4.7-2.8 0-1.1-.2-1.9-.7-2.5-.5-.5-1.1-.8-1.8-.8s-1.3.3-1.8.8c-.5.6-.7 1.5-.7 2.7zM135.2 54.4h-3v-2.6h-9.7v-12h3.7v9h4v-9h3.7V49h1.3v5.4zM137 39.8h3.7v11.9H137V39.8zM143.4 39.8h3.7V44h4v-4.2h3.7v11.9h-3.7v-4.8h-4v4.8h-3.7V39.8zM162.3 44c.3-1.4 1-2.5 2-3.3 1-.7 2.3-1.1 3.9-1.1 2 0 3.5.5 4.6 1.6 1.1 1.1 1.6 2.6 1.6 4.5 0 2-.5 3.6-1.6 4.6-1.1 1.1-2.5 1.6-4.5 1.6s-3.5-.5-4.5-1.4c-1-1-1.6-2.2-1.7-3.6h-1.3v4.8h-3.7V39.8h3.7V44h1.5zm6 5.2c.8 0 1.4-.3 1.9-.8.4-.5.6-1.4.6-2.8 0-2.2-.8-3.3-2.5-3.3-1.6 0-2.5 1.1-2.5 3.4 0 2.4.8 3.5 2.5 3.5zM176.5 39.8h6.9c1.1 0 2 .3 2.6.9.6.6.9 1.3.9 2.1 0 .7-.2 1.3-.7 1.8-.3.3-.7.6-1.3.8.9.2 1.5.6 1.9 1.1.4.5.6 1.1.6 1.9 0 .6-.1 1.2-.4 1.7-.3.5-.7.9-1.2 1.2-.3.2-.8.3-1.4.4-.8.1-1.4.2-1.6.2h-6.4V39.8zm3.7 4.7h1.6c.6 0 1-.1 1.2-.3.2-.2.3-.5.3-.9 0-.3-.1-.6-.3-.8-.2-.2-.6-.3-1.2-.3h-1.6v2.3zm0 4.7h1.9c.6 0 1.1-.1 1.3-.3.3-.2.4-.5.4-.9s-.1-.6-.4-.9c-.3-.2-.7-.3-1.4-.3h-1.9v2.4zM196.7 49.8h-4.2l-.6 2h-3.8l4.5-11.9h4l4.5 11.9h-3.9l-.5-2zm-.7-2.6l-1.3-4.3-1.3 4.3h2.6zM202.4 39.8h3.7V44h4v-4.2h3.7v11.9h-3.7v-4.8h-4v4.8h-3.7V39.8zM216.2 39.8h3.7V44h4v-4.2h3.7v11.9h-3.7v-4.8h-4v4.8h-3.7V39.8zM236.9 51.8V47h-.3c-.3 0-.6.1-.9.3-.2.1-.4.4-.7.9l-2 3.7h-4.2l1.8-3.5c.1-.2.3-.4.5-.7l.6-.6c.2-.1.5-.3 1-.4-.5-.1-1-.3-1.3-.5-.5-.3-.9-.7-1.2-1.2-.3-.5-.4-1.1-.4-1.7 0-.8.2-1.4.6-1.9.4-.5.9-.9 1.5-1.1.6-.2 1.5-.3 2.6-.3h6.1v11.9h-3.7zm0-9.6h-1.6c-.7 0-1.1.1-1.4.3-.2.2-.4.5-.4.9 0 .3.1.5.2.7.2.2.4.3.6.4.5.1.8.2 1 .2h1.6v-2.5z">
    </path>
  </g>
  <path fill="#f24e5e" d="M36.9 21.2L0 3v12.3l36.9 18.3s21.6-18.4 61.2-18.4V3C58.5 3 36.9 21.2 36.9 21.2z">
  </path>
  <path fill="#6d6e71" d="M43.1 67.3s19.2-15.4 55.1-15.4v-3c-35.9 0-55.1 15.3-55.1 15.3v3.1z">
  </path>
  <path fill="#6d6e71" d="M37 76.7L12.3 64.2V39.8L36.9 52s21.7-18.5 61.2-18.5V21.3c-39.5 0-61.2 18.4-61.2 18.4L.1 21.3v49l37 18.7s21.5-18.7 61.1-18.7V58.1C58.6 58.1 37 76.7 37 76.7z">
  </path>
  <path fill="#6d6e71" d="M98.2 39.7C62.3 39.7 43.1 55 43.1 55v3.1s19.3-15.3 55.1-15.3v-3.1z">
  </path>
  <g fill="#f24e5e">
    <path d="M108.2 2.9h4l1.6 4.9 1.6-4.9h3.7l-3.9 9.2c-.3.7-.6 1.3-.8 1.7-.2.4-.6.7-1.1.9-.5.2-1.1.4-1.9.4-.4 0-1.2-.1-2.2-.2v-2.5c.6.1 1.1.1 1.4.1.8 0 1.4-.3 1.6-1l-4-8.6zM131.4 14.9h-4.1l-1.4-3.1c-.3-.7-.6-1.2-.8-1.4-.2-.2-.5-.3-.8-.3v4.7h-3.7V2.9h3.7v4.6c.3 0 .6-.1.7-.3.2-.2.5-.8.8-1.8.3-.7.6-1.3.8-1.6.3-.3.7-.6 1.4-.7.6-.1 1.6-.2 3-.2v2.5h-.2c-.6 0-1.1.1-1.4.4-.3.2-.6.6-.7 1.2-.2.5-.4.9-.6 1.2-.2.3-.5.5-.9.6.5.2 1 .5 1.4.9.4.4.8 1.1 1.3 2l1.5 3.2zM132.7 2.9h6.1c1.3 0 2.3.3 3 1 .7.6 1 1.5 1 2.7 0 1.2-.4 2.1-1.1 2.8-.7.7-1.8 1-3.3 1h-2v4.4h-3.7V2.9zm3.7 5.1h.9c.7 0 1.2-.1 1.5-.4.3-.2.4-.6.4-.9 0-.4-.1-.7-.4-1-.2-.3-.7-.4-1.4-.4h-1V8zM152 12.9h-4.2l-.6 2h-3.8l4.6-12h4l4.5 11.9h-3.9l-.6-1.9zm-.8-2.6L149.9 6l-1.3 4.3h2.6zM156.9.1h2.1v2h-2.1v-2zm.9 2.8h3.7v11.9h-3.7V2.9zm2.5-2.8h2.1v2h-2.1v-2zM164.1 2.9h3.7v4.2h4V2.9h3.7v11.9h-3.7V10h-4v4.8h-3.7V2.9zM185.9 10l3.2 1c-.2.9-.6 1.7-1 2.3-.5.6-1 1.1-1.7 1.4-.7.3-1.6.5-2.6.5-1.3 0-2.4-.2-3.2-.6-.8-.4-1.5-1-2.1-2-.6-1-.9-2.2-.9-3.6 0-2 .5-3.5 1.6-4.6 1-1.1 2.5-1.6 4.4-1.6 1.5 0 2.7.3 3.5.9.9.6 1.5 1.5 1.9 2.8l-3.2.7c-.1-.4-.2-.6-.4-.8-.2-.3-.5-.5-.8-.7-.3-.2-.6-.2-1-.2-.8 0-1.5.3-1.9 1-.3.5-.5 1.3-.5 2.4 0 1.3.2 2.2.6 2.7.4.5 1 .7 1.7.7s1.2-.2 1.6-.6c.4-.4.6-.9.8-1.7zM194.6 7.5h2c1.8 0 3.1.3 4 1 .9.6 1.3 1.6 1.3 3 0 1.1-.4 1.9-1.2 2.5-.8.6-1.9.9-3.4.9H191v-12h3.7v4.6zm0 4.8h1.9c1.2 0 1.7-.4 1.7-1.3 0-.7-.6-1.1-1.7-1.1h-1.9v2.4zM214.6 14.9h-4.1l-1.4-3.1c-.3-.7-.6-1.2-.8-1.4-.2-.2-.5-.3-.8-.3v4.7h-3.7V2.9h3.7v4.6c.3 0 .6-.1.7-.3.2-.2.5-.8.8-1.8.3-.7.6-1.3.8-1.6.3-.3.7-.6 1.4-.7.6-.1 1.6-.2 3-.2v2.5h-.2c-.6 0-1.1.1-1.4.4-.3.2-.6.6-.7 1.2-.2.5-.4.9-.6 1.2-.2.3-.5.5-.9.6.5.2 1 .5 1.4.9.4.4.8 1.1 1.3 2l1.5 3.2zM227.3 2.9v11.9h-3.5V8.3l-4.5 6.6h-3.5v-12h3.5v6.6l4.5-6.6h3.5zM241.2 2.9v11.9h-3.5V8.3l-4.5 6.6h-3.5v-12h3.5v6.6l4.5-6.6h3.5zM238.5 0c-.1.7-.4 1.2-1 1.7-.5.4-1.2.6-1.9.6s-1.4-.2-1.9-.6c-.5-.4-.9-1-1-1.7h1.4c.2.7.7 1 1.5 1s1.3-.3 1.6-1h1.3z">
    </path>
  </g>
  <g fill="#6d6e71">
    <path d="M116.3 70.2v-4.8h-.3c-.3 0-.6.1-.9.3-.2.1-.4.4-.7.9l-2 3.7h-4.2l1.8-3.5c.1-.2.3-.4.5-.7l.6-.6c.2-.1.5-.3 1-.4-.5-.1-1-.3-1.3-.5-.5-.3-.9-.7-1.2-1.2-.3-.5-.4-1.1-.4-1.7 0-.8.2-1.4.6-1.9.4-.5.9-.9 1.5-1.1.6-.2 1.5-.3 2.6-.3h6.1v11.9h-3.7zm0-9.6h-1.6c-.7 0-1.1.1-1.4.3-.2.2-.4.5-.4.9 0 .3.1.5.2.7.2.2.4.3.6.4.5.1.8.2 1 .2h1.6v-2.5zM133.2 70.2h-4.1l-1.4-3.1c-.3-.7-.6-1.2-.8-1.4-.2-.2-.5-.3-.8-.3v4.7h-3.7V58.2h3.7v4.6c.3 0 .6-.1.7-.3.2-.2.5-.8.8-1.8.3-.7.6-1.3.8-1.6.3-.3.7-.6 1.4-.7.6-.1 1.6-.2 3-.2v2.5h-.2c-.6 0-1.1.1-1.4.4-.3.2-.6.6-.7 1.2-.2.5-.4.9-.6 1.2-.2.3-.5.5-.9.6.5.2 1 .5 1.4.9.4.4.8 1.1 1.3 2l1.5 3.2zM134.1 64.2c0-2 .5-3.5 1.6-4.6 1.1-1.1 2.6-1.6 4.5-1.6 2 0 3.5.5 4.6 1.6 1.1 1.1 1.6 2.6 1.6 4.5 0 1.4-.2 2.5-.7 3.4-.5.9-1.1 1.6-2 2.1-.9.5-2 .7-3.3.7-1.3 0-2.5-.2-3.3-.6-.9-.4-1.6-1.1-2.1-2-.6-.9-.9-2.1-.9-3.5zm3.7 0c0 1.2.2 2.1.7 2.6.4.5 1.1.8 1.8.8.8 0 1.4-.3 1.8-.8.4-.5.7-1.4.7-2.8 0-1.1-.2-1.9-.7-2.5-.5-.5-1.1-.8-1.8-.8s-1.3.3-1.8.8c-.5.6-.7 1.5-.7 2.7zM156.3 65.3l3.2 1c-.2.9-.6 1.7-1 2.3-.5.6-1 1.1-1.7 1.4-.7.3-1.6.5-2.6.5-1.3 0-2.4-.2-3.2-.6-.8-.4-1.5-1-2.1-2-.6-.9-.9-2.2-.9-3.6 0-2 .5-3.5 1.6-4.6 1-1.1 2.5-1.6 4.4-1.6 1.5 0 2.7.3 3.5.9.9.6 1.5 1.5 1.9 2.8l-3.2.7c-.1-.4-.2-.6-.4-.8-.2-.3-.5-.5-.8-.7-.3-.2-.6-.2-1-.2-.8 0-1.5.3-1.9 1-.3.5-.5 1.3-.5 2.4 0 1.3.2 2.2.6 2.7.4.5 1 .7 1.7.7s1.2-.2 1.6-.6c.4-.4.7-1 .8-1.7zM160.5 58.2h11.2v3h-3.8v9h-3.7v-9h-3.8v-3zM173.5 58.2h3.7v11.9h-3.7V58.2zM184.9 64.2c0-2 .5-3.5 1.6-4.6 1.1-1.1 2.6-1.6 4.5-1.6 2 0 3.5.5 4.6 1.6 1.1 1.1 1.6 2.6 1.6 4.5 0 1.4-.2 2.5-.7 3.4-.5.9-1.1 1.6-2 2.1-.9.5-2 .7-3.3.7-1.3 0-2.5-.2-3.3-.6-.9-.4-1.6-1.1-2.1-2-.6-.9-.9-2.1-.9-3.5zm3.7 0c0 1.2.2 2.1.7 2.6.4.5 1.1.8 1.8.8.8 0 1.4-.3 1.8-.8.4-.5.7-1.4.7-2.8 0-1.1-.2-1.9-.7-2.5-.5-.5-1.1-.8-1.8-.8s-1.3.3-1.8.8c-.5.6-.7 1.5-.7 2.7zM207.2 65.3l3.2 1c-.2.9-.6 1.7-1 2.3-.5.6-1 1.1-1.7 1.4-.7.3-1.6.5-2.6.5-1.3 0-2.4-.2-3.2-.6-.8-.4-1.5-1-2.1-2-.6-.9-.9-2.2-.9-3.6 0-2 .5-3.5 1.6-4.6 1-1.1 2.5-1.6 4.4-1.6 1.5 0 2.7.3 3.5.9.9.6 1.5 1.5 1.9 2.8l-3.2.7c-.1-.4-.2-.6-.4-.8-.2-.3-.5-.5-.8-.7-.3-.2-.6-.2-1-.2-.8 0-1.5.3-1.9 1-.3.5-.5 1.3-.5 2.4 0 1.3.2 2.2.6 2.7.4.5 1 .7 1.7.7s1.2-.2 1.6-.6c.3-.4.6-1 .8-1.7zM212.2 58.2h6.9c1.1 0 2 .3 2.6.9.6.6.9 1.3.9 2.1 0 .7-.2 1.3-.7 1.8-.3.3-.7.6-1.3.8.9.2 1.5.6 1.9 1.1.4.5.6 1.1.6 1.9 0 .6-.1 1.2-.4 1.7-.3.5-.7.9-1.2 1.2-.3.2-.8.3-1.4.4-.8.1-1.4.2-1.6.2h-6.4V58.2zm3.7 4.7h1.6c.6 0 1-.1 1.2-.3.2-.2.3-.5.3-.9 0-.3-.1-.6-.3-.8-.2-.2-.6-.3-1.2-.3h-1.6v2.3zm0 4.7h1.9c.6 0 1.1-.1 1.3-.3.3-.2.4-.5.4-.9s-.1-.6-.4-.9c-.3-.2-.7-.3-1.4-.3h-1.9v2.4zM225.3 58.2h3.7v11.9h-3.7V58.2zM230.8 58.2H242v3h-3.8v9h-3.7v-9h-3.8v-3zM255 58.2v11.9h-3.5v-6.6l-4.5 6.6h-3.5V58.2h3.5v6.6l4.5-6.6h3.5z">
    </path>
  </g>
</svg>