<svg width="42" height="42" viewBox="0 0 42 42" fill="none" xmlns="http://www.w3.org/2000/svg">
<path d="M14.2102 25.7425L21.0002 18.9525L27.7902 25.7425C27.9522 25.9045 28.1445 26.033 28.3562 26.1207C28.5679 26.2084 28.7948 26.2535 29.0239 26.2535C29.253 26.2535 29.4799 26.2084 29.6916 26.1207C29.9033 26.033 30.0956 25.9045 30.2577 25.7425C30.4197 25.5805 30.5482 25.3881 30.6359 25.1765C30.7236 24.9648 30.7687 24.7379 30.7687 24.5088C30.7687 24.2796 30.7236 24.0527 30.6359 23.8411C30.5482 23.6294 30.4197 23.437 30.2577 23.275L22.2252 15.2425C22.0633 15.0803 21.871 14.9516 21.6592 14.8637C21.4475 14.7759 21.2206 14.7307 20.9914 14.7307C20.7622 14.7307 20.5353 14.7759 20.3236 14.8637C20.1119 14.9516 19.9196 15.0803 19.7577 15.2425L11.7252 23.275C11.5629 23.4369 11.4342 23.6292 11.3464 23.8409C11.2586 24.0526 11.2134 24.2796 11.2134 24.5088C11.2134 24.7379 11.2586 24.9649 11.3464 25.1766C11.4342 25.3883 11.5629 25.5806 11.7252 25.7425C12.4077 26.4075 13.5277 26.425 14.2102 25.7425Z" fill="#5581F1"/>
</svg>
