<svg width="26" height="26" viewBox="0 0 26 26" fill="none" xmlns="http://www.w3.org/2000/svg">
<path d="M23.0282 11.8755C23.5417 12.5472 23.5417 13.4539 23.0282 14.1245C21.4108 16.2359 17.5303 20.5833 12.9998 20.5833C8.46931 20.5833 4.58881 16.2359 2.97139 14.1245C2.72156 13.8029 2.58594 13.4073 2.58594 13C2.58594 12.5928 2.72156 12.1971 2.97139 11.8755C4.58881 9.76409 8.46931 5.41667 12.9998 5.41667C17.5303 5.41667 21.4108 9.76409 23.0282 11.8755V11.8755Z" stroke="#5581F1" stroke-width="2.3" stroke-linecap="round" stroke-linejoin="round"/>
<path d="M13 16.25C14.7949 16.25 16.25 14.7949 16.25 13C16.25 11.2051 14.7949 9.75 13 9.75C11.2051 9.75 9.75 11.2051 9.75 13C9.75 14.7949 11.2051 16.25 13 16.25Z" stroke="#5581F1" stroke-width="2.3" stroke-linecap="round" stroke-linejoin="round"/>
</svg>
