<svg width="354" height="74" viewBox="0 0 354 74" fill="none" xmlns="http://www.w3.org/2000/svg">
<mask id="mask0" mask-type="alpha" maskUnits="userSpaceOnUse" x="0" y="0" width="353" height="74">
<path d="M80.0753 29.4631V29.4631C80.1516 29.3905 80.2183 29.3084 80.2737 29.2188L89.8174 13.7776C90.7284 12.3036 92.3377 11.4064 94.0705 11.4064H96.4717" stroke="white" stroke-width="2"/>
<path d="M124.798 65.0504H140.222" stroke="white" stroke-width="2"/>
<circle cx="124.257" cy="65.0515" r="1.35297" fill="white"/>
<circle cx="140.763" cy="65.0506" r="1.35297" fill="white"/>
<path d="M121.451 65.0482C121.451 65.7954 120.845 66.4011 120.098 66.4011C119.35 66.4011 118.745 65.7954 118.745 65.0482C118.745 64.3009 119.35 63.6952 120.098 63.6952C120.845 63.6952 121.451 64.3009 121.451 65.0482Z" fill="white"/>
<circle cx="188.522" cy="55.7366" r="1.48827" fill="white"/>
<circle cx="188.522" cy="17.3124" r="1.48827" fill="white"/>
<circle cx="158.216" cy="56.0068" r="1.48827" fill="white"/>
<circle cx="99.9034" cy="6.89399" r="1.35297" fill="white"/>
<circle cx="146.446" cy="7.16535" r="1.35297" fill="white"/>
<path d="M61.7498 33.4126H79.1598C80.8718 33.4126 82.4647 34.2885 83.3818 35.7341L97.0962 57.3516C97.6043 58.1526 97.8741 59.0816 97.8741 60.0301V65.7486" stroke="white" stroke-width="2"/>
<path d="M61.7498 29.3538H71.9564C73.6862 29.3538 75.293 28.4597 76.205 26.9899L87.2072 9.25823C88.1192 7.78844 89.7261 6.89441 91.4558 6.89441H99.3624" stroke="white" stroke-width="2"/>
<circle cx="61.7494" cy="62.9074" r="1.35297" fill="white"/>
<path d="M61.7498 6.35278V62.6365" stroke="white" stroke-width="2"/>
<circle cx="61.7493" cy="6.35297" r="1.35297" fill="white"/>
<circle cx="96.3723" cy="11.306" r="1.35297" fill="white"/>
<circle cx="80.183" cy="29.1553" r="1.35297" fill="white"/>
<circle cx="97.8737" cy="66.0193" r="1.21768" fill="white"/>
<circle cx="92.3085" cy="63.7372" r="1.35297" fill="white"/>
<path d="M75.2614 38.1279H76.6787C78.4057 38.1279 80.0105 39.0192 80.9233 40.4853L91.5534 57.5595C92.0472 58.3525 92.3088 59.268 92.3088 60.2022V64.105" stroke="white" stroke-width="2"/>
<circle cx="75.0902" cy="38.2965" r="1.21768" fill="white"/>
<circle cx="57.353" cy="13.8809" r="1.35297" fill="white"/>
<circle cx="57.353" cy="65.5648" r="1.35297" fill="white"/>
<path d="M57.3528 14.1517V65.0235" stroke="white" stroke-width="2"/>
<path d="M158.352 56.4128V12.8943V12.1646C158.352 9.40313 160.591 7.16455 163.352 7.16455H201.106" stroke="white" stroke-width="2"/>
<circle cx="154.158" cy="7.29064" r="1.48827" fill="white"/>
<circle cx="154.293" cy="63.1504" r="1.62357" fill="white"/>
<path d="M154.158 7.81305L154.293 63.6908" stroke="white" stroke-width="2"/>
<circle cx="192.81" cy="11.8567" r="1.48827" fill="white"/>
<circle cx="192.945" cy="67.7165" r="1.62357" fill="white"/>
<path d="M192.81 12.3798L192.945 68.2575" stroke="white" stroke-width="2"/>
<circle cx="201.512" cy="7.30065" r="1.48827" fill="white"/>
<path d="M119.862 65.2909H118.704C115.942 65.2909 113.704 63.0523 113.704 60.2909V11.0882V11.0882C113.704 9.19289 115.015 7.49542 116.886 7.18984C116.985 7.17369 117.055 7.16455 117.086 7.16455C117.357 7.16455 145.769 7.16455 145.769 7.16455" stroke="white" stroke-width="2"/>
<circle cx="140.83" cy="13.0268" r="1.35297" fill="white"/>
<circle cx="122.97" cy="13.027" r="1.35297" fill="white"/>
<path d="M123.782 13.0266L139.747 13.0266" stroke="white" stroke-width="2"/>
<path d="M137.494 39.7599H122.788C120.026 39.7599 117.788 41.9985 117.788 44.7599V55.1853C117.788 57.9468 120.026 60.1853 122.788 60.1853H146.192" stroke="white" stroke-width="2"/>
<circle cx="138.29" cy="39.8361" r="1.35297" fill="white"/>
<circle cx="146.269" cy="60.2615" r="1.35297" fill="white"/>
<rect x="108.302" y="12.8865" width="1.9302" height="51.057" fill="#FAFAFA"/>
<circle cx="109.08" cy="12.3991" r="1.6085" fill="#FAFAFA"/>
<circle cx="109.08" cy="63.477" r="1.6085" fill="#FAFAFA"/>
<path d="M118.106 13.5892V28.3763C118.106 31.1378 120.345 33.3763 123.106 33.3763H133.745" stroke="white" stroke-width="2"/>
<ellipse cx="118.179" cy="13.1591" rx="1.35297" ry="1.39397" fill="white"/>
<ellipse cx="133.502" cy="33.4941" rx="1.35297" ry="1.39397" fill="white"/>
<path d="M188.658 17.9886V55.3307" stroke="white" stroke-width="2"/>
<circle cx="184.907" cy="13.2069" r="1.35297" fill="white"/>
<circle cx="163.8" cy="13.2075" r="1.35297" fill="white"/>
<path d="M184.365 13.2067H163.8" stroke="white" stroke-width="2"/>
<path d="M28.306 10C57.3564 10.0001 57.7383 52.758 28.688 52.758" stroke="#FAFAFA" stroke-width="2"/>
<path d="M28.4182 15C50.1911 15.0001 51.2573 48 29.4844 48" stroke="#FAFAFA" stroke-width="2"/>
<path d="M23.1697 10C-5.88067 10.0001 -6.2626 52.758 22.7878 52.758" stroke="#FAFAFA" stroke-width="2"/>
<path d="M22.5541 15C1.36341 15.0001 0.317874 48 21.5086 48" stroke="#FAFAFA" stroke-width="2"/>
<path d="M23 6V41" stroke="#FAFAFA" stroke-width="2"/>
<path d="M28 23V66" stroke="#FAFAFA" stroke-width="2"/>
<circle cx="22.953" cy="6.35297" r="1.35297" fill="white"/>
<circle cx="27.953" cy="65.4529" r="1.35297" fill="white"/>
<circle cx="21.353" cy="47.9529" r="1.35297" fill="white"/>
<circle cx="28.353" cy="14.9529" r="1.35297" fill="white"/>
<path d="M228.979 14.6338H229.119C229.83 14.6338 230.475 14.7946 231.055 15.1162C231.639 15.4336 232.092 15.8822 232.414 16.4619C232.739 17.0417 232.902 17.6934 232.902 18.417C232.902 19.1364 232.739 19.7839 232.414 20.3594C232.092 20.9307 231.643 21.375 231.068 21.6924C230.497 22.0098 229.855 22.1706 229.145 22.1748H228.979V23.3809H227.437V22.1748H227.285C226.569 22.1748 225.92 22.0161 225.336 21.6987C224.752 21.3771 224.299 20.9307 223.978 20.3594C223.66 19.7881 223.501 19.1449 223.501 18.4297C223.501 17.7061 223.662 17.0544 223.984 16.4746C224.306 15.8949 224.756 15.4442 225.336 15.1226C225.916 14.7967 226.565 14.6338 227.285 14.6338H227.437V13.377H228.979V14.6338ZM227.285 15.9224C226.574 15.9224 226.017 16.1445 225.615 16.5889C225.217 17.0332 225.019 17.6468 225.019 18.4297C225.019 19.1914 225.217 19.7923 225.615 20.2324C226.013 20.6683 226.576 20.8862 227.304 20.8862H227.437V15.9224H227.285ZM228.979 15.9224V20.8862H229.132C229.843 20.8862 230.395 20.6641 230.789 20.2197C231.186 19.7754 231.385 19.1745 231.385 18.417C231.385 17.6426 231.186 17.0332 230.789 16.5889C230.395 16.1445 229.836 15.9224 229.113 15.9224H228.979ZM238.253 23C238.186 22.8688 238.126 22.6551 238.076 22.3589C237.585 22.8709 236.984 23.127 236.273 23.127C235.583 23.127 235.02 22.9302 234.584 22.5366C234.149 22.1431 233.931 21.6564 233.931 21.0767C233.931 20.3446 234.201 19.7839 234.743 19.3945C235.289 19.001 236.068 18.8042 237.079 18.8042H238.025V18.3535C238.025 17.998 237.925 17.7145 237.727 17.5029C237.528 17.2871 237.225 17.1792 236.819 17.1792C236.468 17.1792 236.18 17.2681 235.956 17.4458C235.731 17.6193 235.619 17.8415 235.619 18.1123H234.077C234.077 17.7357 234.201 17.3844 234.451 17.0586C234.701 16.7285 235.039 16.4704 235.467 16.2842C235.898 16.098 236.379 16.0049 236.908 16.0049C237.712 16.0049 238.353 16.208 238.831 16.6143C239.309 17.0163 239.555 17.5833 239.567 18.3154V21.4131C239.567 22.0309 239.654 22.5239 239.828 22.8921V23H238.253ZM236.559 21.8892C236.863 21.8892 237.149 21.8151 237.416 21.667C237.686 21.5189 237.889 21.32 238.025 21.0703V19.7754H237.193C236.622 19.7754 236.193 19.8748 235.905 20.0737C235.617 20.2726 235.473 20.554 235.473 20.918C235.473 21.2142 235.57 21.4512 235.765 21.6289C235.964 21.8024 236.229 21.8892 236.559 21.8892ZM243.649 18.3916L244.957 16.1318H246.67L244.569 19.5151L246.74 23H245.039L243.668 20.6514L242.303 23H240.589L242.76 19.5151L240.666 16.1318H242.367L243.649 18.3916ZM247.178 19.5024C247.178 18.8296 247.312 18.2244 247.578 17.687C247.845 17.1453 248.219 16.7306 248.702 16.4429C249.184 16.1509 249.738 16.0049 250.365 16.0049C251.292 16.0049 252.043 16.3032 252.618 16.8999C253.198 17.4966 253.511 18.2879 253.558 19.2739L253.564 19.6357C253.564 20.3128 253.433 20.918 253.17 21.4512C252.912 21.9844 252.54 22.397 252.053 22.689C251.571 22.981 251.012 23.127 250.377 23.127C249.408 23.127 248.632 22.8053 248.048 22.1621C247.468 21.5146 247.178 20.6535 247.178 19.5786V19.5024ZM248.721 19.6357C248.721 20.3424 248.867 20.8968 249.159 21.2988C249.451 21.6966 249.857 21.8955 250.377 21.8955C250.898 21.8955 251.302 21.6924 251.59 21.2861C251.882 20.8799 252.028 20.2853 252.028 19.5024C252.028 18.8084 251.878 18.2583 251.577 17.8521C251.281 17.4458 250.877 17.2427 250.365 17.2427C249.861 17.2427 249.461 17.4437 249.165 17.8457C248.869 18.2435 248.721 18.8402 248.721 19.6357ZM254.986 23V16.1318H257.772C258.712 16.1318 259.427 16.2969 259.918 16.627C260.409 16.9528 260.654 17.4225 260.654 18.0361C260.654 18.3535 260.555 18.6392 260.356 18.8931C260.161 19.1427 259.871 19.3353 259.486 19.4707C259.935 19.5638 260.29 19.7521 260.553 20.0356C260.815 20.3192 260.946 20.6535 260.946 21.0386C260.946 21.6776 260.709 22.1642 260.235 22.4985C259.766 22.8328 259.089 23 258.204 23H254.986ZM256.528 20.0737V21.7812H258.217C259.008 21.7812 259.404 21.4977 259.404 20.9307C259.404 20.3594 259.002 20.0737 258.198 20.0737H256.528ZM256.528 18.9692H257.798C258.674 18.9692 259.112 18.7111 259.112 18.1948C259.112 17.6532 258.697 17.3739 257.868 17.3569H256.528V18.9692ZM266.57 16.1318H268.106V23H266.57V18.417L263.879 23H262.343V16.1318H263.879V20.7148L266.57 16.1318ZM274.035 16.1318H275.571V23H274.035V18.417L271.344 23H269.808V16.1318H271.344V20.7148L274.035 16.1318ZM274.759 13.4976C274.759 14.0308 274.573 14.4624 274.2 14.7925C273.828 15.1226 273.331 15.2876 272.708 15.2876C272.086 15.2876 271.589 15.1226 271.217 14.7925C270.844 14.4624 270.658 14.0308 270.658 13.4976H271.813C271.813 13.7769 271.892 13.9948 272.048 14.1514C272.209 14.3037 272.429 14.3799 272.708 14.3799C272.988 14.3799 273.206 14.3037 273.362 14.1514C273.519 13.9948 273.597 13.7769 273.597 13.4976H274.759ZM282.89 20.2832H282.109V23H280.567V16.1318H282.109V18.874H282.789L284.687 16.1318H286.591L284.109 19.4199L286.8 23H284.794L282.89 20.2832ZM286.991 19.5024C286.991 18.8296 287.124 18.2244 287.391 17.687C287.657 17.1453 288.032 16.7306 288.514 16.4429C288.997 16.1509 289.551 16.0049 290.177 16.0049C291.104 16.0049 291.855 16.3032 292.431 16.8999C293.01 17.4966 293.324 18.2879 293.37 19.2739L293.376 19.6357C293.376 20.3128 293.245 20.918 292.983 21.4512C292.725 21.9844 292.352 22.397 291.866 22.689C291.383 22.981 290.825 23.127 290.19 23.127C289.221 23.127 288.444 22.8053 287.86 22.1621C287.281 21.5146 286.991 20.6535 286.991 19.5786V19.5024ZM288.533 19.6357C288.533 20.3424 288.679 20.8968 288.971 21.2988C289.263 21.6966 289.669 21.8955 290.19 21.8955C290.71 21.8955 291.115 21.6924 291.402 21.2861C291.694 20.8799 291.84 20.2853 291.84 19.5024C291.84 18.8084 291.69 18.2583 291.39 17.8521C291.093 17.4458 290.689 17.2427 290.177 17.2427C289.674 17.2427 289.274 17.4437 288.978 17.8457C288.681 18.2435 288.533 18.8402 288.533 19.6357ZM300.416 16.1318V23H298.874V17.376H296.931L296.804 19.769C296.724 20.9201 296.502 21.7474 296.138 22.251C295.778 22.7503 295.226 23 294.481 23H294.005L293.999 21.7178L294.316 21.686C294.654 21.6395 294.9 21.4342 295.052 21.0703C295.209 20.7021 295.308 20.0335 295.351 19.0645L295.478 16.1318H300.416ZM305.082 23.127C304.104 23.127 303.311 22.8201 302.701 22.2065C302.096 21.5887 301.793 20.7677 301.793 19.7437V19.5532C301.793 18.8677 301.925 18.2562 302.187 17.7188C302.454 17.1771 302.826 16.756 303.304 16.4556C303.782 16.1551 304.316 16.0049 304.904 16.0049C305.839 16.0049 306.561 16.3032 307.068 16.8999C307.58 17.4966 307.836 18.3408 307.836 19.4326V20.0547H303.349C303.395 20.6217 303.583 21.0703 303.914 21.4004C304.248 21.7305 304.667 21.8955 305.17 21.8955C305.877 21.8955 306.453 21.6099 306.897 21.0386L307.729 21.832C307.453 22.2425 307.085 22.562 306.624 22.7905C306.167 23.0148 305.653 23.127 305.082 23.127ZM304.897 17.2427C304.474 17.2427 304.132 17.3908 303.869 17.687C303.611 17.9832 303.446 18.3958 303.374 18.9248H306.313V18.8105C306.279 18.2943 306.142 17.9049 305.9 17.6426C305.659 17.376 305.325 17.2427 304.897 17.2427ZM309.068 21.7686C309.495 21.2904 309.781 20.8376 309.925 20.4102C310.073 19.9785 310.162 19.4284 310.191 18.7598L310.28 16.1318H315.047V21.7686H316V25.0439H314.463V23H310.058V25.0439H308.497L308.503 21.7686H309.068ZM310.877 21.7686H313.511V17.4585H311.778L311.734 18.7725C311.675 20.0335 311.389 21.0322 310.877 21.7686ZM323.147 20.2388H322.328V23H320.786V20.2388H319.973L318.393 23H316.501L318.78 19.4263L316.622 16.1318H318.507L320.062 18.8296H320.786V16.1318H322.328V18.8296H323.058L324.62 16.1318H326.505L324.353 19.4072L326.645 23H324.728L323.147 20.2388ZM226.815 39.127C225.837 39.127 225.044 38.8201 224.435 38.2065C223.829 37.5887 223.527 36.7677 223.527 35.7437V35.5532C223.527 34.8677 223.658 34.2562 223.92 33.7188C224.187 33.1771 224.559 32.756 225.038 32.4556C225.516 32.1551 226.049 32.0049 226.637 32.0049C227.572 32.0049 228.294 32.3032 228.802 32.8999C229.314 33.4966 229.57 34.3408 229.57 35.4326V36.0547H225.082C225.129 36.6217 225.317 37.0703 225.647 37.4004C225.981 37.7305 226.4 37.8955 226.904 37.8955C227.611 37.8955 228.186 37.6099 228.63 37.0386L229.462 37.832C229.187 38.2425 228.819 38.562 228.357 38.7905C227.9 39.0148 227.386 39.127 226.815 39.127ZM226.631 33.2427C226.208 33.2427 225.865 33.3908 225.603 33.687C225.344 33.9832 225.179 34.3958 225.107 34.9248H228.046V34.8105C228.013 34.2943 227.875 33.9049 227.634 33.6426C227.393 33.376 227.058 33.2427 226.631 33.2427ZM236.609 32.1318V39H235.067V33.376H233.125L232.998 35.769C232.917 36.9201 232.695 37.7474 232.331 38.251C231.971 38.7503 231.419 39 230.674 39H230.198L230.192 37.7178L230.509 37.686C230.848 37.6395 231.093 37.4342 231.246 37.0703C231.402 36.7021 231.502 36.0335 231.544 35.0645L231.671 32.1318H236.609ZM241.275 39.127C240.297 39.127 239.504 38.8201 238.895 38.2065C238.289 37.5887 237.987 36.7677 237.987 35.7437V35.5532C237.987 34.8677 238.118 34.2562 238.38 33.7188C238.647 33.1771 239.019 32.756 239.498 32.4556C239.976 32.1551 240.509 32.0049 241.097 32.0049C242.032 32.0049 242.754 32.3032 243.262 32.8999C243.774 33.4966 244.03 34.3408 244.03 35.4326V36.0547H239.542C239.589 36.6217 239.777 37.0703 240.107 37.4004C240.441 37.7305 240.86 37.8955 241.364 37.8955C242.07 37.8955 242.646 37.6099 243.09 37.0386L243.922 37.832C243.647 38.2425 243.279 38.562 242.817 38.7905C242.36 39.0148 241.846 39.127 241.275 39.127ZM241.091 33.2427C240.668 33.2427 240.325 33.3908 240.062 33.687C239.804 33.9832 239.639 34.3958 239.567 34.9248H242.506V34.8105C242.472 34.2943 242.335 33.9049 242.094 33.6426C241.853 33.376 241.518 33.2427 241.091 33.2427ZM247.673 36.2832H246.893V39H245.35V32.1318H246.893V34.874H247.572L249.47 32.1318H251.374L248.892 35.4199L251.583 39H249.578L247.673 36.2832ZM257.836 33.3569H255.608V39H254.065V33.3569H251.863V32.1318H257.836V33.3569ZM264.882 35.6357C264.882 36.6979 264.641 37.5464 264.158 38.1812C263.676 38.8117 263.028 39.127 262.216 39.127C261.463 39.127 260.86 38.8794 260.407 38.3843V41.6406H258.864V32.1318H260.286L260.35 32.8301C260.802 32.2799 261.418 32.0049 262.197 32.0049C263.035 32.0049 263.691 32.318 264.165 32.9443C264.643 33.5664 264.882 34.4318 264.882 35.5405V35.6357ZM263.346 35.5024C263.346 34.8169 263.208 34.2731 262.933 33.8711C262.662 33.4691 262.273 33.2681 261.765 33.2681C261.135 33.2681 260.682 33.5283 260.407 34.0488V37.0957C260.686 37.6289 261.143 37.8955 261.778 37.8955C262.269 37.8955 262.652 37.6987 262.927 37.3052C263.206 36.9074 263.346 36.3065 263.346 35.5024ZM265.904 35.5024C265.904 34.8296 266.037 34.2244 266.304 33.687C266.57 33.1453 266.945 32.7306 267.427 32.4429C267.91 32.1509 268.464 32.0049 269.09 32.0049C270.017 32.0049 270.768 32.3032 271.344 32.8999C271.924 33.4966 272.237 34.2879 272.283 35.2739L272.29 35.6357C272.29 36.3128 272.158 36.918 271.896 37.4512C271.638 37.9844 271.265 38.397 270.779 38.689C270.296 38.981 269.738 39.127 269.103 39.127C268.134 39.127 267.357 38.8053 266.773 38.1621C266.194 37.5146 265.904 36.6535 265.904 35.5786V35.5024ZM267.446 35.6357C267.446 36.3424 267.592 36.8968 267.884 37.2988C268.176 37.6966 268.583 37.8955 269.103 37.8955C269.624 37.8955 270.028 37.6924 270.315 37.2861C270.607 36.8799 270.753 36.2853 270.753 35.5024C270.753 34.8084 270.603 34.2583 270.303 33.8521C270.007 33.4458 269.602 33.2427 269.09 33.2427C268.587 33.2427 268.187 33.4437 267.891 33.8457C267.594 34.2435 267.446 34.8402 267.446 35.6357ZM279.412 39H277.869V36.2261H275.197V39H273.654V32.1318H275.197V34.9946H277.869V32.1318H279.412V39ZM285.347 32.1318H286.883V39H285.347V34.417L282.655 39H281.119V32.1318H282.655V36.7148L285.347 32.1318ZM290.99 34.3916L292.297 32.1318H294.011L291.91 35.5151L294.081 39H292.38L291.009 36.6514L289.644 39H287.93L290.101 35.5151L288.006 32.1318H289.708L290.99 34.3916ZM304.123 39H302.581V33.376H299.902V39H298.359V32.1318H304.123V39ZM311.778 35.6357C311.778 36.6979 311.537 37.5464 311.055 38.1812C310.572 38.8117 309.925 39.127 309.112 39.127C308.359 39.127 307.756 38.8794 307.303 38.3843V41.6406H305.761V32.1318H307.183L307.246 32.8301C307.699 32.2799 308.315 32.0049 309.093 32.0049C309.931 32.0049 310.587 32.318 311.061 32.9443C311.539 33.5664 311.778 34.4318 311.778 35.5405V35.6357ZM310.242 35.5024C310.242 34.8169 310.105 34.2731 309.83 33.8711C309.559 33.4691 309.169 33.2681 308.662 33.2681C308.031 33.2681 307.578 33.5283 307.303 34.0488V37.0957C307.583 37.6289 308.04 37.8955 308.674 37.8955C309.165 37.8955 309.548 37.6987 309.823 37.3052C310.103 36.9074 310.242 36.3065 310.242 35.5024ZM317.377 32.1318H318.913V39H317.377V34.417L314.686 39H313.149V32.1318H314.686V36.7148L317.377 32.1318ZM326.391 32.1318V39H324.848V33.376H322.906L322.779 35.769C322.698 36.9201 322.476 37.7474 322.112 38.251C321.753 38.7503 321.2 39 320.456 39H319.979L319.973 37.7178L320.291 37.686C320.629 37.6395 320.875 37.4342 321.027 37.0703C321.183 36.7021 321.283 36.0335 321.325 35.0645L321.452 32.1318H326.391ZM332.135 39C332.068 38.8688 332.008 38.6551 331.958 38.3589C331.467 38.8709 330.866 39.127 330.155 39.127C329.465 39.127 328.902 38.9302 328.466 38.5366C328.03 38.1431 327.812 37.6564 327.812 37.0767C327.812 36.3446 328.083 35.7839 328.625 35.3945C329.171 35.001 329.95 34.8042 330.961 34.8042H331.907V34.3535C331.907 33.998 331.807 33.7145 331.608 33.5029C331.41 33.2871 331.107 33.1792 330.701 33.1792C330.349 33.1792 330.062 33.2681 329.837 33.4458C329.613 33.6193 329.501 33.8415 329.501 34.1123H327.958C327.958 33.7357 328.083 33.3844 328.333 33.0586C328.583 32.7285 328.921 32.4704 329.349 32.2842C329.78 32.098 330.261 32.0049 330.79 32.0049C331.594 32.0049 332.235 32.208 332.713 32.6143C333.191 33.0163 333.437 33.5833 333.449 34.3154V37.4131C333.449 38.0309 333.536 38.5239 333.709 38.8921V39H332.135ZM330.44 37.8892C330.745 37.8892 331.031 37.8151 331.297 37.667C331.568 37.5189 331.771 37.32 331.907 37.0703V35.7754H331.075C330.504 35.7754 330.074 35.8748 329.787 36.0737C329.499 36.2726 329.355 36.554 329.355 36.918C329.355 37.2142 329.452 37.4512 329.647 37.6289C329.846 37.8024 330.11 37.8892 330.44 37.8892ZM335.093 37.7686C335.521 37.2904 335.806 36.8376 335.95 36.4102C336.098 35.9785 336.187 35.4284 336.217 34.7598L336.306 32.1318H341.073V37.7686H342.025V41.0439H340.489V39H336.083V41.0439H334.522L334.528 37.7686H335.093ZM336.902 37.7686H339.537V33.4585H337.804L337.759 34.7725C337.7 36.0335 337.414 37.0322 336.902 37.7686ZM344.767 39H343.225V32.1318H344.767V39ZM343.129 30.3481C343.129 30.1112 343.203 29.9144 343.352 29.7578C343.504 29.6012 343.72 29.5229 343.999 29.5229C344.278 29.5229 344.494 29.6012 344.646 29.7578C344.799 29.9144 344.875 30.1112 344.875 30.3481C344.875 30.5809 344.799 30.7756 344.646 30.9321C344.494 31.0845 344.278 31.1606 343.999 31.1606C343.72 31.1606 343.504 31.0845 343.352 30.9321C343.203 30.7756 343.129 30.5809 343.129 30.3481ZM346.57 39V32.1318H349.356C350.296 32.1318 351.011 32.2969 351.502 32.627C351.993 32.9528 352.238 33.4225 352.238 34.0361C352.238 34.3535 352.139 34.6392 351.94 34.8931C351.745 35.1427 351.455 35.3353 351.07 35.4707C351.519 35.5638 351.874 35.7521 352.137 36.0356C352.399 36.3192 352.53 36.6535 352.53 37.0386C352.53 37.6776 352.293 38.1642 351.819 38.4985C351.35 38.8328 350.673 39 349.788 39H346.57ZM348.112 36.0737V37.7812H349.801C350.592 37.7812 350.988 37.4977 350.988 36.9307C350.988 36.3594 350.586 36.0737 349.782 36.0737H348.112ZM348.112 34.9692H349.382C350.258 34.9692 350.696 34.7111 350.696 34.1948C350.696 33.6532 350.281 33.3739 349.452 33.3569H348.112V34.9692ZM225.634 55H224.035V45.7578H225.634V55ZM232.648 46.6338H232.788C233.499 46.6338 234.144 46.7946 234.724 47.1162C235.308 47.4336 235.761 47.8822 236.083 48.4619C236.408 49.0417 236.571 49.6934 236.571 50.417C236.571 51.1364 236.408 51.7839 236.083 52.3594C235.761 52.9307 235.312 53.375 234.737 53.6924C234.166 54.0098 233.524 54.1706 232.813 54.1748H232.648V55.3809H231.106V54.1748H230.954C230.238 54.1748 229.589 54.0161 229.005 53.6987C228.421 53.3771 227.968 52.9307 227.646 52.3594C227.329 51.7881 227.17 51.1449 227.17 50.4297C227.17 49.7061 227.331 49.0544 227.653 48.4746C227.974 47.8949 228.425 47.4442 229.005 47.1226C229.585 46.7967 230.234 46.6338 230.954 46.6338H231.106V45.377H232.648V46.6338ZM230.954 47.9224C230.243 47.9224 229.686 48.1445 229.284 48.5889C228.886 49.0332 228.688 49.6468 228.688 50.4297C228.688 51.1914 228.886 51.7923 229.284 52.2324C229.682 52.6683 230.245 52.8862 230.973 52.8862H231.106V47.9224H230.954ZM232.648 47.9224V52.8862H232.801C233.512 52.8862 234.064 52.6641 234.458 52.2197C234.855 51.7754 235.054 51.1745 235.054 50.417C235.054 49.6426 234.855 49.0332 234.458 48.5889C234.064 48.1445 233.505 47.9224 232.782 47.9224H232.648ZM245.306 55H243.706V50.8931H239.574V55H237.968V45.7578H239.574V49.6045H243.706V45.7578H245.306V55ZM253.697 47.0527H250.815V55H249.222V47.0527H246.366V45.7578H253.697V47.0527ZM258.242 50.5884L260.096 45.7578H261.879L258.661 53.4258L258.369 54.0034C257.946 54.7567 257.26 55.1333 256.312 55.1333L255.652 55.0952L255.665 53.8257C255.767 53.8426 255.946 53.8511 256.205 53.8511C256.662 53.8511 256.983 53.6564 257.169 53.2671L257.5 52.4863L254.338 45.7578H256.09L258.242 50.5884ZM270.442 55H268.843V50.8931H264.71V55H263.104V45.7578H264.71V49.6045H268.843V45.7578H270.442V55ZM278.256 47.0527H273.991V55H272.391V45.7578H278.256V47.0527Z" fill="#FAFAFA"/>
<rect x="214" width="2" height="74" rx="1" fill="#FAFAFA"/>
</mask>
<g mask="url(#mask0)">
<path d="M-8 -12H379V87H-8V-12Z" fill="url(#paint0_linear)"/>
</g>
<defs>
<linearGradient id="paint0_linear" x1="74.6235" y1="3.76594" x2="176.178" y2="177.845" gradientUnits="userSpaceOnUse">
<stop stop-color="#00C0FF"/>
<stop offset="1" stop-color="#5581F1"/>
</linearGradient>
</defs>
</svg>
