<svg width="834" height="83" viewBox="0 0 834 83" fill="none" xmlns="http://www.w3.org/2000/svg">
<mask id="mask0" mask-type="alpha" maskUnits="userSpaceOnUse" x="0" y="5" width="830" height="75">
<path d="M73.9648 35.995V35.995C74.0352 35.9285 74.0968 35.8532 74.148 35.7709L82.839 21.8085C83.7517 20.3421 85.3566 19.4507 87.0838 19.4507H89.0944" stroke="white" stroke-width="2"/>
<path d="M115.232 68.6021H129.465" stroke="white" stroke-width="2"/>
<ellipse cx="114.734" cy="68.6039" rx="1.24845" ry="1.23965" fill="white"/>
<ellipse cx="129.964" cy="68.6024" rx="1.24845" ry="1.23965" fill="white"/>
<path d="M112.145 68.6C112.145 69.2846 111.586 69.8397 110.897 69.8397C110.207 69.8397 109.648 69.2846 109.648 68.6C109.648 67.9154 110.207 67.3604 110.897 67.3604C111.586 67.3604 112.145 67.9154 112.145 68.6Z" fill="white"/>
<ellipse cx="174.034" cy="60.0682" rx="1.37329" ry="1.36362" fill="white"/>
<ellipse cx="174.034" cy="24.8626" rx="1.37329" ry="1.36362" fill="white"/>
<ellipse cx="146.07" cy="60.3158" rx="1.37329" ry="1.36362" fill="white"/>
<ellipse cx="92.2621" cy="15.3163" rx="1.24845" ry="1.23965" fill="white"/>
<ellipse cx="135.207" cy="15.5653" rx="1.24845" ry="1.23965" fill="white"/>
<path d="M57.0557 39.6143H72.9187C74.625 39.6143 76.2134 40.4844 77.1321 41.9223L89.6026 61.4407C90.1162 62.2446 90.3892 63.1787 90.3892 64.1327V69.242" stroke="white" stroke-width="2"/>
<path d="M57.0557 35.8951H66.2692C67.9933 35.8951 69.5958 35.0069 70.5094 33.5448L80.431 17.6673C81.3447 16.2051 82.9472 15.3169 84.6713 15.3169H91.7625" stroke="white" stroke-width="2"/>
<ellipse cx="57.0551" cy="66.6381" rx="1.24845" ry="1.23965" fill="white"/>
<path d="M57.0557 14.8203V66.3899" stroke="white" stroke-width="2"/>
<ellipse cx="57.0551" cy="14.8207" rx="1.24845" ry="1.23965" fill="white"/>
<ellipse cx="89.0043" cy="19.3593" rx="1.24845" ry="1.23965" fill="white"/>
<ellipse cx="74.0658" cy="35.7133" rx="1.24845" ry="1.23965" fill="white"/>
<ellipse cx="90.3892" cy="69.4897" rx="1.1236" ry="1.11569" fill="white"/>
<ellipse cx="85.2533" cy="67.3988" rx="1.24845" ry="1.23965" fill="white"/>
<path d="M69.5244 43.9346H70.6281C72.3495 43.9346 73.9498 44.8201 74.8642 46.2785L84.491 61.6322C84.9901 62.4282 85.2548 63.3487 85.2548 64.2882V67.7359" stroke="white" stroke-width="2"/>
<ellipse cx="69.3658" cy="44.0893" rx="1.1236" ry="1.11569" fill="white"/>
<ellipse cx="52.9994" cy="21.7182" rx="1.24845" ry="1.23965" fill="white"/>
<ellipse cx="52.9994" cy="69.0732" rx="1.24845" ry="1.23965" fill="white"/>
<path d="M52.998 21.9658V68.5768" stroke="white" stroke-width="2"/>
<path d="M146.195 60.6878V20.8143V20.5645C146.195 17.803 148.434 15.5645 151.195 15.5645H185.646" stroke="white" stroke-width="2"/>
<ellipse cx="142.325" cy="15.68" rx="1.37329" ry="1.36362" fill="white"/>
<ellipse cx="142.45" cy="66.8616" rx="1.49814" ry="1.48758" fill="white"/>
<path d="M142.325 16.1587L142.45 67.3564" stroke="white" stroke-width="2"/>
<ellipse cx="177.99" cy="19.8631" rx="1.37329" ry="1.36362" fill="white"/>
<ellipse cx="178.114" cy="71.0442" rx="1.49814" ry="1.48758" fill="white"/>
<path d="M177.989 20.3423L178.114 71.54" stroke="white" stroke-width="2"/>
<ellipse cx="186.021" cy="15.6893" rx="1.37329" ry="1.36362" fill="white"/>
<path d="M110.68 68.8223H109.997C107.236 68.8223 104.997 66.5838 104.997 63.8223V19.1594V19.1594C104.997 17.4235 106.2 15.8745 107.912 15.5911C108.015 15.5741 108.087 15.5645 108.118 15.5645C108.368 15.5645 134.585 15.5645 134.585 15.5645" stroke="white" stroke-width="2"/>
<ellipse cx="130.029" cy="20.9359" rx="1.24845" ry="1.23965" fill="white"/>
<ellipse cx="113.548" cy="20.9359" rx="1.24845" ry="1.23965" fill="white"/>
<path d="M114.296 20.9355L129.028 20.9355" stroke="white" stroke-width="2"/>
<path d="M126.95 45.4302H113.767C111.005 45.4302 108.767 47.6688 108.767 50.4302V59.1449C108.767 61.9063 111.005 64.1449 113.767 64.1449H134.976" stroke="white" stroke-width="2"/>
<ellipse cx="127.684" cy="45.4999" rx="1.24845" ry="1.23965" fill="white"/>
<ellipse cx="135.047" cy="64.2143" rx="1.24845" ry="1.23965" fill="white"/>
<rect x="100.015" y="20.8071" width="1.78108" height="46.7806" fill="#FAFAFA"/>
<ellipse cx="100.731" cy="20.3605" rx="1.48423" ry="1.47378" fill="#FAFAFA"/>
<ellipse cx="100.731" cy="67.1603" rx="1.48423" ry="1.47378" fill="#FAFAFA"/>
<path d="M109.061 21.4512V34.581C109.061 37.3425 111.299 39.581 114.061 39.581H123.491" stroke="white" stroke-width="2"/>
<ellipse cx="109.126" cy="21.057" rx="1.24845" ry="1.27722" fill="white"/>
<ellipse cx="123.267" cy="39.6888" rx="1.24845" ry="1.27722" fill="white"/>
<path d="M174.159 25.4819V59.6964" stroke="white" stroke-width="2"/>
<ellipse cx="170.7" cy="21.101" rx="1.24845" ry="1.23965" fill="white"/>
<ellipse cx="151.223" cy="21.1015" rx="1.24845" ry="1.23965" fill="white"/>
<path d="M170.199 21.1006H151.223" stroke="white" stroke-width="2"/>
<path d="M26.1963 18.1621C53.0023 18.1622 53.3547 57.3389 26.5487 57.3389" stroke="#FAFAFA" stroke-width="2"/>
<path d="M26.2988 22.7437C46.3897 22.7437 47.3735 52.9797 27.2826 52.9797" stroke="#FAFAFA" stroke-width="2"/>
<path d="M21.4561 18.1621C-5.34997 18.1622 -5.70239 57.3389 21.1036 57.3389" stroke="#FAFAFA" stroke-width="2"/>
<path d="M20.8887 22.7437C1.33511 22.7437 0.370349 52.9797 19.9239 52.9797" stroke="#FAFAFA" stroke-width="2"/>
<path d="M21.2998 14.4971V46.5656" stroke="#FAFAFA" stroke-width="2"/>
<path d="M25.915 30.0732V69.4717" stroke="#FAFAFA" stroke-width="2"/>
<ellipse cx="21.2572" cy="14.8207" rx="1.24845" ry="1.23965" fill="white"/>
<ellipse cx="25.8695" cy="68.9706" rx="1.24845" ry="1.23965" fill="white"/>
<ellipse cx="19.7797" cy="52.9364" rx="1.24845" ry="1.23965" fill="white"/>
<ellipse cx="26.2397" cy="22.7006" rx="1.24845" ry="1.23965" fill="white"/>
<path d="M328.754 21V6.07031H333.984C335.795 6.07031 337.169 6.41895 338.106 7.11621C339.042 7.80664 339.511 8.82178 339.511 10.1616C339.511 10.8931 339.323 11.5391 338.947 12.0996C338.571 12.6533 338.048 13.0601 337.378 13.3198C338.144 13.5112 338.745 13.8975 339.183 14.4785C339.627 15.0596 339.849 15.7705 339.849 16.6113C339.849 18.0469 339.391 19.1338 338.475 19.8721C337.559 20.6104 336.253 20.9863 334.558 21H328.754ZM331.831 14.499V18.5288H334.466C335.19 18.5288 335.754 18.3579 336.158 18.0161C336.568 17.6675 336.773 17.189 336.773 16.5806C336.773 15.2134 336.065 14.5195 334.65 14.499H331.831ZM331.831 12.3252H334.107C335.659 12.2979 336.435 11.6792 336.435 10.4692C336.435 9.79248 336.236 9.30713 335.84 9.01318C335.45 8.7124 334.832 8.56201 333.984 8.56201H331.831V12.3252ZM345.099 21H342.125V9.90527H345.099V21ZM341.951 7.03418C341.951 6.58984 342.098 6.22412 342.392 5.93701C342.693 5.6499 343.1 5.50635 343.612 5.50635C344.118 5.50635 344.521 5.6499 344.822 5.93701C345.123 6.22412 345.273 6.58984 345.273 7.03418C345.273 7.48535 345.12 7.85449 344.812 8.1416C344.511 8.42871 344.111 8.57227 343.612 8.57227C343.113 8.57227 342.71 8.42871 342.402 8.1416C342.102 7.85449 341.951 7.48535 341.951 7.03418ZM347.704 18.6108C348.374 17.8999 348.828 17.1958 349.067 16.4985C349.307 15.8013 349.44 14.8135 349.467 13.5352L349.549 9.90527H357.711V18.6108H359.311V24.3325H356.348V21H349.775V24.3325H346.75V18.6108H347.704ZM351.2 18.6108H354.758V12.356H352.451L352.431 13.689C352.369 15.7261 351.959 17.3667 351.2 18.6108ZM360.357 15.3501C360.357 14.2495 360.569 13.2686 360.993 12.4072C361.417 11.5459 362.025 10.8794 362.818 10.4077C363.618 9.93604 364.544 9.7002 365.597 9.7002C367.094 9.7002 368.314 10.1582 369.257 11.0742C370.208 11.9902 370.737 13.2344 370.847 14.8066L370.867 15.5654C370.867 17.2676 370.392 18.6348 369.442 19.667C368.492 20.6924 367.217 21.2051 365.617 21.2051C364.018 21.2051 362.739 20.6924 361.782 19.667C360.832 18.6416 360.357 17.2471 360.357 15.4834V15.3501ZM363.32 15.5654C363.32 16.6182 363.519 17.4248 363.915 17.9854C364.312 18.5391 364.879 18.8159 365.617 18.8159C366.335 18.8159 366.896 18.5425 367.299 17.9956C367.702 17.4419 367.904 16.5601 367.904 15.3501C367.904 14.3179 367.702 13.5181 367.299 12.9507C366.896 12.3833 366.328 12.0996 365.597 12.0996C364.872 12.0996 364.312 12.3833 363.915 12.9507C363.519 13.5112 363.32 14.3828 363.32 15.5654ZM377.04 16.9087H375.851V21H372.887V9.90527H375.851V14.0786H376.907L379.327 9.90527H383.069L379.439 15.186L383.408 21H379.46L377.04 16.9087ZM394.513 15.5552C394.513 17.2642 394.123 18.6348 393.344 19.667C392.571 20.6924 391.525 21.2051 390.206 21.2051C389.085 21.2051 388.179 20.8154 387.489 20.0361V25.2656H384.525V9.90527H387.273L387.376 10.9922C388.094 10.1309 389.03 9.7002 390.186 9.7002C391.553 9.7002 392.616 10.2061 393.375 11.2178C394.133 12.2295 394.513 13.624 394.513 15.4014V15.5552ZM391.549 15.3398C391.549 14.3076 391.365 13.5112 390.996 12.9507C390.633 12.3901 390.104 12.1099 389.406 12.1099C388.477 12.1099 387.837 12.4653 387.489 13.1763V17.7188C387.851 18.4502 388.497 18.8159 389.427 18.8159C390.842 18.8159 391.549 17.6572 391.549 15.3398ZM401.465 21.2051C399.838 21.2051 398.512 20.7061 397.486 19.708C396.468 18.71 395.958 17.3804 395.958 15.7192V15.4321C395.958 14.3179 396.174 13.3232 396.604 12.4482C397.035 11.5664 397.644 10.8896 398.43 10.418C399.223 9.93945 400.125 9.7002 401.137 9.7002C402.654 9.7002 403.847 10.1787 404.715 11.1357C405.59 12.0928 406.028 13.4497 406.028 15.2065V16.4165H398.963C399.059 17.1411 399.346 17.7222 399.824 18.1597C400.31 18.5972 400.921 18.8159 401.66 18.8159C402.801 18.8159 403.693 18.4023 404.336 17.5752L405.792 19.2056C405.348 19.8345 404.746 20.3267 403.987 20.6821C403.229 21.0308 402.388 21.2051 401.465 21.2051ZM401.126 12.0996C400.539 12.0996 400.06 12.2979 399.691 12.6943C399.329 13.0908 399.096 13.6582 398.994 14.3965H403.116V14.1606C403.102 13.5044 402.924 12.9985 402.583 12.6431C402.241 12.2808 401.755 12.0996 401.126 12.0996ZM414.477 17.5034L417.379 9.90527H421.091V21H418.127V14.1914L415.472 21H413.482L410.878 14.3042V21H407.915V9.90527H411.596L414.477 17.5034ZM433.324 9.90527V21H430.36V12.3047H427.746L427.561 15.7295C427.445 17.5547 427.086 18.8843 426.484 19.7183C425.883 20.5522 424.987 20.9795 423.798 21H422.793L422.762 18.5903L423.131 18.5596C423.665 18.5186 424.054 18.2041 424.3 17.6162C424.546 17.0283 424.7 16.0269 424.762 14.6118L424.967 9.90527H433.324ZM440.717 21.2051C439.09 21.2051 437.764 20.7061 436.738 19.708C435.72 18.71 435.21 17.3804 435.21 15.7192V15.4321C435.21 14.3179 435.426 13.3232 435.856 12.4482C436.287 11.5664 436.896 10.8896 437.682 10.418C438.475 9.93945 439.377 9.7002 440.389 9.7002C441.906 9.7002 443.099 10.1787 443.967 11.1357C444.842 12.0928 445.28 13.4497 445.28 15.2065V16.4165H438.215C438.311 17.1411 438.598 17.7222 439.076 18.1597C439.562 18.5972 440.173 18.8159 440.912 18.8159C442.053 18.8159 442.945 18.4023 443.588 17.5752L445.044 19.2056C444.6 19.8345 443.998 20.3267 443.239 20.6821C442.48 21.0308 441.64 21.2051 440.717 21.2051ZM440.378 12.0996C439.791 12.0996 439.312 12.2979 438.943 12.6943C438.581 13.0908 438.348 13.6582 438.246 14.3965H442.368V14.1606C442.354 13.5044 442.176 12.9985 441.834 12.6431C441.493 12.2808 441.007 12.0996 440.378 12.0996ZM456.59 21H453.616V16.7344H449.935V21H446.972V9.90527H449.935V14.3555H453.616V9.90527H456.59V21ZM465.572 9.90527H468.536V21H465.572V14.1504L461.86 21H458.887V9.90527H461.86V16.7446L465.572 9.90527ZM477.487 9.90527H480.451V21H477.487V14.1504L473.775 21H470.802V9.90527H473.775V16.7446L477.487 9.90527ZM479.23 5.40381C479.23 6.31299 478.902 7.04785 478.246 7.6084C477.597 8.16895 476.742 8.44922 475.683 8.44922C474.623 8.44922 473.765 8.17236 473.109 7.61865C472.459 7.06494 472.135 6.32666 472.135 5.40381H474.237C474.237 5.83447 474.363 6.16943 474.616 6.40869C474.876 6.64111 475.231 6.75732 475.683 6.75732C476.127 6.75732 476.476 6.64111 476.729 6.40869C476.981 6.16943 477.108 5.83447 477.108 5.40381H479.23ZM492.561 18.8159C493.107 18.8159 493.552 18.6655 493.894 18.3647C494.235 18.064 494.413 17.6641 494.427 17.165H497.206C497.199 17.917 496.994 18.6074 496.59 19.2363C496.187 19.8584 495.633 20.3438 494.929 20.6924C494.232 21.0342 493.459 21.2051 492.612 21.2051C491.026 21.2051 489.775 20.7026 488.859 19.6978C487.943 18.686 487.485 17.2915 487.485 15.5142V15.3193C487.485 13.6104 487.939 12.2466 488.849 11.228C489.758 10.2095 491.005 9.7002 492.591 9.7002C493.979 9.7002 495.09 10.0967 495.924 10.8896C496.765 11.6758 497.192 12.7251 497.206 14.0376H494.427C494.413 13.4634 494.235 12.9985 493.894 12.6431C493.552 12.2808 493.101 12.0996 492.54 12.0996C491.85 12.0996 491.327 12.3525 490.971 12.8584C490.623 13.3574 490.448 14.1709 490.448 15.2988V15.6064C490.448 16.748 490.623 17.5684 490.971 18.0674C491.32 18.5664 491.85 18.8159 492.561 18.8159ZM508.105 12.2842H504.547V21H501.574V12.2842H498.077V9.90527H508.105V12.2842ZM519.59 15.5552C519.59 17.2642 519.2 18.6348 518.421 19.667C517.648 20.6924 516.603 21.2051 515.283 21.2051C514.162 21.2051 513.256 20.8154 512.566 20.0361V25.2656H509.603V9.90527H512.351L512.453 10.9922C513.171 10.1309 514.107 9.7002 515.263 9.7002C516.63 9.7002 517.693 10.2061 518.452 11.2178C519.21 12.2295 519.59 13.624 519.59 15.4014V15.5552ZM516.626 15.3398C516.626 14.3076 516.442 13.5112 516.073 12.9507C515.71 12.3901 515.181 12.1099 514.483 12.1099C513.554 12.1099 512.915 12.4653 512.566 13.1763V17.7188C512.928 18.4502 513.574 18.8159 514.504 18.8159C515.919 18.8159 516.626 17.6572 516.626 15.3398ZM525.455 16.8062L527.506 9.90527H530.685L526.224 22.7227L525.978 23.3071C525.315 24.7563 524.221 25.481 522.697 25.481C522.266 25.481 521.829 25.416 521.384 25.2861V23.0405L521.835 23.0508C522.396 23.0508 522.813 22.9653 523.086 22.7944C523.367 22.6235 523.585 22.3398 523.743 21.9434L524.091 21.0308L520.205 9.90527H523.394L525.455 16.8062ZM536.201 16.9087H535.012V21H532.048V9.90527H535.012V14.0786H536.068L538.488 9.90527H542.23L538.601 15.186L542.569 21H538.621L536.201 16.9087ZM552.895 12.2842H549.336V21H546.363V12.2842H542.866V9.90527H552.895V12.2842ZM558.657 16.8062L560.708 9.90527H563.887L559.426 22.7227L559.18 23.3071C558.517 24.7563 557.423 25.481 555.899 25.481C555.468 25.481 555.031 25.416 554.586 25.2861V23.0405L555.038 23.0508C555.598 23.0508 556.015 22.9653 556.289 22.7944C556.569 22.6235 556.788 22.3398 556.945 21.9434L557.293 21.0308L553.407 9.90527H556.596L558.657 16.8062ZM575.043 15.5552C575.043 17.2642 574.653 18.6348 573.874 19.667C573.102 20.6924 572.056 21.2051 570.736 21.2051C569.615 21.2051 568.709 20.8154 568.019 20.0361V25.2656H565.056V9.90527H567.804L567.906 10.9922C568.624 10.1309 569.561 9.7002 570.716 9.7002C572.083 9.7002 573.146 10.2061 573.905 11.2178C574.664 12.2295 575.043 13.624 575.043 15.4014V15.5552ZM572.08 15.3398C572.08 14.3076 571.895 13.5112 571.526 12.9507C571.164 12.3901 570.634 12.1099 569.937 12.1099C569.007 12.1099 568.368 12.4653 568.019 13.1763V17.7188C568.381 18.4502 569.027 18.8159 569.957 18.8159C571.372 18.8159 572.08 17.6572 572.08 15.3398ZM586.507 21H583.533V16.7344H579.852V21H576.889V9.90527H579.852V14.3555H583.533V9.90527H586.507V21ZM595.489 9.90527H598.453V21H595.489V14.1504L591.777 21H588.804V9.90527H591.777V16.7446L595.489 9.90527ZM607.404 9.90527H610.368V21H607.404V14.1504L603.692 21H600.719V9.90527H603.692V16.7446L607.404 9.90527ZM609.147 5.40381C609.147 6.31299 608.819 7.04785 608.163 7.6084C607.514 8.16895 606.659 8.44922 605.6 8.44922C604.54 8.44922 603.682 8.17236 603.026 7.61865C602.376 7.06494 602.052 6.32666 602.052 5.40381H604.154C604.154 5.83447 604.28 6.16943 604.533 6.40869C604.793 6.64111 605.148 6.75732 605.6 6.75732C606.044 6.75732 606.393 6.64111 606.646 6.40869C606.898 6.16943 607.025 5.83447 607.025 5.40381H609.147ZM627.512 21H624.539V12.3047H620.827V21H617.863V9.90527H627.512V21ZM632.906 21H629.932V9.90527H632.906V21ZM629.758 7.03418C629.758 6.58984 629.905 6.22412 630.199 5.93701C630.5 5.6499 630.906 5.50635 631.419 5.50635C631.925 5.50635 632.328 5.6499 632.629 5.93701C632.93 6.22412 633.08 6.58984 633.08 7.03418C633.08 7.48535 632.926 7.85449 632.619 8.1416C632.318 8.42871 631.918 8.57227 631.419 8.57227C630.92 8.57227 630.517 8.42871 630.209 8.1416C629.908 7.85449 629.758 7.48535 629.758 7.03418ZM635.51 18.6108C636.18 17.8999 636.635 17.1958 636.874 16.4985C637.113 15.8013 637.247 14.8135 637.274 13.5352L637.356 9.90527H645.518V18.6108H647.118V24.3325H644.154V21H637.582V24.3325H634.557V18.6108H635.51ZM639.007 18.6108H642.565V12.356H640.258L640.237 13.689C640.176 15.7261 639.766 17.3667 639.007 18.6108ZM658.428 15.5552C658.428 17.2642 658.038 18.6348 657.259 19.667C656.486 20.6924 655.44 21.2051 654.121 21.2051C653 21.2051 652.094 20.8154 651.404 20.0361V25.2656H648.44V9.90527H651.188L651.291 10.9922C652.009 10.1309 652.945 9.7002 654.101 9.7002C655.468 9.7002 656.531 10.2061 657.29 11.2178C658.048 12.2295 658.428 13.624 658.428 15.4014V15.5552ZM655.464 15.3398C655.464 14.3076 655.28 13.5112 654.911 12.9507C654.548 12.3901 654.019 12.1099 653.321 12.1099C652.392 12.1099 651.752 12.4653 651.404 13.1763V17.7188C651.766 18.4502 652.412 18.8159 653.342 18.8159C654.757 18.8159 655.464 17.6572 655.464 15.3398ZM659.812 15.3501C659.812 14.2495 660.024 13.2686 660.448 12.4072C660.872 11.5459 661.48 10.8794 662.273 10.4077C663.073 9.93604 663.999 9.7002 665.052 9.7002C666.549 9.7002 667.769 10.1582 668.712 11.0742C669.663 11.9902 670.192 13.2344 670.302 14.8066L670.322 15.5654C670.322 17.2676 669.847 18.6348 668.897 19.667C667.947 20.6924 666.672 21.2051 665.072 21.2051C663.473 21.2051 662.194 20.6924 661.237 19.667C660.287 18.6416 659.812 17.2471 659.812 15.4834V15.3501ZM662.775 15.5654C662.775 16.6182 662.974 17.4248 663.37 17.9854C663.767 18.5391 664.334 18.8159 665.072 18.8159C665.79 18.8159 666.351 18.5425 666.754 17.9956C667.157 17.4419 667.359 16.5601 667.359 15.3501C667.359 14.3179 667.157 13.5181 666.754 12.9507C666.351 12.3833 665.783 12.0996 665.052 12.0996C664.327 12.0996 663.767 12.3833 663.37 12.9507C662.974 13.5112 662.775 14.3828 662.775 15.5654ZM677.972 13.1763C677.972 12.7866 677.842 12.4858 677.582 12.2739C677.329 12.0552 676.967 11.9458 676.495 11.9458C676.01 11.9458 675.613 12.0483 675.306 12.2534C675.005 12.4517 674.854 12.7354 674.854 13.1045H671.891C671.891 12.0996 672.308 11.2827 673.142 10.6538C673.976 10.0249 675.042 9.71045 676.341 9.71045C677.77 9.71045 678.891 9.99072 679.705 10.5513C680.525 11.1118 680.935 11.9082 680.935 12.9404C680.935 13.4326 680.785 13.8872 680.484 14.3042C680.19 14.7144 679.773 15.0425 679.233 15.2886C680.498 15.7329 681.13 16.5908 681.13 17.8623C681.13 18.8809 680.692 19.6943 679.817 20.3027C678.949 20.9043 677.791 21.2051 676.341 21.2051C674.995 21.2051 673.887 20.8906 673.019 20.2617C672.151 19.6328 671.717 18.7852 671.717 17.7188H674.68C674.68 18.0947 674.848 18.3989 675.183 18.6313C675.518 18.8638 675.955 18.98 676.495 18.98C677.021 18.98 677.432 18.8569 677.726 18.6108C678.02 18.3647 678.167 18.0435 678.167 17.647C678.167 17.1616 678.026 16.8164 677.746 16.6113C677.466 16.3994 677.045 16.2935 676.485 16.2935H674.875V14.3657H676.587C677.51 14.3384 677.972 13.9419 677.972 13.1763ZM683.088 18.6108C683.758 17.8999 684.213 17.1958 684.452 16.4985C684.691 15.8013 684.825 14.8135 684.852 13.5352L684.934 9.90527H693.096V18.6108H694.696V24.3325H691.732V21H685.16V24.3325H682.135V18.6108H683.088ZM686.585 18.6108H690.143V12.356H687.836L687.815 13.689C687.754 15.7261 687.344 17.3667 686.585 18.6108ZM699.331 21H696.357V9.90527H699.331V21ZM696.183 7.03418C696.183 6.58984 696.33 6.22412 696.624 5.93701C696.924 5.6499 697.331 5.50635 697.844 5.50635C698.35 5.50635 698.753 5.6499 699.054 5.93701C699.354 6.22412 699.505 6.58984 699.505 7.03418C699.505 7.48535 699.351 7.85449 699.043 8.1416C698.743 8.42871 698.343 8.57227 697.844 8.57227C697.345 8.57227 696.941 8.42871 696.634 8.1416C696.333 7.85449 696.183 7.48535 696.183 7.03418ZM711.43 9.90527V21H708.467V12.3047H705.852L705.667 15.7295C705.551 17.5547 705.192 18.8843 704.591 19.7183C703.989 20.5522 703.094 20.9795 701.904 21H700.899L700.869 18.5903L701.238 18.5596C701.771 18.5186 702.161 18.2041 702.407 17.6162C702.653 17.0283 702.807 16.0269 702.868 14.6118L703.073 9.90527H711.43ZM212.598 42.627L215.059 46.7183H213.152L210.281 42.7192V42.5244L213.152 38.5254H215.059L212.598 42.627ZM216.546 42.627L219.007 46.7183H217.1L214.229 42.7192V42.5244L217.1 38.5254H219.007L216.546 42.627ZM230.091 34.4033H230.276C231.445 34.4033 232.501 34.6631 233.444 35.1826C234.395 35.6953 235.133 36.4268 235.659 37.377C236.186 38.3271 236.449 39.4072 236.449 40.6172C236.449 42.4082 235.875 43.8711 234.726 45.0059C233.584 46.1406 232.04 46.708 230.091 46.708V48.6152H227.128V46.708H226.933C225.75 46.708 224.684 46.4551 223.734 45.9492C222.784 45.4365 222.045 44.7188 221.519 43.7959C221 42.873 220.74 41.8203 220.74 40.6377C220.74 39.4414 221 38.3716 221.519 37.4282C222.039 36.4849 222.767 35.75 223.703 35.2236C224.64 34.6904 225.686 34.417 226.841 34.4033H227.128V32.4551H230.091V34.4033ZM226.933 36.9565C225.915 36.9565 225.111 37.2778 224.523 37.9204C223.942 38.563 223.652 39.4688 223.652 40.6377C223.652 41.7314 223.942 42.5928 224.523 43.2217C225.104 43.8438 225.921 44.1548 226.974 44.1548H227.128V36.9565H226.933ZM230.091 36.9565V44.1548H230.296C231.301 44.1548 232.091 43.8403 232.665 43.2114C233.246 42.5757 233.537 41.7109 233.537 40.6172C233.537 39.4756 233.253 38.5801 232.686 37.9307C232.118 37.2812 231.305 36.9565 230.245 36.9565H230.091ZM244.703 48C244.566 47.7334 244.467 47.4019 244.406 47.0054C243.688 47.8052 242.755 48.2051 241.606 48.2051C240.52 48.2051 239.617 47.8906 238.899 47.2617C238.188 46.6328 237.833 45.8398 237.833 44.8828C237.833 43.707 238.267 42.8047 239.135 42.1758C240.01 41.5469 241.271 41.229 242.919 41.2222H244.283V40.5864C244.283 40.0737 244.149 39.6636 243.883 39.356C243.623 39.0483 243.209 38.8945 242.642 38.8945C242.143 38.8945 241.75 39.0142 241.463 39.2534C241.183 39.4927 241.042 39.8208 241.042 40.2378H238.079C238.079 39.5952 238.277 39.0005 238.674 38.4536C239.07 37.9067 239.631 37.4795 240.355 37.1719C241.08 36.8574 241.894 36.7002 242.796 36.7002C244.163 36.7002 245.247 37.0454 246.046 37.7358C246.853 38.4194 247.256 39.3833 247.256 40.6274V45.4365C247.263 46.4893 247.41 47.2856 247.697 47.8257V48H244.703ZM242.252 45.939C242.69 45.939 243.093 45.8433 243.462 45.6519C243.832 45.4536 244.105 45.1904 244.283 44.8623V42.9551H243.175C241.692 42.9551 240.902 43.4678 240.807 44.4932L240.796 44.6675C240.796 45.0366 240.926 45.3408 241.186 45.5801C241.446 45.8193 241.801 45.939 242.252 45.939ZM253.757 40.2173L255.624 36.9053H258.792L255.634 42.3398L258.925 48H255.747L253.768 44.5137L251.799 48H248.61L251.901 42.3398L248.753 36.9053H251.932L253.757 40.2173ZM259.346 42.3501C259.346 41.2495 259.558 40.2686 259.981 39.4072C260.405 38.5459 261.014 37.8794 261.807 37.4077C262.606 36.936 263.533 36.7002 264.585 36.7002C266.083 36.7002 267.303 37.1582 268.246 38.0742C269.196 38.9902 269.726 40.2344 269.835 41.8066L269.856 42.5654C269.856 44.2676 269.381 45.6348 268.431 46.667C267.48 47.6924 266.206 48.2051 264.606 48.2051C263.006 48.2051 261.728 47.6924 260.771 46.667C259.821 45.6416 259.346 44.2471 259.346 42.4834V42.3501ZM262.309 42.5654C262.309 43.6182 262.507 44.4248 262.904 44.9854C263.3 45.5391 263.868 45.8159 264.606 45.8159C265.324 45.8159 265.884 45.5425 266.288 44.9956C266.691 44.4419 266.893 43.5601 266.893 42.3501C266.893 41.3179 266.691 40.5181 266.288 39.9507C265.884 39.3833 265.317 39.0996 264.585 39.0996C263.861 39.0996 263.3 39.3833 262.904 39.9507C262.507 40.5112 262.309 41.3828 262.309 42.5654ZM271.876 48V36.9053H276.511C278.021 36.9053 279.18 37.1719 279.987 37.7051C280.793 38.2383 281.197 39.0039 281.197 40.002C281.197 40.5146 281.026 40.9761 280.684 41.3862C280.349 41.7896 279.857 42.1006 279.208 42.3193C280 42.4697 280.623 42.7671 281.074 43.2114C281.532 43.6489 281.761 44.189 281.761 44.8315C281.761 45.8638 281.371 46.6499 280.592 47.1899C279.819 47.73 278.695 48 277.218 48H271.876ZM274.839 43.396V45.6313H277.229C278.274 45.6313 278.797 45.2656 278.797 44.5342C278.797 43.7891 278.298 43.4097 277.3 43.396H274.839ZM274.839 41.4067H276.675C277.714 41.3931 278.233 41.0581 278.233 40.4019C278.233 39.9985 278.09 39.7114 277.803 39.5405C277.522 39.3696 277.092 39.2842 276.511 39.2842H274.839V41.4067ZM290.261 36.9053H293.225V48H290.261V41.1504L286.549 48H283.576V36.9053H286.549V43.7446L290.261 36.9053ZM302.176 36.9053H305.14V48H302.176V41.1504L298.464 48H295.491V36.9053H298.464V43.7446L302.176 36.9053ZM303.919 32.4038C303.919 33.313 303.591 34.0479 302.935 34.6084C302.286 35.1689 301.431 35.4492 300.372 35.4492C299.312 35.4492 298.454 35.1724 297.798 34.6187C297.148 34.0649 296.824 33.3267 296.824 32.4038H298.926C298.926 32.8345 299.052 33.1694 299.305 33.4087C299.565 33.6411 299.92 33.7573 300.372 33.7573C300.816 33.7573 301.165 33.6411 301.417 33.4087C301.67 33.1694 301.797 32.8345 301.797 32.4038H303.919ZM316.983 43.9087H315.793V48H312.83V36.9053H315.793V41.0786H316.85L319.27 36.9053H323.012L319.382 42.186L323.351 48H319.403L316.983 43.9087ZM323.412 42.3501C323.412 41.2495 323.624 40.2686 324.048 39.4072C324.472 38.5459 325.08 37.8794 325.873 37.4077C326.673 36.936 327.599 36.7002 328.652 36.7002C330.149 36.7002 331.369 37.1582 332.312 38.0742C333.263 38.9902 333.792 40.2344 333.902 41.8066L333.922 42.5654C333.922 44.2676 333.447 45.6348 332.497 46.667C331.547 47.6924 330.272 48.2051 328.672 48.2051C327.073 48.2051 325.794 47.6924 324.837 46.667C323.887 45.6416 323.412 44.2471 323.412 42.4834V42.3501ZM326.375 42.5654C326.375 43.6182 326.574 44.4248 326.97 44.9854C327.367 45.5391 327.934 45.8159 328.672 45.8159C329.39 45.8159 329.951 45.5425 330.354 44.9956C330.757 44.4419 330.959 43.5601 330.959 42.3501C330.959 41.3179 330.757 40.5181 330.354 39.9507C329.951 39.3833 329.383 39.0996 328.652 39.0996C327.927 39.0996 327.367 39.3833 326.97 39.9507C326.574 40.5112 326.375 41.3828 326.375 42.5654ZM345.232 36.9053V48H342.269V39.3047H339.654L339.47 42.7295C339.354 44.5547 338.995 45.8843 338.393 46.7183C337.792 47.5522 336.896 47.9795 335.707 48H334.702L334.671 45.5903L335.04 45.5596C335.573 45.5186 335.963 45.2041 336.209 44.6162C336.455 44.0283 336.609 43.0269 336.67 41.6118L336.875 36.9053H345.232ZM352.625 48.2051C350.999 48.2051 349.672 47.7061 348.647 46.708C347.628 45.71 347.119 44.3804 347.119 42.7192V42.4321C347.119 41.3179 347.334 40.3232 347.765 39.4482C348.196 38.5664 348.804 37.8896 349.59 37.418C350.383 36.9395 351.286 36.7002 352.297 36.7002C353.815 36.7002 355.008 37.1787 355.876 38.1357C356.751 39.0928 357.188 40.4497 357.188 42.2065V43.4165H350.124C350.219 44.1411 350.506 44.7222 350.985 45.1597C351.47 45.5972 352.082 45.8159 352.82 45.8159C353.962 45.8159 354.854 45.4023 355.497 44.5752L356.953 46.2056C356.508 46.8345 355.907 47.3267 355.148 47.6821C354.389 48.0308 353.548 48.2051 352.625 48.2051ZM352.287 39.0996C351.699 39.0996 351.221 39.2979 350.852 39.6943C350.489 40.0908 350.257 40.6582 350.154 41.3965H354.276V41.1606C354.263 40.5044 354.085 39.9985 353.743 39.6431C353.401 39.2808 352.916 39.0996 352.287 39.0996ZM359.034 45.6108C359.704 44.8999 360.159 44.1958 360.398 43.4985C360.637 42.8013 360.771 41.8135 360.798 40.5352L360.88 36.9053H369.042V45.6108H370.642V51.3325H367.678V48H361.105V51.3325H358.081V45.6108H359.034ZM362.531 45.6108H366.089V39.356H363.782L363.761 40.689C363.7 42.7261 363.29 44.3667 362.531 45.6108ZM382.823 43.8882H381.48V48H378.517V43.8882H377.194L374.989 48H371.411L374.907 42.1963L371.452 36.9053H375.123L377.43 41.0479H378.517V36.9053H381.48V41.0479H382.587L384.905 36.9053H388.576L385.141 42.1245L388.668 48H385.028L382.823 43.8882ZM400.429 48.2051C398.802 48.2051 397.476 47.7061 396.451 46.708C395.432 45.71 394.923 44.3804 394.923 42.7192V42.4321C394.923 41.3179 395.138 40.3232 395.569 39.4482C396 38.5664 396.608 37.8896 397.394 37.418C398.187 36.9395 399.089 36.7002 400.101 36.7002C401.619 36.7002 402.812 37.1787 403.68 38.1357C404.555 39.0928 404.992 40.4497 404.992 42.2065V43.4165H397.927C398.023 44.1411 398.31 44.7222 398.789 45.1597C399.274 45.5972 399.886 45.8159 400.624 45.8159C401.766 45.8159 402.658 45.4023 403.3 44.5752L404.756 46.2056C404.312 46.8345 403.71 47.3267 402.952 47.6821C402.193 48.0308 401.352 48.2051 400.429 48.2051ZM400.091 39.0996C399.503 39.0996 399.024 39.2979 398.655 39.6943C398.293 40.0908 398.061 40.6582 397.958 41.3965H402.08V41.1606C402.066 40.5044 401.889 39.9985 401.547 39.6431C401.205 39.2808 400.72 39.0996 400.091 39.0996ZM416.333 36.9053V48H413.37V39.3047H410.755L410.57 42.7295C410.454 44.5547 410.095 45.8843 409.494 46.7183C408.892 47.5522 407.997 47.9795 406.807 48H405.802L405.771 45.5903L406.141 45.5596C406.674 45.5186 407.063 45.2041 407.31 44.6162C407.556 44.0283 407.709 43.0269 407.771 41.6118L407.976 36.9053H416.333ZM423.726 48.2051C422.099 48.2051 420.773 47.7061 419.748 46.708C418.729 45.71 418.22 44.3804 418.22 42.7192V42.4321C418.22 41.3179 418.435 40.3232 418.866 39.4482C419.296 38.5664 419.905 37.8896 420.691 37.418C421.484 36.9395 422.386 36.7002 423.398 36.7002C424.916 36.7002 426.108 37.1787 426.977 38.1357C427.852 39.0928 428.289 40.4497 428.289 42.2065V43.4165H421.224C421.32 44.1411 421.607 44.7222 422.085 45.1597C422.571 45.5972 423.183 45.8159 423.921 45.8159C425.062 45.8159 425.955 45.4023 426.597 44.5752L428.053 46.2056C427.609 46.8345 427.007 47.3267 426.249 47.6821C425.49 48.0308 424.649 48.2051 423.726 48.2051ZM423.388 39.0996C422.8 39.0996 422.321 39.2979 421.952 39.6943C421.59 40.0908 421.357 40.6582 421.255 41.3965H425.377V41.1606C425.363 40.5044 425.186 39.9985 424.844 39.6431C424.502 39.2808 424.017 39.0996 423.388 39.0996ZM434.329 43.9087H433.139V48H430.176V36.9053H433.139V41.0786H434.195L436.615 36.9053H440.358L436.728 42.186L440.696 48H436.749L434.329 43.9087ZM451.022 39.2842H447.464V48H444.49V39.2842H440.994V36.9053H451.022V39.2842ZM462.506 42.5552C462.506 44.2642 462.117 45.6348 461.337 46.667C460.565 47.6924 459.519 48.2051 458.2 48.2051C457.079 48.2051 456.173 47.8154 455.482 47.0361V52.2656H452.519V36.9053H455.267L455.37 37.9922C456.087 37.1309 457.024 36.7002 458.179 36.7002C459.546 36.7002 460.609 37.2061 461.368 38.2178C462.127 39.2295 462.506 40.624 462.506 42.4014V42.5552ZM459.543 42.3398C459.543 41.3076 459.358 40.5112 458.989 39.9507C458.627 39.3901 458.097 39.1099 457.4 39.1099C456.47 39.1099 455.831 39.4653 455.482 40.1763V44.7188C455.845 45.4502 456.491 45.8159 457.42 45.8159C458.835 45.8159 459.543 44.6572 459.543 42.3398ZM463.891 42.3501C463.891 41.2495 464.103 40.2686 464.526 39.4072C464.95 38.5459 465.559 37.8794 466.352 37.4077C467.151 36.936 468.078 36.7002 469.13 36.7002C470.627 36.7002 471.848 37.1582 472.791 38.0742C473.741 38.9902 474.271 40.2344 474.38 41.8066L474.401 42.5654C474.401 44.2676 473.926 45.6348 472.976 46.667C472.025 47.6924 470.75 48.2051 469.151 48.2051C467.551 48.2051 466.273 47.6924 465.316 46.667C464.366 45.6416 463.891 44.2471 463.891 42.4834V42.3501ZM466.854 42.5654C466.854 43.6182 467.052 44.4248 467.449 44.9854C467.845 45.5391 468.413 45.8159 469.151 45.8159C469.869 45.8159 470.429 45.5425 470.833 44.9956C471.236 44.4419 471.438 43.5601 471.438 42.3501C471.438 41.3179 471.236 40.5181 470.833 39.9507C470.429 39.3833 469.862 39.0996 469.13 39.0996C468.406 39.0996 467.845 39.3833 467.449 39.9507C467.052 40.5112 466.854 41.3828 466.854 42.5654ZM485.844 48H482.871V43.7344H479.189V48H476.226V36.9053H479.189V41.3555H482.871V36.9053H485.844V48ZM497.759 48H494.786V43.7344H491.104V48H488.141V36.9053H491.104V41.3555H494.786V36.9053H497.759V48ZM506.742 36.9053H509.705V48H506.742V41.1504L503.03 48H500.056V36.9053H503.03V43.7446L506.742 36.9053ZM516.196 40.2173L518.062 36.9053H521.23L518.072 42.3398L521.364 48H518.185L516.206 44.5137L514.237 48H511.048L514.34 42.3398L511.192 36.9053H514.371L516.196 40.2173ZM537.534 48H534.561V39.3047H530.849V48H527.885V36.9053H537.534V48ZM549.788 42.5552C549.788 44.2642 549.398 45.6348 548.619 46.667C547.846 47.6924 546.8 48.2051 545.481 48.2051C544.36 48.2051 543.454 47.8154 542.764 47.0361V52.2656H539.8V36.9053H542.548L542.651 37.9922C543.369 37.1309 544.305 36.7002 545.46 36.7002C546.828 36.7002 547.891 37.2061 548.649 38.2178C549.408 39.2295 549.788 40.624 549.788 42.4014V42.5552ZM546.824 42.3398C546.824 41.3076 546.64 40.5112 546.271 39.9507C545.908 39.3901 545.378 39.1099 544.681 39.1099C543.751 39.1099 543.112 39.4653 542.764 40.1763V44.7188C543.126 45.4502 543.772 45.8159 544.702 45.8159C546.117 45.8159 546.824 44.6572 546.824 42.3398ZM558.319 36.9053H561.282V48H558.319V41.1504L554.607 48H551.633V36.9053H554.607V43.7446L558.319 36.9053ZM573.197 36.9053V48H570.234V39.3047H567.619L567.435 42.7295C567.318 44.5547 566.959 45.8843 566.358 46.7183C565.756 47.5522 564.861 47.9795 563.671 48H562.667L562.636 45.5903L563.005 45.5596C563.538 45.5186 563.928 45.2041 564.174 44.6162C564.42 44.0283 564.574 43.0269 564.635 41.6118L564.84 36.9053H573.197ZM581.913 48C581.776 47.7334 581.677 47.4019 581.616 47.0054C580.898 47.8052 579.965 48.2051 578.816 48.2051C577.729 48.2051 576.827 47.8906 576.109 47.2617C575.398 46.6328 575.043 45.8398 575.043 44.8828C575.043 43.707 575.477 42.8047 576.345 42.1758C577.22 41.5469 578.481 41.229 580.129 41.2222H581.493V40.5864C581.493 40.0737 581.359 39.6636 581.093 39.356C580.833 39.0483 580.419 38.8945 579.852 38.8945C579.353 38.8945 578.96 39.0142 578.673 39.2534C578.393 39.4927 578.252 39.8208 578.252 40.2378H575.289C575.289 39.5952 575.487 39.0005 575.884 38.4536C576.28 37.9067 576.841 37.4795 577.565 37.1719C578.29 36.8574 579.104 36.7002 580.006 36.7002C581.373 36.7002 582.457 37.0454 583.256 37.7358C584.063 38.4194 584.466 39.3833 584.466 40.6274V45.4365C584.473 46.4893 584.62 47.2856 584.907 47.8257V48H581.913ZM579.462 45.939C579.9 45.939 580.303 45.8433 580.672 45.6519C581.042 45.4536 581.315 45.1904 581.493 44.8623V42.9551H580.385C578.902 42.9551 578.112 43.4678 578.017 44.4932L578.006 44.6675C578.006 45.0366 578.136 45.3408 578.396 45.5801C578.656 45.8193 579.011 45.939 579.462 45.939ZM586.896 45.6108C587.566 44.8999 588.021 44.1958 588.26 43.4985C588.5 42.8013 588.633 41.8135 588.66 40.5352L588.742 36.9053H596.904V45.6108H598.504V51.3325H595.541V48H588.968V51.3325H585.943V45.6108H586.896ZM590.393 45.6108H593.951V39.356H591.644L591.624 40.689C591.562 42.7261 591.152 44.3667 590.393 45.6108ZM603.139 48H600.165V36.9053H603.139V48ZM599.991 34.0342C599.991 33.5898 600.138 33.2241 600.432 32.937C600.732 32.6499 601.139 32.5063 601.652 32.5063C602.158 32.5063 602.561 32.6499 602.862 32.937C603.163 33.2241 603.313 33.5898 603.313 34.0342C603.313 34.4854 603.159 34.8545 602.852 35.1416C602.551 35.4287 602.151 35.5723 601.652 35.5723C601.153 35.5723 600.75 35.4287 600.442 35.1416C600.141 34.8545 599.991 34.4854 599.991 34.0342ZM605.784 48V36.9053H610.419C611.93 36.9053 613.088 37.1719 613.895 37.7051C614.702 38.2383 615.105 39.0039 615.105 40.002C615.105 40.5146 614.934 40.9761 614.592 41.3862C614.257 41.7896 613.765 42.1006 613.116 42.3193C613.909 42.4697 614.531 42.7671 614.982 43.2114C615.44 43.6489 615.669 44.189 615.669 44.8315C615.669 45.8638 615.279 46.6499 614.5 47.1899C613.728 47.73 612.603 48 611.126 48H605.784ZM608.748 43.396V45.6313H611.137C612.183 45.6313 612.706 45.2656 612.706 44.5342C612.706 43.7891 612.207 43.4097 611.208 43.396H608.748ZM608.748 41.4067H610.583C611.622 41.3931 612.142 41.0581 612.142 40.4019C612.142 39.9985 611.998 39.7114 611.711 39.5405C611.431 39.3696 611 39.2842 610.419 39.2842H608.748V41.4067ZM626.179 48H623.103V33.0703H626.179V48ZM629.04 48V36.9053H633.675C635.186 36.9053 636.344 37.1719 637.151 37.7051C637.958 38.2383 638.361 39.0039 638.361 40.002C638.361 40.5146 638.19 40.9761 637.848 41.3862C637.513 41.7896 637.021 42.1006 636.372 42.3193C637.165 42.4697 637.787 42.7671 638.238 43.2114C638.696 43.6489 638.925 44.189 638.925 44.8315C638.925 45.8638 638.535 46.6499 637.756 47.1899C636.983 47.73 635.859 48 634.382 48H629.04ZM632.003 43.396V45.6313H634.393C635.438 45.6313 635.961 45.2656 635.961 44.5342C635.961 43.7891 635.462 43.4097 634.464 43.396H632.003ZM632.003 41.4067H633.839C634.878 41.3931 635.397 41.0581 635.397 40.4019C635.397 39.9985 635.254 39.7114 634.967 39.5405C634.687 39.3696 634.256 39.2842 633.675 39.2842H632.003V41.4067ZM647.169 48C647.032 47.7334 646.933 47.4019 646.872 47.0054C646.154 47.8052 645.221 48.2051 644.072 48.2051C642.985 48.2051 642.083 47.8906 641.365 47.2617C640.654 46.6328 640.299 45.8398 640.299 44.8828C640.299 43.707 640.733 42.8047 641.601 42.1758C642.476 41.5469 643.737 41.229 645.385 41.2222H646.749V40.5864C646.749 40.0737 646.615 39.6636 646.349 39.356C646.089 39.0483 645.675 38.8945 645.108 38.8945C644.609 38.8945 644.216 39.0142 643.929 39.2534C643.648 39.4927 643.508 39.8208 643.508 40.2378H640.545C640.545 39.5952 640.743 39.0005 641.14 38.4536C641.536 37.9067 642.097 37.4795 642.821 37.1719C643.546 36.8574 644.359 36.7002 645.262 36.7002C646.629 36.7002 647.712 37.0454 648.512 37.7358C649.319 38.4194 649.722 39.3833 649.722 40.6274V45.4365C649.729 46.4893 649.876 47.2856 650.163 47.8257V48H647.169ZM644.718 45.939C645.156 45.939 645.559 45.8433 645.928 45.6519C646.297 45.4536 646.571 45.1904 646.749 44.8623V42.9551H645.641C644.158 42.9551 643.368 43.4678 643.272 44.4932L643.262 44.6675C643.262 45.0366 643.392 45.3408 643.652 45.5801C643.912 45.8193 644.267 45.939 644.718 45.939ZM661.617 48H658.643V43.7344H654.962V48H651.999V36.9053H654.962V41.3555H658.643V36.9053H661.617V48ZM663.452 42.3501C663.452 41.2495 663.664 40.2686 664.088 39.4072C664.512 38.5459 665.12 37.8794 665.913 37.4077C666.713 36.936 667.639 36.7002 668.692 36.7002C670.189 36.7002 671.409 37.1582 672.353 38.0742C673.303 38.9902 673.833 40.2344 673.942 41.8066L673.962 42.5654C673.962 44.2676 673.487 45.6348 672.537 46.667C671.587 47.6924 670.312 48.2051 668.712 48.2051C667.113 48.2051 665.834 47.6924 664.877 46.667C663.927 45.6416 663.452 44.2471 663.452 42.4834V42.3501ZM666.416 42.5654C666.416 43.6182 666.614 44.4248 667.01 44.9854C667.407 45.5391 667.974 45.8159 668.712 45.8159C669.43 45.8159 669.991 45.5425 670.394 44.9956C670.797 44.4419 670.999 43.5601 670.999 42.3501C670.999 41.3179 670.797 40.5181 670.394 39.9507C669.991 39.3833 669.423 39.0996 668.692 39.0996C667.967 39.0996 667.407 39.3833 667.01 39.9507C666.614 40.5112 666.416 41.3828 666.416 42.5654ZM681.55 42.8013H675.777V40.4121H681.55V42.8013ZM692.891 34.4033H693.076C694.245 34.4033 695.301 34.6631 696.244 35.1826C697.194 35.6953 697.933 36.4268 698.459 37.377C698.985 38.3271 699.249 39.4072 699.249 40.6172C699.249 42.4082 698.674 43.8711 697.526 45.0059C696.384 46.1406 694.839 46.708 692.891 46.708V48.6152H689.928V46.708H689.733C688.55 46.708 687.484 46.4551 686.534 45.9492C685.583 45.4365 684.845 44.7188 684.319 43.7959C683.799 42.873 683.54 41.8203 683.54 40.6377C683.54 39.4414 683.799 38.3716 684.319 37.4282C684.838 36.4849 685.566 35.75 686.503 35.2236C687.439 34.6904 688.485 34.417 689.641 34.4033H689.928V32.4551H692.891V34.4033ZM689.733 36.9565C688.714 36.9565 687.911 37.2778 687.323 37.9204C686.742 38.563 686.452 39.4688 686.452 40.6377C686.452 41.7314 686.742 42.5928 687.323 43.2217C687.904 43.8438 688.721 44.1548 689.774 44.1548H689.928V36.9565H689.733ZM692.891 36.9565V44.1548H693.096C694.101 44.1548 694.891 43.8403 695.465 43.2114C696.046 42.5757 696.336 41.7109 696.336 40.6172C696.336 39.4756 696.053 38.5801 695.485 37.9307C694.918 37.2812 694.104 36.9565 693.045 36.9565H692.891ZM711.061 42.5552C711.061 44.2642 710.671 45.6348 709.892 46.667C709.12 47.6924 708.074 48.2051 706.754 48.2051C705.633 48.2051 704.728 47.8154 704.037 47.0361V52.2656H701.074V36.9053H703.822L703.924 37.9922C704.642 37.1309 705.579 36.7002 706.734 36.7002C708.101 36.7002 709.164 37.2061 709.923 38.2178C710.682 39.2295 711.061 40.624 711.061 42.4014V42.5552ZM708.098 42.3398C708.098 41.3076 707.913 40.5112 707.544 39.9507C707.182 39.3901 706.652 39.1099 705.955 39.1099C705.025 39.1099 704.386 39.4653 704.037 40.1763V44.7188C704.399 45.4502 705.045 45.8159 705.975 45.8159C707.39 45.8159 708.098 44.6572 708.098 42.3398ZM719.336 48C719.199 47.7334 719.1 47.4019 719.039 47.0054C718.321 47.8052 717.388 48.2051 716.239 48.2051C715.152 48.2051 714.25 47.8906 713.532 47.2617C712.821 46.6328 712.466 45.8398 712.466 44.8828C712.466 43.707 712.9 42.8047 713.768 42.1758C714.643 41.5469 715.904 41.229 717.552 41.2222H718.916V40.5864C718.916 40.0737 718.782 39.6636 718.516 39.356C718.256 39.0483 717.842 38.8945 717.275 38.8945C716.776 38.8945 716.383 39.0142 716.096 39.2534C715.815 39.4927 715.675 39.8208 715.675 40.2378H712.712C712.712 39.5952 712.91 39.0005 713.307 38.4536C713.703 37.9067 714.264 37.4795 714.988 37.1719C715.713 36.8574 716.526 36.7002 717.429 36.7002C718.796 36.7002 719.879 37.0454 720.679 37.7358C721.486 38.4194 721.889 39.3833 721.889 40.6274V45.4365C721.896 46.4893 722.043 47.2856 722.33 47.8257V48H719.336ZM716.885 45.939C717.323 45.939 717.726 45.8433 718.095 45.6519C718.464 45.4536 718.738 45.1904 718.916 44.8623V42.9551H717.808C716.325 42.9551 715.535 43.4678 715.439 44.4932L715.429 44.6675C715.429 45.0366 715.559 45.3408 715.819 45.5801C716.079 45.8193 716.434 45.939 716.885 45.939ZM733.784 48H730.81V43.7344H727.129V48H724.166V36.9053H727.129V41.3555H730.81V36.9053H733.784V48ZM740.428 43.9087H739.239V48H736.275V36.9053H739.239V41.0786H740.295L742.715 36.9053H746.458L742.828 42.186L746.796 48H742.848L740.428 43.9087ZM751.041 48H748.067V36.9053H751.041V48ZM747.893 34.0342C747.893 33.5898 748.04 33.2241 748.334 32.937C748.635 32.6499 749.042 32.5063 749.554 32.5063C750.06 32.5063 750.463 32.6499 750.764 32.937C751.065 33.2241 751.215 33.5898 751.215 34.0342C751.215 34.4854 751.062 34.8545 750.754 35.1416C750.453 35.4287 750.053 35.5723 749.554 35.5723C749.055 35.5723 748.652 35.4287 748.344 35.1416C748.043 34.8545 747.893 34.4854 747.893 34.0342ZM753.687 48V36.9053H758.321C759.832 36.9053 760.991 37.1719 761.797 37.7051C762.604 38.2383 763.007 39.0039 763.007 40.002C763.007 40.5146 762.836 40.9761 762.495 41.3862C762.16 41.7896 761.667 42.1006 761.018 42.3193C761.811 42.4697 762.433 42.7671 762.884 43.2114C763.342 43.6489 763.571 44.189 763.571 44.8315C763.571 45.8638 763.182 46.6499 762.402 47.1899C761.63 47.73 760.505 48 759.029 48H753.687ZM756.65 43.396V45.6313H759.039C760.085 45.6313 760.608 45.2656 760.608 44.5342C760.608 43.7891 760.109 43.4097 759.111 43.396H756.65ZM756.65 41.4067H758.485C759.524 41.3931 760.044 41.0581 760.044 40.4019C760.044 39.9985 759.9 39.7114 759.613 39.5405C759.333 39.3696 758.902 39.2842 758.321 39.2842H756.65V41.4067ZM770 45.8159C770.547 45.8159 770.992 45.6655 771.333 45.3647C771.675 45.064 771.853 44.6641 771.867 44.165H774.646C774.639 44.917 774.434 45.6074 774.03 46.2363C773.627 46.8584 773.073 47.3438 772.369 47.6924C771.672 48.0342 770.899 48.2051 770.052 48.2051C768.466 48.2051 767.215 47.7026 766.299 46.6978C765.383 45.686 764.925 44.2915 764.925 42.5142V42.3193C764.925 40.6104 765.379 39.2466 766.289 38.228C767.198 37.2095 768.445 36.7002 770.031 36.7002C771.419 36.7002 772.53 37.0967 773.364 37.8896C774.205 38.6758 774.632 39.7251 774.646 41.0376H771.867C771.853 40.4634 771.675 39.9985 771.333 39.6431C770.992 39.2808 770.541 39.0996 769.98 39.0996C769.29 39.0996 768.767 39.3525 768.411 39.8584C768.062 40.3574 767.888 41.1709 767.888 42.2988V42.6064C767.888 43.748 768.062 44.5684 768.411 45.0674C768.76 45.5664 769.29 45.8159 770 45.8159ZM779.506 40.1558H781.628C782.585 40.1558 783.426 40.3164 784.151 40.6377C784.875 40.959 785.429 41.4204 785.812 42.022C786.202 42.6167 786.396 43.3105 786.396 44.1035C786.396 45.2725 785.962 46.2158 785.094 46.9336C784.233 47.6445 783.057 48 781.567 48H776.532V36.9053H779.506V40.1558ZM779.506 42.5347V45.6313H781.608C782.196 45.6313 782.647 45.4946 782.961 45.2212C783.276 44.9478 783.433 44.5752 783.433 44.1035C783.433 43.625 783.279 43.2456 782.972 42.9653C782.664 42.6782 782.209 42.5347 781.608 42.5347H779.506ZM792.416 43.9087H791.226V48H788.263V36.9053H791.226V41.0786H792.282L794.702 36.9053H798.445L794.815 42.186L798.783 48H794.835L792.416 43.9087ZM798.845 42.3501C798.845 41.2495 799.057 40.2686 799.48 39.4072C799.904 38.5459 800.513 37.8794 801.306 37.4077C802.105 36.936 803.032 36.7002 804.084 36.7002C805.582 36.7002 806.802 37.1582 807.745 38.0742C808.695 38.9902 809.225 40.2344 809.334 41.8066L809.355 42.5654C809.355 44.2676 808.88 45.6348 807.93 46.667C806.979 47.6924 805.705 48.2051 804.105 48.2051C802.505 48.2051 801.227 47.6924 800.27 46.667C799.32 45.6416 798.845 44.2471 798.845 42.4834V42.3501ZM801.808 42.5654C801.808 43.6182 802.006 44.4248 802.403 44.9854C802.799 45.5391 803.367 45.8159 804.105 45.8159C804.823 45.8159 805.383 45.5425 805.787 44.9956C806.19 44.4419 806.392 43.5601 806.392 42.3501C806.392 41.3179 806.19 40.5181 805.787 39.9507C805.383 39.3833 804.816 39.0996 804.084 39.0996C803.36 39.0996 802.799 39.3833 802.403 39.9507C802.006 40.5112 801.808 41.3828 801.808 42.5654ZM818.737 39.3047H814.144V48H811.18V36.9053H818.737V39.3047ZM819.312 42.3501C819.312 41.2495 819.523 40.2686 819.947 39.4072C820.371 38.5459 820.979 37.8794 821.772 37.4077C822.572 36.936 823.499 36.7002 824.551 36.7002C826.048 36.7002 827.269 37.1582 828.212 38.0742C829.162 38.9902 829.692 40.2344 829.801 41.8066L829.822 42.5654C829.822 44.2676 829.347 45.6348 828.396 46.667C827.446 47.6924 826.171 48.2051 824.572 48.2051C822.972 48.2051 821.694 47.6924 820.737 46.667C819.787 45.6416 819.312 44.2471 819.312 42.4834V42.3501ZM822.275 42.5654C822.275 43.6182 822.473 44.4248 822.87 44.9854C823.266 45.5391 823.833 45.8159 824.572 45.8159C825.29 45.8159 825.85 45.5425 826.253 44.9956C826.657 44.4419 826.858 43.5601 826.858 42.3501C826.858 41.3179 826.657 40.5181 826.253 39.9507C825.85 39.3833 825.283 39.0996 824.551 39.0996C823.827 39.0996 823.266 39.3833 822.87 39.9507C822.473 40.5112 822.275 41.3828 822.275 42.5654ZM269.282 75H266.308V70.7344H262.627V75H259.664V63.9053H262.627V68.3555H266.308V63.9053H269.282V75ZM278.008 75C277.871 74.7334 277.772 74.4019 277.71 74.0054C276.993 74.8052 276.06 75.2051 274.911 75.2051C273.824 75.2051 272.922 74.8906 272.204 74.2617C271.493 73.6328 271.138 72.8398 271.138 71.8828C271.138 70.707 271.572 69.8047 272.44 69.1758C273.315 68.5469 274.576 68.229 276.224 68.2222H277.587V67.5864C277.587 67.0737 277.454 66.6636 277.188 66.356C276.928 66.0483 276.514 65.8945 275.947 65.8945C275.448 65.8945 275.055 66.0142 274.768 66.2534C274.487 66.4927 274.347 66.8208 274.347 67.2378H271.384C271.384 66.5952 271.582 66.0005 271.979 65.4536C272.375 64.9067 272.936 64.4795 273.66 64.1719C274.385 63.8574 275.198 63.7002 276.101 63.7002C277.468 63.7002 278.551 64.0454 279.351 64.7358C280.158 65.4194 280.561 66.3833 280.561 67.6274V72.4365C280.568 73.4893 280.715 74.2856 281.002 74.8257V75H278.008ZM275.557 72.939C275.995 72.939 276.398 72.8433 276.767 72.6519C277.136 72.4536 277.41 72.1904 277.587 71.8623V69.9551H276.48C274.997 69.9551 274.207 70.4678 274.111 71.4932L274.101 71.6675C274.101 72.0366 274.231 72.3408 274.491 72.5801C274.75 72.8193 275.106 72.939 275.557 72.939ZM282.837 63.9053H285.801V72.6108H289.513V63.9053H292.486V72.6313H294.147L293.942 78.2915H291.184V75H282.837V63.9053ZM298.762 75H295.788V63.9053H298.762V75ZM295.614 61.0342C295.614 60.5898 295.761 60.2241 296.055 59.937C296.355 59.6499 296.762 59.5063 297.275 59.5063C297.781 59.5063 298.184 59.6499 298.485 59.937C298.786 60.2241 298.936 60.5898 298.936 61.0342C298.936 61.4854 298.782 61.8545 298.475 62.1416C298.174 62.4287 297.774 62.5723 297.275 62.5723C296.776 62.5723 296.373 62.4287 296.065 62.1416C295.764 61.8545 295.614 61.4854 295.614 61.0342ZM300.751 69.3501C300.751 68.2495 300.963 67.2686 301.387 66.4072C301.811 65.5459 302.419 64.8794 303.212 64.4077C304.012 63.936 304.938 63.7002 305.991 63.7002C307.488 63.7002 308.708 64.1582 309.651 65.0742C310.602 65.9902 311.131 67.2344 311.241 68.8066L311.261 69.5654C311.261 71.2676 310.786 72.6348 309.836 73.667C308.886 74.6924 307.611 75.2051 306.011 75.2051C304.412 75.2051 303.133 74.6924 302.176 73.667C301.226 72.6416 300.751 71.2471 300.751 69.4834V69.3501ZM303.714 69.5654C303.714 70.6182 303.913 71.4248 304.309 71.9854C304.706 72.5391 305.273 72.8159 306.011 72.8159C306.729 72.8159 307.29 72.5425 307.693 71.9956C308.096 71.4419 308.298 70.5601 308.298 69.3501C308.298 68.3179 308.096 67.5181 307.693 66.9507C307.29 66.3833 306.722 66.0996 305.991 66.0996C305.266 66.0996 304.706 66.3833 304.309 66.9507C303.913 67.5112 303.714 68.3828 303.714 69.5654ZM322.705 75H319.731V70.7344H316.05V75H313.086V63.9053H316.05V68.3555H319.731V63.9053H322.705V75ZM331.431 75C331.294 74.7334 331.195 74.4019 331.133 74.0054C330.416 74.8052 329.482 75.2051 328.334 75.2051C327.247 75.2051 326.345 74.8906 325.627 74.2617C324.916 73.6328 324.561 72.8398 324.561 71.8828C324.561 70.707 324.995 69.8047 325.863 69.1758C326.738 68.5469 327.999 68.229 329.646 68.2222H331.01V67.5864C331.01 67.0737 330.877 66.6636 330.61 66.356C330.351 66.0483 329.937 65.8945 329.37 65.8945C328.871 65.8945 328.478 66.0142 328.19 66.2534C327.91 66.4927 327.77 66.8208 327.77 67.2378H324.807C324.807 66.5952 325.005 66.0005 325.401 65.4536C325.798 64.9067 326.358 64.4795 327.083 64.1719C327.808 63.8574 328.621 63.7002 329.523 63.7002C330.891 63.7002 331.974 64.0454 332.774 64.7358C333.581 65.4194 333.984 66.3833 333.984 67.6274V72.4365C333.991 73.4893 334.138 74.2856 334.425 74.8257V75H331.431ZM328.98 72.939C329.417 72.939 329.821 72.8433 330.19 72.6519C330.559 72.4536 330.833 72.1904 331.01 71.8623V69.9551H329.903C328.419 69.9551 327.63 70.4678 327.534 71.4932L327.524 71.6675C327.524 72.0366 327.654 72.3408 327.914 72.5801C328.173 72.8193 328.529 72.939 328.98 72.939ZM345.909 63.9053V75H342.946V66.3047H340.331L340.146 69.7295C340.03 71.5547 339.671 72.8843 339.07 73.7183C338.468 74.5522 337.573 74.9795 336.383 75H335.378L335.348 72.5903L335.717 72.5596C336.25 72.5186 336.64 72.2041 336.886 71.6162C337.132 71.0283 337.286 70.0269 337.347 68.6118L337.552 63.9053H345.909ZM351.364 67.1558H353.487C354.444 67.1558 355.285 67.3164 356.009 67.6377C356.734 67.959 357.288 68.4204 357.67 69.022C358.06 69.6167 358.255 70.3105 358.255 71.1035C358.255 72.2725 357.821 73.2158 356.953 73.9336C356.091 74.6445 354.916 75 353.425 75H348.391V63.9053H351.364V67.1558ZM351.364 69.5347V72.6313H353.466C354.054 72.6313 354.505 72.4946 354.82 72.2212C355.134 71.9478 355.292 71.5752 355.292 71.1035C355.292 70.625 355.138 70.2456 354.83 69.9653C354.522 69.6782 354.068 69.5347 353.466 69.5347H351.364ZM369.544 75H366.571V70.7344H362.89V75H359.926V63.9053H362.89V68.3555H366.571V63.9053H369.544V75ZM371.38 69.3501C371.38 68.2495 371.592 67.2686 372.016 66.4072C372.439 65.5459 373.048 64.8794 373.841 64.4077C374.641 63.936 375.567 63.7002 376.62 63.7002C378.117 63.7002 379.337 64.1582 380.28 65.0742C381.23 65.9902 381.76 67.2344 381.87 68.8066L381.89 69.5654C381.89 71.2676 381.415 72.6348 380.465 73.667C379.515 74.6924 378.24 75.2051 376.64 75.2051C375.041 75.2051 373.762 74.6924 372.805 73.667C371.855 72.6416 371.38 71.2471 371.38 69.4834V69.3501ZM374.343 69.5654C374.343 70.6182 374.542 71.4248 374.938 71.9854C375.334 72.5391 375.902 72.8159 376.64 72.8159C377.358 72.8159 377.918 72.5425 378.322 71.9956C378.725 71.4419 378.927 70.5601 378.927 69.3501C378.927 68.3179 378.725 67.5181 378.322 66.9507C377.918 66.3833 377.351 66.0996 376.62 66.0996C375.895 66.0996 375.334 66.3833 374.938 66.9507C374.542 67.5112 374.343 68.3828 374.343 69.5654ZM391.272 66.3047H386.679V75H383.715V63.9053H391.272V66.3047ZM391.847 69.3501C391.847 68.2495 392.059 67.2686 392.482 66.4072C392.906 65.5459 393.515 64.8794 394.308 64.4077C395.107 63.936 396.034 63.7002 397.086 63.7002C398.583 63.7002 399.804 64.1582 400.747 65.0742C401.697 65.9902 402.227 67.2344 402.336 68.8066L402.357 69.5654C402.357 71.2676 401.882 72.6348 400.932 73.667C399.981 74.6924 398.707 75.2051 397.107 75.2051C395.507 75.2051 394.229 74.6924 393.272 73.667C392.322 72.6416 391.847 71.2471 391.847 69.4834V69.3501ZM394.81 69.5654C394.81 70.6182 395.008 71.4248 395.405 71.9854C395.801 72.5391 396.369 72.8159 397.107 72.8159C397.825 72.8159 398.385 72.5425 398.789 71.9956C399.192 71.4419 399.394 70.5601 399.394 69.3501C399.394 68.3179 399.192 67.5181 398.789 66.9507C398.385 66.3833 397.818 66.0996 397.086 66.0996C396.362 66.0996 395.801 66.3833 395.405 66.9507C395.008 67.5112 394.81 68.3828 394.81 69.5654ZM418.62 66.2842H415.062V75H412.088V66.2842H408.591V63.9053H418.62V66.2842ZM424.567 75.2051C422.94 75.2051 421.614 74.7061 420.588 73.708C419.57 72.71 419.061 71.3804 419.061 69.7192V69.4321C419.061 68.3179 419.276 67.3232 419.707 66.4482C420.137 65.5664 420.746 64.8896 421.532 64.418C422.325 63.9395 423.227 63.7002 424.239 63.7002C425.756 63.7002 426.949 64.1787 427.817 65.1357C428.692 66.0928 429.13 67.4497 429.13 69.2065V70.4165H422.065C422.161 71.1411 422.448 71.7222 422.926 72.1597C423.412 72.5972 424.023 72.8159 424.762 72.8159C425.903 72.8159 426.795 72.4023 427.438 71.5752L428.894 73.2056C428.45 73.8345 427.848 74.3267 427.089 74.6821C426.331 75.0308 425.49 75.2051 424.567 75.2051ZM424.229 66.0996C423.641 66.0996 423.162 66.2979 422.793 66.6943C422.431 67.0908 422.198 67.6582 422.096 68.3965H426.218V68.1606C426.204 67.5044 426.026 66.9985 425.685 66.6431C425.343 66.2808 424.857 66.0996 424.229 66.0996ZM435.046 67.2173L436.913 63.9053H440.081L436.923 69.3398L440.214 75H437.036L435.057 71.5137L433.088 75H429.899L433.19 69.3398L430.042 63.9053H433.221L435.046 67.2173ZM451.125 75H448.151V70.7344H444.47V75H441.506V63.9053H444.47V68.3555H448.151V63.9053H451.125V75ZM456.549 75H453.575V63.9053H456.549V75ZM453.401 61.0342C453.401 60.5898 453.548 60.2241 453.842 59.937C454.143 59.6499 454.549 59.5063 455.062 59.5063C455.568 59.5063 455.971 59.6499 456.272 59.937C456.573 60.2241 456.723 60.5898 456.723 61.0342C456.723 61.4854 456.569 61.8545 456.262 62.1416C455.961 62.4287 455.561 62.5723 455.062 62.5723C454.563 62.5723 454.16 62.4287 453.852 62.1416C453.551 61.8545 453.401 61.4854 453.401 61.0342ZM468.351 75H465.388V71.5137C464.834 71.6162 464.318 71.6675 463.839 71.6675C462.165 71.6675 460.903 71.312 460.056 70.6011C459.208 69.8901 458.777 68.8511 458.764 67.4839V63.9053H461.727V67.4839C461.734 68.1265 461.891 68.5879 462.199 68.8682C462.506 69.1416 463.053 69.2783 463.839 69.2783C464.332 69.2783 464.848 69.2202 465.388 69.104V63.9053H468.351V75ZM480.246 75H477.272V70.7344H473.591V75H470.627V63.9053H473.591V68.3555H477.272V63.9053H480.246V75ZM482.081 69.3501C482.081 68.2495 482.293 67.2686 482.717 66.4072C483.141 65.5459 483.749 64.8794 484.542 64.4077C485.342 63.936 486.268 63.7002 487.321 63.7002C488.818 63.7002 490.038 64.1582 490.981 65.0742C491.932 65.9902 492.461 67.2344 492.571 68.8066L492.591 69.5654C492.591 71.2676 492.116 72.6348 491.166 73.667C490.216 74.6924 488.941 75.2051 487.341 75.2051C485.742 75.2051 484.463 74.6924 483.506 73.667C482.556 72.6416 482.081 71.2471 482.081 69.4834V69.3501ZM485.044 69.5654C485.044 70.6182 485.243 71.4248 485.639 71.9854C486.036 72.5391 486.603 72.8159 487.341 72.8159C488.059 72.8159 488.62 72.5425 489.023 71.9956C489.426 71.4419 489.628 70.5601 489.628 69.3501C489.628 68.3179 489.426 67.5181 489.023 66.9507C488.62 66.3833 488.052 66.0996 487.321 66.0996C486.596 66.0996 486.036 66.3833 485.639 66.9507C485.243 67.5112 485.044 68.3828 485.044 69.5654ZM501.974 66.3047H497.38V75H494.417V63.9053H501.974V66.3047ZM502.548 69.3501C502.548 68.2495 502.76 67.2686 503.184 66.4072C503.607 65.5459 504.216 64.8794 505.009 64.4077C505.809 63.936 506.735 63.7002 507.788 63.7002C509.285 63.7002 510.505 64.1582 511.448 65.0742C512.398 65.9902 512.928 67.2344 513.038 68.8066L513.058 69.5654C513.058 71.2676 512.583 72.6348 511.633 73.667C510.683 74.6924 509.408 75.2051 507.808 75.2051C506.208 75.2051 504.93 74.6924 503.973 73.667C503.023 72.6416 502.548 71.2471 502.548 69.4834V69.3501ZM505.511 69.5654C505.511 70.6182 505.709 71.4248 506.106 71.9854C506.502 72.5391 507.07 72.8159 507.808 72.8159C508.526 72.8159 509.086 72.5425 509.49 71.9956C509.893 71.4419 510.095 70.5601 510.095 69.3501C510.095 68.3179 509.893 67.5181 509.49 66.9507C509.086 66.3833 508.519 66.0996 507.788 66.0996C507.063 66.0996 506.502 66.3833 506.106 66.9507C505.709 67.5112 505.511 68.3828 505.511 69.5654ZM524.255 70.8062L526.306 63.9053H529.485L525.024 76.7227L524.778 77.3071C524.115 78.7563 523.021 79.481 521.497 79.481C521.066 79.481 520.629 79.416 520.185 79.2861V77.0405L520.636 77.0508C521.196 77.0508 521.613 76.9653 521.887 76.7944C522.167 76.6235 522.386 76.3398 522.543 75.9434L522.892 75.0308L519.005 63.9053H522.194L524.255 70.8062ZM540.272 75H537.298V70.7344H533.617V75H530.654V63.9053H533.617V68.3555H537.298V63.9053H540.272V75ZM545.696 75H542.723V63.9053H545.696V75ZM542.548 61.0342C542.548 60.5898 542.695 60.2241 542.989 59.937C543.29 59.6499 543.697 59.5063 544.209 59.5063C544.715 59.5063 545.119 59.6499 545.419 59.937C545.72 60.2241 545.871 60.5898 545.871 61.0342C545.871 61.4854 545.717 61.8545 545.409 62.1416C545.108 62.4287 544.708 62.5723 544.209 62.5723C543.71 62.5723 543.307 62.4287 543 62.1416C542.699 61.8545 542.548 61.4854 542.548 61.0342ZM548.342 75V63.9053H552.977C554.487 63.9053 555.646 64.1719 556.453 64.7051C557.259 65.2383 557.663 66.0039 557.663 67.002C557.663 67.5146 557.492 67.9761 557.15 68.3862C556.815 68.7896 556.323 69.1006 555.673 69.3193C556.466 69.4697 557.088 69.7671 557.54 70.2114C557.998 70.6489 558.227 71.189 558.227 71.8315C558.227 72.8638 557.837 73.6499 557.058 74.1899C556.285 74.73 555.161 75 553.684 75H548.342ZM551.305 70.396V72.6313H553.694C554.74 72.6313 555.263 72.2656 555.263 71.5342C555.263 70.7891 554.764 70.4097 553.766 70.396H551.305ZM551.305 68.4067H553.141C554.18 68.3931 554.699 68.0581 554.699 67.4019C554.699 66.9985 554.556 66.7114 554.269 66.5405C553.988 66.3696 553.558 66.2842 552.977 66.2842H551.305V68.4067ZM565.148 75.2051C563.521 75.2051 562.195 74.7061 561.169 73.708C560.151 72.71 559.642 71.3804 559.642 69.7192V69.4321C559.642 68.3179 559.857 67.3232 560.288 66.4482C560.718 65.5664 561.327 64.8896 562.113 64.418C562.906 63.9395 563.808 63.7002 564.82 63.7002C566.337 63.7002 567.53 64.1787 568.398 65.1357C569.273 66.0928 569.711 67.4497 569.711 69.2065V70.4165H562.646C562.742 71.1411 563.029 71.7222 563.507 72.1597C563.993 72.5972 564.604 72.8159 565.343 72.8159C566.484 72.8159 567.376 72.4023 568.019 71.5752L569.475 73.2056C569.031 73.8345 568.429 74.3267 567.67 74.6821C566.912 75.0308 566.071 75.2051 565.148 75.2051ZM564.81 66.0996C564.222 66.0996 563.743 66.2979 563.374 66.6943C563.012 67.0908 562.779 67.6582 562.677 68.3965H566.799V68.1606C566.785 67.5044 566.607 66.9985 566.266 66.6431C565.924 66.2808 565.438 66.0996 564.81 66.0996ZM581.39 69.5552C581.39 71.2642 581 72.6348 580.221 73.667C579.449 74.6924 578.403 75.2051 577.083 75.2051C575.962 75.2051 575.057 74.8154 574.366 74.0361V79.2656H571.403V63.9053H574.151L574.253 64.9922C574.971 64.1309 575.908 63.7002 577.063 63.7002C578.43 63.7002 579.493 64.2061 580.252 65.2178C581.011 66.2295 581.39 67.624 581.39 69.4014V69.5552ZM578.427 69.3398C578.427 68.3076 578.242 67.5112 577.873 66.9507C577.511 66.3901 576.981 66.1099 576.284 66.1099C575.354 66.1099 574.715 66.4653 574.366 67.1763V71.7188C574.729 72.4502 575.375 72.8159 576.304 72.8159C577.719 72.8159 578.427 71.6572 578.427 69.3398ZM587.85 72.8159C588.397 72.8159 588.841 72.6655 589.183 72.3647C589.525 72.064 589.703 71.6641 589.716 71.165H592.495C592.488 71.917 592.283 72.6074 591.88 73.2363C591.477 73.8584 590.923 74.3438 590.219 74.6924C589.521 75.0342 588.749 75.2051 587.901 75.2051C586.315 75.2051 585.064 74.7026 584.148 73.6978C583.232 72.686 582.774 71.2915 582.774 69.5142V69.3193C582.774 67.6104 583.229 66.2466 584.138 65.228C585.047 64.2095 586.295 63.7002 587.881 63.7002C589.269 63.7002 590.379 64.0967 591.213 64.8896C592.054 65.6758 592.481 66.7251 592.495 68.0376H589.716C589.703 67.4634 589.525 66.9985 589.183 66.6431C588.841 66.2808 588.39 66.0996 587.83 66.0996C587.139 66.0996 586.616 66.3525 586.261 66.8584C585.912 67.3574 585.738 68.1709 585.738 69.2988V69.6064C585.738 70.748 585.912 71.5684 586.261 72.0674C586.609 72.5664 587.139 72.8159 587.85 72.8159ZM600.873 63.9053H603.836V75H600.873V68.1504L597.161 75H594.187V63.9053H597.161V70.7446L600.873 63.9053ZM615.31 66.2842H611.752V75H608.778V66.2842H605.282V63.9053H615.31V66.2842ZM621.257 75.2051C619.63 75.2051 618.304 74.7061 617.279 73.708C616.26 72.71 615.751 71.3804 615.751 69.7192V69.4321C615.751 68.3179 615.966 67.3232 616.397 66.4482C616.828 65.5664 617.436 64.8896 618.222 64.418C619.015 63.9395 619.917 63.7002 620.929 63.7002C622.447 63.7002 623.64 64.1787 624.508 65.1357C625.383 66.0928 625.82 67.4497 625.82 69.2065V70.4165H618.755C618.851 71.1411 619.138 71.7222 619.617 72.1597C620.102 72.5972 620.714 72.8159 621.452 72.8159C622.594 72.8159 623.486 72.4023 624.128 71.5752L625.584 73.2056C625.14 73.8345 624.539 74.3267 623.78 74.6821C623.021 75.0308 622.18 75.2051 621.257 75.2051ZM620.919 66.0996C620.331 66.0996 619.853 66.2979 619.483 66.6943C619.121 67.0908 618.889 67.6582 618.786 68.3965H622.908V68.1606C622.895 67.5044 622.717 66.9985 622.375 66.6431C622.033 66.2808 621.548 66.0996 620.919 66.0996ZM636.597 66.2842H633.039V75H630.065V66.2842H626.569V63.9053H636.597V66.2842ZM642.36 70.8062L644.411 63.9053H647.589L643.129 76.7227L642.883 77.3071C642.22 78.7563 641.126 79.481 639.602 79.481C639.171 79.481 638.733 79.416 638.289 79.2861V77.0405L638.74 77.0508C639.301 77.0508 639.718 76.9653 639.991 76.7944C640.271 76.6235 640.49 76.3398 640.647 75.9434L640.996 75.0308L637.11 63.9053H640.299L642.36 70.8062ZM663.606 75H660.632V70.7344H656.951V75H653.988V63.9053H656.951V68.3555H660.632V63.9053H663.606V75ZM672.332 75C672.195 74.7334 672.096 74.4019 672.035 74.0054C671.317 74.8052 670.384 75.2051 669.235 75.2051C668.148 75.2051 667.246 74.8906 666.528 74.2617C665.817 73.6328 665.462 72.8398 665.462 71.8828C665.462 70.707 665.896 69.8047 666.764 69.1758C667.639 68.5469 668.9 68.229 670.548 68.2222H671.912V67.5864C671.912 67.0737 671.778 66.6636 671.512 66.356C671.252 66.0483 670.838 65.8945 670.271 65.8945C669.772 65.8945 669.379 66.0142 669.092 66.2534C668.812 66.4927 668.671 66.8208 668.671 67.2378H665.708C665.708 66.5952 665.906 66.0005 666.303 65.4536C666.699 64.9067 667.26 64.4795 667.984 64.1719C668.709 63.8574 669.522 63.7002 670.425 63.7002C671.792 63.7002 672.875 64.0454 673.675 64.7358C674.482 65.4194 674.885 66.3833 674.885 67.6274V72.4365C674.892 73.4893 675.039 74.2856 675.326 74.8257V75H672.332ZM669.881 72.939C670.319 72.939 670.722 72.8433 671.091 72.6519C671.46 72.4536 671.734 72.1904 671.912 71.8623V69.9551H670.804C669.321 69.9551 668.531 70.4678 668.436 71.4932L668.425 71.6675C668.425 72.0366 668.555 72.3408 668.815 72.5801C669.075 72.8193 669.43 72.939 669.881 72.939ZM676.721 69.5347C676.721 67.7505 677.083 66.332 677.808 65.2793C678.539 64.2266 679.544 63.7002 680.822 63.7002C681.321 63.7002 681.776 63.7993 682.186 63.9976V59.25H685.149V64.0078C685.573 63.8027 686.042 63.7002 686.554 63.7002C687.839 63.7002 688.844 64.2266 689.569 65.2793C690.3 66.3252 690.666 67.8154 690.666 69.75C690.666 71.4248 690.3 72.7544 689.569 73.7388C688.837 74.7163 687.839 75.2051 686.575 75.2051C686.048 75.2051 685.573 75.1094 685.149 74.918V79.2656H682.186V74.9282C681.776 75.1128 681.314 75.2051 680.802 75.2051C679.605 75.2051 678.645 74.7573 677.92 73.8618C677.196 72.9663 676.799 71.7393 676.731 70.1807L676.721 69.5347ZM687.692 69.5347C687.692 68.4272 687.525 67.5796 687.19 66.9917C686.855 66.397 686.383 66.0996 685.775 66.0996C685.583 66.0996 685.375 66.1235 685.149 66.1714V72.7646C685.341 72.8057 685.556 72.8262 685.795 72.8262C686.958 72.8262 687.586 71.9443 687.682 70.1807L687.692 69.5347ZM679.684 69.75C679.684 71.7939 680.31 72.8159 681.561 72.8159C681.82 72.8159 682.029 72.7988 682.186 72.7646V66.1714C681.96 66.1235 681.759 66.0996 681.581 66.0996C680.973 66.0996 680.504 66.3901 680.176 66.9712C679.848 67.5454 679.684 68.4717 679.684 69.75ZM701.279 66.2842H697.721V75H694.747V66.2842H691.25V63.9053H701.279V66.2842ZM709.461 63.9053H712.425V75H709.461V68.1504L705.75 75H702.776V63.9053H705.75V70.7446L709.461 63.9053ZM723.048 75H720.074V63.9053H723.048V75ZM719.9 61.0342C719.9 60.5898 720.047 60.2241 720.341 59.937C720.642 59.6499 721.048 59.5063 721.561 59.5063C722.067 59.5063 722.47 59.6499 722.771 59.937C723.072 60.2241 723.222 60.5898 723.222 61.0342C723.222 61.4854 723.068 61.8545 722.761 62.1416C722.46 62.4287 722.06 62.5723 721.561 62.5723C721.062 62.5723 720.659 62.4287 720.351 62.1416C720.05 61.8545 719.9 61.4854 719.9 61.0342ZM738.285 66.3047H733.691V75H730.728V63.9053H738.285V66.3047ZM745.955 75C745.818 74.7334 745.719 74.4019 745.658 74.0054C744.94 74.8052 744.007 75.2051 742.858 75.2051C741.771 75.2051 740.869 74.8906 740.151 74.2617C739.44 73.6328 739.085 72.8398 739.085 71.8828C739.085 70.707 739.519 69.8047 740.387 69.1758C741.262 68.5469 742.523 68.229 744.171 68.2222H745.535V67.5864C745.535 67.0737 745.401 66.6636 745.135 66.356C744.875 66.0483 744.461 65.8945 743.894 65.8945C743.395 65.8945 743.002 66.0142 742.715 66.2534C742.435 66.4927 742.294 66.8208 742.294 67.2378H739.331C739.331 66.5952 739.529 66.0005 739.926 65.4536C740.322 64.9067 740.883 64.4795 741.607 64.1719C742.332 63.8574 743.146 63.7002 744.048 63.7002C745.415 63.7002 746.499 64.0454 747.298 64.7358C748.105 65.4194 748.508 66.3833 748.508 67.6274V72.4365C748.515 73.4893 748.662 74.2856 748.949 74.8257V75H745.955ZM743.504 72.939C743.942 72.939 744.345 72.8433 744.714 72.6519C745.083 72.4536 745.357 72.1904 745.535 71.8623V69.9551H744.427C742.944 69.9551 742.154 70.4678 742.059 71.4932L742.048 71.6675C742.048 72.0366 742.178 72.3408 742.438 72.5801C742.698 72.8193 743.053 72.939 743.504 72.939ZM756.609 67.1763C756.609 66.7866 756.479 66.4858 756.219 66.2739C755.966 66.0552 755.604 65.9458 755.132 65.9458C754.647 65.9458 754.25 66.0483 753.943 66.2534C753.642 66.4517 753.492 66.7354 753.492 67.1045H750.528C750.528 66.0996 750.945 65.2827 751.779 64.6538C752.613 64.0249 753.68 63.7104 754.979 63.7104C756.407 63.7104 757.528 63.9907 758.342 64.5513C759.162 65.1118 759.572 65.9082 759.572 66.9404C759.572 67.4326 759.422 67.8872 759.121 68.3042C758.827 68.7144 758.41 69.0425 757.87 69.2886C759.135 69.7329 759.767 70.5908 759.767 71.8623C759.767 72.8809 759.33 73.6943 758.455 74.3027C757.586 74.9043 756.428 75.2051 754.979 75.2051C753.632 75.2051 752.524 74.8906 751.656 74.2617C750.788 73.6328 750.354 72.7852 750.354 71.7188H753.317C753.317 72.0947 753.485 72.3989 753.82 72.6313C754.155 72.8638 754.592 72.98 755.132 72.98C755.659 72.98 756.069 72.8569 756.363 72.6108C756.657 72.3647 756.804 72.0435 756.804 71.647C756.804 71.1616 756.664 70.8164 756.383 70.6113C756.103 70.3994 755.683 70.2935 755.122 70.2935H753.512V68.3657H755.225C756.147 68.3384 756.609 67.9419 756.609 67.1763ZM765.714 70.8062L767.765 63.9053H770.944L766.483 76.7227L766.237 77.3071C765.574 78.7563 764.48 79.481 762.956 79.481C762.525 79.481 762.088 79.416 761.644 79.2861V77.0405L762.095 77.0508C762.655 77.0508 763.072 76.9653 763.346 76.7944C763.626 76.6235 763.845 76.3398 764.002 75.9434L764.351 75.0308L760.464 63.9053H763.653L765.714 70.8062ZM773.764 65.5356L776.635 69.5347V69.7295L773.764 73.7285H771.846L774.307 69.6372L771.846 65.5356H773.764ZM777.793 65.5356L780.665 69.5347V69.7295L777.793 73.7285H775.876L778.337 69.6372L775.876 65.5356H777.793Z" fill="#FAFAFA"/>
<rect x="196.621" y="9" width="1.84549" height="67.802" rx="0.922743" fill="#FAFAFA"/>
</mask>
<g mask="url(#mask0)">
<path d="M-8 -2H839V89H-8V-2Z" fill="url(#paint0_linear)"/>
</g>
<defs>
<linearGradient id="paint0_linear" x1="172.832" y1="12.4919" x2="222.404" y2="214.816" gradientUnits="userSpaceOnUse">
<stop stop-color="#00C0FF"/>
<stop offset="1" stop-color="#5581F1"/>
</linearGradient>
</defs>
</svg>
