<svg width="395" height="74" viewBox="0 0 395 74" fill="none" xmlns="http://www.w3.org/2000/svg">
<mask id="mask0" mask-type="alpha" maskUnits="userSpaceOnUse" x="0" y="0" width="394" height="74">
<path d="M80.0753 29.4631V29.4631C80.1516 29.3905 80.2183 29.3084 80.2737 29.2188L89.8174 13.7776C90.7284 12.3036 92.3377 11.4064 94.0705 11.4064H96.4717" stroke="white" stroke-width="2"/>
<path d="M124.798 65.0504H140.222" stroke="white" stroke-width="2"/>
<circle cx="124.257" cy="65.0515" r="1.35297" fill="white"/>
<circle cx="140.763" cy="65.0506" r="1.35297" fill="white"/>
<path d="M121.451 65.0482C121.451 65.7954 120.845 66.4011 120.098 66.4011C119.35 66.4011 118.745 65.7954 118.745 65.0482C118.745 64.3009 119.35 63.6952 120.098 63.6952C120.845 63.6952 121.451 64.3009 121.451 65.0482Z" fill="white"/>
<circle cx="188.522" cy="55.7366" r="1.48827" fill="white"/>
<circle cx="188.522" cy="17.3124" r="1.48827" fill="white"/>
<circle cx="158.216" cy="56.0068" r="1.48827" fill="white"/>
<circle cx="99.9034" cy="6.89399" r="1.35297" fill="white"/>
<circle cx="146.446" cy="7.16535" r="1.35297" fill="white"/>
<path d="M61.7498 33.4126H79.1598C80.8718 33.4126 82.4647 34.2885 83.3818 35.7341L97.0962 57.3516C97.6043 58.1526 97.8741 59.0816 97.8741 60.0301V65.7486" stroke="white" stroke-width="2"/>
<path d="M61.7498 29.3538H71.9564C73.6862 29.3538 75.293 28.4597 76.205 26.9899L87.2072 9.25823C88.1192 7.78844 89.7261 6.89441 91.4558 6.89441H99.3624" stroke="white" stroke-width="2"/>
<circle cx="61.7494" cy="62.9074" r="1.35297" fill="white"/>
<path d="M61.7498 6.35278V62.6365" stroke="white" stroke-width="2"/>
<circle cx="61.7493" cy="6.35297" r="1.35297" fill="white"/>
<circle cx="96.3723" cy="11.306" r="1.35297" fill="white"/>
<circle cx="80.183" cy="29.1553" r="1.35297" fill="white"/>
<circle cx="97.8737" cy="66.0193" r="1.21768" fill="white"/>
<circle cx="92.3085" cy="63.7372" r="1.35297" fill="white"/>
<path d="M75.2614 38.1279H76.6787C78.4057 38.1279 80.0105 39.0192 80.9233 40.4853L91.5534 57.5595C92.0472 58.3525 92.3088 59.268 92.3088 60.2022V64.105" stroke="white" stroke-width="2"/>
<circle cx="75.0902" cy="38.2965" r="1.21768" fill="white"/>
<circle cx="57.353" cy="13.8809" r="1.35297" fill="white"/>
<circle cx="57.353" cy="65.5648" r="1.35297" fill="white"/>
<path d="M57.3528 14.1517V65.0235" stroke="white" stroke-width="2"/>
<path d="M158.352 56.4128V12.8943V12.1646C158.352 9.40313 160.591 7.16455 163.352 7.16455H201.106" stroke="white" stroke-width="2"/>
<circle cx="154.158" cy="7.29064" r="1.48827" fill="white"/>
<circle cx="154.293" cy="63.1504" r="1.62357" fill="white"/>
<path d="M154.158 7.81305L154.293 63.6908" stroke="white" stroke-width="2"/>
<circle cx="192.81" cy="11.8567" r="1.48827" fill="white"/>
<circle cx="192.945" cy="67.7165" r="1.62357" fill="white"/>
<path d="M192.81 12.3798L192.945 68.2575" stroke="white" stroke-width="2"/>
<circle cx="201.512" cy="7.30065" r="1.48827" fill="white"/>
<path d="M119.862 65.2909H118.704C115.942 65.2909 113.704 63.0523 113.704 60.2909V11.0882V11.0882C113.704 9.19289 115.015 7.49542 116.886 7.18984C116.985 7.17369 117.055 7.16455 117.086 7.16455C117.357 7.16455 145.769 7.16455 145.769 7.16455" stroke="white" stroke-width="2"/>
<circle cx="140.83" cy="13.0268" r="1.35297" fill="white"/>
<circle cx="122.97" cy="13.027" r="1.35297" fill="white"/>
<path d="M123.782 13.0266L139.747 13.0266" stroke="white" stroke-width="2"/>
<path d="M137.494 39.7599H122.788C120.026 39.7599 117.788 41.9985 117.788 44.7599V55.1853C117.788 57.9468 120.026 60.1853 122.788 60.1853H146.192" stroke="white" stroke-width="2"/>
<circle cx="138.29" cy="39.8361" r="1.35297" fill="white"/>
<circle cx="146.269" cy="60.2615" r="1.35297" fill="white"/>
<rect x="108.302" y="12.8865" width="1.9302" height="51.057" fill="#FAFAFA"/>
<circle cx="109.08" cy="12.3991" r="1.6085" fill="#FAFAFA"/>
<circle cx="109.08" cy="63.477" r="1.6085" fill="#FAFAFA"/>
<path d="M118.106 13.5892V28.3763C118.106 31.1378 120.345 33.3763 123.106 33.3763H133.745" stroke="white" stroke-width="2"/>
<ellipse cx="118.179" cy="13.1591" rx="1.35297" ry="1.39397" fill="white"/>
<ellipse cx="133.502" cy="33.4941" rx="1.35297" ry="1.39397" fill="white"/>
<path d="M188.658 17.9886V55.3307" stroke="white" stroke-width="2"/>
<circle cx="184.907" cy="13.2069" r="1.35297" fill="white"/>
<circle cx="163.8" cy="13.2075" r="1.35297" fill="white"/>
<path d="M184.365 13.2067H163.8" stroke="white" stroke-width="2"/>
<path d="M28.306 10C57.3564 10.0001 57.7383 52.758 28.688 52.758" stroke="#FAFAFA" stroke-width="2"/>
<path d="M28.4182 15C50.1911 15.0001 51.2573 48 29.4844 48" stroke="#FAFAFA" stroke-width="2"/>
<path d="M23.1697 10C-5.88067 10.0001 -6.2626 52.758 22.7878 52.758" stroke="#FAFAFA" stroke-width="2"/>
<path d="M22.5541 15C1.36341 15.0001 0.317874 48 21.5086 48" stroke="#FAFAFA" stroke-width="2"/>
<path d="M23 6V41" stroke="#FAFAFA" stroke-width="2"/>
<path d="M28 23V66" stroke="#FAFAFA" stroke-width="2"/>
<circle cx="22.953" cy="6.35297" r="1.35297" fill="white"/>
<circle cx="27.953" cy="65.4529" r="1.35297" fill="white"/>
<circle cx="21.353" cy="47.9529" r="1.35297" fill="white"/>
<circle cx="28.353" cy="14.9529" r="1.35297" fill="white"/>
<path d="M232.359 13.7031H232.531C233.406 13.7031 234.201 13.901 234.914 14.2969C235.633 14.6875 236.19 15.2396 236.586 15.9531C236.987 16.6667 237.188 17.4688 237.188 18.3594C237.188 19.2448 236.987 20.0417 236.586 20.75C236.19 21.4531 235.638 22 234.93 22.3906C234.227 22.7812 233.438 22.9792 232.562 22.9844H232.359V24.4688H230.461V22.9844H230.273C229.393 22.9844 228.594 22.7891 227.875 22.3984C227.156 22.0026 226.599 21.4531 226.203 20.75C225.812 20.0469 225.617 19.2552 225.617 18.375C225.617 17.4844 225.815 16.6823 226.211 15.9688C226.607 15.2552 227.161 14.7005 227.875 14.3047C228.589 13.9036 229.388 13.7031 230.273 13.7031H230.461V12.1562H232.359V13.7031ZM230.273 15.2891C229.398 15.2891 228.714 15.5625 228.219 16.1094C227.729 16.6562 227.484 17.4115 227.484 18.375C227.484 19.3125 227.729 20.0521 228.219 20.5938C228.708 21.1302 229.401 21.3984 230.297 21.3984H230.461V15.2891H230.273ZM232.359 15.2891V21.3984H232.547C233.422 21.3984 234.102 21.125 234.586 20.5781C235.076 20.0312 235.32 19.2917 235.32 18.3594C235.32 17.4062 235.076 16.6562 234.586 16.1094C234.102 15.5625 233.414 15.2891 232.523 15.2891H232.359ZM243.773 24C243.69 23.8385 243.617 23.5755 243.555 23.2109C242.951 23.8411 242.211 24.1562 241.336 24.1562C240.487 24.1562 239.794 23.9141 239.258 23.4297C238.721 22.9453 238.453 22.3464 238.453 21.6328C238.453 20.7318 238.786 20.0417 239.453 19.5625C240.125 19.0781 241.083 18.8359 242.328 18.8359H243.492V18.2812C243.492 17.8438 243.37 17.4948 243.125 17.2344C242.88 16.9688 242.508 16.8359 242.008 16.8359C241.576 16.8359 241.221 16.9453 240.945 17.1641C240.669 17.3776 240.531 17.651 240.531 17.9844H238.633C238.633 17.5208 238.786 17.0885 239.094 16.6875C239.401 16.2812 239.818 15.9635 240.344 15.7344C240.875 15.5052 241.466 15.3906 242.117 15.3906C243.107 15.3906 243.896 15.6406 244.484 16.1406C245.073 16.6354 245.375 17.3333 245.391 18.2344V22.0469C245.391 22.8073 245.497 23.4141 245.711 23.8672V24H243.773ZM241.688 22.6328C242.062 22.6328 242.414 22.5417 242.742 22.3594C243.076 22.1771 243.326 21.9323 243.492 21.625V20.0312H242.469C241.766 20.0312 241.237 20.1536 240.883 20.3984C240.529 20.6432 240.352 20.9896 240.352 21.4375C240.352 21.8021 240.471 22.0938 240.711 22.3125C240.956 22.526 241.281 22.6328 241.688 22.6328ZM250.414 18.3281L252.023 15.5469H254.133L251.547 19.7109L254.219 24H252.125L250.438 21.1094L248.758 24H246.648L249.32 19.7109L246.742 15.5469H248.836L250.414 18.3281ZM254.758 19.6953C254.758 18.8672 254.922 18.1224 255.25 17.4609C255.578 16.7943 256.039 16.2839 256.633 15.9297C257.227 15.5703 257.909 15.3906 258.68 15.3906C259.82 15.3906 260.745 15.7578 261.453 16.4922C262.167 17.2266 262.552 18.2005 262.609 19.4141L262.617 19.8594C262.617 20.6927 262.456 21.4375 262.133 22.0938C261.815 22.75 261.357 23.2578 260.758 23.6172C260.164 23.9766 259.477 24.1562 258.695 24.1562C257.503 24.1562 256.547 23.7604 255.828 22.9688C255.115 22.1719 254.758 21.112 254.758 19.7891V19.6953ZM256.656 19.8594C256.656 20.7292 256.836 21.4115 257.195 21.9062C257.555 22.3958 258.055 22.6406 258.695 22.6406C259.336 22.6406 259.833 22.3906 260.188 21.8906C260.547 21.3906 260.727 20.6589 260.727 19.6953C260.727 18.8411 260.542 18.1641 260.172 17.6641C259.807 17.1641 259.31 16.9141 258.68 16.9141C258.06 16.9141 257.568 17.1615 257.203 17.6562C256.839 18.1458 256.656 18.8802 256.656 19.8594ZM264.367 24V15.5469H267.797C268.953 15.5469 269.833 15.75 270.438 16.1562C271.042 16.5573 271.344 17.1354 271.344 17.8906C271.344 18.2812 271.221 18.6328 270.977 18.9453C270.737 19.2526 270.38 19.4896 269.906 19.6562C270.458 19.7708 270.896 20.0026 271.219 20.3516C271.542 20.7005 271.703 21.112 271.703 21.5859C271.703 22.3724 271.411 22.9714 270.828 23.3828C270.25 23.7943 269.417 24 268.328 24H264.367ZM266.266 20.3984V22.5H268.344C269.318 22.5 269.805 22.151 269.805 21.4531C269.805 20.75 269.31 20.3984 268.32 20.3984H266.266ZM266.266 19.0391H267.828C268.906 19.0391 269.445 18.7214 269.445 18.0859C269.445 17.4193 268.935 17.0755 267.914 17.0547H266.266V19.0391ZM278.625 15.5469H280.516V24H278.625V18.3594L275.312 24H273.422V15.5469H275.312V21.1875L278.625 15.5469ZM287.812 15.5469H289.703V24H287.812V18.3594L284.5 24H282.609V15.5469H284.5V21.1875L287.812 15.5469ZM288.703 12.3047C288.703 12.9609 288.474 13.4922 288.016 13.8984C287.557 14.3047 286.945 14.5078 286.18 14.5078C285.414 14.5078 284.802 14.3047 284.344 13.8984C283.885 13.4922 283.656 12.9609 283.656 12.3047H285.078C285.078 12.6484 285.174 12.9167 285.367 13.1094C285.565 13.2969 285.836 13.3906 286.18 13.3906C286.523 13.3906 286.792 13.2969 286.984 13.1094C287.177 12.9167 287.273 12.6484 287.273 12.3047H288.703ZM298.711 20.6562H297.75V24H295.852V15.5469H297.75V18.9219H298.586L300.922 15.5469H303.266L300.211 19.5938L303.523 24H301.055L298.711 20.6562ZM303.758 19.6953C303.758 18.8672 303.922 18.1224 304.25 17.4609C304.578 16.7943 305.039 16.2839 305.633 15.9297C306.227 15.5703 306.909 15.3906 307.68 15.3906C308.82 15.3906 309.745 15.7578 310.453 16.4922C311.167 17.2266 311.552 18.2005 311.609 19.4141L311.617 19.8594C311.617 20.6927 311.456 21.4375 311.133 22.0938C310.815 22.75 310.357 23.2578 309.758 23.6172C309.164 23.9766 308.477 24.1562 307.695 24.1562C306.503 24.1562 305.547 23.7604 304.828 22.9688C304.115 22.1719 303.758 21.112 303.758 19.7891V19.6953ZM305.656 19.8594C305.656 20.7292 305.836 21.4115 306.195 21.9062C306.555 22.3958 307.055 22.6406 307.695 22.6406C308.336 22.6406 308.833 22.3906 309.188 21.8906C309.547 21.3906 309.727 20.6589 309.727 19.6953C309.727 18.8411 309.542 18.1641 309.172 17.6641C308.807 17.1641 308.31 16.9141 307.68 16.9141C307.06 16.9141 306.568 17.1615 306.203 17.6562C305.839 18.1458 305.656 18.8802 305.656 19.8594ZM320.281 15.5469V24H318.383V17.0781H315.992L315.836 20.0234C315.737 21.4401 315.464 22.4583 315.016 23.0781C314.573 23.6927 313.893 24 312.977 24H312.391L312.383 22.4219L312.773 22.3828C313.19 22.3255 313.492 22.0729 313.68 21.625C313.872 21.1719 313.995 20.349 314.047 19.1562L314.203 15.5469H320.281ZM326.023 24.1562C324.82 24.1562 323.844 23.7786 323.094 23.0234C322.349 22.263 321.977 21.2526 321.977 19.9922V19.7578C321.977 18.9141 322.138 18.1615 322.461 17.5C322.789 16.8333 323.247 16.3151 323.836 15.9453C324.424 15.5755 325.081 15.3906 325.805 15.3906C326.956 15.3906 327.844 15.7578 328.469 16.4922C329.099 17.2266 329.414 18.2656 329.414 19.6094V20.375H323.891C323.948 21.0729 324.18 21.625 324.586 22.0312C324.997 22.4375 325.513 22.6406 326.133 22.6406C327.003 22.6406 327.711 22.2891 328.258 21.5859L329.281 22.5625C328.943 23.0677 328.49 23.4609 327.922 23.7422C327.359 24.0182 326.727 24.1562 326.023 24.1562ZM325.797 16.9141C325.276 16.9141 324.854 17.0964 324.531 17.4609C324.214 17.8255 324.01 18.3333 323.922 18.9844H327.539V18.8438C327.497 18.2083 327.328 17.7292 327.031 17.4062C326.734 17.0781 326.323 16.9141 325.797 16.9141ZM330.93 22.4844C331.456 21.8958 331.807 21.3385 331.984 20.8125C332.167 20.2812 332.276 19.6042 332.312 18.7812L332.422 15.5469H338.289V22.4844H339.461V26.5156H337.57V24H332.148V26.5156H330.227L330.234 22.4844H330.93ZM333.156 22.4844H336.398V17.1797H334.266L334.211 18.7969C334.138 20.349 333.786 21.5781 333.156 22.4844ZM348.258 20.6016H347.25V24H345.352V20.6016H344.352L342.406 24H340.078L342.883 19.6016L340.227 15.5469H342.547L344.461 18.8672H345.352V15.5469H347.25V18.8672H348.148L350.07 15.5469H352.391L349.742 19.5781L352.562 24H350.203L348.258 20.6016ZM229.695 44.1562C228.492 44.1562 227.516 43.7786 226.766 43.0234C226.021 42.263 225.648 41.2526 225.648 39.9922V39.7578C225.648 38.9141 225.81 38.1615 226.133 37.5C226.461 36.8333 226.919 36.3151 227.508 35.9453C228.096 35.5755 228.753 35.3906 229.477 35.3906C230.628 35.3906 231.516 35.7578 232.141 36.4922C232.771 37.2266 233.086 38.2656 233.086 39.6094V40.375H227.562C227.62 41.0729 227.852 41.625 228.258 42.0312C228.669 42.4375 229.185 42.6406 229.805 42.6406C230.674 42.6406 231.383 42.2891 231.93 41.5859L232.953 42.5625C232.615 43.0677 232.161 43.4609 231.594 43.7422C231.031 44.0182 230.398 44.1562 229.695 44.1562ZM229.469 36.9141C228.948 36.9141 228.526 37.0964 228.203 37.4609C227.885 37.8255 227.682 38.3333 227.594 38.9844H231.211V38.8438C231.169 38.2083 231 37.7292 230.703 37.4062C230.406 37.0781 229.995 36.9141 229.469 36.9141ZM241.75 35.5469V44H239.852V37.0781H237.461L237.305 40.0234C237.206 41.4401 236.932 42.4583 236.484 43.0781C236.042 43.6927 235.362 44 234.445 44H233.859L233.852 42.4219L234.242 42.3828C234.659 42.3255 234.961 42.0729 235.148 41.625C235.341 41.1719 235.464 40.349 235.516 39.1562L235.672 35.5469H241.75ZM247.492 44.1562C246.289 44.1562 245.312 43.7786 244.562 43.0234C243.818 42.263 243.445 41.2526 243.445 39.9922V39.7578C243.445 38.9141 243.607 38.1615 243.93 37.5C244.258 36.8333 244.716 36.3151 245.305 35.9453C245.893 35.5755 246.549 35.3906 247.273 35.3906C248.424 35.3906 249.312 35.7578 249.938 36.4922C250.568 37.2266 250.883 38.2656 250.883 39.6094V40.375H245.359C245.417 41.0729 245.648 41.625 246.055 42.0312C246.466 42.4375 246.982 42.6406 247.602 42.6406C248.471 42.6406 249.18 42.2891 249.727 41.5859L250.75 42.5625C250.411 43.0677 249.958 43.4609 249.391 43.7422C248.828 44.0182 248.195 44.1562 247.492 44.1562ZM247.266 36.9141C246.745 36.9141 246.323 37.0964 246 37.4609C245.682 37.8255 245.479 38.3333 245.391 38.9844H249.008V38.8438C248.966 38.2083 248.797 37.7292 248.5 37.4062C248.203 37.0781 247.792 36.9141 247.266 36.9141ZM255.367 40.6562H254.406V44H252.508V35.5469H254.406V38.9219H255.242L257.578 35.5469H259.922L256.867 39.5938L260.18 44H257.711L255.367 40.6562ZM267.875 37.0547H265.133V44H263.234V37.0547H260.523V35.5469H267.875V37.0547ZM276.547 39.8594C276.547 41.1667 276.25 42.2109 275.656 42.9922C275.062 43.7682 274.266 44.1562 273.266 44.1562C272.339 44.1562 271.596 43.8516 271.039 43.2422V47.25H269.141V35.5469H270.891L270.969 36.4062C271.526 35.7292 272.284 35.3906 273.242 35.3906C274.273 35.3906 275.081 35.776 275.664 36.5469C276.253 37.3125 276.547 38.3776 276.547 39.7422V39.8594ZM274.656 39.6953C274.656 38.8516 274.487 38.1823 274.148 37.6875C273.815 37.1927 273.336 36.9453 272.711 36.9453C271.935 36.9453 271.378 37.2656 271.039 37.9062V41.6562C271.383 42.3125 271.945 42.6406 272.727 42.6406C273.331 42.6406 273.802 42.3984 274.141 41.9141C274.484 41.4245 274.656 40.6849 274.656 39.6953ZM277.805 39.6953C277.805 38.8672 277.969 38.1224 278.297 37.4609C278.625 36.7943 279.086 36.2839 279.68 35.9297C280.273 35.5703 280.956 35.3906 281.727 35.3906C282.867 35.3906 283.792 35.7578 284.5 36.4922C285.214 37.2266 285.599 38.2005 285.656 39.4141L285.664 39.8594C285.664 40.6927 285.503 41.4375 285.18 42.0938C284.862 42.75 284.404 43.2578 283.805 43.6172C283.211 43.9766 282.523 44.1562 281.742 44.1562C280.549 44.1562 279.594 43.7604 278.875 42.9688C278.161 42.1719 277.805 41.112 277.805 39.7891V39.6953ZM279.703 39.8594C279.703 40.7292 279.883 41.4115 280.242 41.9062C280.602 42.3958 281.102 42.6406 281.742 42.6406C282.383 42.6406 282.88 42.3906 283.234 41.8906C283.594 41.3906 283.773 40.6589 283.773 39.6953C283.773 38.8411 283.589 38.1641 283.219 37.6641C282.854 37.1641 282.357 36.9141 281.727 36.9141C281.107 36.9141 280.615 37.1615 280.25 37.6562C279.885 38.1458 279.703 38.8802 279.703 39.8594ZM294.43 44H292.531V40.5859H289.242V44H287.344V35.5469H289.242V39.0703H292.531V35.5469H294.43V44ZM303.617 44H301.719V40.5859H298.43V44H296.531V35.5469H298.43V39.0703H301.719V35.5469H303.617V44ZM310.922 35.5469H312.812V44H310.922V38.3594L307.609 44H305.719V35.5469H307.609V41.1875L310.922 35.5469ZM317.867 38.3281L319.477 35.5469H321.586L319 39.7109L321.672 44H319.578L317.891 41.1094L316.211 44H314.102L316.773 39.7109L314.195 35.5469H316.289L317.867 38.3281ZM334.031 44H332.133V37.0781H328.836V44H326.938V35.5469H334.031V44ZM343.453 39.8594C343.453 41.1667 343.156 42.2109 342.562 42.9922C341.969 43.7682 341.172 44.1562 340.172 44.1562C339.245 44.1562 338.503 43.8516 337.945 43.2422V47.25H336.047V35.5469H337.797L337.875 36.4062C338.432 35.7292 339.19 35.3906 340.148 35.3906C341.18 35.3906 341.987 35.776 342.57 36.5469C343.159 37.3125 343.453 38.3776 343.453 39.7422V39.8594ZM341.562 39.6953C341.562 38.8516 341.393 38.1823 341.055 37.6875C340.721 37.1927 340.242 36.9453 339.617 36.9453C338.841 36.9453 338.284 37.2656 337.945 37.9062V41.6562C338.289 42.3125 338.852 42.6406 339.633 42.6406C340.237 42.6406 340.708 42.3984 341.047 41.9141C341.391 41.4245 341.562 40.6849 341.562 39.6953ZM350.344 35.5469H352.234V44H350.344V38.3594L347.031 44H345.141V35.5469H347.031V41.1875L350.344 35.5469ZM361.438 35.5469V44H359.539V37.0781H357.148L356.992 40.0234C356.893 41.4401 356.62 42.4583 356.172 43.0781C355.729 43.6927 355.049 44 354.133 44H353.547L353.539 42.4219L353.93 42.3828C354.346 42.3255 354.648 42.0729 354.836 41.625C355.029 41.1719 355.151 40.349 355.203 39.1562L355.359 35.5469H361.438ZM368.508 44C368.424 43.8385 368.352 43.5755 368.289 43.2109C367.685 43.8411 366.945 44.1562 366.07 44.1562C365.221 44.1562 364.529 43.9141 363.992 43.4297C363.456 42.9453 363.188 42.3464 363.188 41.6328C363.188 40.7318 363.521 40.0417 364.188 39.5625C364.859 39.0781 365.818 38.8359 367.062 38.8359H368.227V38.2812C368.227 37.8438 368.104 37.4948 367.859 37.2344C367.615 36.9688 367.242 36.8359 366.742 36.8359C366.31 36.8359 365.956 36.9453 365.68 37.1641C365.404 37.3776 365.266 37.651 365.266 37.9844H363.367C363.367 37.5208 363.521 37.0885 363.828 36.6875C364.135 36.2812 364.552 35.9635 365.078 35.7344C365.609 35.5052 366.201 35.3906 366.852 35.3906C367.841 35.3906 368.63 35.6406 369.219 36.1406C369.807 36.6354 370.109 37.3333 370.125 38.2344V42.0469C370.125 42.8073 370.232 43.4141 370.445 43.8672V44H368.508ZM366.422 42.6328C366.797 42.6328 367.148 42.5417 367.477 42.3594C367.81 42.1771 368.06 41.9323 368.227 41.625V40.0312H367.203C366.5 40.0312 365.971 40.1536 365.617 40.3984C365.263 40.6432 365.086 40.9896 365.086 41.4375C365.086 41.8021 365.206 42.0938 365.445 42.3125C365.69 42.526 366.016 42.6328 366.422 42.6328ZM372.148 42.4844C372.674 41.8958 373.026 41.3385 373.203 40.8125C373.385 40.2812 373.495 39.6042 373.531 38.7812L373.641 35.5469H379.508V42.4844H380.68V46.5156H378.789V44H373.367V46.5156H371.445L371.453 42.4844H372.148ZM374.375 42.4844H377.617V37.1797H375.484L375.43 38.7969C375.357 40.349 375.005 41.5781 374.375 42.4844ZM384.055 44H382.156V35.5469H384.055V44ZM382.039 33.3516C382.039 33.0599 382.13 32.8177 382.312 32.625C382.5 32.4323 382.766 32.3359 383.109 32.3359C383.453 32.3359 383.719 32.4323 383.906 32.625C384.094 32.8177 384.188 33.0599 384.188 33.3516C384.188 33.638 384.094 33.8776 383.906 34.0703C383.719 34.2578 383.453 34.3516 383.109 34.3516C382.766 34.3516 382.5 34.2578 382.312 34.0703C382.13 33.8776 382.039 33.638 382.039 33.3516ZM386.273 44V35.5469H389.703C390.859 35.5469 391.74 35.75 392.344 36.1562C392.948 36.5573 393.25 37.1354 393.25 37.8906C393.25 38.2812 393.128 38.6328 392.883 38.9453C392.643 39.2526 392.286 39.4896 391.812 39.6562C392.365 39.7708 392.802 40.0026 393.125 40.3516C393.448 40.7005 393.609 41.112 393.609 41.5859C393.609 42.3724 393.318 42.9714 392.734 43.3828C392.156 43.7943 391.323 44 390.234 44H386.273ZM388.172 40.3984V42.5H390.25C391.224 42.5 391.711 42.151 391.711 41.4531C391.711 40.75 391.216 40.3984 390.227 40.3984H388.172ZM388.172 39.0391H389.734C390.812 39.0391 391.352 38.7214 391.352 38.0859C391.352 37.4193 390.841 37.0755 389.82 37.0547H388.172V39.0391ZM228.242 64H226.273V52.625H228.242V64ZM236.875 53.7031H237.047C237.922 53.7031 238.716 53.901 239.43 54.2969C240.148 54.6875 240.706 55.2396 241.102 55.9531C241.503 56.6667 241.703 57.4688 241.703 58.3594C241.703 59.2448 241.503 60.0417 241.102 60.75C240.706 61.4531 240.154 62 239.445 62.3906C238.742 62.7812 237.953 62.9792 237.078 62.9844H236.875V64.4688H234.977V62.9844H234.789C233.909 62.9844 233.109 62.7891 232.391 62.3984C231.672 62.0026 231.115 61.4531 230.719 60.75C230.328 60.0469 230.133 59.2552 230.133 58.375C230.133 57.4844 230.331 56.6823 230.727 55.9688C231.122 55.2552 231.677 54.7005 232.391 54.3047C233.104 53.9036 233.904 53.7031 234.789 53.7031H234.977V52.1562H236.875V53.7031ZM234.789 55.2891C233.914 55.2891 233.229 55.5625 232.734 56.1094C232.245 56.6562 232 57.4115 232 58.375C232 59.3125 232.245 60.0521 232.734 60.5938C233.224 61.1302 233.917 61.3984 234.812 61.3984H234.977V55.2891H234.789ZM236.875 55.2891V61.3984H237.062C237.938 61.3984 238.617 61.125 239.102 60.5781C239.591 60.0312 239.836 59.2917 239.836 58.3594C239.836 57.4062 239.591 56.6562 239.102 56.1094C238.617 55.5625 237.93 55.2891 237.039 55.2891H236.875ZM252.453 64H250.484V58.9453H245.398V64H243.422V52.625H245.398V57.3594H250.484V52.625H252.453V64ZM262.781 54.2188H259.234V64H257.273V54.2188H253.758V52.625H262.781V54.2188ZM268.375 58.5703L270.656 52.625H272.852L268.891 62.0625L268.531 62.7734C268.01 63.7005 267.167 64.1641 266 64.1641L265.188 64.1172L265.203 62.5547C265.328 62.5755 265.549 62.5859 265.867 62.5859C266.43 62.5859 266.826 62.3464 267.055 61.8672L267.461 60.9062L263.57 52.625H265.727L268.375 58.5703ZM283.391 64H281.422V58.9453H276.336V64H274.359V52.625H276.336V57.3594H281.422V52.625H283.391V64ZM293.008 54.2188H287.758V64H285.789V52.625H293.008V54.2188Z" fill="#FAFAFA"/>
<rect x="213" width="2" height="74" rx="1" fill="#FAFAFA"/>
</mask>
<g mask="url(#mask0)">
<path d="M-8 -12H400V87H-8V-12Z" fill="url(#paint0_linear)"/>
</g>
<defs>
<linearGradient id="paint0_linear" x1="79.107" y1="3.76594" x2="177.951" y2="182.394" gradientUnits="userSpaceOnUse">
<stop stop-color="#00C0FF"/>
<stop offset="1" stop-color="#5581F1"/>
</linearGradient>
</defs>
</svg>
