<svg width="393" height="68" viewBox="0 0 393 68" fill="none" xmlns="http://www.w3.org/2000/svg">
<mask id="mask0" mask-type="alpha" maskUnits="userSpaceOnUse" x="0" y="0" width="390" height="68">
<path d="M73.4521 26.995V26.995C73.5221 26.9285 73.5831 26.8533 73.6339 26.7712L82.2555 12.8219C83.1665 11.3479 84.7758 10.4507 86.5087 10.4507H88.4752" stroke="white" stroke-width="2"/>
<path d="M114.428 59.6021H128.56" stroke="white" stroke-width="2"/>
<circle cx="113.933" cy="59.6039" r="1.23965" fill="white"/>
<circle cx="129.056" cy="59.6024" r="1.23965" fill="white"/>
<path d="M111.361 59.6C111.361 60.2846 110.806 60.8397 110.121 60.8397C109.437 60.8397 108.882 60.2846 108.882 59.6C108.882 58.9154 109.437 58.3604 110.121 58.3604C110.806 58.3604 111.361 58.9154 111.361 59.6Z" fill="white"/>
<circle cx="172.816" cy="51.0682" r="1.36362" fill="white"/>
<circle cx="172.816" cy="15.8626" r="1.36362" fill="white"/>
<circle cx="145.048" cy="51.3158" r="1.36362" fill="white"/>
<circle cx="91.6195" cy="6.31631" r="1.23965" fill="white"/>
<circle cx="134.263" cy="6.56534" r="1.23965" fill="white"/>
<path d="M56.6611 30.6143H72.3827C74.0947 30.6143 75.6876 31.4902 76.6047 32.9358L88.9819 52.4455C89.49 53.2465 89.7599 54.1755 89.7599 55.124V60.242" stroke="white" stroke-width="2"/>
<path d="M56.6611 26.8951H65.7799C67.5097 26.8951 69.1165 26.0011 70.0285 24.5313L79.8635 8.68072C80.7755 7.21092 82.3824 6.31689 84.1121 6.31689H91.1235" stroke="white" stroke-width="2"/>
<circle cx="56.6606" cy="57.6381" r="1.23965" fill="white"/>
<path d="M56.6611 5.82031V57.3899" stroke="white" stroke-width="2"/>
<circle cx="56.6606" cy="5.82071" r="1.23965" fill="white"/>
<circle cx="88.3842" cy="10.3593" r="1.23965" fill="white"/>
<circle cx="73.5512" cy="26.7133" r="1.23965" fill="white"/>
<circle cx="89.7602" cy="60.4897" r="1.11569" fill="white"/>
<circle cx="84.6615" cy="58.3988" r="1.23965" fill="white"/>
<path d="M69.042 34.9346H70.108C71.835 34.9346 73.4398 35.8258 74.3526 37.2919L83.9062 52.637C84.3999 53.43 84.6616 54.3455 84.6616 55.2797V58.7359" stroke="white" stroke-width="2"/>
<circle cx="68.8852" cy="35.0893" r="1.11569" fill="white"/>
<circle cx="52.6322" cy="12.7182" r="1.23965" fill="white"/>
<circle cx="52.6322" cy="60.0732" r="1.23965" fill="white"/>
<path d="M52.6318 12.9658V59.5768" stroke="white" stroke-width="2"/>
<path d="M145.172 51.6878V11.8143V11.5645C145.172 8.80303 147.41 6.56445 150.172 6.56445H184.345" stroke="white" stroke-width="2"/>
<circle cx="141.329" cy="6.68002" r="1.36362" fill="white"/>
<circle cx="141.453" cy="57.8616" r="1.48758" fill="white"/>
<path d="M141.329 7.15869L141.453 58.3564" stroke="white" stroke-width="2"/>
<circle cx="176.744" cy="10.8631" r="1.36362" fill="white"/>
<circle cx="176.867" cy="62.0442" r="1.48758" fill="white"/>
<path d="M176.743 11.3423L176.867 62.54" stroke="white" stroke-width="2"/>
<circle cx="184.717" cy="6.6893" r="1.36362" fill="white"/>
<path d="M109.906 59.8223H109.264C106.502 59.8223 104.264 57.5838 104.264 54.8223V10.1594V10.1594C104.264 8.4229 105.466 6.86761 107.179 6.58762C107.27 6.57282 107.334 6.56445 107.363 6.56445C107.611 6.56445 133.643 6.56445 133.643 6.56445" stroke="white" stroke-width="2"/>
<circle cx="129.119" cy="11.9359" r="1.23965" fill="white"/>
<circle cx="112.755" cy="11.9359" r="1.23965" fill="white"/>
<path d="M113.498 11.9355L128.126 11.9355" stroke="white" stroke-width="2"/>
<path d="M126.063 36.4302H113.007C110.245 36.4302 108.007 38.6688 108.007 41.4302V50.1449C108.007 52.9063 110.245 55.1449 113.007 55.1449H134.032" stroke="white" stroke-width="2"/>
<circle cx="126.791" cy="36.4999" r="1.23965" fill="white"/>
<circle cx="134.102" cy="55.2143" r="1.23965" fill="white"/>
<rect x="99.3154" y="11.8071" width="1.76853" height="46.7806" fill="#FAFAFA"/>
<circle cx="100.028" cy="11.3605" r="1.47378" fill="#FAFAFA"/>
<circle cx="100.028" cy="58.1603" r="1.47378" fill="#FAFAFA"/>
<path d="M108.298 12.4512V25.581C108.298 28.3425 110.536 30.581 113.298 30.581H122.626" stroke="white" stroke-width="2"/>
<ellipse cx="108.365" cy="12.057" rx="1.23965" ry="1.27722" fill="white"/>
<ellipse cx="122.405" cy="30.6888" rx="1.23965" ry="1.27722" fill="white"/>
<path d="M172.94 16.4819V50.6964" stroke="white" stroke-width="2"/>
<circle cx="169.503" cy="12.101" r="1.23965" fill="white"/>
<circle cx="150.164" cy="12.1015" r="1.23965" fill="white"/>
<path d="M169.007 12.1006H150.164" stroke="white" stroke-width="2"/>
<path d="M26.0186 9.16211C52.6358 9.16217 52.9857 48.3389 26.3685 48.3389" stroke="#FAFAFA" stroke-width="2"/>
<path d="M26.1211 13.7437C46.0704 13.7437 47.0473 43.9797 27.098 43.9797" stroke="#FAFAFA" stroke-width="2"/>
<path d="M21.3125 9.16211C-5.30473 9.16217 -5.65466 48.3389 20.9626 48.3389" stroke="#FAFAFA" stroke-width="2"/>
<path d="M20.748 13.7437C1.33221 13.7437 0.374239 43.9797 19.7901 43.9797" stroke="#FAFAFA" stroke-width="2"/>
<path d="M21.1572 5.49707V37.5656" stroke="#FAFAFA" stroke-width="2"/>
<path d="M25.7383 21.0732V60.4717" stroke="#FAFAFA" stroke-width="2"/>
<circle cx="21.1137" cy="5.82071" r="1.23965" fill="white"/>
<circle cx="25.6947" cy="59.9706" r="1.23965" fill="white"/>
<circle cx="19.6479" cy="43.9364" r="1.23965" fill="white"/>
<circle cx="26.0619" cy="13.7006" r="1.23965" fill="white"/>
<path d="M207.079 17V4.91406H211.312C212.779 4.91406 213.891 5.19629 214.649 5.76074C215.408 6.31966 215.787 7.14144 215.787 8.22607C215.787 8.8182 215.634 9.34115 215.33 9.79492C215.026 10.2432 214.602 10.5724 214.06 10.7827C214.68 10.9377 215.167 11.2503 215.521 11.7207C215.881 12.1911 216.061 12.7666 216.061 13.4473C216.061 14.6094 215.69 15.4893 214.948 16.0869C214.207 16.6846 213.15 16.9889 211.777 17H207.079ZM209.569 11.7373V14.9995H211.703C212.289 14.9995 212.746 14.8612 213.072 14.5845C213.404 14.3022 213.57 13.9149 213.57 13.4224C213.57 12.3156 212.998 11.7539 211.852 11.7373H209.569ZM209.569 9.97754H211.412C212.668 9.9554 213.296 9.45459 213.296 8.4751C213.296 7.92725 213.136 7.53434 212.815 7.29639C212.5 7.0529 211.999 6.93115 211.312 6.93115H209.569V9.97754ZM227.424 12.9741C227.33 14.2746 226.849 15.2983 225.98 16.0454C225.117 16.7925 223.977 17.166 222.56 17.166C221.011 17.166 219.79 16.6458 218.899 15.6055C218.014 14.5596 217.571 13.1263 217.571 11.3057V10.5669C217.571 9.40479 217.776 8.38102 218.186 7.49561C218.595 6.61019 219.179 5.93229 219.937 5.46191C220.701 4.986 221.586 4.74805 222.593 4.74805C223.988 4.74805 225.111 5.12158 225.963 5.86865C226.816 6.61572 227.308 7.66439 227.441 9.01465H224.951C224.89 8.23438 224.671 7.66992 224.295 7.32129C223.924 6.96712 223.357 6.79004 222.593 6.79004C221.763 6.79004 221.141 7.08887 220.726 7.68652C220.316 8.27865 220.106 9.20003 220.095 10.4507V11.3638C220.095 12.6698 220.291 13.6243 220.684 14.2275C221.083 14.8307 221.708 15.1323 222.56 15.1323C223.329 15.1323 223.902 14.958 224.278 14.6094C224.66 14.2552 224.879 13.7101 224.934 12.9741H227.424ZM238.904 17H236.406V6.93115H231.566V17H229.076V4.91406H238.904V17ZM246.765 12.6504L248.757 15.9624H247.213L244.889 12.7251V12.5674L247.213 9.33008H248.757L246.765 12.6504ZM249.961 12.6504L251.953 15.9624H250.409L248.085 12.7251V12.5674L250.409 9.33008H251.953L249.961 12.6504ZM260.926 5.99316H261.076C262.022 5.99316 262.877 6.20345 263.641 6.62402C264.41 7.03906 265.007 7.63118 265.434 8.40039C265.86 9.1696 266.073 10.0439 266.073 11.0234C266.073 12.4733 265.608 13.6576 264.678 14.5762C263.754 15.4948 262.503 15.9541 260.926 15.9541V17.498H258.527V15.9541H258.37C257.412 15.9541 256.549 15.7493 255.78 15.3398C255.011 14.9248 254.413 14.3438 253.987 13.5967C253.566 12.8496 253.356 11.9974 253.356 11.04C253.356 10.0716 253.566 9.20557 253.987 8.44189C254.407 7.67822 254.997 7.08333 255.755 6.65723C256.513 6.22559 257.36 6.00423 258.295 5.99316H258.527V4.41602H260.926V5.99316ZM258.37 8.06006C257.545 8.06006 256.895 8.32015 256.419 8.84033C255.949 9.36051 255.713 10.0938 255.713 11.04C255.713 11.9255 255.949 12.6227 256.419 13.1318C256.889 13.6354 257.551 13.8872 258.403 13.8872H258.527V8.06006H258.37ZM260.926 8.06006V13.8872H261.092C261.906 13.8872 262.545 13.6326 263.01 13.1235C263.48 12.6089 263.715 11.9089 263.715 11.0234C263.715 10.0993 263.486 9.37435 263.026 8.84863C262.567 8.32292 261.909 8.06006 261.051 8.06006H260.926ZM272.755 17C272.644 16.7842 272.564 16.5158 272.514 16.1948C271.933 16.8423 271.178 17.166 270.248 17.166C269.368 17.166 268.638 16.9115 268.057 16.4023C267.481 15.8932 267.193 15.2513 267.193 14.4766C267.193 13.5247 267.545 12.7943 268.248 12.2852C268.956 11.776 269.977 11.5187 271.311 11.5132H272.415V10.9985C272.415 10.5835 272.307 10.2515 272.091 10.0024C271.881 9.75342 271.546 9.62891 271.086 9.62891C270.682 9.62891 270.364 9.72575 270.132 9.91943C269.905 10.1131 269.792 10.3787 269.792 10.7163H267.393C267.393 10.1961 267.553 9.71468 267.874 9.27197C268.195 8.82926 268.649 8.4834 269.235 8.23438C269.822 7.97982 270.48 7.85254 271.211 7.85254C272.318 7.85254 273.195 8.132 273.842 8.69092C274.495 9.2443 274.822 10.0246 274.822 11.0317V14.9248C274.827 15.777 274.946 16.4217 275.179 16.8589V17H272.755ZM270.771 15.3315C271.125 15.3315 271.452 15.2541 271.75 15.0991C272.049 14.9386 272.271 14.7256 272.415 14.46V12.916H271.518C270.317 12.916 269.678 13.3311 269.601 14.1611L269.592 14.3022C269.592 14.6011 269.697 14.8473 269.908 15.041C270.118 15.2347 270.406 15.3315 270.771 15.3315ZM280.084 10.6997L281.595 8.01855H284.16L281.604 12.418L284.268 17H281.695L280.093 14.1777L278.499 17H275.917L278.582 12.418L276.034 8.01855H278.607L280.084 10.6997ZM284.608 12.4263C284.608 11.5353 284.78 10.7412 285.123 10.0439C285.466 9.34668 285.959 8.80713 286.601 8.42529C287.248 8.04346 287.998 7.85254 288.85 7.85254C290.062 7.85254 291.05 8.22331 291.813 8.96484C292.583 9.70638 293.012 10.7135 293.1 11.9863L293.117 12.6006C293.117 13.9785 292.732 15.0853 291.963 15.9209C291.194 16.751 290.162 17.166 288.867 17.166C287.572 17.166 286.537 16.751 285.762 15.9209C284.993 15.0908 284.608 13.9619 284.608 12.5342V12.4263ZM287.007 12.6006C287.007 13.4528 287.168 14.1058 287.489 14.5596C287.81 15.0078 288.269 15.2319 288.867 15.2319C289.448 15.2319 289.902 15.0106 290.228 14.5679C290.555 14.1196 290.718 13.4058 290.718 12.4263C290.718 11.5907 290.555 10.9432 290.228 10.4839C289.902 10.0246 289.442 9.79492 288.85 9.79492C288.264 9.79492 287.81 10.0246 287.489 10.4839C287.168 10.9377 287.007 11.6432 287.007 12.6006ZM294.752 17V8.01855H298.504C299.727 8.01855 300.665 8.23438 301.318 8.66602C301.971 9.09766 302.297 9.71745 302.297 10.5254C302.297 10.9404 302.159 11.314 301.882 11.646C301.611 11.9725 301.213 12.2243 300.687 12.4014C301.329 12.5231 301.833 12.7638 302.198 13.1235C302.569 13.4777 302.754 13.9149 302.754 14.4351C302.754 15.2707 302.438 15.9071 301.808 16.3442C301.182 16.7814 300.272 17 299.077 17H294.752ZM297.151 13.2729V15.0825H299.085C299.932 15.0825 300.355 14.7865 300.355 14.1943C300.355 13.5911 299.951 13.284 299.143 13.2729H297.151ZM297.151 11.6626H298.637C299.478 11.6515 299.898 11.3804 299.898 10.8491C299.898 10.5226 299.782 10.2902 299.55 10.1519C299.323 10.0135 298.974 9.94434 298.504 9.94434H297.151V11.6626ZM309.635 8.01855H312.034V17H309.635V11.4551L306.63 17H304.223V8.01855H306.63V13.5552L309.635 8.01855ZM319.281 8.01855H321.68V17H319.281V11.4551L316.276 17H313.869V8.01855H316.276V13.5552L319.281 8.01855ZM320.692 4.37451C320.692 5.11051 320.426 5.7054 319.895 6.15918C319.369 6.61296 318.678 6.83984 317.82 6.83984C316.962 6.83984 316.268 6.61572 315.736 6.16748C315.211 5.71924 314.948 5.12158 314.948 4.37451H316.649C316.649 4.72314 316.752 4.9943 316.957 5.18799C317.167 5.37614 317.455 5.47021 317.82 5.47021C318.18 5.47021 318.462 5.37614 318.667 5.18799C318.871 4.9943 318.974 4.72314 318.974 4.37451H320.692ZM331.267 13.688H330.304V17H327.905V8.01855H330.304V11.397H331.159L333.118 8.01855H336.148L333.209 12.2935L336.422 17H333.226L331.267 13.688ZM336.472 12.4263C336.472 11.5353 336.643 10.7412 336.986 10.0439C337.329 9.34668 337.822 8.80713 338.464 8.42529C339.111 8.04346 339.861 7.85254 340.713 7.85254C341.925 7.85254 342.913 8.22331 343.677 8.96484C344.446 9.70638 344.875 10.7135 344.963 11.9863L344.98 12.6006C344.98 13.9785 344.595 15.0853 343.826 15.9209C343.057 16.751 342.025 17.166 340.73 17.166C339.435 17.166 338.4 16.751 337.625 15.9209C336.856 15.0908 336.472 13.9619 336.472 12.5342V12.4263ZM338.871 12.6006C338.871 13.4528 339.031 14.1058 339.352 14.5596C339.673 15.0078 340.132 15.2319 340.73 15.2319C341.311 15.2319 341.765 15.0106 342.091 14.5679C342.418 14.1196 342.581 13.4058 342.581 12.4263C342.581 11.5907 342.418 10.9432 342.091 10.4839C341.765 10.0246 341.306 9.79492 340.713 9.79492C340.127 9.79492 339.673 10.0246 339.352 10.4839C339.031 10.9377 338.871 11.6432 338.871 12.6006ZM354.136 8.01855V17H351.737V9.96094H349.62L349.471 12.7334C349.377 14.2109 349.086 15.2873 348.599 15.9624C348.112 16.6375 347.387 16.9834 346.424 17H345.611L345.586 15.0493L345.885 15.0244C346.316 14.9912 346.632 14.7367 346.831 14.2607C347.03 13.7848 347.155 12.9741 347.205 11.8286L347.371 8.01855H354.136ZM360.121 17.166C358.804 17.166 357.73 16.762 356.9 15.9541C356.075 15.1462 355.663 14.0698 355.663 12.7251V12.4927C355.663 11.5907 355.837 10.7855 356.186 10.0771C356.535 9.36328 357.027 8.81543 357.664 8.43359C358.306 8.04622 359.036 7.85254 359.855 7.85254C361.083 7.85254 362.049 8.23991 362.752 9.01465C363.46 9.78939 363.814 10.8879 363.814 12.3101V13.2896H358.095C358.173 13.8761 358.405 14.3465 358.792 14.7007C359.185 15.0549 359.681 15.2319 360.278 15.2319C361.202 15.2319 361.925 14.8971 362.445 14.2275L363.624 15.5474C363.264 16.0565 362.777 16.4549 362.163 16.7427C361.548 17.0249 360.868 17.166 360.121 17.166ZM359.847 9.79492C359.371 9.79492 358.983 9.9554 358.685 10.2764C358.391 10.5973 358.203 11.0566 358.12 11.6543H361.457V11.4634C361.446 10.9321 361.302 10.5226 361.025 10.2349C360.749 9.94157 360.356 9.79492 359.847 9.79492ZM365.309 15.0659C365.851 14.4904 366.219 13.9204 366.413 13.356C366.606 12.7915 366.714 11.9919 366.736 10.957L366.803 8.01855H373.41V15.0659H374.705V19.6978H372.306V17H366.985V19.6978H364.537V15.0659H365.309ZM368.139 15.0659H371.02V10.0024H369.152L369.135 11.0815C369.085 12.7306 368.753 14.0588 368.139 15.0659ZM384.566 13.6714H383.479V17H381.08V13.6714H380.009L378.225 17H375.328L378.158 12.3018L375.361 8.01855H378.333L380.2 11.3721H381.08V8.01855H383.479V11.3721H384.375L386.251 8.01855H389.223L386.442 12.2437L389.298 17H386.351L384.566 13.6714ZM211.055 39.166C209.738 39.166 208.665 38.762 207.834 37.9541C207.01 37.1462 206.598 36.0698 206.598 34.7251V34.4927C206.598 33.5907 206.772 32.7855 207.121 32.0771C207.469 31.3633 207.962 30.8154 208.598 30.4336C209.24 30.0462 209.971 29.8525 210.79 29.8525C212.018 29.8525 212.984 30.2399 213.687 31.0146C214.395 31.7894 214.749 32.8879 214.749 34.3101V35.2896H209.03C209.107 35.8761 209.34 36.3465 209.727 36.7007C210.12 37.0549 210.615 37.2319 211.213 37.2319C212.137 37.2319 212.859 36.8971 213.379 36.2275L214.558 37.5474C214.198 38.0565 213.711 38.4549 213.097 38.7427C212.483 39.0249 211.802 39.166 211.055 39.166ZM210.781 31.7949C210.305 31.7949 209.918 31.9554 209.619 32.2764C209.326 32.5973 209.138 33.0566 209.055 33.6543H212.392V33.4634C212.381 32.9321 212.237 32.5226 211.96 32.2349C211.683 31.9416 211.29 31.7949 210.781 31.7949ZM223.93 30.0186V39H221.531V31.9609H219.414L219.265 34.7334C219.171 36.2109 218.88 37.2873 218.393 37.9624C217.906 38.6375 217.181 38.9834 216.218 39H215.405L215.38 37.0493L215.679 37.0244C216.11 36.9912 216.426 36.7367 216.625 36.2607C216.824 35.7848 216.949 34.9741 216.999 33.8286L217.165 30.0186H223.93ZM229.915 39.166C228.597 39.166 227.524 38.762 226.694 37.9541C225.869 37.1462 225.457 36.0698 225.457 34.7251V34.4927C225.457 33.5907 225.631 32.7855 225.98 32.0771C226.329 31.3633 226.821 30.8154 227.458 30.4336C228.099 30.0462 228.83 29.8525 229.649 29.8525C230.877 29.8525 231.843 30.2399 232.546 31.0146C233.254 31.7894 233.608 32.8879 233.608 34.3101V35.2896H227.889C227.967 35.8761 228.199 36.3465 228.586 36.7007C228.979 37.0549 229.475 37.2319 230.072 37.2319C230.996 37.2319 231.719 36.8971 232.239 36.2275L233.417 37.5474C233.058 38.0565 232.571 38.4549 231.957 38.7427C231.342 39.0249 230.662 39.166 229.915 39.166ZM229.641 31.7949C229.165 31.7949 228.777 31.9554 228.479 32.2764C228.185 32.5973 227.997 33.0566 227.914 33.6543H231.251V33.4634C231.24 32.9321 231.096 32.5226 230.819 32.2349C230.543 31.9416 230.15 31.7949 229.641 31.7949ZM238.498 35.688H237.535V39H235.136V30.0186H237.535V33.397H238.39L240.349 30.0186H243.378L240.44 34.2935L243.652 39H240.457L238.498 35.688ZM252.011 31.9443H249.131V39H246.724V31.9443H243.893V30.0186H252.011V31.9443ZM261.308 34.5923C261.308 35.9757 260.993 37.0853 260.362 37.9209C259.736 38.751 258.89 39.166 257.822 39.166C256.914 39.166 256.181 38.8506 255.622 38.2197V42.4531H253.223V30.0186H255.448L255.531 30.8984C256.112 30.2012 256.87 29.8525 257.805 29.8525C258.912 29.8525 259.772 30.262 260.387 31.0811C261.001 31.9001 261.308 33.029 261.308 34.4678V34.5923ZM258.909 34.418C258.909 33.5824 258.76 32.9377 258.461 32.4839C258.168 32.0301 257.739 31.8032 257.174 31.8032C256.422 31.8032 255.904 32.091 255.622 32.6665V36.3438C255.915 36.9359 256.438 37.2319 257.191 37.2319C258.336 37.2319 258.909 36.2939 258.909 34.418ZM262.429 34.4263C262.429 33.5353 262.6 32.7412 262.943 32.0439C263.286 31.3467 263.779 30.8071 264.421 30.4253C265.068 30.0435 265.818 29.8525 266.67 29.8525C267.882 29.8525 268.87 30.2233 269.634 30.9648C270.403 31.7064 270.832 32.7135 270.92 33.9863L270.937 34.6006C270.937 35.9785 270.552 37.0853 269.783 37.9209C269.014 38.751 267.982 39.166 266.687 39.166C265.392 39.166 264.357 38.751 263.583 37.9209C262.813 37.0908 262.429 35.9619 262.429 34.5342V34.4263ZM264.828 34.6006C264.828 35.4528 264.988 36.1058 265.309 36.5596C265.63 37.0078 266.089 37.2319 266.687 37.2319C267.268 37.2319 267.722 37.0106 268.048 36.5679C268.375 36.1196 268.538 35.4058 268.538 34.4263C268.538 33.5907 268.375 32.9432 268.048 32.4839C267.722 32.0246 267.263 31.7949 266.67 31.7949C266.084 31.7949 265.63 32.0246 265.309 32.4839C264.988 32.9377 264.828 33.6432 264.828 34.6006ZM280.201 39H277.793V35.5469H274.813V39H272.415V30.0186H274.813V33.6211H277.793V30.0186H280.201V39ZM289.846 39H287.439V35.5469H284.459V39H282.06V30.0186H284.459V33.6211H287.439V30.0186H289.846V39ZM297.118 30.0186H299.517V39H297.118V33.4551L294.113 39H291.706V30.0186H294.113V35.5552L297.118 30.0186ZM304.771 32.6997L306.282 30.0186H308.847L306.29 34.418L308.955 39H306.381L304.779 36.1777L303.186 39H300.604L303.269 34.418L300.72 30.0186H303.293L304.771 32.6997ZM322.045 39H319.638V31.9609H316.633V39H314.234V30.0186H322.045V39ZM331.964 34.5923C331.964 35.9757 331.649 37.0853 331.018 37.9209C330.393 38.751 329.546 39.166 328.478 39.166C327.57 39.166 326.837 38.8506 326.278 38.2197V42.4531H323.879V30.0186H326.104L326.187 30.8984C326.768 30.2012 327.526 29.8525 328.461 29.8525C329.568 29.8525 330.429 30.262 331.043 31.0811C331.657 31.9001 331.964 33.029 331.964 34.4678V34.5923ZM329.565 34.418C329.565 33.5824 329.416 32.9377 329.117 32.4839C328.824 32.0301 328.395 31.8032 327.831 31.8032C327.078 31.8032 326.561 32.091 326.278 32.6665V36.3438C326.572 36.9359 327.095 37.2319 327.847 37.2319C328.993 37.2319 329.565 36.2939 329.565 34.418ZM338.871 30.0186H341.27V39H338.871V33.4551L335.866 39H333.458V30.0186H335.866V35.5552L338.871 30.0186ZM350.915 30.0186V39H348.516V31.9609H346.399L346.25 34.7334C346.156 36.2109 345.865 37.2873 345.378 37.9624C344.891 38.6375 344.167 38.9834 343.204 39H342.39L342.365 37.0493L342.664 37.0244C343.096 36.9912 343.411 36.7367 343.61 36.2607C343.81 35.7848 343.934 34.9741 343.984 33.8286L344.15 30.0186H350.915ZM357.971 39C357.86 38.7842 357.78 38.5158 357.73 38.1948C357.149 38.8423 356.394 39.166 355.464 39.166C354.584 39.166 353.854 38.9115 353.272 38.4023C352.697 37.8932 352.409 37.2513 352.409 36.4766C352.409 35.5247 352.761 34.7943 353.463 34.2852C354.172 33.776 355.193 33.5187 356.526 33.5132H357.63V32.9985C357.63 32.5835 357.522 32.2515 357.307 32.0024C357.096 31.7534 356.762 31.6289 356.302 31.6289C355.898 31.6289 355.58 31.7257 355.348 31.9194C355.121 32.1131 355.007 32.3787 355.007 32.7163H352.608C352.608 32.1961 352.769 31.7147 353.09 31.272C353.411 30.8293 353.865 30.4834 354.451 30.2344C355.038 29.9798 355.696 29.8525 356.427 29.8525C357.534 29.8525 358.411 30.132 359.058 30.6909C359.711 31.2443 360.038 32.0246 360.038 33.0317V36.9248C360.043 37.777 360.162 38.4217 360.395 38.8589V39H357.971ZM355.987 37.3315C356.341 37.3315 356.667 37.2541 356.966 37.0991C357.265 36.9386 357.486 36.7256 357.63 36.46V34.916H356.734C355.533 34.916 354.894 35.3311 354.816 36.1611L354.808 36.3022C354.808 36.6011 354.913 36.8473 355.124 37.041C355.334 37.2347 355.622 37.3315 355.987 37.3315ZM362.005 37.0659C362.547 36.4904 362.915 35.9204 363.109 35.356C363.303 34.7915 363.41 33.9919 363.433 32.957L363.499 30.0186H370.106V37.0659H371.401V41.6978H369.002V39H363.682V41.6978H361.233V37.0659H362.005ZM364.835 37.0659H367.716V32.0024H365.848L365.832 33.0815C365.782 34.7306 365.45 36.0588 364.835 37.0659ZM375.153 39H372.746V30.0186H375.153V39ZM372.605 27.6943C372.605 27.3346 372.724 27.0386 372.962 26.8062C373.205 26.5737 373.535 26.4575 373.95 26.4575C374.359 26.4575 374.686 26.5737 374.929 26.8062C375.173 27.0386 375.294 27.3346 375.294 27.6943C375.294 28.0596 375.17 28.3584 374.921 28.5908C374.677 28.8232 374.354 28.9395 373.95 28.9395C373.546 28.9395 373.219 28.8232 372.97 28.5908C372.727 28.3584 372.605 28.0596 372.605 27.6943ZM377.295 39V30.0186H381.047C382.27 30.0186 383.208 30.2344 383.861 30.666C384.514 31.0977 384.84 31.7174 384.84 32.5254C384.84 32.9404 384.702 33.314 384.425 33.646C384.154 33.9725 383.756 34.2243 383.23 34.4014C383.872 34.5231 384.375 34.7638 384.741 35.1235C385.111 35.4777 385.297 35.9149 385.297 36.4351C385.297 37.2707 384.981 37.9071 384.351 38.3442C383.725 38.7814 382.815 39 381.62 39H377.295ZM379.694 35.2729V37.0825H381.628C382.475 37.0825 382.898 36.7865 382.898 36.1943C382.898 35.5911 382.494 35.284 381.686 35.2729H379.694ZM379.694 33.6626H381.18C382.021 33.6515 382.441 33.3804 382.441 32.8491C382.441 32.5226 382.325 32.2902 382.093 32.1519C381.866 32.0135 381.517 31.9443 381.047 31.9443H379.694V33.6626ZM209.727 61H207.237V48.9141H209.727V61ZM219.14 49.9932H219.29C220.236 49.9932 221.091 50.2035 221.854 50.624C222.624 51.0391 223.221 51.6312 223.647 52.4004C224.074 53.1696 224.287 54.0439 224.287 55.0234C224.287 56.4733 223.822 57.6576 222.892 58.5762C221.968 59.4948 220.717 59.9541 219.14 59.9541V61.498H216.741V59.9541H216.583C215.626 59.9541 214.763 59.7493 213.994 59.3398C213.224 58.9248 212.627 58.3438 212.201 57.5967C211.78 56.8496 211.57 55.9974 211.57 55.04C211.57 54.0716 211.78 53.2056 212.201 52.4419C212.621 51.6782 213.211 51.0833 213.969 50.6572C214.727 50.2256 215.574 50.0042 216.509 49.9932H216.741V48.416H219.14V49.9932ZM216.583 52.0601C215.759 52.0601 215.109 52.3201 214.633 52.8403C214.162 53.3605 213.927 54.0938 213.927 55.04C213.927 55.9255 214.162 56.6227 214.633 57.1318C215.103 57.6354 215.764 57.8872 216.617 57.8872H216.741V52.0601H216.583ZM219.14 52.0601V57.8872H219.306C220.12 57.8872 220.759 57.6326 221.224 57.1235C221.694 56.6089 221.929 55.9089 221.929 55.0234C221.929 54.0993 221.7 53.3743 221.24 52.8486C220.781 52.3229 220.122 52.0601 219.265 52.0601H219.14ZM235.758 61H233.268V55.8203H228.412V61H225.922V48.9141H228.412V53.8115H233.268V48.9141H235.758V61ZM246.79 50.9312H243.088V61H240.598V50.9312H236.945V48.9141H246.79V50.9312ZM252.75 54.625L254.95 48.9141H257.639L253.414 58.8833L253.074 59.5391C252.448 60.6292 251.491 61.1743 250.202 61.1743L249.33 61.1411L249.305 59.1406C249.438 59.1628 249.654 59.1738 249.953 59.1738C250.301 59.1738 250.581 59.113 250.791 58.9912C251.007 58.8695 251.187 58.6453 251.331 58.3188L251.638 57.5303L247.396 48.9141H250.077L252.75 54.625ZM268.795 61H266.305V55.8203H261.449V61H258.959V48.9141H261.449V53.8115H266.305V48.9141H268.795V61ZM278.906 50.9312H273.485V61H270.995V48.9141H278.906V50.9312ZM279.412 53.3384L281.736 56.5757V56.7334L279.412 59.9707H277.86L279.852 56.6587L277.86 53.3384H279.412ZM282.674 53.3384L284.999 56.5757V56.7334L282.674 59.9707H281.122L283.114 56.6587L281.122 53.3384H282.674Z" fill="#FAFAFA"/>
<rect x="195.243" width="1.83249" height="67.802" rx="0.916244" fill="#FAFAFA"/>
</mask>
<g mask="url(#mask0)">
<path d="M0 -11H390V80H0V-11Z" fill="url(#paint0_linear)"/>
</g>
<defs>
<linearGradient id="paint0_linear" x1="83.264" y1="3.49192" x2="172.203" y2="170.635" gradientUnits="userSpaceOnUse">
<stop stop-color="#00C0FF"/>
<stop offset="1" stop-color="#5581F1"/>
</linearGradient>
</defs>
</svg>
