<svg width="393" height="74" viewBox="0 0 393 74" fill="none" xmlns="http://www.w3.org/2000/svg">
<mask id="mask0" mask-type="alpha" maskUnits="userSpaceOnUse" x="0" y="0" width="392" height="74">
<path d="M80.0753 29.4631V29.4631C80.1516 29.3905 80.2183 29.3084 80.2737 29.2188L89.8174 13.7776C90.7284 12.3036 92.3377 11.4064 94.0705 11.4064H96.4717" stroke="white" stroke-width="2"/>
<path d="M124.798 65.0504H140.222" stroke="white" stroke-width="2"/>
<circle cx="124.257" cy="65.0515" r="1.35297" fill="white"/>
<circle cx="140.763" cy="65.0506" r="1.35297" fill="white"/>
<path d="M121.451 65.0482C121.451 65.7954 120.845 66.4011 120.098 66.4011C119.35 66.4011 118.745 65.7954 118.745 65.0482C118.745 64.3009 119.35 63.6952 120.098 63.6952C120.845 63.6952 121.451 64.3009 121.451 65.0482Z" fill="white"/>
<circle cx="188.522" cy="55.7366" r="1.48827" fill="white"/>
<circle cx="188.522" cy="17.3124" r="1.48827" fill="white"/>
<circle cx="158.216" cy="56.0068" r="1.48827" fill="white"/>
<circle cx="99.9034" cy="6.89399" r="1.35297" fill="white"/>
<circle cx="146.446" cy="7.16535" r="1.35297" fill="white"/>
<path d="M61.7498 33.4126H79.1598C80.8718 33.4126 82.4647 34.2885 83.3818 35.7341L97.0962 57.3516C97.6043 58.1526 97.8741 59.0816 97.8741 60.0301V65.7486" stroke="white" stroke-width="2"/>
<path d="M61.7498 29.3538H71.9564C73.6862 29.3538 75.293 28.4597 76.205 26.9899L87.2072 9.25823C88.1192 7.78844 89.7261 6.89441 91.4558 6.89441H99.3624" stroke="white" stroke-width="2"/>
<circle cx="61.7494" cy="62.9074" r="1.35297" fill="white"/>
<path d="M61.7498 6.35278V62.6365" stroke="white" stroke-width="2"/>
<circle cx="61.7493" cy="6.35297" r="1.35297" fill="white"/>
<circle cx="96.3723" cy="11.306" r="1.35297" fill="white"/>
<circle cx="80.183" cy="29.1553" r="1.35297" fill="white"/>
<circle cx="97.8737" cy="66.0193" r="1.21768" fill="white"/>
<circle cx="92.3085" cy="63.7372" r="1.35297" fill="white"/>
<path d="M75.2614 38.1279H76.6787C78.4057 38.1279 80.0105 39.0192 80.9233 40.4853L91.5534 57.5595C92.0472 58.3525 92.3088 59.268 92.3088 60.2022V64.105" stroke="white" stroke-width="2"/>
<circle cx="75.0902" cy="38.2965" r="1.21768" fill="white"/>
<circle cx="57.353" cy="13.8809" r="1.35297" fill="white"/>
<circle cx="57.353" cy="65.5648" r="1.35297" fill="white"/>
<path d="M57.3528 14.1517V65.0235" stroke="white" stroke-width="2"/>
<path d="M158.352 56.4128V12.8943V12.1646C158.352 9.40313 160.591 7.16455 163.352 7.16455H201.106" stroke="white" stroke-width="2"/>
<circle cx="154.158" cy="7.29064" r="1.48827" fill="white"/>
<circle cx="154.293" cy="63.1504" r="1.62357" fill="white"/>
<path d="M154.158 7.81305L154.293 63.6908" stroke="white" stroke-width="2"/>
<circle cx="192.81" cy="11.8567" r="1.48827" fill="white"/>
<circle cx="192.945" cy="67.7165" r="1.62357" fill="white"/>
<path d="M192.81 12.3798L192.945 68.2575" stroke="white" stroke-width="2"/>
<circle cx="201.512" cy="7.30065" r="1.48827" fill="white"/>
<path d="M119.862 65.2909H118.704C115.942 65.2909 113.704 63.0523 113.704 60.2909V11.0882V11.0882C113.704 9.19289 115.015 7.49542 116.886 7.18984C116.985 7.17369 117.055 7.16455 117.086 7.16455C117.357 7.16455 145.769 7.16455 145.769 7.16455" stroke="white" stroke-width="2"/>
<circle cx="140.83" cy="13.0268" r="1.35297" fill="white"/>
<circle cx="122.97" cy="13.027" r="1.35297" fill="white"/>
<path d="M123.782 13.0266L139.747 13.0266" stroke="white" stroke-width="2"/>
<path d="M137.494 39.7599H122.788C120.026 39.7599 117.788 41.9985 117.788 44.7599V55.1853C117.788 57.9468 120.026 60.1853 122.788 60.1853H146.192" stroke="white" stroke-width="2"/>
<circle cx="138.29" cy="39.8361" r="1.35297" fill="white"/>
<circle cx="146.269" cy="60.2615" r="1.35297" fill="white"/>
<rect x="108.302" y="12.8865" width="1.9302" height="51.057" fill="#FAFAFA"/>
<circle cx="109.08" cy="12.3991" r="1.6085" fill="#FAFAFA"/>
<circle cx="109.08" cy="63.477" r="1.6085" fill="#FAFAFA"/>
<path d="M118.106 13.5892V28.3763C118.106 31.1378 120.345 33.3763 123.106 33.3763H133.745" stroke="white" stroke-width="2"/>
<ellipse cx="118.179" cy="13.1591" rx="1.35297" ry="1.39397" fill="white"/>
<ellipse cx="133.502" cy="33.4941" rx="1.35297" ry="1.39397" fill="white"/>
<path d="M188.658 17.9886V55.3307" stroke="white" stroke-width="2"/>
<circle cx="184.907" cy="13.2069" r="1.35297" fill="white"/>
<circle cx="163.8" cy="13.2075" r="1.35297" fill="white"/>
<path d="M184.365 13.2067H163.8" stroke="white" stroke-width="2"/>
<path d="M28.306 10C57.3564 10.0001 57.7383 52.758 28.688 52.758" stroke="#FAFAFA" stroke-width="2"/>
<path d="M28.4182 15C50.1911 15.0001 51.2573 48 29.4844 48" stroke="#FAFAFA" stroke-width="2"/>
<path d="M23.1697 10C-5.88067 10.0001 -6.2626 52.758 22.7878 52.758" stroke="#FAFAFA" stroke-width="2"/>
<path d="M22.5541 15C1.36341 15.0001 0.317874 48 21.5086 48" stroke="#FAFAFA" stroke-width="2"/>
<path d="M23 6V41" stroke="#FAFAFA" stroke-width="2"/>
<path d="M28 23V66" stroke="#FAFAFA" stroke-width="2"/>
<circle cx="22.953" cy="6.35297" r="1.35297" fill="white"/>
<circle cx="27.953" cy="65.4529" r="1.35297" fill="white"/>
<circle cx="21.353" cy="47.9529" r="1.35297" fill="white"/>
<circle cx="28.353" cy="14.9529" r="1.35297" fill="white"/>
<path d="M230.359 13.7031H230.531C231.406 13.7031 232.201 13.901 232.914 14.2969C233.633 14.6875 234.19 15.2396 234.586 15.9531C234.987 16.6667 235.188 17.4688 235.188 18.3594C235.188 19.2448 234.987 20.0417 234.586 20.75C234.19 21.4531 233.638 22 232.93 22.3906C232.227 22.7812 231.438 22.9792 230.562 22.9844H230.359V24.4688H228.461V22.9844H228.273C227.393 22.9844 226.594 22.7891 225.875 22.3984C225.156 22.0026 224.599 21.4531 224.203 20.75C223.812 20.0469 223.617 19.2552 223.617 18.375C223.617 17.4844 223.815 16.6823 224.211 15.9688C224.607 15.2552 225.161 14.7005 225.875 14.3047C226.589 13.9036 227.388 13.7031 228.273 13.7031H228.461V12.1562H230.359V13.7031ZM228.273 15.2891C227.398 15.2891 226.714 15.5625 226.219 16.1094C225.729 16.6562 225.484 17.4115 225.484 18.375C225.484 19.3125 225.729 20.0521 226.219 20.5938C226.708 21.1302 227.401 21.3984 228.297 21.3984H228.461V15.2891H228.273ZM230.359 15.2891V21.3984H230.547C231.422 21.3984 232.102 21.125 232.586 20.5781C233.076 20.0312 233.32 19.2917 233.32 18.3594C233.32 17.4062 233.076 16.6562 232.586 16.1094C232.102 15.5625 231.414 15.2891 230.523 15.2891H230.359ZM241.773 24C241.69 23.8385 241.617 23.5755 241.555 23.2109C240.951 23.8411 240.211 24.1562 239.336 24.1562C238.487 24.1562 237.794 23.9141 237.258 23.4297C236.721 22.9453 236.453 22.3464 236.453 21.6328C236.453 20.7318 236.786 20.0417 237.453 19.5625C238.125 19.0781 239.083 18.8359 240.328 18.8359H241.492V18.2812C241.492 17.8438 241.37 17.4948 241.125 17.2344C240.88 16.9688 240.508 16.8359 240.008 16.8359C239.576 16.8359 239.221 16.9453 238.945 17.1641C238.669 17.3776 238.531 17.651 238.531 17.9844H236.633C236.633 17.5208 236.786 17.0885 237.094 16.6875C237.401 16.2812 237.818 15.9635 238.344 15.7344C238.875 15.5052 239.466 15.3906 240.117 15.3906C241.107 15.3906 241.896 15.6406 242.484 16.1406C243.073 16.6354 243.375 17.3333 243.391 18.2344V22.0469C243.391 22.8073 243.497 23.4141 243.711 23.8672V24H241.773ZM239.688 22.6328C240.062 22.6328 240.414 22.5417 240.742 22.3594C241.076 22.1771 241.326 21.9323 241.492 21.625V20.0312H240.469C239.766 20.0312 239.237 20.1536 238.883 20.3984C238.529 20.6432 238.352 20.9896 238.352 21.4375C238.352 21.8021 238.471 22.0938 238.711 22.3125C238.956 22.526 239.281 22.6328 239.688 22.6328ZM248.414 18.3281L250.023 15.5469H252.133L249.547 19.7109L252.219 24H250.125L248.438 21.1094L246.758 24H244.648L247.32 19.7109L244.742 15.5469H246.836L248.414 18.3281ZM252.758 19.6953C252.758 18.8672 252.922 18.1224 253.25 17.4609C253.578 16.7943 254.039 16.2839 254.633 15.9297C255.227 15.5703 255.909 15.3906 256.68 15.3906C257.82 15.3906 258.745 15.7578 259.453 16.4922C260.167 17.2266 260.552 18.2005 260.609 19.4141L260.617 19.8594C260.617 20.6927 260.456 21.4375 260.133 22.0938C259.815 22.75 259.357 23.2578 258.758 23.6172C258.164 23.9766 257.477 24.1562 256.695 24.1562C255.503 24.1562 254.547 23.7604 253.828 22.9688C253.115 22.1719 252.758 21.112 252.758 19.7891V19.6953ZM254.656 19.8594C254.656 20.7292 254.836 21.4115 255.195 21.9062C255.555 22.3958 256.055 22.6406 256.695 22.6406C257.336 22.6406 257.833 22.3906 258.188 21.8906C258.547 21.3906 258.727 20.6589 258.727 19.6953C258.727 18.8411 258.542 18.1641 258.172 17.6641C257.807 17.1641 257.31 16.9141 256.68 16.9141C256.06 16.9141 255.568 17.1615 255.203 17.6562C254.839 18.1458 254.656 18.8802 254.656 19.8594ZM262.367 24V15.5469H265.797C266.953 15.5469 267.833 15.75 268.438 16.1562C269.042 16.5573 269.344 17.1354 269.344 17.8906C269.344 18.2812 269.221 18.6328 268.977 18.9453C268.737 19.2526 268.38 19.4896 267.906 19.6562C268.458 19.7708 268.896 20.0026 269.219 20.3516C269.542 20.7005 269.703 21.112 269.703 21.5859C269.703 22.3724 269.411 22.9714 268.828 23.3828C268.25 23.7943 267.417 24 266.328 24H262.367ZM264.266 20.3984V22.5H266.344C267.318 22.5 267.805 22.151 267.805 21.4531C267.805 20.75 267.31 20.3984 266.32 20.3984H264.266ZM264.266 19.0391H265.828C266.906 19.0391 267.445 18.7214 267.445 18.0859C267.445 17.4193 266.935 17.0755 265.914 17.0547H264.266V19.0391ZM276.625 15.5469H278.516V24H276.625V18.3594L273.312 24H271.422V15.5469H273.312V21.1875L276.625 15.5469ZM285.812 15.5469H287.703V24H285.812V18.3594L282.5 24H280.609V15.5469H282.5V21.1875L285.812 15.5469ZM286.703 12.3047C286.703 12.9609 286.474 13.4922 286.016 13.8984C285.557 14.3047 284.945 14.5078 284.18 14.5078C283.414 14.5078 282.802 14.3047 282.344 13.8984C281.885 13.4922 281.656 12.9609 281.656 12.3047H283.078C283.078 12.6484 283.174 12.9167 283.367 13.1094C283.565 13.2969 283.836 13.3906 284.18 13.3906C284.523 13.3906 284.792 13.2969 284.984 13.1094C285.177 12.9167 285.273 12.6484 285.273 12.3047H286.703ZM296.711 20.6562H295.75V24H293.852V15.5469H295.75V18.9219H296.586L298.922 15.5469H301.266L298.211 19.5938L301.523 24H299.055L296.711 20.6562ZM301.758 19.6953C301.758 18.8672 301.922 18.1224 302.25 17.4609C302.578 16.7943 303.039 16.2839 303.633 15.9297C304.227 15.5703 304.909 15.3906 305.68 15.3906C306.82 15.3906 307.745 15.7578 308.453 16.4922C309.167 17.2266 309.552 18.2005 309.609 19.4141L309.617 19.8594C309.617 20.6927 309.456 21.4375 309.133 22.0938C308.815 22.75 308.357 23.2578 307.758 23.6172C307.164 23.9766 306.477 24.1562 305.695 24.1562C304.503 24.1562 303.547 23.7604 302.828 22.9688C302.115 22.1719 301.758 21.112 301.758 19.7891V19.6953ZM303.656 19.8594C303.656 20.7292 303.836 21.4115 304.195 21.9062C304.555 22.3958 305.055 22.6406 305.695 22.6406C306.336 22.6406 306.833 22.3906 307.188 21.8906C307.547 21.3906 307.727 20.6589 307.727 19.6953C307.727 18.8411 307.542 18.1641 307.172 17.6641C306.807 17.1641 306.31 16.9141 305.68 16.9141C305.06 16.9141 304.568 17.1615 304.203 17.6562C303.839 18.1458 303.656 18.8802 303.656 19.8594ZM318.281 15.5469V24H316.383V17.0781H313.992L313.836 20.0234C313.737 21.4401 313.464 22.4583 313.016 23.0781C312.573 23.6927 311.893 24 310.977 24H310.391L310.383 22.4219L310.773 22.3828C311.19 22.3255 311.492 22.0729 311.68 21.625C311.872 21.1719 311.995 20.349 312.047 19.1562L312.203 15.5469H318.281ZM324.023 24.1562C322.82 24.1562 321.844 23.7786 321.094 23.0234C320.349 22.263 319.977 21.2526 319.977 19.9922V19.7578C319.977 18.9141 320.138 18.1615 320.461 17.5C320.789 16.8333 321.247 16.3151 321.836 15.9453C322.424 15.5755 323.081 15.3906 323.805 15.3906C324.956 15.3906 325.844 15.7578 326.469 16.4922C327.099 17.2266 327.414 18.2656 327.414 19.6094V20.375H321.891C321.948 21.0729 322.18 21.625 322.586 22.0312C322.997 22.4375 323.513 22.6406 324.133 22.6406C325.003 22.6406 325.711 22.2891 326.258 21.5859L327.281 22.5625C326.943 23.0677 326.49 23.4609 325.922 23.7422C325.359 24.0182 324.727 24.1562 324.023 24.1562ZM323.797 16.9141C323.276 16.9141 322.854 17.0964 322.531 17.4609C322.214 17.8255 322.01 18.3333 321.922 18.9844H325.539V18.8438C325.497 18.2083 325.328 17.7292 325.031 17.4062C324.734 17.0781 324.323 16.9141 323.797 16.9141ZM328.93 22.4844C329.456 21.8958 329.807 21.3385 329.984 20.8125C330.167 20.2812 330.276 19.6042 330.312 18.7812L330.422 15.5469H336.289V22.4844H337.461V26.5156H335.57V24H330.148V26.5156H328.227L328.234 22.4844H328.93ZM331.156 22.4844H334.398V17.1797H332.266L332.211 18.7969C332.138 20.349 331.786 21.5781 331.156 22.4844ZM346.258 20.6016H345.25V24H343.352V20.6016H342.352L340.406 24H338.078L340.883 19.6016L338.227 15.5469H340.547L342.461 18.8672H343.352V15.5469H345.25V18.8672H346.148L348.07 15.5469H350.391L347.742 19.5781L350.562 24H348.203L346.258 20.6016ZM227.695 44.1562C226.492 44.1562 225.516 43.7786 224.766 43.0234C224.021 42.263 223.648 41.2526 223.648 39.9922V39.7578C223.648 38.9141 223.81 38.1615 224.133 37.5C224.461 36.8333 224.919 36.3151 225.508 35.9453C226.096 35.5755 226.753 35.3906 227.477 35.3906C228.628 35.3906 229.516 35.7578 230.141 36.4922C230.771 37.2266 231.086 38.2656 231.086 39.6094V40.375H225.562C225.62 41.0729 225.852 41.625 226.258 42.0312C226.669 42.4375 227.185 42.6406 227.805 42.6406C228.674 42.6406 229.383 42.2891 229.93 41.5859L230.953 42.5625C230.615 43.0677 230.161 43.4609 229.594 43.7422C229.031 44.0182 228.398 44.1562 227.695 44.1562ZM227.469 36.9141C226.948 36.9141 226.526 37.0964 226.203 37.4609C225.885 37.8255 225.682 38.3333 225.594 38.9844H229.211V38.8438C229.169 38.2083 229 37.7292 228.703 37.4062C228.406 37.0781 227.995 36.9141 227.469 36.9141ZM239.75 35.5469V44H237.852V37.0781H235.461L235.305 40.0234C235.206 41.4401 234.932 42.4583 234.484 43.0781C234.042 43.6927 233.362 44 232.445 44H231.859L231.852 42.4219L232.242 42.3828C232.659 42.3255 232.961 42.0729 233.148 41.625C233.341 41.1719 233.464 40.349 233.516 39.1562L233.672 35.5469H239.75ZM245.492 44.1562C244.289 44.1562 243.312 43.7786 242.562 43.0234C241.818 42.263 241.445 41.2526 241.445 39.9922V39.7578C241.445 38.9141 241.607 38.1615 241.93 37.5C242.258 36.8333 242.716 36.3151 243.305 35.9453C243.893 35.5755 244.549 35.3906 245.273 35.3906C246.424 35.3906 247.312 35.7578 247.938 36.4922C248.568 37.2266 248.883 38.2656 248.883 39.6094V40.375H243.359C243.417 41.0729 243.648 41.625 244.055 42.0312C244.466 42.4375 244.982 42.6406 245.602 42.6406C246.471 42.6406 247.18 42.2891 247.727 41.5859L248.75 42.5625C248.411 43.0677 247.958 43.4609 247.391 43.7422C246.828 44.0182 246.195 44.1562 245.492 44.1562ZM245.266 36.9141C244.745 36.9141 244.323 37.0964 244 37.4609C243.682 37.8255 243.479 38.3333 243.391 38.9844H247.008V38.8438C246.966 38.2083 246.797 37.7292 246.5 37.4062C246.203 37.0781 245.792 36.9141 245.266 36.9141ZM253.367 40.6562H252.406V44H250.508V35.5469H252.406V38.9219H253.242L255.578 35.5469H257.922L254.867 39.5938L258.18 44H255.711L253.367 40.6562ZM265.875 37.0547H263.133V44H261.234V37.0547H258.523V35.5469H265.875V37.0547ZM274.547 39.8594C274.547 41.1667 274.25 42.2109 273.656 42.9922C273.062 43.7682 272.266 44.1562 271.266 44.1562C270.339 44.1562 269.596 43.8516 269.039 43.2422V47.25H267.141V35.5469H268.891L268.969 36.4062C269.526 35.7292 270.284 35.3906 271.242 35.3906C272.273 35.3906 273.081 35.776 273.664 36.5469C274.253 37.3125 274.547 38.3776 274.547 39.7422V39.8594ZM272.656 39.6953C272.656 38.8516 272.487 38.1823 272.148 37.6875C271.815 37.1927 271.336 36.9453 270.711 36.9453C269.935 36.9453 269.378 37.2656 269.039 37.9062V41.6562C269.383 42.3125 269.945 42.6406 270.727 42.6406C271.331 42.6406 271.802 42.3984 272.141 41.9141C272.484 41.4245 272.656 40.6849 272.656 39.6953ZM275.805 39.6953C275.805 38.8672 275.969 38.1224 276.297 37.4609C276.625 36.7943 277.086 36.2839 277.68 35.9297C278.273 35.5703 278.956 35.3906 279.727 35.3906C280.867 35.3906 281.792 35.7578 282.5 36.4922C283.214 37.2266 283.599 38.2005 283.656 39.4141L283.664 39.8594C283.664 40.6927 283.503 41.4375 283.18 42.0938C282.862 42.75 282.404 43.2578 281.805 43.6172C281.211 43.9766 280.523 44.1562 279.742 44.1562C278.549 44.1562 277.594 43.7604 276.875 42.9688C276.161 42.1719 275.805 41.112 275.805 39.7891V39.6953ZM277.703 39.8594C277.703 40.7292 277.883 41.4115 278.242 41.9062C278.602 42.3958 279.102 42.6406 279.742 42.6406C280.383 42.6406 280.88 42.3906 281.234 41.8906C281.594 41.3906 281.773 40.6589 281.773 39.6953C281.773 38.8411 281.589 38.1641 281.219 37.6641C280.854 37.1641 280.357 36.9141 279.727 36.9141C279.107 36.9141 278.615 37.1615 278.25 37.6562C277.885 38.1458 277.703 38.8802 277.703 39.8594ZM292.43 44H290.531V40.5859H287.242V44H285.344V35.5469H287.242V39.0703H290.531V35.5469H292.43V44ZM301.617 44H299.719V40.5859H296.43V44H294.531V35.5469H296.43V39.0703H299.719V35.5469H301.617V44ZM308.922 35.5469H310.812V44H308.922V38.3594L305.609 44H303.719V35.5469H305.609V41.1875L308.922 35.5469ZM315.867 38.3281L317.477 35.5469H319.586L317 39.7109L319.672 44H317.578L315.891 41.1094L314.211 44H312.102L314.773 39.7109L312.195 35.5469H314.289L315.867 38.3281ZM332.031 44H330.133V37.0781H326.836V44H324.938V35.5469H332.031V44ZM341.453 39.8594C341.453 41.1667 341.156 42.2109 340.562 42.9922C339.969 43.7682 339.172 44.1562 338.172 44.1562C337.245 44.1562 336.503 43.8516 335.945 43.2422V47.25H334.047V35.5469H335.797L335.875 36.4062C336.432 35.7292 337.19 35.3906 338.148 35.3906C339.18 35.3906 339.987 35.776 340.57 36.5469C341.159 37.3125 341.453 38.3776 341.453 39.7422V39.8594ZM339.562 39.6953C339.562 38.8516 339.393 38.1823 339.055 37.6875C338.721 37.1927 338.242 36.9453 337.617 36.9453C336.841 36.9453 336.284 37.2656 335.945 37.9062V41.6562C336.289 42.3125 336.852 42.6406 337.633 42.6406C338.237 42.6406 338.708 42.3984 339.047 41.9141C339.391 41.4245 339.562 40.6849 339.562 39.6953ZM348.344 35.5469H350.234V44H348.344V38.3594L345.031 44H343.141V35.5469H345.031V41.1875L348.344 35.5469ZM359.438 35.5469V44H357.539V37.0781H355.148L354.992 40.0234C354.893 41.4401 354.62 42.4583 354.172 43.0781C353.729 43.6927 353.049 44 352.133 44H351.547L351.539 42.4219L351.93 42.3828C352.346 42.3255 352.648 42.0729 352.836 41.625C353.029 41.1719 353.151 40.349 353.203 39.1562L353.359 35.5469H359.438ZM366.508 44C366.424 43.8385 366.352 43.5755 366.289 43.2109C365.685 43.8411 364.945 44.1562 364.07 44.1562C363.221 44.1562 362.529 43.9141 361.992 43.4297C361.456 42.9453 361.188 42.3464 361.188 41.6328C361.188 40.7318 361.521 40.0417 362.188 39.5625C362.859 39.0781 363.818 38.8359 365.062 38.8359H366.227V38.2812C366.227 37.8438 366.104 37.4948 365.859 37.2344C365.615 36.9688 365.242 36.8359 364.742 36.8359C364.31 36.8359 363.956 36.9453 363.68 37.1641C363.404 37.3776 363.266 37.651 363.266 37.9844H361.367C361.367 37.5208 361.521 37.0885 361.828 36.6875C362.135 36.2812 362.552 35.9635 363.078 35.7344C363.609 35.5052 364.201 35.3906 364.852 35.3906C365.841 35.3906 366.63 35.6406 367.219 36.1406C367.807 36.6354 368.109 37.3333 368.125 38.2344V42.0469C368.125 42.8073 368.232 43.4141 368.445 43.8672V44H366.508ZM364.422 42.6328C364.797 42.6328 365.148 42.5417 365.477 42.3594C365.81 42.1771 366.06 41.9323 366.227 41.625V40.0312H365.203C364.5 40.0312 363.971 40.1536 363.617 40.3984C363.263 40.6432 363.086 40.9896 363.086 41.4375C363.086 41.8021 363.206 42.0938 363.445 42.3125C363.69 42.526 364.016 42.6328 364.422 42.6328ZM370.148 42.4844C370.674 41.8958 371.026 41.3385 371.203 40.8125C371.385 40.2812 371.495 39.6042 371.531 38.7812L371.641 35.5469H377.508V42.4844H378.68V46.5156H376.789V44H371.367V46.5156H369.445L369.453 42.4844H370.148ZM372.375 42.4844H375.617V37.1797H373.484L373.43 38.7969C373.357 40.349 373.005 41.5781 372.375 42.4844ZM382.055 44H380.156V35.5469H382.055V44ZM380.039 33.3516C380.039 33.0599 380.13 32.8177 380.312 32.625C380.5 32.4323 380.766 32.3359 381.109 32.3359C381.453 32.3359 381.719 32.4323 381.906 32.625C382.094 32.8177 382.188 33.0599 382.188 33.3516C382.188 33.638 382.094 33.8776 381.906 34.0703C381.719 34.2578 381.453 34.3516 381.109 34.3516C380.766 34.3516 380.5 34.2578 380.312 34.0703C380.13 33.8776 380.039 33.638 380.039 33.3516ZM384.273 44V35.5469H387.703C388.859 35.5469 389.74 35.75 390.344 36.1562C390.948 36.5573 391.25 37.1354 391.25 37.8906C391.25 38.2812 391.128 38.6328 390.883 38.9453C390.643 39.2526 390.286 39.4896 389.812 39.6562C390.365 39.7708 390.802 40.0026 391.125 40.3516C391.448 40.7005 391.609 41.112 391.609 41.5859C391.609 42.3724 391.318 42.9714 390.734 43.3828C390.156 43.7943 389.323 44 388.234 44H384.273ZM386.172 40.3984V42.5H388.25C389.224 42.5 389.711 42.151 389.711 41.4531C389.711 40.75 389.216 40.3984 388.227 40.3984H386.172ZM386.172 39.0391H387.734C388.812 39.0391 389.352 38.7214 389.352 38.0859C389.352 37.4193 388.841 37.0755 387.82 37.0547H386.172V39.0391ZM226.242 64H224.273V52.625H226.242V64ZM234.875 53.7031H235.047C235.922 53.7031 236.716 53.901 237.43 54.2969C238.148 54.6875 238.706 55.2396 239.102 55.9531C239.503 56.6667 239.703 57.4688 239.703 58.3594C239.703 59.2448 239.503 60.0417 239.102 60.75C238.706 61.4531 238.154 62 237.445 62.3906C236.742 62.7812 235.953 62.9792 235.078 62.9844H234.875V64.4688H232.977V62.9844H232.789C231.909 62.9844 231.109 62.7891 230.391 62.3984C229.672 62.0026 229.115 61.4531 228.719 60.75C228.328 60.0469 228.133 59.2552 228.133 58.375C228.133 57.4844 228.331 56.6823 228.727 55.9688C229.122 55.2552 229.677 54.7005 230.391 54.3047C231.104 53.9036 231.904 53.7031 232.789 53.7031H232.977V52.1562H234.875V53.7031ZM232.789 55.2891C231.914 55.2891 231.229 55.5625 230.734 56.1094C230.245 56.6562 230 57.4115 230 58.375C230 59.3125 230.245 60.0521 230.734 60.5938C231.224 61.1302 231.917 61.3984 232.812 61.3984H232.977V55.2891H232.789ZM234.875 55.2891V61.3984H235.062C235.938 61.3984 236.617 61.125 237.102 60.5781C237.591 60.0312 237.836 59.2917 237.836 58.3594C237.836 57.4062 237.591 56.6562 237.102 56.1094C236.617 55.5625 235.93 55.2891 235.039 55.2891H234.875ZM250.453 64H248.484V58.9453H243.398V64H241.422V52.625H243.398V57.3594H248.484V52.625H250.453V64ZM260.781 54.2188H257.234V64H255.273V54.2188H251.758V52.625H260.781V54.2188ZM266.375 58.5703L268.656 52.625H270.852L266.891 62.0625L266.531 62.7734C266.01 63.7005 265.167 64.1641 264 64.1641L263.188 64.1172L263.203 62.5547C263.328 62.5755 263.549 62.5859 263.867 62.5859C264.43 62.5859 264.826 62.3464 265.055 61.8672L265.461 60.9062L261.57 52.625H263.727L266.375 58.5703ZM281.391 64H279.422V58.9453H274.336V64H272.359V52.625H274.336V57.3594H279.422V52.625H281.391V64ZM291.008 54.2188H285.758V64H283.789V52.625H291.008V54.2188Z" fill="#FAFAFA"/>
<rect x="214" width="2" height="74" rx="1" fill="#FAFAFA"/>
</mask>
<g mask="url(#mask0)">
<path d="M-8 -12H400V87H-8V-12Z" fill="url(#paint0_linear)"/>
</g>
<defs>
<linearGradient id="paint0_linear" x1="79.107" y1="3.76594" x2="177.951" y2="182.394" gradientUnits="userSpaceOnUse">
<stop stop-color="#00C0FF"/>
<stop offset="1" stop-color="#5581F1"/>
</linearGradient>
</defs>
</svg>
