<svg width="383" height="68" viewBox="0 0 383 68" fill="none" xmlns="http://www.w3.org/2000/svg">
<mask id="mask0" mask-type="alpha" maskUnits="userSpaceOnUse" x="0" y="0" width="379" height="68">
<path d="M73.4521 26.995V26.995C73.5221 26.9285 73.5831 26.8533 73.6339 26.7712L82.2555 12.8219C83.1665 11.3479 84.7758 10.4507 86.5087 10.4507H88.4752" stroke="white" stroke-width="2"/>
<path d="M114.428 59.6021H128.56" stroke="white" stroke-width="2"/>
<circle cx="113.933" cy="59.6039" r="1.23965" fill="white"/>
<circle cx="129.056" cy="59.6024" r="1.23965" fill="white"/>
<path d="M111.361 59.6C111.361 60.2846 110.806 60.8397 110.121 60.8397C109.437 60.8397 108.882 60.2846 108.882 59.6C108.882 58.9154 109.437 58.3604 110.121 58.3604C110.806 58.3604 111.361 58.9154 111.361 59.6Z" fill="white"/>
<circle cx="172.816" cy="51.0682" r="1.36362" fill="white"/>
<circle cx="172.816" cy="15.8626" r="1.36362" fill="white"/>
<circle cx="145.048" cy="51.3158" r="1.36362" fill="white"/>
<circle cx="91.6195" cy="6.31631" r="1.23965" fill="white"/>
<circle cx="134.263" cy="6.56534" r="1.23965" fill="white"/>
<path d="M56.6611 30.6143H72.3827C74.0947 30.6143 75.6876 31.4902 76.6047 32.9358L88.9819 52.4455C89.49 53.2465 89.7599 54.1755 89.7599 55.124V60.242" stroke="white" stroke-width="2"/>
<path d="M56.6611 26.8951H65.7799C67.5097 26.8951 69.1165 26.0011 70.0285 24.5313L79.8635 8.68072C80.7755 7.21092 82.3824 6.31689 84.1121 6.31689H91.1235" stroke="white" stroke-width="2"/>
<circle cx="56.6606" cy="57.6381" r="1.23965" fill="white"/>
<path d="M56.6611 5.82031V57.3899" stroke="white" stroke-width="2"/>
<circle cx="56.6606" cy="5.82071" r="1.23965" fill="white"/>
<circle cx="88.3842" cy="10.3593" r="1.23965" fill="white"/>
<circle cx="73.5512" cy="26.7133" r="1.23965" fill="white"/>
<circle cx="89.7602" cy="60.4897" r="1.11569" fill="white"/>
<circle cx="84.6615" cy="58.3988" r="1.23965" fill="white"/>
<path d="M69.042 34.9346H70.108C71.835 34.9346 73.4398 35.8258 74.3526 37.2919L83.9062 52.637C84.3999 53.43 84.6616 54.3455 84.6616 55.2797V58.7359" stroke="white" stroke-width="2"/>
<circle cx="68.8852" cy="35.0893" r="1.11569" fill="white"/>
<circle cx="52.6322" cy="12.7182" r="1.23965" fill="white"/>
<circle cx="52.6322" cy="60.0732" r="1.23965" fill="white"/>
<path d="M52.6318 12.9658V59.5768" stroke="white" stroke-width="2"/>
<path d="M145.172 51.6878V11.8143V11.5645C145.172 8.80303 147.41 6.56445 150.172 6.56445H184.345" stroke="white" stroke-width="2"/>
<circle cx="141.329" cy="6.68002" r="1.36362" fill="white"/>
<circle cx="141.453" cy="57.8616" r="1.48758" fill="white"/>
<path d="M141.329 7.15869L141.453 58.3564" stroke="white" stroke-width="2"/>
<circle cx="176.744" cy="10.8631" r="1.36362" fill="white"/>
<circle cx="176.867" cy="62.0442" r="1.48758" fill="white"/>
<path d="M176.743 11.3423L176.867 62.54" stroke="white" stroke-width="2"/>
<circle cx="184.717" cy="6.6893" r="1.36362" fill="white"/>
<path d="M109.906 59.8223H109.264C106.502 59.8223 104.264 57.5838 104.264 54.8223V10.1594V10.1594C104.264 8.4229 105.466 6.86761 107.179 6.58762C107.27 6.57282 107.334 6.56445 107.363 6.56445C107.611 6.56445 133.643 6.56445 133.643 6.56445" stroke="white" stroke-width="2"/>
<circle cx="129.119" cy="11.9359" r="1.23965" fill="white"/>
<circle cx="112.755" cy="11.9359" r="1.23965" fill="white"/>
<path d="M113.498 11.9355L128.126 11.9355" stroke="white" stroke-width="2"/>
<path d="M126.063 36.4302H113.007C110.245 36.4302 108.007 38.6688 108.007 41.4302V50.1449C108.007 52.9063 110.245 55.1449 113.007 55.1449H134.032" stroke="white" stroke-width="2"/>
<circle cx="126.791" cy="36.4999" r="1.23965" fill="white"/>
<circle cx="134.102" cy="55.2143" r="1.23965" fill="white"/>
<rect x="99.3154" y="11.8071" width="1.76853" height="46.7806" fill="#FAFAFA"/>
<circle cx="100.028" cy="11.3605" r="1.47378" fill="#FAFAFA"/>
<circle cx="100.028" cy="58.1603" r="1.47378" fill="#FAFAFA"/>
<path d="M108.298 12.4512V25.581C108.298 28.3425 110.536 30.581 113.298 30.581H122.626" stroke="white" stroke-width="2"/>
<ellipse cx="108.365" cy="12.057" rx="1.23965" ry="1.27722" fill="white"/>
<ellipse cx="122.405" cy="30.6888" rx="1.23965" ry="1.27722" fill="white"/>
<path d="M172.94 16.4819V50.6964" stroke="white" stroke-width="2"/>
<circle cx="169.503" cy="12.101" r="1.23965" fill="white"/>
<circle cx="150.164" cy="12.1015" r="1.23965" fill="white"/>
<path d="M169.007 12.1006H150.164" stroke="white" stroke-width="2"/>
<path d="M26.0186 9.16211C52.6358 9.16217 52.9857 48.3389 26.3685 48.3389" stroke="#FAFAFA" stroke-width="2"/>
<path d="M26.1211 13.7437C46.0704 13.7437 47.0473 43.9797 27.098 43.9797" stroke="#FAFAFA" stroke-width="2"/>
<path d="M21.3125 9.16211C-5.30473 9.16217 -5.65466 48.3389 20.9626 48.3389" stroke="#FAFAFA" stroke-width="2"/>
<path d="M20.748 13.7437C1.33221 13.7437 0.374239 43.9797 19.7901 43.9797" stroke="#FAFAFA" stroke-width="2"/>
<path d="M21.1572 5.49707V37.5656" stroke="#FAFAFA" stroke-width="2"/>
<path d="M25.7383 21.0732V60.4717" stroke="#FAFAFA" stroke-width="2"/>
<circle cx="21.1137" cy="5.82071" r="1.23965" fill="white"/>
<circle cx="25.6947" cy="59.9706" r="1.23965" fill="white"/>
<circle cx="19.6479" cy="43.9364" r="1.23965" fill="white"/>
<circle cx="26.0619" cy="13.7006" r="1.23965" fill="white"/>
<path d="M207.016 22.8018V11.4268H211C212.38 11.4268 213.427 11.6924 214.141 12.2236C214.854 12.7497 215.211 13.5231 215.211 14.5439C215.211 15.1012 215.068 15.5934 214.781 16.0205C214.495 16.4424 214.096 16.7523 213.586 16.9502C214.169 17.096 214.628 17.3903 214.961 17.833C215.299 18.2757 215.469 18.8174 215.469 19.458C215.469 20.5518 215.12 21.3799 214.422 21.9424C213.724 22.5049 212.729 22.7913 211.438 22.8018H207.016ZM209.359 17.8486V20.9189H211.367C211.919 20.9189 212.349 20.7887 212.656 20.5283C212.969 20.2627 213.125 19.8981 213.125 19.4346C213.125 18.3929 212.586 17.8643 211.508 17.8486H209.359ZM209.359 16.1924H211.094C212.276 16.1715 212.867 15.7002 212.867 14.7783C212.867 14.2627 212.716 13.8929 212.414 13.6689C212.117 13.4398 211.646 13.3252 211 13.3252H209.359V16.1924ZM226.164 19.0127C226.076 20.2367 225.622 21.2002 224.805 21.9033C223.992 22.6064 222.919 22.958 221.586 22.958C220.128 22.958 218.979 22.4684 218.141 21.4893C217.307 20.5049 216.891 19.1559 216.891 17.4424V16.7471C216.891 15.6533 217.083 14.6898 217.469 13.8564C217.854 13.0231 218.404 12.3851 219.117 11.9424C219.836 11.4945 220.669 11.2705 221.617 11.2705C222.93 11.2705 223.987 11.6221 224.789 12.3252C225.591 13.0283 226.055 14.0153 226.18 15.2861H223.836C223.779 14.5518 223.573 14.0205 223.219 13.6924C222.87 13.359 222.336 13.1924 221.617 13.1924C220.836 13.1924 220.25 13.4736 219.859 14.0361C219.474 14.5934 219.276 15.4606 219.266 16.6377V17.4971C219.266 18.7262 219.451 19.6247 219.82 20.1924C220.195 20.7601 220.784 21.0439 221.586 21.0439C222.31 21.0439 222.849 20.8799 223.203 20.5518C223.562 20.2184 223.768 19.7054 223.82 19.0127H226.164ZM236.969 22.8018H234.617V13.3252H230.062V22.8018H227.719V11.4268H236.969V22.8018ZM244.367 18.708L246.242 21.8252H244.789L242.602 18.7783V18.6299L244.789 15.583H246.242L244.367 18.708ZM247.375 18.708L249.25 21.8252H247.797L245.609 18.7783V18.6299L247.797 15.583H249.25L247.375 18.708ZM257.695 12.4424H257.836C258.727 12.4424 259.531 12.6403 260.25 13.0361C260.974 13.4268 261.536 13.984 261.938 14.708C262.339 15.432 262.539 16.2549 262.539 17.1768C262.539 18.5413 262.102 19.6559 261.227 20.5205C260.357 21.3851 259.18 21.8174 257.695 21.8174V23.2705H255.438V21.8174H255.289C254.388 21.8174 253.576 21.6247 252.852 21.2393C252.128 20.8486 251.565 20.3018 251.164 19.5986C250.768 18.8955 250.57 18.0934 250.57 17.1924C250.57 16.2809 250.768 15.4658 251.164 14.7471C251.56 14.0283 252.115 13.4684 252.828 13.0674C253.542 12.6611 254.339 12.4528 255.219 12.4424H255.438V10.958H257.695V12.4424ZM255.289 14.3877C254.513 14.3877 253.901 14.6325 253.453 15.1221C253.01 15.6117 252.789 16.3018 252.789 17.1924C252.789 18.0257 253.01 18.682 253.453 19.1611C253.896 19.6351 254.518 19.8721 255.32 19.8721H255.438V14.3877H255.289ZM257.695 14.3877V19.8721H257.852C258.617 19.8721 259.219 19.6325 259.656 19.1533C260.099 18.6689 260.32 18.0101 260.32 17.1768C260.32 16.307 260.104 15.6247 259.672 15.1299C259.24 14.6351 258.62 14.3877 257.812 14.3877H257.695ZM268.828 22.8018C268.724 22.5986 268.648 22.346 268.602 22.0439C268.055 22.6533 267.344 22.958 266.469 22.958C265.641 22.958 264.953 22.7184 264.406 22.2393C263.865 21.7601 263.594 21.1559 263.594 20.4268C263.594 19.5309 263.924 18.8434 264.586 18.3643C265.253 17.8851 266.214 17.6429 267.469 17.6377H268.508V17.1533C268.508 16.7627 268.406 16.4502 268.203 16.2158C268.005 15.9814 267.69 15.8643 267.258 15.8643C266.878 15.8643 266.578 15.9554 266.359 16.1377C266.146 16.32 266.039 16.57 266.039 16.8877H263.781C263.781 16.3981 263.932 15.945 264.234 15.5283C264.536 15.1117 264.964 14.7861 265.516 14.5518C266.068 14.3122 266.688 14.1924 267.375 14.1924C268.417 14.1924 269.242 14.4554 269.852 14.9814C270.466 15.5023 270.773 16.2367 270.773 17.1846V20.8486C270.779 21.6507 270.891 22.2575 271.109 22.6689V22.8018H268.828ZM266.961 21.2314C267.294 21.2314 267.602 21.1585 267.883 21.0127C268.164 20.8617 268.372 20.6611 268.508 20.4111V18.958H267.664C266.534 18.958 265.932 19.3486 265.859 20.1299L265.852 20.2627C265.852 20.5439 265.951 20.7757 266.148 20.958C266.346 21.1403 266.617 21.2314 266.961 21.2314ZM275.727 16.8721L277.148 14.3486H279.562L277.156 18.4893L279.664 22.8018H277.242L275.734 20.1455L274.234 22.8018H271.805L274.312 18.4893L271.914 14.3486H274.336L275.727 16.8721ZM279.984 18.4971C279.984 17.6585 280.146 16.9111 280.469 16.2549C280.792 15.5986 281.255 15.0908 281.859 14.7314C282.469 14.3721 283.174 14.1924 283.977 14.1924C285.117 14.1924 286.047 14.5413 286.766 15.2393C287.49 15.9372 287.893 16.8851 287.977 18.083L287.992 18.6611C287.992 19.958 287.63 20.9997 286.906 21.7861C286.182 22.5674 285.211 22.958 283.992 22.958C282.773 22.958 281.799 22.5674 281.07 21.7861C280.346 21.0049 279.984 19.9424 279.984 18.5986V18.4971ZM282.242 18.6611C282.242 19.4632 282.393 20.0778 282.695 20.5049C282.997 20.9268 283.43 21.1377 283.992 21.1377C284.539 21.1377 284.966 20.9294 285.273 20.5127C285.581 20.0908 285.734 19.4189 285.734 18.4971C285.734 17.7106 285.581 17.1012 285.273 16.6689C284.966 16.2367 284.534 16.0205 283.977 16.0205C283.424 16.0205 282.997 16.2367 282.695 16.6689C282.393 17.096 282.242 17.7601 282.242 18.6611ZM289.531 22.8018V14.3486H293.062C294.214 14.3486 295.096 14.5518 295.711 14.958C296.326 15.3643 296.633 15.9476 296.633 16.708C296.633 17.0986 296.503 17.4502 296.242 17.7627C295.987 18.07 295.612 18.307 295.117 18.4736C295.721 18.5882 296.195 18.8148 296.539 19.1533C296.888 19.4867 297.062 19.8981 297.062 20.3877C297.062 21.1742 296.766 21.7731 296.172 22.1846C295.583 22.596 294.727 22.8018 293.602 22.8018H289.531ZM291.789 19.2939V20.9971H293.609C294.406 20.9971 294.805 20.7184 294.805 20.1611C294.805 19.5934 294.424 19.3044 293.664 19.2939H291.789ZM291.789 17.7783H293.188C293.979 17.7679 294.375 17.5127 294.375 17.0127C294.375 16.7054 294.266 16.4867 294.047 16.3564C293.833 16.2262 293.505 16.1611 293.062 16.1611H291.789V17.7783ZM303.539 14.3486H305.797V22.8018H303.539V17.583L300.711 22.8018H298.445V14.3486H300.711V19.5596L303.539 14.3486ZM312.617 14.3486H314.875V22.8018H312.617V17.583L309.789 22.8018H307.523V14.3486H309.789V19.5596L312.617 14.3486ZM313.945 10.9189C313.945 11.6117 313.695 12.1715 313.195 12.5986C312.701 13.0257 312.049 13.2393 311.242 13.2393C310.435 13.2393 309.781 13.0283 309.281 12.6064C308.786 12.1846 308.539 11.6221 308.539 10.9189H310.141C310.141 11.2471 310.237 11.5023 310.43 11.6846C310.628 11.8617 310.898 11.9502 311.242 11.9502C311.581 11.9502 311.846 11.8617 312.039 11.6846C312.232 11.5023 312.328 11.2471 312.328 10.9189H313.945ZM323.898 19.6846H322.992V22.8018H320.734V14.3486H322.992V17.5283H323.797L325.641 14.3486H328.492L325.727 18.3721L328.75 22.8018H325.742L323.898 19.6846ZM328.797 18.4971C328.797 17.6585 328.958 16.9111 329.281 16.2549C329.604 15.5986 330.068 15.0908 330.672 14.7314C331.281 14.3721 331.987 14.1924 332.789 14.1924C333.93 14.1924 334.859 14.5413 335.578 15.2393C336.302 15.9372 336.706 16.8851 336.789 18.083L336.805 18.6611C336.805 19.958 336.443 20.9997 335.719 21.7861C334.995 22.5674 334.023 22.958 332.805 22.958C331.586 22.958 330.612 22.5674 329.883 21.7861C329.159 21.0049 328.797 19.9424 328.797 18.5986V18.4971ZM331.055 18.6611C331.055 19.4632 331.206 20.0778 331.508 20.5049C331.81 20.9268 332.242 21.1377 332.805 21.1377C333.352 21.1377 333.779 20.9294 334.086 20.5127C334.393 20.0908 334.547 19.4189 334.547 18.4971C334.547 17.7106 334.393 17.1012 334.086 16.6689C333.779 16.2367 333.346 16.0205 332.789 16.0205C332.237 16.0205 331.81 16.2367 331.508 16.6689C331.206 17.096 331.055 17.7601 331.055 18.6611ZM345.422 14.3486V22.8018H343.164V16.1768H341.172L341.031 18.7861C340.943 20.1768 340.669 21.1898 340.211 21.8252C339.753 22.4606 339.07 22.7861 338.164 22.8018H337.398L337.375 20.9658L337.656 20.9424C338.062 20.9111 338.359 20.6715 338.547 20.2236C338.734 19.7757 338.852 19.0127 338.898 17.9346L339.055 14.3486H345.422ZM351.055 22.958C349.815 22.958 348.805 22.5778 348.023 21.8174C347.247 21.057 346.859 20.0439 346.859 18.7783V18.5596C346.859 17.7106 347.023 16.9528 347.352 16.2861C347.68 15.6143 348.143 15.0986 348.742 14.7393C349.346 14.3747 350.034 14.1924 350.805 14.1924C351.961 14.1924 352.87 14.557 353.531 15.2861C354.198 16.0153 354.531 17.0492 354.531 18.3877V19.3096H349.148C349.221 19.8617 349.44 20.3044 349.805 20.6377C350.174 20.971 350.641 21.1377 351.203 21.1377C352.073 21.1377 352.753 20.8226 353.242 20.1924L354.352 21.4346C354.013 21.9137 353.555 22.2887 352.977 22.5596C352.398 22.8252 351.758 22.958 351.055 22.958ZM350.797 16.0205C350.349 16.0205 349.984 16.1715 349.703 16.4736C349.427 16.7757 349.25 17.208 349.172 17.7705H352.312V17.5908C352.302 17.0908 352.167 16.7054 351.906 16.4346C351.646 16.1585 351.276 16.0205 350.797 16.0205ZM355.938 20.9814C356.448 20.4398 356.794 19.9033 356.977 19.3721C357.159 18.8408 357.26 18.0882 357.281 17.1143L357.344 14.3486H363.562V20.9814H364.781V25.3408H362.523V22.8018H357.516V25.3408H355.211V20.9814H355.938ZM358.602 20.9814H361.312V16.2158H359.555L359.539 17.2314C359.492 18.7835 359.18 20.0335 358.602 20.9814ZM374.062 19.6689H373.039V22.8018H370.781V19.6689H369.773L368.094 22.8018H365.367L368.031 18.3799L365.398 14.3486H368.195L369.953 17.5049H370.781V14.3486H373.039V17.5049H373.883L375.648 14.3486H378.445L375.828 18.3252L378.516 22.8018H375.742L374.062 19.6689ZM210.758 42.958C209.518 42.958 208.508 42.5778 207.727 41.8174C206.951 41.057 206.562 40.0439 206.562 38.7783V38.5596C206.562 37.7106 206.727 36.9528 207.055 36.2861C207.383 35.6143 207.846 35.0986 208.445 34.7393C209.049 34.3747 209.737 34.1924 210.508 34.1924C211.664 34.1924 212.573 34.557 213.234 35.2861C213.901 36.0153 214.234 37.0492 214.234 38.3877V39.3096H208.852C208.924 39.8617 209.143 40.3044 209.508 40.6377C209.878 40.971 210.344 41.1377 210.906 41.1377C211.776 41.1377 212.456 40.8226 212.945 40.1924L214.055 41.4346C213.716 41.9137 213.258 42.2887 212.68 42.5596C212.102 42.8252 211.461 42.958 210.758 42.958ZM210.5 36.0205C210.052 36.0205 209.688 36.1715 209.406 36.4736C209.13 36.7757 208.953 37.208 208.875 37.7705H212.016V37.5908C212.005 37.0908 211.87 36.7054 211.609 36.4346C211.349 36.1585 210.979 36.0205 210.5 36.0205ZM222.875 34.3486V42.8018H220.617V36.1768H218.625L218.484 38.7861C218.396 40.1768 218.122 41.1898 217.664 41.8252C217.206 42.4606 216.523 42.7861 215.617 42.8018H214.852L214.828 40.9658L215.109 40.9424C215.516 40.9111 215.812 40.6715 216 40.2236C216.188 39.7757 216.305 39.0127 216.352 37.9346L216.508 34.3486H222.875ZM228.508 42.958C227.268 42.958 226.258 42.5778 225.477 41.8174C224.701 41.057 224.312 40.0439 224.312 38.7783V38.5596C224.312 37.7106 224.477 36.9528 224.805 36.2861C225.133 35.6143 225.596 35.0986 226.195 34.7393C226.799 34.3747 227.487 34.1924 228.258 34.1924C229.414 34.1924 230.323 34.557 230.984 35.2861C231.651 36.0153 231.984 37.0492 231.984 38.3877V39.3096H226.602C226.674 39.8617 226.893 40.3044 227.258 40.6377C227.628 40.971 228.094 41.1377 228.656 41.1377C229.526 41.1377 230.206 40.8226 230.695 40.1924L231.805 41.4346C231.466 41.9137 231.008 42.2887 230.43 42.5596C229.852 42.8252 229.211 42.958 228.508 42.958ZM228.25 36.0205C227.802 36.0205 227.438 36.1715 227.156 36.4736C226.88 36.7757 226.703 37.208 226.625 37.7705H229.766V37.5908C229.755 37.0908 229.62 36.7054 229.359 36.4346C229.099 36.1585 228.729 36.0205 228.25 36.0205ZM236.586 39.6846H235.68V42.8018H233.422V34.3486H235.68V37.5283H236.484L238.328 34.3486H241.18L238.414 38.3721L241.438 42.8018H238.43L236.586 39.6846ZM249.305 36.1611H246.594V42.8018H244.328V36.1611H241.664V34.3486H249.305V36.1611ZM258.055 38.6533C258.055 39.9554 257.758 40.9997 257.164 41.7861C256.576 42.5674 255.779 42.958 254.773 42.958C253.919 42.958 253.229 42.6611 252.703 42.0674V46.0518H250.445V34.3486H252.539L252.617 35.1768C253.164 34.5205 253.878 34.1924 254.758 34.1924C255.799 34.1924 256.609 34.5778 257.188 35.3486C257.766 36.1195 258.055 37.182 258.055 38.5361V38.6533ZM255.797 38.4893C255.797 37.7028 255.656 37.096 255.375 36.6689C255.099 36.2419 254.695 36.0283 254.164 36.0283C253.456 36.0283 252.969 36.2992 252.703 36.8408V40.3018C252.979 40.859 253.471 41.1377 254.18 41.1377C255.258 41.1377 255.797 40.2549 255.797 38.4893ZM259.109 38.4971C259.109 37.6585 259.271 36.9111 259.594 36.2549C259.917 35.5986 260.38 35.0908 260.984 34.7314C261.594 34.3721 262.299 34.1924 263.102 34.1924C264.242 34.1924 265.172 34.5413 265.891 35.2393C266.615 35.9372 267.018 36.8851 267.102 38.083L267.117 38.6611C267.117 39.958 266.755 40.9997 266.031 41.7861C265.307 42.5674 264.336 42.958 263.117 42.958C261.898 42.958 260.924 42.5674 260.195 41.7861C259.471 41.0049 259.109 39.9424 259.109 38.5986V38.4971ZM261.367 38.6611C261.367 39.4632 261.518 40.0778 261.82 40.5049C262.122 40.9268 262.555 41.1377 263.117 41.1377C263.664 41.1377 264.091 40.9294 264.398 40.5127C264.706 40.0908 264.859 39.4189 264.859 38.4971C264.859 37.7106 264.706 37.1012 264.398 36.6689C264.091 36.2367 263.659 36.0205 263.102 36.0205C262.549 36.0205 262.122 36.2367 261.82 36.6689C261.518 37.096 261.367 37.7601 261.367 38.6611ZM275.836 42.8018H273.57V39.5518H270.766V42.8018H268.508V34.3486H270.766V37.7393H273.57V34.3486H275.836V42.8018ZM284.914 42.8018H282.648V39.5518H279.844V42.8018H277.586V34.3486H279.844V37.7393H282.648V34.3486H284.914V42.8018ZM291.758 34.3486H294.016V42.8018H291.758V37.583L288.93 42.8018H286.664V34.3486H288.93V39.5596L291.758 34.3486ZM298.961 36.8721L300.383 34.3486H302.797L300.391 38.4893L302.898 42.8018H300.477L298.969 40.1455L297.469 42.8018H295.039L297.547 38.4893L295.148 34.3486H297.57L298.961 36.8721ZM315.219 42.8018H312.953V36.1768H310.125V42.8018H307.867V34.3486H315.219V42.8018ZM324.555 38.6533C324.555 39.9554 324.258 40.9997 323.664 41.7861C323.076 42.5674 322.279 42.958 321.273 42.958C320.419 42.958 319.729 42.6611 319.203 42.0674V46.0518H316.945V34.3486H319.039L319.117 35.1768C319.664 34.5205 320.378 34.1924 321.258 34.1924C322.299 34.1924 323.109 34.5778 323.688 35.3486C324.266 36.1195 324.555 37.182 324.555 38.5361V38.6533ZM322.297 38.4893C322.297 37.7028 322.156 37.096 321.875 36.6689C321.599 36.2419 321.195 36.0283 320.664 36.0283C319.956 36.0283 319.469 36.2992 319.203 36.8408V40.3018C319.479 40.859 319.971 41.1377 320.68 41.1377C321.758 41.1377 322.297 40.2549 322.297 38.4893ZM331.055 34.3486H333.312V42.8018H331.055V37.583L328.227 42.8018H325.961V34.3486H328.227V39.5596L331.055 34.3486ZM342.391 34.3486V42.8018H340.133V36.1768H338.141L338 38.7861C337.911 40.1768 337.638 41.1898 337.18 41.8252C336.721 42.4606 336.039 42.7861 335.133 42.8018H334.367L334.344 40.9658L334.625 40.9424C335.031 40.9111 335.328 40.6715 335.516 40.2236C335.703 39.7757 335.82 39.0127 335.867 37.9346L336.023 34.3486H342.391ZM349.031 42.8018C348.927 42.5986 348.852 42.346 348.805 42.0439C348.258 42.6533 347.547 42.958 346.672 42.958C345.844 42.958 345.156 42.7184 344.609 42.2393C344.068 41.7601 343.797 41.1559 343.797 40.4268C343.797 39.5309 344.128 38.8434 344.789 38.3643C345.456 37.8851 346.417 37.6429 347.672 37.6377H348.711V37.1533C348.711 36.7627 348.609 36.4502 348.406 36.2158C348.208 35.9814 347.893 35.8643 347.461 35.8643C347.081 35.8643 346.781 35.9554 346.562 36.1377C346.349 36.32 346.242 36.57 346.242 36.8877H343.984C343.984 36.3981 344.135 35.945 344.438 35.5283C344.74 35.1117 345.167 34.7861 345.719 34.5518C346.271 34.3122 346.891 34.1924 347.578 34.1924C348.62 34.1924 349.445 34.4554 350.055 34.9814C350.669 35.5023 350.977 36.2367 350.977 37.1846V40.8486C350.982 41.6507 351.094 42.2575 351.312 42.6689V42.8018H349.031ZM347.164 41.2314C347.497 41.2314 347.805 41.1585 348.086 41.0127C348.367 40.8617 348.576 40.6611 348.711 40.4111V38.958H347.867C346.737 38.958 346.135 39.3486 346.062 40.1299L346.055 40.2627C346.055 40.5439 346.154 40.7757 346.352 40.958C346.549 41.1403 346.82 41.2314 347.164 41.2314ZM352.828 40.9814C353.339 40.4398 353.685 39.9033 353.867 39.3721C354.049 38.8408 354.151 38.0882 354.172 37.1143L354.234 34.3486H360.453V40.9814H361.672V45.3408H359.414V42.8018H354.406V45.3408H352.102V40.9814H352.828ZM355.492 40.9814H358.203V36.2158H356.445L356.43 37.2314C356.383 38.7835 356.07 40.0335 355.492 40.9814ZM365.203 42.8018H362.938V34.3486H365.203V42.8018ZM362.805 32.1611C362.805 31.8226 362.917 31.5439 363.141 31.3252C363.37 31.1064 363.68 30.9971 364.07 30.9971C364.456 30.9971 364.763 31.1064 364.992 31.3252C365.221 31.5439 365.336 31.8226 365.336 32.1611C365.336 32.5049 365.219 32.7861 364.984 33.0049C364.755 33.2236 364.451 33.333 364.07 33.333C363.69 33.333 363.383 33.2236 363.148 33.0049C362.919 32.7861 362.805 32.5049 362.805 32.1611ZM367.219 42.8018V34.3486H370.75C371.901 34.3486 372.784 34.5518 373.398 34.958C374.013 35.3643 374.32 35.9476 374.32 36.708C374.32 37.0986 374.19 37.4502 373.93 37.7627C373.674 38.07 373.299 38.307 372.805 38.4736C373.409 38.5882 373.883 38.8148 374.227 39.1533C374.576 39.4867 374.75 39.8981 374.75 40.3877C374.75 41.1742 374.453 41.7731 373.859 42.1846C373.271 42.596 372.414 42.8018 371.289 42.8018H367.219ZM369.477 39.2939V40.9971H371.297C372.094 40.9971 372.492 40.7184 372.492 40.1611C372.492 39.5934 372.112 39.3044 371.352 39.2939H369.477ZM369.477 37.7783H370.875C371.667 37.7679 372.062 37.5127 372.062 37.0127C372.062 36.7054 371.953 36.4867 371.734 36.3564C371.521 36.2262 371.193 36.1611 370.75 36.1611H369.477V37.7783ZM209.508 62.8018H207.164V51.4268H209.508V62.8018ZM218.367 52.4424H218.508C219.398 52.4424 220.203 52.6403 220.922 53.0361C221.646 53.4268 222.208 53.984 222.609 54.708C223.01 55.432 223.211 56.2549 223.211 57.1768C223.211 58.5413 222.773 59.6559 221.898 60.5205C221.029 61.3851 219.852 61.8174 218.367 61.8174V63.2705H216.109V61.8174H215.961C215.06 61.8174 214.247 61.6247 213.523 61.2393C212.799 60.8486 212.237 60.3018 211.836 59.5986C211.44 58.8955 211.242 58.0934 211.242 57.1924C211.242 56.2809 211.44 55.4658 211.836 54.7471C212.232 54.0283 212.786 53.4684 213.5 53.0674C214.214 52.6611 215.01 52.4528 215.891 52.4424H216.109V50.958H218.367V52.4424ZM215.961 54.3877C215.185 54.3877 214.573 54.6325 214.125 55.1221C213.682 55.6117 213.461 56.3018 213.461 57.1924C213.461 58.0257 213.682 58.682 214.125 59.1611C214.568 59.6351 215.19 59.8721 215.992 59.8721H216.109V54.3877H215.961ZM218.367 54.3877V59.8721H218.523C219.289 59.8721 219.891 59.6325 220.328 59.1533C220.771 58.6689 220.992 58.0101 220.992 57.1768C220.992 56.307 220.776 55.6247 220.344 55.1299C219.911 54.6351 219.292 54.3877 218.484 54.3877H218.367ZM234.008 62.8018H231.664V57.9268H227.094V62.8018H224.75V51.4268H227.094V56.0361H231.664V51.4268H234.008V62.8018ZM244.391 53.3252H240.906V62.8018H238.562V53.3252H235.125V51.4268H244.391V53.3252ZM250 56.8018L252.07 51.4268H254.602L250.625 60.8096L250.305 61.4268C249.716 62.4528 248.815 62.9658 247.602 62.9658L246.781 62.9346L246.758 61.0518C246.883 61.0726 247.086 61.083 247.367 61.083C247.695 61.083 247.958 61.0257 248.156 60.9111C248.359 60.7965 248.529 60.5856 248.664 60.2783L248.953 59.5361L244.961 51.4268H247.484L250 56.8018ZM265.102 62.8018H262.758V57.9268H258.188V62.8018H255.844V51.4268H258.188V56.0361H262.758V51.4268H265.102V62.8018ZM274.617 53.3252H269.516V62.8018H267.172V51.4268H274.617V53.3252ZM275.094 55.5908L277.281 58.6377V58.7861L275.094 61.833H273.633L275.508 58.7158L273.633 55.5908H275.094ZM278.164 55.5908L280.352 58.6377V58.7861L278.164 61.833H276.703L278.578 58.7158L276.703 55.5908H278.164Z" fill="#FAFAFA"/>
<rect x="195.243" width="1.83249" height="67.802" rx="0.916244" fill="#FAFAFA"/>
</mask>
<g mask="url(#mask0)">
<path d="M-7 -11.1982H383V79.8018H-7V-11.1982Z" fill="url(#paint0_linear)"/>
</g>
<defs>
<linearGradient id="paint0_linear" x1="76.264" y1="3.29368" x2="165.203" y2="170.437" gradientUnits="userSpaceOnUse">
<stop stop-color="#00C0FF"/>
<stop offset="1" stop-color="#5581F1"/>
</linearGradient>
</defs>
</svg>
