<svg width="711" height="68" viewBox="0 0 711 68" fill="none" xmlns="http://www.w3.org/2000/svg">
<mask id="mask0" mask-type="alpha" maskUnits="userSpaceOnUse" x="0" y="0" width="711" height="68">
<path d="M73.9648 26.995V26.995C74.0352 26.9285 74.0968 26.8532 74.148 26.7709L82.839 12.8085C83.7517 11.3421 85.3566 10.4507 87.0838 10.4507H89.0944" stroke="white" stroke-width="2"/>
<path d="M115.232 59.6021H129.465" stroke="white" stroke-width="2"/>
<ellipse cx="114.734" cy="59.6039" rx="1.24845" ry="1.23965" fill="white"/>
<ellipse cx="129.964" cy="59.6024" rx="1.24845" ry="1.23965" fill="white"/>
<path d="M112.145 59.6C112.145 60.2846 111.586 60.8397 110.897 60.8397C110.207 60.8397 109.648 60.2846 109.648 59.6C109.648 58.9154 110.207 58.3604 110.897 58.3604C111.586 58.3604 112.145 58.9154 112.145 59.6Z" fill="white"/>
<ellipse cx="174.034" cy="51.0682" rx="1.37329" ry="1.36362" fill="white"/>
<ellipse cx="174.034" cy="15.8626" rx="1.37329" ry="1.36362" fill="white"/>
<ellipse cx="146.07" cy="51.3158" rx="1.37329" ry="1.36362" fill="white"/>
<ellipse cx="92.2621" cy="6.31631" rx="1.24845" ry="1.23965" fill="white"/>
<ellipse cx="135.207" cy="6.56534" rx="1.24845" ry="1.23965" fill="white"/>
<path d="M57.0557 30.6143H72.9187C74.625 30.6143 76.2134 31.4844 77.1321 32.9223L89.6026 52.4407C90.1162 53.2446 90.3892 54.1787 90.3892 55.1327V60.242" stroke="white" stroke-width="2"/>
<path d="M57.0557 26.8951H66.2692C67.9933 26.8951 69.5958 26.0069 70.5094 24.5448L80.431 8.66726C81.3447 7.20515 82.9472 6.31689 84.6713 6.31689H91.7625" stroke="white" stroke-width="2"/>
<ellipse cx="57.0551" cy="57.6381" rx="1.24845" ry="1.23965" fill="white"/>
<path d="M57.0557 5.82031V57.3899" stroke="white" stroke-width="2"/>
<ellipse cx="57.0551" cy="5.82071" rx="1.24845" ry="1.23965" fill="white"/>
<ellipse cx="89.0043" cy="10.3593" rx="1.24845" ry="1.23965" fill="white"/>
<ellipse cx="74.0658" cy="26.7133" rx="1.24845" ry="1.23965" fill="white"/>
<ellipse cx="90.3892" cy="60.4897" rx="1.1236" ry="1.11569" fill="white"/>
<ellipse cx="85.2533" cy="58.3988" rx="1.24845" ry="1.23965" fill="white"/>
<path d="M69.5244 34.9346H70.6281C72.3495 34.9346 73.9498 35.8201 74.8642 37.2785L84.491 52.6322C84.9901 53.4282 85.2548 54.3487 85.2548 55.2882V58.7359" stroke="white" stroke-width="2"/>
<ellipse cx="69.3658" cy="35.0893" rx="1.1236" ry="1.11569" fill="white"/>
<ellipse cx="52.9994" cy="12.7182" rx="1.24845" ry="1.23965" fill="white"/>
<ellipse cx="52.9994" cy="60.0732" rx="1.24845" ry="1.23965" fill="white"/>
<path d="M52.998 12.9658V59.5768" stroke="white" stroke-width="2"/>
<path d="M146.195 51.6878V11.8143V11.5645C146.195 8.80303 148.434 6.56445 151.195 6.56445H185.646" stroke="white" stroke-width="2"/>
<ellipse cx="142.325" cy="6.68002" rx="1.37329" ry="1.36362" fill="white"/>
<ellipse cx="142.45" cy="57.8616" rx="1.49814" ry="1.48758" fill="white"/>
<path d="M142.325 7.15869L142.45 58.3564" stroke="white" stroke-width="2"/>
<ellipse cx="177.99" cy="10.8631" rx="1.37329" ry="1.36362" fill="white"/>
<ellipse cx="178.114" cy="62.0442" rx="1.49814" ry="1.48758" fill="white"/>
<path d="M177.989 11.3423L178.114 62.54" stroke="white" stroke-width="2"/>
<ellipse cx="186.021" cy="6.6893" rx="1.37329" ry="1.36362" fill="white"/>
<path d="M110.68 59.8223H109.997C107.236 59.8223 104.997 57.5838 104.997 54.8223V10.1594V10.1594C104.997 8.42348 106.2 6.87454 107.912 6.59109C108.015 6.57414 108.087 6.56445 108.118 6.56445C108.368 6.56445 134.585 6.56445 134.585 6.56445" stroke="white" stroke-width="2"/>
<ellipse cx="130.029" cy="11.9359" rx="1.24845" ry="1.23965" fill="white"/>
<ellipse cx="113.548" cy="11.9359" rx="1.24845" ry="1.23965" fill="white"/>
<path d="M114.296 11.9355L129.028 11.9355" stroke="white" stroke-width="2"/>
<path d="M126.95 36.4302H113.767C111.005 36.4302 108.767 38.6688 108.767 41.4302V50.1449C108.767 52.9063 111.005 55.1449 113.767 55.1449H134.976" stroke="white" stroke-width="2"/>
<ellipse cx="127.684" cy="36.4999" rx="1.24845" ry="1.23965" fill="white"/>
<ellipse cx="135.047" cy="55.2143" rx="1.24845" ry="1.23965" fill="white"/>
<rect x="100.015" y="11.8071" width="1.78108" height="46.7806" fill="#FAFAFA"/>
<ellipse cx="100.731" cy="11.3605" rx="1.48423" ry="1.47378" fill="#FAFAFA"/>
<ellipse cx="100.731" cy="58.1603" rx="1.48423" ry="1.47378" fill="#FAFAFA"/>
<path d="M109.061 12.4512V25.581C109.061 28.3425 111.299 30.581 114.061 30.581H123.491" stroke="white" stroke-width="2"/>
<ellipse cx="109.126" cy="12.057" rx="1.24845" ry="1.27722" fill="white"/>
<ellipse cx="123.267" cy="30.6888" rx="1.24845" ry="1.27722" fill="white"/>
<path d="M174.159 16.4819V50.6964" stroke="white" stroke-width="2"/>
<ellipse cx="170.7" cy="12.101" rx="1.24845" ry="1.23965" fill="white"/>
<ellipse cx="151.223" cy="12.1015" rx="1.24845" ry="1.23965" fill="white"/>
<path d="M170.199 12.1006H151.223" stroke="white" stroke-width="2"/>
<path d="M26.1963 9.16211C53.0023 9.16217 53.3547 48.3389 26.5487 48.3389" stroke="#FAFAFA" stroke-width="2"/>
<path d="M26.2988 13.7437C46.3897 13.7437 47.3735 43.9797 27.2826 43.9797" stroke="#FAFAFA" stroke-width="2"/>
<path d="M21.4561 9.16211C-5.34997 9.16217 -5.70239 48.3389 21.1036 48.3389" stroke="#FAFAFA" stroke-width="2"/>
<path d="M20.8887 13.7437C1.33511 13.7437 0.370349 43.9797 19.9239 43.9797" stroke="#FAFAFA" stroke-width="2"/>
<path d="M21.2998 5.49707V37.5656" stroke="#FAFAFA" stroke-width="2"/>
<path d="M25.915 21.0732V60.4717" stroke="#FAFAFA" stroke-width="2"/>
<ellipse cx="21.2572" cy="5.82071" rx="1.24845" ry="1.23965" fill="white"/>
<ellipse cx="25.8695" cy="59.9706" rx="1.24845" ry="1.23965" fill="white"/>
<ellipse cx="19.7797" cy="43.9364" rx="1.24845" ry="1.23965" fill="white"/>
<ellipse cx="26.2397" cy="13.7006" rx="1.24845" ry="1.23965" fill="white"/>
<path d="M304.409 17V4.91406H308.642C310.108 4.91406 311.221 5.19629 311.979 5.76074C312.737 6.31966 313.116 7.14144 313.116 8.22607C313.116 8.8182 312.964 9.34115 312.66 9.79492C312.355 10.2432 311.932 10.5724 311.389 10.7827C312.009 10.9377 312.496 11.2503 312.85 11.7207C313.21 12.1911 313.39 12.7666 313.39 13.4473C313.39 14.6094 313.019 15.4893 312.278 16.0869C311.536 16.6846 310.479 16.9889 309.107 17H304.409ZM306.899 11.7373V14.9995H309.032C309.619 14.9995 310.075 14.8612 310.402 14.5845C310.734 14.3022 310.9 13.9149 310.9 13.4224C310.9 12.3156 310.327 11.7539 309.181 11.7373H306.899ZM306.899 9.97754H308.742C309.998 9.9554 310.626 9.45459 310.626 8.4751C310.626 7.92725 310.465 7.53434 310.144 7.29639C309.829 7.0529 309.328 6.93115 308.642 6.93115H306.899V9.97754ZM317.64 17H315.233V8.01855H317.64V17ZM315.092 5.69434C315.092 5.33464 315.211 5.03857 315.449 4.80615C315.692 4.57373 316.021 4.45752 316.436 4.45752C316.846 4.45752 317.172 4.57373 317.416 4.80615C317.659 5.03857 317.781 5.33464 317.781 5.69434C317.781 6.05957 317.657 6.3584 317.408 6.59082C317.164 6.82324 316.84 6.93945 316.436 6.93945C316.032 6.93945 315.706 6.82324 315.457 6.59082C315.213 6.3584 315.092 6.05957 315.092 5.69434ZM319.748 15.0659C320.291 14.4904 320.659 13.9204 320.852 13.356C321.046 12.7915 321.154 11.9919 321.176 10.957L321.243 8.01855H327.85V15.0659H329.145V19.6978H326.746V17H321.425V19.6978H318.976V15.0659H319.748ZM322.579 15.0659H325.459V10.0024H323.592L323.575 11.0815C323.525 12.7306 323.193 14.0588 322.579 15.0659ZM329.992 12.4263C329.992 11.5353 330.163 10.7412 330.506 10.0439C330.849 9.34668 331.342 8.80713 331.984 8.42529C332.631 8.04346 333.381 7.85254 334.233 7.85254C335.445 7.85254 336.433 8.22331 337.197 8.96484C337.966 9.70638 338.395 10.7135 338.483 11.9863L338.5 12.6006C338.5 13.9785 338.115 15.0853 337.346 15.9209C336.577 16.751 335.545 17.166 334.25 17.166C332.955 17.166 331.92 16.751 331.145 15.9209C330.376 15.0908 329.992 13.9619 329.992 12.5342V12.4263ZM332.39 12.6006C332.39 13.4528 332.551 14.1058 332.872 14.5596C333.193 15.0078 333.652 15.2319 334.25 15.2319C334.831 15.2319 335.285 15.0106 335.611 14.5679C335.938 14.1196 336.101 13.4058 336.101 12.4263C336.101 11.5907 335.938 10.9432 335.611 10.4839C335.285 10.0246 334.825 9.79492 334.233 9.79492C333.647 9.79492 333.193 10.0246 332.872 10.4839C332.551 10.9377 332.39 11.6432 332.39 12.6006ZM343.497 13.688H342.534V17H340.135V8.01855H342.534V11.397H343.389L345.348 8.01855H348.378L345.439 12.2935L348.652 17H345.456L343.497 13.688ZM357.641 12.5923C357.641 13.9757 357.326 15.0853 356.695 15.9209C356.07 16.751 355.223 17.166 354.155 17.166C353.248 17.166 352.514 16.8506 351.955 16.2197V20.4531H349.556V8.01855H351.781L351.864 8.89844C352.445 8.20117 353.203 7.85254 354.139 7.85254C355.245 7.85254 356.106 8.26204 356.72 9.08105C357.334 9.90007 357.641 11.029 357.641 12.4678V12.5923ZM355.243 12.418C355.243 11.5824 355.093 10.9377 354.794 10.4839C354.501 10.0301 354.072 9.80322 353.508 9.80322C352.755 9.80322 352.238 10.091 351.955 10.6665V14.3438C352.249 14.9359 352.772 15.2319 353.524 15.2319C354.67 15.2319 355.243 14.2939 355.243 12.418ZM363.269 17.166C361.952 17.166 360.879 16.762 360.049 15.9541C359.224 15.1462 358.812 14.0698 358.812 12.7251V12.4927C358.812 11.5907 358.986 10.7855 359.335 10.0771C359.683 9.36328 360.176 8.81543 360.812 8.43359C361.454 8.04622 362.185 7.85254 363.004 7.85254C364.232 7.85254 365.198 8.23991 365.901 9.01465C366.609 9.78939 366.963 10.8879 366.963 12.3101V13.2896H361.244C361.321 13.8761 361.554 14.3465 361.941 14.7007C362.334 15.0549 362.829 15.2319 363.427 15.2319C364.351 15.2319 365.073 14.8971 365.594 14.2275L366.772 15.5474C366.413 16.0565 365.926 16.4549 365.311 16.7427C364.697 17.0249 364.016 17.166 363.269 17.166ZM362.995 9.79492C362.52 9.79492 362.132 9.9554 361.833 10.2764C361.54 10.5973 361.352 11.0566 361.269 11.6543H364.606V11.4634C364.595 10.9321 364.451 10.5226 364.174 10.2349C363.897 9.94157 363.505 9.79492 362.995 9.79492ZM373.803 14.1694L376.152 8.01855H379.157V17H376.758V11.4883L374.608 17H372.998L370.889 11.5796V17H368.491V8.01855H371.471L373.803 14.1694ZM389.06 8.01855V17H386.661V9.96094H384.544L384.395 12.7334C384.301 14.2109 384.01 15.2873 383.523 15.9624C383.036 16.6375 382.311 16.9834 381.348 17H380.535L380.51 15.0493L380.809 15.0244C381.241 14.9912 381.556 14.7367 381.755 14.2607C381.954 13.7848 382.079 12.9741 382.129 11.8286L382.295 8.01855H389.06ZM395.045 17.166C393.728 17.166 392.654 16.762 391.824 15.9541C391 15.1462 390.587 14.0698 390.587 12.7251V12.4927C390.587 11.5907 390.762 10.7855 391.11 10.0771C391.459 9.36328 391.951 8.81543 392.588 8.43359C393.23 8.04622 393.96 7.85254 394.779 7.85254C396.008 7.85254 396.973 8.23991 397.676 9.01465C398.384 9.78939 398.739 10.8879 398.739 12.3101V13.2896H393.019C393.097 13.8761 393.329 14.3465 393.717 14.7007C394.11 15.0549 394.605 15.2319 395.202 15.2319C396.127 15.2319 396.849 14.8971 397.369 14.2275L398.548 15.5474C398.188 16.0565 397.701 16.4549 397.087 16.7427C396.472 17.0249 395.792 17.166 395.045 17.166ZM394.771 9.79492C394.295 9.79492 393.908 9.9554 393.609 10.2764C393.315 10.5973 393.127 11.0566 393.044 11.6543H396.381V11.4634C396.37 10.9321 396.226 10.5226 395.95 10.2349C395.673 9.94157 395.28 9.79492 394.771 9.79492ZM407.894 17H405.487V13.5469H402.507V17H400.108V8.01855H402.507V11.6211H405.487V8.01855H407.894V17ZM415.166 8.01855H417.565V17H415.166V11.4551L412.161 17H409.754V8.01855H412.161V13.5552L415.166 8.01855ZM424.811 8.01855H427.21V17H424.811V11.4551L421.806 17H419.399V8.01855H421.806V13.5552L424.811 8.01855ZM426.222 4.37451C426.222 5.11051 425.957 5.7054 425.426 6.15918C424.9 6.61296 424.208 6.83984 423.35 6.83984C422.493 6.83984 421.798 6.61572 421.267 6.16748C420.741 5.71924 420.478 5.12158 420.478 4.37451H422.18C422.18 4.72314 422.282 4.9943 422.487 5.18799C422.697 5.37614 422.985 5.47021 423.35 5.47021C423.71 5.47021 423.992 5.37614 424.197 5.18799C424.402 4.9943 424.504 4.72314 424.504 4.37451H426.222ZM437.014 15.2319C437.456 15.2319 437.816 15.1102 438.093 14.8667C438.369 14.6232 438.513 14.2995 438.524 13.8955H440.774C440.768 14.5042 440.602 15.0632 440.276 15.5723C439.949 16.0758 439.501 16.4688 438.931 16.751C438.367 17.0277 437.741 17.166 437.055 17.166C435.771 17.166 434.758 16.7593 434.017 15.9458C433.275 15.1268 432.905 13.9979 432.905 12.5591V12.4014C432.905 11.0179 433.273 9.9139 434.009 9.08936C434.745 8.26481 435.755 7.85254 437.038 7.85254C438.162 7.85254 439.061 8.1735 439.736 8.81543C440.417 9.45182 440.763 10.3013 440.774 11.3638H438.524C438.513 10.8989 438.369 10.5226 438.093 10.2349C437.816 9.94157 437.451 9.79492 436.997 9.79492C436.438 9.79492 436.015 9.99967 435.727 10.4092C435.445 10.8132 435.304 11.4717 435.304 12.3848V12.6338C435.304 13.5579 435.445 14.222 435.727 14.626C436.009 15.0299 436.438 15.2319 437.014 15.2319ZM449.597 9.94434H446.717V17H444.31V9.94434H441.479V8.01855H449.597V9.94434ZM458.894 12.5923C458.894 13.9757 458.579 15.0853 457.948 15.9209C457.323 16.751 456.476 17.166 455.408 17.166C454.5 17.166 453.767 16.8506 453.208 16.2197V20.4531H450.809V8.01855H453.034L453.117 8.89844C453.698 8.20117 454.456 7.85254 455.391 7.85254C456.498 7.85254 457.359 8.26204 457.973 9.08105C458.587 9.90007 458.894 11.029 458.894 12.4678V12.5923ZM456.495 12.418C456.495 11.5824 456.346 10.9377 456.047 10.4839C455.754 10.0301 455.325 9.80322 454.761 9.80322C454.008 9.80322 453.491 10.091 453.208 10.6665V14.3438C453.502 14.9359 454.025 15.2319 454.777 15.2319C455.923 15.2319 456.495 14.2939 456.495 12.418ZM463.642 13.605L465.303 8.01855H467.876L464.265 18.3945L464.066 18.8677C463.529 20.0409 462.644 20.6274 461.41 20.6274C461.061 20.6274 460.707 20.5749 460.347 20.4697V18.6519L460.712 18.6602C461.166 18.6602 461.504 18.591 461.725 18.4526C461.952 18.3143 462.129 18.0846 462.256 17.7637L462.538 17.0249L459.392 8.01855H461.974L463.642 13.605ZM472.342 13.688H471.379V17H468.98V8.01855H471.379V11.397H472.234L474.193 8.01855H477.222L474.284 12.2935L477.496 17H474.301L472.342 13.688ZM485.855 9.94434H482.975V17H480.568V9.94434H477.737V8.01855H485.855V9.94434ZM490.52 13.605L492.18 8.01855H494.754L491.143 18.3945L490.944 18.8677C490.407 20.0409 489.521 20.6274 488.287 20.6274C487.939 20.6274 487.585 20.5749 487.225 20.4697V18.6519L487.59 18.6602C488.044 18.6602 488.381 18.591 488.603 18.4526C488.83 18.3143 489.007 18.0846 489.134 17.7637L489.416 17.0249L486.27 8.01855H488.852L490.52 13.605ZM503.785 12.5923C503.785 13.9757 503.47 15.0853 502.839 15.9209C502.213 16.751 501.367 17.166 500.299 17.166C499.391 17.166 498.658 16.8506 498.099 16.2197V20.4531H495.7V8.01855H497.925L498.008 8.89844C498.589 8.20117 499.347 7.85254 500.282 7.85254C501.389 7.85254 502.249 8.26204 502.864 9.08105C503.478 9.90007 503.785 11.029 503.785 12.4678V12.5923ZM501.386 12.418C501.386 11.5824 501.237 10.9377 500.938 10.4839C500.645 10.0301 500.216 9.80322 499.651 9.80322C498.899 9.80322 498.381 10.091 498.099 10.6665V14.3438C498.392 14.9359 498.915 15.2319 499.668 15.2319C500.813 15.2319 501.386 14.2939 501.386 12.418ZM513.065 17H510.658V13.5469H507.678V17H505.279V8.01855H507.678V11.6211H510.658V8.01855H513.065V17ZM520.337 8.01855H522.736V17H520.337V11.4551L517.332 17H514.925V8.01855H517.332V13.5552L520.337 8.01855ZM529.982 8.01855H532.381V17H529.982V11.4551L526.977 17H524.57V8.01855H526.977V13.5552L529.982 8.01855ZM531.393 4.37451C531.393 5.11051 531.128 5.7054 530.596 6.15918C530.071 6.61296 529.379 6.83984 528.521 6.83984C527.664 6.83984 526.969 6.61572 526.438 6.16748C525.912 5.71924 525.649 5.12158 525.649 4.37451H527.351C527.351 4.72314 527.453 4.9943 527.658 5.18799C527.868 5.37614 528.156 5.47021 528.521 5.47021C528.881 5.47021 529.163 5.37614 529.368 5.18799C529.573 4.9943 529.675 4.72314 529.675 4.37451H531.393ZM546.26 17H543.853V9.96094H540.848V17H538.449V8.01855H546.26V17ZM550.626 17H548.219V8.01855H550.626V17ZM548.078 5.69434C548.078 5.33464 548.197 5.03857 548.435 4.80615C548.678 4.57373 549.008 4.45752 549.423 4.45752C549.832 4.45752 550.159 4.57373 550.402 4.80615C550.646 5.03857 550.767 5.33464 550.767 5.69434C550.767 6.05957 550.643 6.3584 550.394 6.59082C550.15 6.82324 549.827 6.93945 549.423 6.93945C549.019 6.93945 548.692 6.82324 548.443 6.59082C548.2 6.3584 548.078 6.05957 548.078 5.69434ZM552.735 15.0659C553.277 14.4904 553.645 13.9204 553.839 13.356C554.032 12.7915 554.14 11.9919 554.162 10.957L554.229 8.01855H560.836V15.0659H562.131V19.6978H559.732V17H554.411V19.6978H551.963V15.0659H552.735ZM555.565 15.0659H558.446V10.0024H556.578L556.561 11.0815C556.512 12.7306 556.18 14.0588 555.565 15.0659ZM571.287 12.5923C571.287 13.9757 570.971 15.0853 570.341 15.9209C569.715 16.751 568.869 17.166 567.801 17.166C566.893 17.166 566.16 16.8506 565.601 16.2197V20.4531H563.202V8.01855H565.427L565.51 8.89844C566.091 8.20117 566.849 7.85254 567.784 7.85254C568.891 7.85254 569.751 8.26204 570.366 9.08105C570.98 9.90007 571.287 11.029 571.287 12.4678V12.5923ZM568.888 12.418C568.888 11.5824 568.739 10.9377 568.44 10.4839C568.146 10.0301 567.718 9.80322 567.153 9.80322C566.401 9.80322 565.883 10.091 565.601 10.6665V14.3438C565.894 14.9359 566.417 15.2319 567.17 15.2319C568.315 15.2319 568.888 14.2939 568.888 12.418ZM572.408 12.4263C572.408 11.5353 572.579 10.7412 572.922 10.0439C573.265 9.34668 573.758 8.80713 574.4 8.42529C575.047 8.04346 575.797 7.85254 576.649 7.85254C577.861 7.85254 578.849 8.22331 579.613 8.96484C580.382 9.70638 580.811 10.7135 580.899 11.9863L580.916 12.6006C580.916 13.9785 580.531 15.0853 579.762 15.9209C578.993 16.751 577.961 17.166 576.666 17.166C575.371 17.166 574.336 16.751 573.561 15.9209C572.792 15.0908 572.408 13.9619 572.408 12.5342V12.4263ZM574.806 12.6006C574.806 13.4528 574.967 14.1058 575.288 14.5596C575.609 15.0078 576.068 15.2319 576.666 15.2319C577.247 15.2319 577.701 15.0106 578.027 14.5679C578.354 14.1196 578.517 13.4058 578.517 12.4263C578.517 11.5907 578.354 10.9432 578.027 10.4839C577.701 10.0246 577.241 9.79492 576.649 9.79492C576.063 9.79492 575.609 10.0246 575.288 10.4839C574.967 10.9377 574.806 11.6432 574.806 12.6006ZM587.108 10.6665C587.108 10.3511 587.003 10.1076 586.793 9.93604C586.588 9.75895 586.295 9.67041 585.913 9.67041C585.52 9.67041 585.199 9.75342 584.95 9.91943C584.707 10.0799 584.585 10.3096 584.585 10.6084H582.186C582.186 9.79492 582.523 9.13363 583.199 8.62451C583.874 8.1154 584.737 7.86084 585.788 7.86084C586.945 7.86084 587.853 8.08773 588.511 8.5415C589.175 8.99528 589.507 9.63997 589.507 10.4756C589.507 10.874 589.385 11.242 589.142 11.5796C588.904 11.9116 588.566 12.1772 588.129 12.3765C589.153 12.7362 589.665 13.4307 589.665 14.46C589.665 15.2845 589.311 15.943 588.602 16.4355C587.9 16.9225 586.962 17.166 585.788 17.166C584.698 17.166 583.802 16.9115 583.099 16.4023C582.396 15.8932 582.045 15.207 582.045 14.3438H584.444C584.444 14.6481 584.579 14.8944 584.85 15.0825C585.122 15.2707 585.476 15.3647 585.913 15.3647C586.339 15.3647 586.671 15.2651 586.909 15.0659C587.147 14.8667 587.266 14.6066 587.266 14.2856C587.266 13.8927 587.152 13.6133 586.926 13.4473C586.699 13.2757 586.358 13.1899 585.905 13.1899H584.601V11.6294H585.988C586.735 11.6073 587.108 11.2863 587.108 10.6665ZM591.25 15.0659C591.793 14.4904 592.161 13.9204 592.354 13.356C592.548 12.7915 592.656 11.9919 592.678 10.957L592.744 8.01855H599.352V15.0659H600.647V19.6978H598.248V17H592.927V19.6978H590.478V15.0659H591.25ZM594.081 15.0659H596.961V10.0024H595.094L595.077 11.0815C595.027 12.7306 594.695 14.0588 594.081 15.0659ZM604.399 17H601.992V8.01855H604.399V17ZM601.85 5.69434C601.85 5.33464 601.969 5.03857 602.207 4.80615C602.451 4.57373 602.78 4.45752 603.195 4.45752C603.605 4.45752 603.931 4.57373 604.175 4.80615C604.418 5.03857 604.54 5.33464 604.54 5.69434C604.54 6.05957 604.415 6.3584 604.166 6.59082C603.923 6.82324 603.599 6.93945 603.195 6.93945C602.791 6.93945 602.465 6.82324 602.216 6.59082C601.972 6.3584 601.85 6.05957 601.85 5.69434ZM614.194 8.01855V17H611.795V9.96094H609.678L609.529 12.7334C609.435 14.2109 609.144 15.2873 608.657 15.9624C608.17 16.6375 607.445 16.9834 606.482 17H605.669L605.644 15.0493L605.943 15.0244C606.374 14.9912 606.69 14.7367 606.889 14.2607C607.088 13.7848 607.213 12.9741 607.263 11.8286L607.429 8.01855H614.194ZM210.377 34.6504L212.369 37.9624H210.826L208.501 34.7251V34.5674L210.826 31.3301H212.369L210.377 34.6504ZM213.573 34.6504L215.565 37.9624H214.021L211.697 34.7251V34.5674L214.021 31.3301H215.565L213.573 34.6504ZM224.538 27.9932H224.688C225.634 27.9932 226.489 28.2035 227.253 28.624C228.022 29.0391 228.62 29.6312 229.046 30.4004C229.472 31.1696 229.685 32.0439 229.685 33.0234C229.685 34.4733 229.22 35.6576 228.29 36.5762C227.366 37.4948 226.116 37.9541 224.538 37.9541V39.498H222.139V37.9541H221.982C221.024 37.9541 220.161 37.7493 219.392 37.3398C218.623 36.9248 218.025 36.3438 217.599 35.5967C217.178 34.8496 216.968 33.9974 216.968 33.04C216.968 32.0716 217.178 31.2056 217.599 30.4419C218.02 29.6782 218.609 29.0833 219.367 28.6572C220.125 28.2256 220.972 28.0042 221.907 27.9932H222.139V26.416H224.538V27.9932ZM221.982 30.0601C221.157 30.0601 220.507 30.3201 220.031 30.8403C219.561 31.3605 219.326 32.0938 219.326 33.04C219.326 33.9255 219.561 34.6227 220.031 35.1318C220.501 35.6354 221.163 35.8872 222.015 35.8872H222.139V30.0601H221.982ZM224.538 30.0601V35.8872H224.704C225.518 35.8872 226.157 35.6326 226.622 35.1235C227.092 34.6089 227.327 33.9089 227.327 33.0234C227.327 32.0993 227.098 31.3743 226.639 30.8486C226.179 30.3229 225.521 30.0601 224.663 30.0601H224.538ZM236.367 39C236.256 38.7842 236.176 38.5158 236.126 38.1948C235.545 38.8423 234.79 39.166 233.86 39.166C232.98 39.166 232.25 38.9115 231.669 38.4023C231.093 37.8932 230.805 37.2513 230.805 36.4766C230.805 35.5247 231.157 34.7943 231.86 34.2852C232.568 33.776 233.589 33.5187 234.923 33.5132H236.027V32.9985C236.027 32.5835 235.919 32.2515 235.703 32.0024C235.493 31.7534 235.158 31.6289 234.699 31.6289C234.295 31.6289 233.976 31.7257 233.744 31.9194C233.517 32.1131 233.404 32.3787 233.404 32.7163H231.005C231.005 32.1961 231.165 31.7147 231.486 31.272C231.807 30.8293 232.261 30.4834 232.847 30.2344C233.434 29.9798 234.093 29.8525 234.823 29.8525C235.93 29.8525 236.807 30.132 237.454 30.6909C238.107 31.2443 238.434 32.0246 238.434 33.0317V36.9248C238.439 37.777 238.558 38.4217 238.791 38.8589V39H236.367ZM234.383 37.3315C234.737 37.3315 235.064 37.2541 235.363 37.0991C235.661 36.9386 235.883 36.7256 236.027 36.46V34.916H235.13C233.929 34.916 233.29 35.3311 233.213 36.1611L233.204 36.3022C233.204 36.6011 233.31 36.8473 233.52 37.041C233.73 37.2347 234.018 37.3315 234.383 37.3315ZM243.697 32.6997L245.207 30.0186H247.772L245.216 34.418L247.88 39H245.307L243.705 36.1777L242.111 39H239.53L242.194 34.418L239.646 30.0186H242.219L243.697 32.6997ZM248.221 34.4263C248.221 33.5353 248.392 32.7412 248.735 32.0439C249.078 31.3467 249.571 30.8071 250.213 30.4253C250.86 30.0435 251.61 29.8525 252.462 29.8525C253.674 29.8525 254.662 30.2233 255.426 30.9648C256.195 31.7064 256.624 32.7135 256.712 33.9863L256.729 34.6006C256.729 35.9785 256.344 37.0853 255.575 37.9209C254.806 38.751 253.774 39.166 252.479 39.166C251.184 39.166 250.149 38.751 249.374 37.9209C248.605 37.0908 248.221 35.9619 248.221 34.5342V34.4263ZM250.619 34.6006C250.619 35.4528 250.78 36.1058 251.101 36.5596C251.422 37.0078 251.881 37.2319 252.479 37.2319C253.06 37.2319 253.514 37.0106 253.84 36.5679C254.167 36.1196 254.33 35.4058 254.33 34.4263C254.33 33.5907 254.167 32.9432 253.84 32.4839C253.514 32.0246 253.054 31.7949 252.462 31.7949C251.876 31.7949 251.422 32.0246 251.101 32.4839C250.78 32.9377 250.619 33.6432 250.619 34.6006ZM258.364 39V30.0186H262.116C263.339 30.0186 264.277 30.2344 264.93 30.666C265.583 31.0977 265.91 31.7174 265.91 32.5254C265.91 32.9404 265.771 33.314 265.494 33.646C265.223 33.9725 264.825 34.2243 264.299 34.4014C264.941 34.5231 265.445 34.7638 265.81 35.1235C266.181 35.4777 266.366 35.9149 266.366 36.4351C266.366 37.2707 266.051 37.9071 265.42 38.3442C264.794 38.7814 263.884 39 262.689 39H258.364ZM260.763 35.2729V37.0825H262.697C263.544 37.0825 263.967 36.7865 263.967 36.1943C263.967 35.5911 263.563 35.284 262.755 35.2729H260.763ZM260.763 33.6626H262.249C263.09 33.6515 263.511 33.3804 263.511 32.8491C263.511 32.5226 263.394 32.2902 263.162 32.1519C262.935 32.0135 262.586 31.9443 262.116 31.9443H260.763V33.6626ZM273.247 30.0186H275.646V39H273.247V33.4551L270.243 39H267.835V30.0186H270.243V35.5552L273.247 30.0186ZM282.893 30.0186H285.292V39H282.893V33.4551L279.888 39H277.481V30.0186H279.888V35.5552L282.893 30.0186ZM284.304 26.3745C284.304 27.1105 284.038 27.7054 283.507 28.1592C282.981 28.613 282.29 28.8398 281.432 28.8398C280.574 28.8398 279.88 28.6157 279.348 28.1675C278.823 27.7192 278.56 27.1216 278.56 26.3745H280.262C280.262 26.7231 280.364 26.9943 280.569 27.188C280.779 27.3761 281.067 27.4702 281.432 27.4702C281.792 27.4702 282.074 27.3761 282.279 27.188C282.483 26.9943 282.586 26.7231 282.586 26.3745H284.304ZM294.879 35.688H293.916V39H291.517V30.0186H293.916V33.397H294.771L296.73 30.0186H299.76L296.822 34.2935L300.034 39H296.838L294.879 35.688ZM300.084 34.4263C300.084 33.5353 300.255 32.7412 300.598 32.0439C300.942 31.3467 301.434 30.8071 302.076 30.4253C302.723 30.0435 303.473 29.8525 304.326 29.8525C305.537 29.8525 306.525 30.2233 307.289 30.9648C308.058 31.7064 308.487 32.7135 308.576 33.9863L308.592 34.6006C308.592 35.9785 308.208 37.0853 307.438 37.9209C306.669 38.751 305.637 39.166 304.342 39.166C303.047 39.166 302.012 38.751 301.238 37.9209C300.468 37.0908 300.084 35.9619 300.084 34.5342V34.4263ZM302.483 34.6006C302.483 35.4528 302.643 36.1058 302.964 36.5596C303.285 37.0078 303.744 37.2319 304.342 37.2319C304.923 37.2319 305.377 37.0106 305.703 36.5679C306.03 36.1196 306.193 35.4058 306.193 34.4263C306.193 33.5907 306.03 32.9432 305.703 32.4839C305.377 32.0246 304.918 31.7949 304.326 31.7949C303.739 31.7949 303.285 32.0246 302.964 32.4839C302.643 32.9377 302.483 33.6432 302.483 34.6006ZM317.748 30.0186V39H315.349V31.9609H313.232L313.083 34.7334C312.989 36.2109 312.698 37.2873 312.211 37.9624C311.724 38.6375 310.999 38.9834 310.036 39H309.223L309.198 37.0493L309.497 37.0244C309.929 36.9912 310.244 36.7367 310.443 36.2607C310.642 35.7848 310.767 34.9741 310.817 33.8286L310.983 30.0186H317.748ZM323.733 39.166C322.416 39.166 321.342 38.762 320.512 37.9541C319.687 37.1462 319.275 36.0698 319.275 34.7251V34.4927C319.275 33.5907 319.45 32.7855 319.798 32.0771C320.147 31.3633 320.639 30.8154 321.276 30.4336C321.918 30.0462 322.648 29.8525 323.467 29.8525C324.696 29.8525 325.661 30.2399 326.364 31.0146C327.072 31.7894 327.427 32.8879 327.427 34.3101V35.2896H321.707C321.785 35.8761 322.017 36.3465 322.405 36.7007C322.798 37.0549 323.293 37.2319 323.89 37.2319C324.815 37.2319 325.537 36.8971 326.057 36.2275L327.236 37.5474C326.876 38.0565 326.389 38.4549 325.775 38.7427C325.16 39.0249 324.48 39.166 323.733 39.166ZM323.459 31.7949C322.983 31.7949 322.596 31.9554 322.297 32.2764C322.003 32.5973 321.815 33.0566 321.732 33.6543H325.069V33.4634C325.058 32.9321 324.914 32.5226 324.638 32.2349C324.361 31.9416 323.968 31.7949 323.459 31.7949ZM328.921 37.0659C329.463 36.4904 329.831 35.9204 330.025 35.356C330.218 34.7915 330.326 33.9919 330.348 32.957L330.415 30.0186H337.022V37.0659H338.317V41.6978H335.918V39H330.597V41.6978H328.149V37.0659H328.921ZM331.751 37.0659H334.632V32.0024H332.764L332.747 33.0815C332.698 34.7306 332.366 36.0588 331.751 37.0659ZM348.179 35.6714H347.091V39H344.692V35.6714H343.621L341.837 39H338.94L341.77 34.3018L338.973 30.0186H341.945L343.812 33.3721H344.692V30.0186H347.091V33.3721H347.988L349.864 30.0186H352.835L350.055 34.2437L352.91 39H349.963L348.179 35.6714ZM362.431 39.166C361.114 39.166 360.04 38.762 359.21 37.9541C358.386 37.1462 357.973 36.0698 357.973 34.7251V34.4927C357.973 33.5907 358.148 32.7855 358.496 32.0771C358.845 31.3633 359.338 30.8154 359.974 30.4336C360.616 30.0462 361.346 29.8525 362.165 29.8525C363.394 29.8525 364.36 30.2399 365.062 31.0146C365.771 31.7894 366.125 32.8879 366.125 34.3101V35.2896H360.406C360.483 35.8761 360.715 36.3465 361.103 36.7007C361.496 37.0549 361.991 37.2319 362.589 37.2319C363.513 37.2319 364.235 36.8971 364.755 36.2275L365.934 37.5474C365.574 38.0565 365.087 38.4549 364.473 38.7427C363.859 39.0249 363.178 39.166 362.431 39.166ZM362.157 31.7949C361.681 31.7949 361.294 31.9554 360.995 32.2764C360.702 32.5973 360.514 33.0566 360.43 33.6543H363.767V33.4634C363.756 32.9321 363.612 32.5226 363.336 32.2349C363.059 31.9416 362.666 31.7949 362.157 31.7949ZM375.305 30.0186V39H372.907V31.9609H370.79L370.64 34.7334C370.546 36.2109 370.256 37.2873 369.769 37.9624C369.282 38.6375 368.557 38.9834 367.594 39H366.781L366.756 37.0493L367.055 37.0244C367.486 36.9912 367.802 36.7367 368.001 36.2607C368.2 35.7848 368.325 34.9741 368.374 33.8286L368.54 30.0186H375.305ZM381.29 39.166C379.973 39.166 378.9 38.762 378.07 37.9541C377.245 37.1462 376.833 36.0698 376.833 34.7251V34.4927C376.833 33.5907 377.007 32.7855 377.356 32.0771C377.704 31.3633 378.197 30.8154 378.833 30.4336C379.475 30.0462 380.206 29.8525 381.025 29.8525C382.253 29.8525 383.219 30.2399 383.922 31.0146C384.63 31.7894 384.984 32.8879 384.984 34.3101V35.2896H379.265C379.342 35.8761 379.575 36.3465 379.962 36.7007C380.355 37.0549 380.85 37.2319 381.448 37.2319C382.372 37.2319 383.094 36.8971 383.615 36.2275L384.793 37.5474C384.434 38.0565 383.947 38.4549 383.332 38.7427C382.718 39.0249 382.037 39.166 381.29 39.166ZM381.016 31.7949C380.541 31.7949 380.153 31.9554 379.854 32.2764C379.561 32.5973 379.373 33.0566 379.29 33.6543H382.627V33.4634C382.616 32.9321 382.472 32.5226 382.195 32.2349C381.918 31.9416 381.526 31.7949 381.016 31.7949ZM389.873 35.688H388.91V39H386.512V30.0186H388.91V33.397H389.765L391.724 30.0186H394.754L391.816 34.2935L395.028 39H391.832L389.873 35.688ZM403.387 31.9443H400.507V39H398.099V31.9443H395.269V30.0186H403.387V31.9443ZM412.684 34.5923C412.684 35.9757 412.368 37.0853 411.738 37.9209C411.112 38.751 410.266 39.166 409.198 39.166C408.29 39.166 407.557 38.8506 406.998 38.2197V42.4531H404.599V30.0186H406.824L406.907 30.8984C407.488 30.2012 408.246 29.8525 409.181 29.8525C410.288 29.8525 411.148 30.262 411.763 31.0811C412.377 31.9001 412.684 33.029 412.684 34.4678V34.5923ZM410.285 34.418C410.285 33.5824 410.136 32.9377 409.837 32.4839C409.543 32.0301 409.115 31.8032 408.55 31.8032C407.798 31.8032 407.28 32.091 406.998 32.6665V36.3438C407.291 36.9359 407.814 37.2319 408.567 37.2319C409.712 37.2319 410.285 36.2939 410.285 34.418ZM413.805 34.4263C413.805 33.5353 413.976 32.7412 414.319 32.0439C414.662 31.3467 415.155 30.8071 415.797 30.4253C416.444 30.0435 417.194 29.8525 418.046 29.8525C419.258 29.8525 420.246 30.2233 421.01 30.9648C421.779 31.7064 422.208 32.7135 422.296 33.9863L422.313 34.6006C422.313 35.9785 421.928 37.0853 421.159 37.9209C420.39 38.751 419.358 39.166 418.063 39.166C416.768 39.166 415.733 38.751 414.958 37.9209C414.189 37.0908 413.805 35.9619 413.805 34.5342V34.4263ZM416.203 34.6006C416.203 35.4528 416.364 36.1058 416.685 36.5596C417.006 37.0078 417.465 37.2319 418.063 37.2319C418.644 37.2319 419.098 37.0106 419.424 36.5679C419.751 36.1196 419.914 35.4058 419.914 34.4263C419.914 33.5907 419.751 32.9432 419.424 32.4839C419.098 32.0246 418.638 31.7949 418.046 31.7949C417.46 31.7949 417.006 32.0246 416.685 32.4839C416.364 32.9377 416.203 33.6432 416.203 34.6006ZM431.576 39H429.169V35.5469H426.189V39H423.79V30.0186H426.189V33.6211H429.169V30.0186H431.576V39ZM441.222 39H438.815V35.5469H435.835V39H433.436V30.0186H435.835V33.6211H438.815V30.0186H441.222V39ZM448.493 30.0186H450.892V39H448.493V33.4551L445.489 39H443.081V30.0186H445.489V35.5552L448.493 30.0186ZM456.147 32.6997L457.658 30.0186H460.222L457.666 34.418L460.33 39H457.757L456.155 36.1777L454.561 39H451.98L454.644 34.418L452.096 30.0186H454.669L456.147 32.6997ZM473.421 39H471.013V31.9609H468.009V39H465.61V30.0186H473.421V39ZM483.34 34.5923C483.34 35.9757 483.025 37.0853 482.394 37.9209C481.769 38.751 480.922 39.166 479.854 39.166C478.946 39.166 478.213 38.8506 477.654 38.2197V42.4531H475.255V30.0186H477.48L477.563 30.8984C478.144 30.2012 478.902 29.8525 479.837 29.8525C480.944 29.8525 481.805 30.262 482.419 31.0811C483.033 31.9001 483.34 33.029 483.34 34.4678V34.5923ZM480.941 34.418C480.941 33.5824 480.792 32.9377 480.493 32.4839C480.2 32.0301 479.771 31.8032 479.206 31.8032C478.454 31.8032 477.936 32.091 477.654 32.6665V36.3438C477.947 36.9359 478.47 37.2319 479.223 37.2319C480.368 37.2319 480.941 36.2939 480.941 34.418ZM490.246 30.0186H492.645V39H490.246V33.4551L487.242 39H484.834V30.0186H487.242V35.5552L490.246 30.0186ZM502.291 30.0186V39H499.892V31.9609H497.775L497.626 34.7334C497.532 36.2109 497.241 37.2873 496.754 37.9624C496.267 38.6375 495.542 38.9834 494.579 39H493.766L493.741 37.0493L494.04 37.0244C494.471 36.9912 494.787 36.7367 494.986 36.2607C495.185 35.7848 495.31 34.9741 495.36 33.8286L495.526 30.0186H502.291ZM509.346 39C509.236 38.7842 509.156 38.5158 509.106 38.1948C508.525 38.8423 507.769 39.166 506.84 39.166C505.96 39.166 505.229 38.9115 504.648 38.4023C504.073 37.8932 503.785 37.2513 503.785 36.4766C503.785 35.5247 504.136 34.7943 504.839 34.2852C505.548 33.776 506.569 33.5187 507.902 33.5132H509.006V32.9985C509.006 32.5835 508.898 32.2515 508.682 32.0024C508.472 31.7534 508.137 31.6289 507.678 31.6289C507.274 31.6289 506.956 31.7257 506.723 31.9194C506.497 32.1131 506.383 32.3787 506.383 32.7163H503.984C503.984 32.1961 504.145 31.7147 504.466 31.272C504.787 30.8293 505.24 30.4834 505.827 30.2344C506.414 29.9798 507.072 29.8525 507.803 29.8525C508.909 29.8525 509.786 30.132 510.434 30.6909C511.087 31.2443 511.413 32.0246 511.413 33.0317V36.9248C511.419 37.777 511.538 38.4217 511.77 38.8589V39H509.346ZM507.363 37.3315C507.717 37.3315 508.043 37.2541 508.342 37.0991C508.641 36.9386 508.862 36.7256 509.006 36.46V34.916H508.11C506.909 34.916 506.27 35.3311 506.192 36.1611L506.184 36.3022C506.184 36.6011 506.289 36.8473 506.499 37.041C506.71 37.2347 506.997 37.3315 507.363 37.3315ZM513.381 37.0659C513.923 36.4904 514.291 35.9204 514.485 35.356C514.678 34.7915 514.786 33.9919 514.808 32.957L514.875 30.0186H521.482V37.0659H522.777V41.6978H520.378V39H515.057V41.6978H512.609V37.0659H513.381ZM516.211 37.0659H519.092V32.0024H517.224L517.207 33.0815C517.158 34.7306 516.826 36.0588 516.211 37.0659ZM526.529 39H524.122V30.0186H526.529V39ZM523.981 27.6943C523.981 27.3346 524.1 27.0386 524.338 26.8062C524.581 26.5737 524.91 26.4575 525.326 26.4575C525.735 26.4575 526.062 26.5737 526.305 26.8062C526.548 27.0386 526.67 27.3346 526.67 27.6943C526.67 28.0596 526.546 28.3584 526.297 28.5908C526.053 28.8232 525.729 28.9395 525.326 28.9395C524.922 28.9395 524.595 28.8232 524.346 28.5908C524.103 28.3584 523.981 28.0596 523.981 27.6943ZM528.671 39V30.0186H532.423C533.646 30.0186 534.584 30.2344 535.237 30.666C535.89 31.0977 536.216 31.7174 536.216 32.5254C536.216 32.9404 536.078 33.314 535.801 33.646C535.53 33.9725 535.131 34.2243 534.606 34.4014C535.248 34.5231 535.751 34.7638 536.117 35.1235C536.487 35.4777 536.673 35.9149 536.673 36.4351C536.673 37.2707 536.357 37.9071 535.726 38.3442C535.101 38.7814 534.191 39 532.995 39H528.671ZM531.07 35.2729V37.0825H533.004C533.85 37.0825 534.274 36.7865 534.274 36.1943C534.274 35.5911 533.87 35.284 533.062 35.2729H531.07ZM531.07 33.6626H532.555C533.397 33.6515 533.817 33.3804 533.817 32.8491C533.817 32.5226 533.701 32.2902 533.469 32.1519C533.242 32.0135 532.893 31.9443 532.423 31.9443H531.07V33.6626ZM545.181 39H542.691V26.9141H545.181V39ZM547.497 39V30.0186H551.249C552.472 30.0186 553.41 30.2344 554.063 30.666C554.716 31.0977 555.042 31.7174 555.042 32.5254C555.042 32.9404 554.904 33.314 554.627 33.646C554.356 33.9725 553.958 34.2243 553.432 34.4014C554.074 34.5231 554.577 34.7638 554.943 35.1235C555.313 35.4777 555.499 35.9149 555.499 36.4351C555.499 37.2707 555.183 37.9071 554.553 38.3442C553.927 38.7814 553.017 39 551.822 39H547.497ZM549.896 35.2729V37.0825H551.83C552.677 37.0825 553.1 36.7865 553.1 36.1943C553.1 35.5911 552.696 35.284 551.888 35.2729H549.896ZM549.896 33.6626H551.382C552.223 33.6515 552.643 33.3804 552.643 32.8491C552.643 32.5226 552.527 32.2902 552.295 32.1519C552.068 32.0135 551.719 31.9443 551.249 31.9443H549.896V33.6626ZM562.173 39C562.062 38.7842 561.982 38.5158 561.932 38.1948C561.351 38.8423 560.596 39.166 559.666 39.166C558.786 39.166 558.055 38.9115 557.474 38.4023C556.899 37.8932 556.611 37.2513 556.611 36.4766C556.611 35.5247 556.963 34.7943 557.665 34.2852C558.374 33.776 559.395 33.5187 560.728 33.5132H561.832V32.9985C561.832 32.5835 561.724 32.2515 561.509 32.0024C561.298 31.7534 560.964 31.6289 560.504 31.6289C560.1 31.6289 559.782 31.7257 559.55 31.9194C559.323 32.1131 559.209 32.3787 559.209 32.7163H556.81C556.81 32.1961 556.971 31.7147 557.292 31.272C557.613 30.8293 558.067 30.4834 558.653 30.2344C559.24 29.9798 559.898 29.8525 560.629 29.8525C561.735 29.8525 562.613 30.132 563.26 30.6909C563.913 31.2443 564.24 32.0246 564.24 33.0317V36.9248C564.245 37.777 564.364 38.4217 564.596 38.8589V39H562.173ZM560.189 37.3315C560.543 37.3315 560.869 37.2541 561.168 37.0991C561.467 36.9386 561.688 36.7256 561.832 36.46V34.916H560.936C559.735 34.916 559.096 35.3311 559.018 36.1611L559.01 36.3022C559.01 36.6011 559.115 36.8473 559.326 37.041C559.536 37.2347 559.824 37.3315 560.189 37.3315ZM573.868 39H571.461V35.5469H568.481V39H566.082V30.0186H568.481V33.6211H571.461V30.0186H573.868V39ZM575.354 34.4263C575.354 33.5353 575.526 32.7412 575.869 32.0439C576.212 31.3467 576.705 30.8071 577.346 30.4253C577.994 30.0435 578.744 29.8525 579.596 29.8525C580.808 29.8525 581.796 30.2233 582.559 30.9648C583.329 31.7064 583.757 32.7135 583.846 33.9863L583.863 34.6006C583.863 35.9785 583.478 37.0853 582.709 37.9209C581.94 38.751 580.908 39.166 579.613 39.166C578.318 39.166 577.283 38.751 576.508 37.9209C575.739 37.0908 575.354 35.9619 575.354 34.5342V34.4263ZM577.753 34.6006C577.753 35.4528 577.914 36.1058 578.235 36.5596C578.556 37.0078 579.015 37.2319 579.613 37.2319C580.194 37.2319 580.647 37.0106 580.974 36.5679C581.3 36.1196 581.464 35.4058 581.464 34.4263C581.464 33.5907 581.3 32.9432 580.974 32.4839C580.647 32.0246 580.188 31.7949 579.596 31.7949C579.009 31.7949 578.556 32.0246 578.235 32.4839C577.914 32.9377 577.753 33.6432 577.753 34.6006ZM590.005 34.7915H585.332V32.8574H590.005V34.7915ZM599.186 27.9932H599.335C600.282 27.9932 601.137 28.2035 601.9 28.624C602.669 29.0391 603.267 29.6312 603.693 30.4004C604.119 31.1696 604.332 32.0439 604.332 33.0234C604.332 34.4733 603.867 35.6576 602.938 36.5762C602.014 37.4948 600.763 37.9541 599.186 37.9541V39.498H596.787V37.9541H596.629C595.672 37.9541 594.809 37.7493 594.039 37.3398C593.27 36.9248 592.673 36.3438 592.246 35.5967C591.826 34.8496 591.616 33.9974 591.616 33.04C591.616 32.0716 591.826 31.2056 592.246 30.4419C592.667 29.6782 593.256 29.0833 594.014 28.6572C594.773 28.2256 595.619 28.0042 596.555 27.9932H596.787V26.416H599.186V27.9932ZM596.629 30.0601C595.805 30.0601 595.154 30.3201 594.679 30.8403C594.208 31.3605 593.973 32.0938 593.973 33.04C593.973 33.9255 594.208 34.6227 594.679 35.1318C595.149 35.6354 595.81 35.8872 596.662 35.8872H596.787V30.0601H596.629ZM599.186 30.0601V35.8872H599.352C600.165 35.8872 600.805 35.6326 601.269 35.1235C601.74 34.6089 601.975 33.9089 601.975 33.0234C601.975 32.0993 601.745 31.3743 601.286 30.8486C600.827 30.3229 600.168 30.0601 599.31 30.0601H599.186ZM613.895 34.5923C613.895 35.9757 613.579 37.0853 612.949 37.9209C612.323 38.751 611.477 39.166 610.409 39.166C609.501 39.166 608.768 38.8506 608.209 38.2197V42.4531H605.81V30.0186H608.034L608.117 30.8984C608.699 30.2012 609.457 29.8525 610.392 29.8525C611.499 29.8525 612.359 30.262 612.973 31.0811C613.588 31.9001 613.895 33.029 613.895 34.4678V34.5923ZM611.496 34.418C611.496 33.5824 611.346 32.9377 611.048 32.4839C610.754 32.0301 610.326 31.8032 609.761 31.8032C609.008 31.8032 608.491 32.091 608.209 32.6665V36.3438C608.502 36.9359 609.025 37.2319 609.778 37.2319C610.923 37.2319 611.496 36.2939 611.496 34.418ZM620.594 39C620.483 38.7842 620.403 38.5158 620.353 38.1948C619.772 38.8423 619.016 39.166 618.087 39.166C617.207 39.166 616.476 38.9115 615.895 38.4023C615.32 37.8932 615.032 37.2513 615.032 36.4766C615.032 35.5247 615.383 34.7943 616.086 34.2852C616.795 33.776 617.816 33.5187 619.149 33.5132H620.253V32.9985C620.253 32.5835 620.145 32.2515 619.93 32.0024C619.719 31.7534 619.384 31.6289 618.925 31.6289C618.521 31.6289 618.203 31.7257 617.971 31.9194C617.744 32.1131 617.63 32.3787 617.63 32.7163H615.231C615.231 32.1961 615.392 31.7147 615.713 31.272C616.034 30.8293 616.487 30.4834 617.074 30.2344C617.661 29.9798 618.319 29.8525 619.05 29.8525C620.156 29.8525 621.034 30.132 621.681 30.6909C622.334 31.2443 622.66 32.0246 622.66 33.0317V36.9248C622.666 37.777 622.785 38.4217 623.017 38.8589V39H620.594ZM618.61 37.3315C618.964 37.3315 619.29 37.2541 619.589 37.0991C619.888 36.9386 620.109 36.7256 620.253 36.46V34.916H619.357C618.156 34.916 617.517 35.3311 617.439 36.1611L617.431 36.3022C617.431 36.6011 617.536 36.8473 617.746 37.041C617.957 37.2347 618.244 37.3315 618.61 37.3315ZM632.289 39H629.882V35.5469H626.902V39H624.503V30.0186H626.902V33.6211H629.882V30.0186H632.289V39ZM637.668 35.688H636.705V39H634.306V30.0186H636.705V33.397H637.56L639.519 30.0186H642.549L639.611 34.2935L642.823 39H639.627L637.668 35.688ZM646.26 39H643.852V30.0186H646.26V39ZM643.711 27.6943C643.711 27.3346 643.83 27.0386 644.068 26.8062C644.312 26.5737 644.641 26.4575 645.056 26.4575C645.465 26.4575 645.792 26.5737 646.035 26.8062C646.279 27.0386 646.401 27.3346 646.401 27.6943C646.401 28.0596 646.276 28.3584 646.027 28.5908C645.784 28.8232 645.46 28.9395 645.056 28.9395C644.652 28.9395 644.326 28.8232 644.076 28.5908C643.833 28.3584 643.711 28.0596 643.711 27.6943ZM648.401 39V30.0186H652.153C653.376 30.0186 654.314 30.2344 654.967 30.666C655.62 31.0977 655.947 31.7174 655.947 32.5254C655.947 32.9404 655.808 33.314 655.532 33.646C655.26 33.9725 654.862 34.2243 654.336 34.4014C654.978 34.5231 655.482 34.7638 655.847 35.1235C656.218 35.4777 656.403 35.9149 656.403 36.4351C656.403 37.2707 656.088 37.9071 655.457 38.3442C654.832 38.7814 653.921 39 652.726 39H648.401ZM650.8 35.2729V37.0825H652.734C653.581 37.0825 654.004 36.7865 654.004 36.1943C654.004 35.5911 653.6 35.284 652.792 35.2729H650.8ZM650.8 33.6626H652.286C653.127 33.6515 653.548 33.3804 653.548 32.8491C653.548 32.5226 653.431 32.2902 653.199 32.1519C652.972 32.0135 652.624 31.9443 652.153 31.9443H650.8V33.6626ZM661.608 37.2319C662.05 37.2319 662.41 37.1102 662.687 36.8667C662.964 36.6232 663.107 36.2995 663.118 35.8955H665.368C665.362 36.5042 665.196 37.0632 664.87 37.5723C664.543 38.0758 664.095 38.4688 663.525 38.751C662.961 39.0277 662.335 39.166 661.649 39.166C660.365 39.166 659.353 38.7593 658.611 37.9458C657.87 37.1268 657.499 35.9979 657.499 34.5591V34.4014C657.499 33.0179 657.867 31.9139 658.603 31.0894C659.339 30.2648 660.349 29.8525 661.633 29.8525C662.756 29.8525 663.655 30.1735 664.33 30.8154C665.011 31.4518 665.357 32.3013 665.368 33.3638H663.118C663.107 32.8989 662.964 32.5226 662.687 32.2349C662.41 31.9416 662.045 31.7949 661.591 31.7949C661.032 31.7949 660.609 31.9997 660.321 32.4092C660.039 32.8132 659.898 33.4717 659.898 34.3848V34.6338C659.898 35.5579 660.039 36.222 660.321 36.626C660.603 37.0299 661.032 37.2319 661.608 37.2319ZM669.303 32.6499H671.021C671.796 32.6499 672.476 32.7799 673.063 33.04C673.649 33.3001 674.098 33.6737 674.408 34.1606C674.723 34.6421 674.881 35.2038 674.881 35.8457C674.881 36.792 674.529 37.5557 673.826 38.1367C673.129 38.7122 672.177 39 670.971 39H666.895V30.0186H669.303V32.6499ZM669.303 34.5757V37.0825H671.004C671.48 37.0825 671.845 36.9718 672.1 36.7505C672.354 36.5291 672.482 36.2275 672.482 35.8457C672.482 35.4583 672.357 35.1512 672.108 34.9243C671.859 34.6919 671.491 34.5757 671.004 34.5757H669.303ZM679.753 35.688H678.79V39H676.391V30.0186H678.79V33.397H679.645L681.604 30.0186H684.634L681.696 34.2935L684.908 39H681.712L679.753 35.688ZM684.958 34.4263C684.958 33.5353 685.129 32.7412 685.472 32.0439C685.816 31.3467 686.308 30.8071 686.95 30.4253C687.597 30.0435 688.347 29.8525 689.2 29.8525C690.411 29.8525 691.399 30.2233 692.163 30.9648C692.932 31.7064 693.361 32.7135 693.45 33.9863L693.466 34.6006C693.466 35.9785 693.082 37.0853 692.312 37.9209C691.543 38.751 690.511 39.166 689.216 39.166C687.921 39.166 686.886 38.751 686.112 37.9209C685.342 37.0908 684.958 35.9619 684.958 34.5342V34.4263ZM687.357 34.6006C687.357 35.4528 687.517 36.1058 687.838 36.5596C688.159 37.0078 688.618 37.2319 689.216 37.2319C689.797 37.2319 690.251 37.0106 690.577 36.5679C690.904 36.1196 691.067 35.4058 691.067 34.4263C691.067 33.5907 690.904 32.9432 690.577 32.4839C690.251 32.0246 689.792 31.7949 689.2 31.7949C688.613 31.7949 688.159 32.0246 687.838 32.4839C687.517 32.9377 687.357 33.6432 687.357 34.6006ZM701.061 31.9609H697.343V39H694.944V30.0186H701.061V31.9609ZM701.526 34.4263C701.526 33.5353 701.698 32.7412 702.041 32.0439C702.384 31.3467 702.876 30.8071 703.518 30.4253C704.166 30.0435 704.916 29.8525 705.768 29.8525C706.98 29.8525 707.968 30.2233 708.731 30.9648C709.5 31.7064 709.929 32.7135 710.018 33.9863L710.034 34.6006C710.034 35.9785 709.65 37.0853 708.881 37.9209C708.111 38.751 707.079 39.166 705.784 39.166C704.49 39.166 703.455 38.751 702.68 37.9209C701.911 37.0908 701.526 35.9619 701.526 34.5342V34.4263ZM703.925 34.6006C703.925 35.4528 704.086 36.1058 704.407 36.5596C704.728 37.0078 705.187 37.2319 705.784 37.2319C706.366 37.2319 706.819 37.0106 707.146 36.5679C707.472 36.1196 707.636 35.4058 707.636 34.4263C707.636 33.5907 707.472 32.9432 707.146 32.4839C706.819 32.0246 706.36 31.7949 705.768 31.7949C705.181 31.7949 704.728 32.0246 704.407 32.4839C704.086 32.9377 703.925 33.6432 703.925 34.6006ZM256.264 61H253.857V57.5469H250.877V61H248.478V52.0186H250.877V55.6211H253.857V52.0186H256.264V61ZM263.328 61C263.217 60.7842 263.137 60.5158 263.087 60.1948C262.506 60.8423 261.751 61.166 260.821 61.166C259.941 61.166 259.211 60.9115 258.63 60.4023C258.054 59.8932 257.766 59.2513 257.766 58.4766C257.766 57.5247 258.118 56.7943 258.821 56.2852C259.529 55.776 260.55 55.5187 261.884 55.5132H262.988V54.9985C262.988 54.5835 262.88 54.2515 262.664 54.0024C262.454 53.7534 262.119 53.6289 261.66 53.6289C261.256 53.6289 260.937 53.7257 260.705 53.9194C260.478 54.1131 260.365 54.3787 260.365 54.7163H257.966C257.966 54.1961 258.126 53.7147 258.447 53.272C258.768 52.8293 259.222 52.4834 259.808 52.2344C260.395 51.9798 261.054 51.8525 261.784 51.8525C262.891 51.8525 263.768 52.132 264.415 52.6909C265.068 53.2443 265.395 54.0246 265.395 55.0317V58.9248C265.4 59.777 265.519 60.4217 265.752 60.8589V61H263.328ZM261.344 59.3315C261.698 59.3315 262.025 59.2541 262.324 59.0991C262.622 58.9386 262.844 58.7256 262.988 58.46V56.916H262.091C260.89 56.916 260.251 57.3311 260.174 58.1611L260.165 58.3022C260.165 58.6011 260.271 58.8473 260.481 59.041C260.691 59.2347 260.979 59.3315 261.344 59.3315ZM267.238 52.0186H269.637V59.0659H272.641V52.0186H275.049V59.0825H276.393L276.227 63.6646H273.994V61H267.238V52.0186ZM280.129 61H277.722V52.0186H280.129V61ZM277.58 49.6943C277.58 49.3346 277.699 49.0386 277.937 48.8062C278.181 48.5737 278.51 48.4575 278.925 48.4575C279.335 48.4575 279.661 48.5737 279.905 48.8062C280.148 49.0386 280.27 49.3346 280.27 49.6943C280.27 50.0596 280.145 50.3584 279.896 50.5908C279.653 50.8232 279.329 50.9395 278.925 50.9395C278.521 50.9395 278.195 50.8232 277.946 50.5908C277.702 50.3584 277.58 50.0596 277.58 49.6943ZM281.739 56.4263C281.739 55.5353 281.911 54.7412 282.254 54.0439C282.597 53.3467 283.089 52.8071 283.731 52.4253C284.379 52.0435 285.129 51.8525 285.981 51.8525C287.193 51.8525 288.18 52.2233 288.944 52.9648C289.713 53.7064 290.142 54.7135 290.231 55.9863L290.247 56.6006C290.247 57.9785 289.863 59.0853 289.094 59.9209C288.324 60.751 287.292 61.166 285.997 61.166C284.702 61.166 283.668 60.751 282.893 59.9209C282.124 59.0908 281.739 57.9619 281.739 56.5342V56.4263ZM284.138 56.6006C284.138 57.4528 284.298 58.1058 284.619 58.5596C284.94 59.0078 285.4 59.2319 285.997 59.2319C286.578 59.2319 287.032 59.0106 287.359 58.5679C287.685 58.1196 287.848 57.4058 287.848 56.4263C287.848 55.5907 287.685 54.9432 287.359 54.4839C287.032 54.0246 286.573 53.7949 285.981 53.7949C285.394 53.7949 284.94 54.0246 284.619 54.4839C284.298 54.9377 284.138 55.6432 284.138 56.6006ZM299.511 61H297.104V57.5469H294.124V61H291.725V52.0186H294.124V55.6211H297.104V52.0186H299.511V61ZM306.575 61C306.464 60.7842 306.384 60.5158 306.334 60.1948C305.753 60.8423 304.998 61.166 304.068 61.166C303.188 61.166 302.458 60.9115 301.877 60.4023C301.301 59.8932 301.014 59.2513 301.014 58.4766C301.014 57.5247 301.365 56.7943 302.068 56.2852C302.776 55.776 303.797 55.5187 305.131 55.5132H306.235V54.9985C306.235 54.5835 306.127 54.2515 305.911 54.0024C305.701 53.7534 305.366 53.6289 304.907 53.6289C304.503 53.6289 304.184 53.7257 303.952 53.9194C303.725 54.1131 303.612 54.3787 303.612 54.7163H301.213C301.213 54.1961 301.373 53.7147 301.694 53.272C302.015 52.8293 302.469 52.4834 303.055 52.2344C303.642 51.9798 304.301 51.8525 305.031 51.8525C306.138 51.8525 307.015 52.132 307.662 52.6909C308.315 53.2443 308.642 54.0246 308.642 55.0317V58.9248C308.647 59.777 308.766 60.4217 308.999 60.8589V61H306.575ZM304.591 59.3315C304.945 59.3315 305.272 59.2541 305.571 59.0991C305.869 58.9386 306.091 58.7256 306.235 58.46V56.916H305.338C304.137 56.916 303.498 57.3311 303.421 58.1611L303.412 58.3022C303.412 58.6011 303.518 58.8473 303.728 59.041C303.938 59.2347 304.226 59.3315 304.591 59.3315ZM318.296 52.0186V61H315.897V53.9609H313.78L313.631 56.7334C313.537 58.2109 313.246 59.2873 312.759 59.9624C312.272 60.6375 311.547 60.9834 310.584 61H309.771L309.746 59.0493L310.045 59.0244C310.476 58.9912 310.792 58.7367 310.991 58.2607C311.19 57.7848 311.315 56.9741 311.365 55.8286L311.531 52.0186H318.296ZM322.712 54.6499H324.43C325.205 54.6499 325.885 54.7799 326.472 55.04C327.059 55.3001 327.507 55.6737 327.817 56.1606C328.132 56.6421 328.29 57.2038 328.29 57.8457C328.29 58.792 327.938 59.5557 327.236 60.1367C326.538 60.7122 325.587 61 324.38 61H320.305V52.0186H322.712V54.6499ZM322.712 56.5757V59.0825H324.413C324.889 59.0825 325.255 58.9718 325.509 58.7505C325.764 58.5291 325.891 58.2275 325.891 57.8457C325.891 57.4583 325.766 57.1512 325.517 56.9243C325.268 56.6919 324.9 56.5757 324.413 56.5757H322.712ZM337.429 61H335.022V57.5469H332.042V61H329.643V52.0186H332.042V55.6211H335.022V52.0186H337.429V61ZM338.915 56.4263C338.915 55.5353 339.086 54.7412 339.43 54.0439C339.773 53.3467 340.265 52.8071 340.907 52.4253C341.555 52.0435 342.304 51.8525 343.157 51.8525C344.368 51.8525 345.356 52.2233 346.12 52.9648C346.889 53.7064 347.318 54.7135 347.407 55.9863L347.423 56.6006C347.423 57.9785 347.039 59.0853 346.269 59.9209C345.5 60.751 344.468 61.166 343.173 61.166C341.878 61.166 340.843 60.751 340.069 59.9209C339.299 59.0908 338.915 57.9619 338.915 56.5342V56.4263ZM341.314 56.6006C341.314 57.4528 341.474 58.1058 341.795 58.5596C342.116 59.0078 342.576 59.2319 343.173 59.2319C343.754 59.2319 344.208 59.0106 344.535 58.5679C344.861 58.1196 345.024 57.4058 345.024 56.4263C345.024 55.5907 344.861 54.9432 344.535 54.4839C344.208 54.0246 343.749 53.7949 343.157 53.7949C342.57 53.7949 342.116 54.0246 341.795 54.4839C341.474 54.9377 341.314 55.6432 341.314 56.6006ZM355.018 53.9609H351.3V61H348.901V52.0186H355.018V53.9609ZM355.483 56.4263C355.483 55.5353 355.655 54.7412 355.998 54.0439C356.341 53.3467 356.833 52.8071 357.475 52.4253C358.123 52.0435 358.873 51.8525 359.725 51.8525C360.937 51.8525 361.925 52.2233 362.688 52.9648C363.458 53.7064 363.886 54.7135 363.975 55.9863L363.992 56.6006C363.992 57.9785 363.607 59.0853 362.838 59.9209C362.069 60.751 361.036 61.166 359.742 61.166C358.447 61.166 357.412 60.751 356.637 59.9209C355.868 59.0908 355.483 57.9619 355.483 56.5342V56.4263ZM357.882 56.6006C357.882 57.4528 358.043 58.1058 358.364 58.5596C358.685 59.0078 359.144 59.2319 359.742 59.2319C360.323 59.2319 360.776 59.0106 361.103 58.5679C361.429 58.1196 361.593 57.4058 361.593 56.4263C361.593 55.5907 361.429 54.9432 361.103 54.4839C360.776 54.0246 360.317 53.7949 359.725 53.7949C359.138 53.7949 358.685 54.0246 358.364 54.4839C358.043 54.9377 357.882 55.6432 357.882 56.6006ZM377.157 53.9443H374.276V61H371.869V53.9443H369.038V52.0186H377.157V53.9443ZM381.971 61.166C380.654 61.166 379.58 60.762 378.75 59.9541C377.926 59.1462 377.514 58.0698 377.514 56.7251V56.4927C377.514 55.5907 377.688 54.7855 378.036 54.0771C378.385 53.3633 378.878 52.8154 379.514 52.4336C380.156 52.0462 380.886 51.8525 381.705 51.8525C382.934 51.8525 383.9 52.2399 384.602 53.0146C385.311 53.7894 385.665 54.8879 385.665 56.3101V57.2896H379.946C380.023 57.8761 380.256 58.3465 380.643 58.7007C381.036 59.0549 381.531 59.2319 382.129 59.2319C383.053 59.2319 383.775 58.8971 384.295 58.2275L385.474 59.5474C385.114 60.0565 384.627 60.4549 384.013 60.7427C383.399 61.0249 382.718 61.166 381.971 61.166ZM381.697 53.7949C381.221 53.7949 380.834 53.9554 380.535 54.2764C380.242 54.5973 380.054 55.0566 379.971 55.6543H383.307V55.4634C383.296 54.9321 383.153 54.5226 382.876 54.2349C382.599 53.9416 382.206 53.7949 381.697 53.7949ZM390.454 54.6997L391.965 52.0186H394.53L391.973 56.418L394.638 61H392.065L390.463 58.1777L388.869 61H386.287L388.952 56.418L386.404 52.0186H388.977L390.454 54.6997ZM403.47 61H401.063V57.5469H398.083V61H395.684V52.0186H398.083V55.6211H401.063V52.0186H403.47V61ZM407.861 61H405.454V52.0186H407.861V61ZM405.313 49.6943C405.313 49.3346 405.432 49.0386 405.67 48.8062C405.913 48.5737 406.243 48.4575 406.658 48.4575C407.067 48.4575 407.394 48.5737 407.637 48.8062C407.881 49.0386 408.002 49.3346 408.002 49.6943C408.002 50.0596 407.878 50.3584 407.629 50.5908C407.385 50.8232 407.062 50.9395 406.658 50.9395C406.254 50.9395 405.927 50.8232 405.678 50.5908C405.435 50.3584 405.313 50.0596 405.313 49.6943ZM417.415 61H415.016V58.1777C414.568 58.2607 414.15 58.3022 413.763 58.3022C412.407 58.3022 411.386 58.0145 410.7 57.439C410.014 56.8634 409.665 56.0223 409.654 54.9155V52.0186H412.053V54.9155C412.059 55.4357 412.186 55.8092 412.435 56.0361C412.684 56.2575 413.127 56.3682 413.763 56.3682C414.161 56.3682 414.579 56.3211 415.016 56.2271V52.0186H417.415V61ZM427.044 61H424.637V57.5469H421.657V61H419.258V52.0186H421.657V55.6211H424.637V52.0186H427.044V61ZM428.53 56.4263C428.53 55.5353 428.702 54.7412 429.045 54.0439C429.388 53.3467 429.88 52.8071 430.522 52.4253C431.17 52.0435 431.92 51.8525 432.772 51.8525C433.984 51.8525 434.972 52.2233 435.735 52.9648C436.504 53.7064 436.933 54.7135 437.022 55.9863L437.038 56.6006C437.038 57.9785 436.654 59.0853 435.885 59.9209C435.115 60.751 434.083 61.166 432.788 61.166C431.493 61.166 430.459 60.751 429.684 59.9209C428.915 59.0908 428.53 57.9619 428.53 56.5342V56.4263ZM430.929 56.6006C430.929 57.4528 431.09 58.1058 431.41 58.5596C431.731 59.0078 432.191 59.2319 432.788 59.2319C433.369 59.2319 433.823 59.0106 434.15 58.5679C434.476 58.1196 434.639 57.4058 434.639 56.4263C434.639 55.5907 434.476 54.9432 434.15 54.4839C433.823 54.0246 433.364 53.7949 432.772 53.7949C432.185 53.7949 431.731 54.0246 431.41 54.4839C431.09 54.9377 430.929 55.6432 430.929 56.6006ZM444.634 53.9609H440.915V61H438.516V52.0186H444.634V53.9609ZM445.098 56.4263C445.098 55.5353 445.27 54.7412 445.613 54.0439C445.956 53.3467 446.449 52.8071 447.091 52.4253C447.738 52.0435 448.488 51.8525 449.34 51.8525C450.552 51.8525 451.54 52.2233 452.304 52.9648C453.073 53.7064 453.502 54.7135 453.59 55.9863L453.607 56.6006C453.607 57.9785 453.222 59.0853 452.453 59.9209C451.684 60.751 450.652 61.166 449.357 61.166C448.062 61.166 447.027 60.751 446.252 59.9209C445.483 59.0908 445.098 57.9619 445.098 56.5342V56.4263ZM447.497 56.6006C447.497 57.4528 447.658 58.1058 447.979 58.5596C448.3 59.0078 448.759 59.2319 449.357 59.2319C449.938 59.2319 450.392 59.0106 450.718 58.5679C451.045 58.1196 451.208 57.4058 451.208 56.4263C451.208 55.5907 451.045 54.9432 450.718 54.4839C450.392 54.0246 449.932 53.7949 449.34 53.7949C448.754 53.7949 448.3 54.0246 447.979 54.4839C447.658 54.9377 447.497 55.6432 447.497 56.6006ZM462.671 57.605L464.331 52.0186H466.905L463.294 62.3945L463.095 62.8677C462.558 64.0409 461.672 64.6274 460.438 64.6274C460.09 64.6274 459.736 64.5749 459.376 64.4697V62.6519L459.741 62.6602C460.195 62.6602 460.532 62.591 460.754 62.4526C460.981 62.3143 461.158 62.0846 461.285 61.7637L461.567 61.0249L458.421 52.0186H461.003L462.671 57.605ZM475.637 61H473.23V57.5469H470.25V61H467.851V52.0186H470.25V55.6211H473.23V52.0186H475.637V61ZM480.028 61H477.621V52.0186H480.028V61ZM477.48 49.6943C477.48 49.3346 477.599 49.0386 477.837 48.8062C478.08 48.5737 478.409 48.4575 478.825 48.4575C479.234 48.4575 479.561 48.5737 479.804 48.8062C480.048 49.0386 480.169 49.3346 480.169 49.6943C480.169 50.0596 480.045 50.3584 479.796 50.5908C479.552 50.8232 479.228 50.9395 478.825 50.9395C478.421 50.9395 478.094 50.8232 477.845 50.5908C477.602 50.3584 477.48 50.0596 477.48 49.6943ZM482.17 61V52.0186H485.922C487.145 52.0186 488.083 52.2344 488.736 52.666C489.389 53.0977 489.715 53.7174 489.715 54.5254C489.715 54.9404 489.577 55.314 489.3 55.646C489.029 55.9725 488.631 56.2243 488.105 56.4014C488.747 56.5231 489.25 56.7638 489.616 57.1235C489.986 57.4777 490.172 57.9149 490.172 58.4351C490.172 59.2707 489.856 59.9071 489.225 60.3442C488.6 60.7814 487.69 61 486.494 61H482.17ZM484.569 57.2729V59.0825H486.503C487.349 59.0825 487.773 58.7865 487.773 58.1943C487.773 57.5911 487.369 57.284 486.561 57.2729H484.569ZM484.569 55.6626H486.055C486.896 55.6515 487.316 55.3804 487.316 54.8491C487.316 54.5226 487.2 54.2902 486.968 54.1519C486.741 54.0135 486.392 53.9443 485.922 53.9443H484.569V55.6626ZM495.775 61.166C494.458 61.166 493.384 60.762 492.554 59.9541C491.729 59.1462 491.317 58.0698 491.317 56.7251V56.4927C491.317 55.5907 491.492 54.7855 491.84 54.0771C492.189 53.3633 492.681 52.8154 493.318 52.4336C493.96 52.0462 494.69 51.8525 495.509 51.8525C496.738 51.8525 497.703 52.2399 498.406 53.0146C499.114 53.7894 499.469 54.8879 499.469 56.3101V57.2896H493.749C493.827 57.8761 494.059 58.3465 494.447 58.7007C494.839 59.0549 495.335 59.2319 495.932 59.2319C496.857 59.2319 497.579 58.8971 498.099 58.2275L499.278 59.5474C498.918 60.0565 498.431 60.4549 497.817 60.7427C497.202 61.0249 496.522 61.166 495.775 61.166ZM495.501 53.7949C495.025 53.7949 494.638 53.9554 494.339 54.2764C494.045 54.5973 493.857 55.0566 493.774 55.6543H497.111V55.4634C497.1 54.9321 496.956 54.5226 496.68 54.2349C496.403 53.9416 496.01 53.7949 495.501 53.7949ZM508.923 56.5923C508.923 57.9757 508.608 59.0853 507.977 59.9209C507.352 60.751 506.505 61.166 505.437 61.166C504.529 61.166 503.796 60.8506 503.237 60.2197V64.4531H500.838V52.0186H503.063L503.146 52.8984C503.727 52.2012 504.485 51.8525 505.42 51.8525C506.527 51.8525 507.388 52.262 508.002 53.0811C508.616 53.9001 508.923 55.029 508.923 56.4678V56.5923ZM506.524 56.418C506.524 55.5824 506.375 54.9377 506.076 54.4839C505.783 54.0301 505.354 53.8032 504.789 53.8032C504.037 53.8032 503.519 54.091 503.237 54.6665V58.3438C503.53 58.9359 504.053 59.2319 504.806 59.2319C505.951 59.2319 506.524 58.2939 506.524 56.418ZM514.153 59.2319C514.595 59.2319 514.955 59.1102 515.232 58.8667C515.508 58.6232 515.652 58.2995 515.663 57.8955H517.913C517.907 58.5042 517.741 59.0632 517.415 59.5723C517.088 60.0758 516.64 60.4688 516.07 60.751C515.506 61.0277 514.88 61.166 514.194 61.166C512.91 61.166 511.898 60.7593 511.156 59.9458C510.415 59.1268 510.044 57.9979 510.044 56.5591V56.4014C510.044 55.0179 510.412 53.9139 511.148 53.0894C511.884 52.2648 512.894 51.8525 514.178 51.8525C515.301 51.8525 516.2 52.1735 516.875 52.8154C517.556 53.4518 517.902 54.3013 517.913 55.3638H515.663C515.652 54.8989 515.508 54.5226 515.232 54.2349C514.955 53.9416 514.59 53.7949 514.136 53.7949C513.577 53.7949 513.154 53.9997 512.866 54.4092C512.584 54.8132 512.443 55.4717 512.443 56.3848V56.6338C512.443 57.5579 512.584 58.222 512.866 58.626C513.148 59.0299 513.577 59.2319 514.153 59.2319ZM524.695 52.0186H527.094V61H524.695V55.4551L521.69 61H519.283V52.0186H521.69V57.5552L524.695 52.0186ZM536.382 53.9443H533.502V61H531.095V53.9443H528.264V52.0186H536.382V53.9443ZM541.197 61.166C539.88 61.166 538.806 60.762 537.976 59.9541C537.151 59.1462 536.739 58.0698 536.739 56.7251V56.4927C536.739 55.5907 536.913 54.7855 537.262 54.0771C537.611 53.3633 538.103 52.8154 538.74 52.4336C539.381 52.0462 540.112 51.8525 540.931 51.8525C542.159 51.8525 543.125 52.2399 543.828 53.0146C544.536 53.7894 544.89 54.8879 544.89 56.3101V57.2896H539.171C539.249 57.8761 539.481 58.3465 539.868 58.7007C540.261 59.0549 540.757 59.2319 541.354 59.2319C542.278 59.2319 543.001 58.8971 543.521 58.2275L544.7 59.5474C544.34 60.0565 543.853 60.4549 543.239 60.7427C542.624 61.0249 541.944 61.166 541.197 61.166ZM540.923 53.7949C540.447 53.7949 540.059 53.9554 539.761 54.2764C539.467 54.5973 539.279 55.0566 539.196 55.6543H542.533V55.4634C542.522 54.9321 542.378 54.5226 542.101 54.2349C541.825 53.9416 541.432 53.7949 540.923 53.7949ZM553.615 53.9443H550.734V61H548.327V53.9443H545.496V52.0186H553.615V53.9443ZM558.28 57.605L559.94 52.0186H562.513L558.902 62.3945L558.703 62.8677C558.166 64.0409 557.281 64.6274 556.047 64.6274C555.698 64.6274 555.344 64.5749 554.984 64.4697V62.6519L555.349 62.6602C555.803 62.6602 556.141 62.591 556.362 62.4526C556.589 62.3143 556.766 62.0846 556.893 61.7637L557.176 61.0249L554.03 52.0186H556.611L558.28 57.605ZM575.479 61H573.072V57.5469H570.092V61H567.693V52.0186H570.092V55.6211H573.072V52.0186H575.479V61ZM582.543 61C582.432 60.7842 582.352 60.5158 582.302 60.1948C581.721 60.8423 580.966 61.166 580.036 61.166C579.156 61.166 578.426 60.9115 577.845 60.4023C577.269 59.8932 576.981 59.2513 576.981 58.4766C576.981 57.5247 577.333 56.7943 578.035 56.2852C578.744 55.776 579.765 55.5187 581.098 55.5132H582.202V54.9985C582.202 54.5835 582.095 54.2515 581.879 54.0024C581.668 53.7534 581.334 53.6289 580.874 53.6289C580.47 53.6289 580.152 53.7257 579.92 53.9194C579.693 54.1131 579.579 54.3787 579.579 54.7163H577.18C577.18 54.1961 577.341 53.7147 577.662 53.272C577.983 52.8293 578.437 52.4834 579.023 52.2344C579.61 51.9798 580.268 51.8525 580.999 51.8525C582.106 51.8525 582.983 52.132 583.63 52.6909C584.283 53.2443 584.61 54.0246 584.61 55.0317V58.9248C584.615 59.777 584.734 60.4217 584.967 60.8589V61H582.543ZM580.559 59.3315C580.913 59.3315 581.24 59.2541 581.538 59.0991C581.837 58.9386 582.059 58.7256 582.202 58.46V56.916H581.306C580.105 56.916 579.466 57.3311 579.388 58.1611L579.38 58.3022C579.38 58.6011 579.485 58.8473 579.696 59.041C579.906 59.2347 580.194 59.3315 580.559 59.3315ZM586.096 56.5757C586.096 55.1313 586.389 53.9831 586.975 53.1309C587.568 52.2786 588.381 51.8525 589.416 51.8525C589.82 51.8525 590.188 51.9328 590.52 52.0933V48.25H592.919V52.1016C593.262 51.9355 593.641 51.8525 594.056 51.8525C595.096 51.8525 595.91 52.2786 596.496 53.1309C597.089 53.9775 597.385 55.1839 597.385 56.75C597.385 58.1058 597.089 59.1821 596.496 59.979C595.904 60.7703 595.096 61.166 594.073 61.166C593.646 61.166 593.262 61.0885 592.919 60.9336V64.4531H590.52V60.9419C590.188 61.0913 589.814 61.166 589.399 61.166C588.431 61.166 587.653 60.8035 587.067 60.0786C586.48 59.3537 586.159 58.3604 586.104 57.0986L586.096 56.5757ZM594.977 56.5757C594.977 55.6792 594.842 54.993 594.571 54.5171C594.299 54.0356 593.918 53.7949 593.425 53.7949C593.27 53.7949 593.101 53.8143 592.919 53.853V59.1904C593.074 59.2236 593.248 59.2402 593.442 59.2402C594.382 59.2402 594.892 58.5264 594.969 57.0986L594.977 56.5757ZM588.494 56.75C588.494 58.4046 589.001 59.2319 590.013 59.2319C590.224 59.2319 590.393 59.2181 590.52 59.1904V53.853C590.337 53.8143 590.174 53.7949 590.03 53.7949C589.538 53.7949 589.159 54.0301 588.893 54.5005C588.627 54.9653 588.494 55.7152 588.494 56.75ZM605.976 53.9443H603.096V61H600.688V53.9443H597.858V52.0186H605.976V53.9443ZM612.6 52.0186H614.999V61H612.6V55.4551L609.595 61H607.188V52.0186H609.595V57.5552L612.6 52.0186ZM623.598 61H621.191V52.0186H623.598V61ZM621.05 49.6943C621.05 49.3346 621.169 49.0386 621.407 48.8062C621.651 48.5737 621.98 48.4575 622.395 48.4575C622.804 48.4575 623.131 48.5737 623.374 48.8062C623.618 49.0386 623.74 49.3346 623.74 49.6943C623.74 50.0596 623.615 50.3584 623.366 50.5908C623.123 50.8232 622.799 50.9395 622.395 50.9395C621.991 50.9395 621.664 50.8232 621.415 50.5908C621.172 50.3584 621.05 50.0596 621.05 49.6943ZM635.933 53.9609H632.215V61H629.816V52.0186H635.933V53.9609ZM642.142 61C642.032 60.7842 641.951 60.5158 641.902 60.1948C641.321 60.8423 640.565 61.166 639.636 61.166C638.756 61.166 638.025 60.9115 637.444 60.4023C636.869 59.8932 636.581 59.2513 636.581 58.4766C636.581 57.5247 636.932 56.7943 637.635 56.2852C638.343 55.776 639.364 55.5187 640.698 55.5132H641.802V54.9985C641.802 54.5835 641.694 54.2515 641.478 54.0024C641.268 53.7534 640.933 53.6289 640.474 53.6289C640.07 53.6289 639.752 53.7257 639.519 53.9194C639.292 54.1131 639.179 54.3787 639.179 54.7163H636.78C636.78 54.1961 636.941 53.7147 637.262 53.272C637.582 52.8293 638.036 52.4834 638.623 52.2344C639.209 51.9798 639.868 51.8525 640.598 51.8525C641.705 51.8525 642.582 52.132 643.23 52.6909C643.883 53.2443 644.209 54.0246 644.209 55.0317V58.9248C644.215 59.777 644.334 60.4217 644.566 60.8589V61H642.142ZM640.159 59.3315C640.513 59.3315 640.839 59.2541 641.138 59.0991C641.437 58.9386 641.658 58.7256 641.802 58.46V56.916H640.906C639.705 56.916 639.066 57.3311 638.988 58.1611L638.98 58.3022C638.98 58.6011 639.085 58.8473 639.295 59.041C639.506 59.2347 639.793 59.3315 640.159 59.3315ZM650.767 54.6665C650.767 54.3511 650.662 54.1076 650.451 53.936C650.247 53.759 649.953 53.6704 649.572 53.6704C649.179 53.6704 648.858 53.7534 648.609 53.9194C648.365 54.0799 648.243 54.3096 648.243 54.6084H645.845C645.845 53.7949 646.182 53.1336 646.857 52.6245C647.532 52.1154 648.396 51.8608 649.447 51.8608C650.604 51.8608 651.511 52.0877 652.17 52.5415C652.834 52.9953 653.166 53.64 653.166 54.4756C653.166 54.874 653.044 55.242 652.801 55.5796C652.563 55.9116 652.225 56.1772 651.788 56.3765C652.812 56.7362 653.324 57.4307 653.324 58.46C653.324 59.2845 652.969 59.943 652.261 60.4355C651.558 60.9225 650.62 61.166 649.447 61.166C648.357 61.166 647.46 60.9115 646.758 60.4023C646.055 59.8932 645.703 59.207 645.703 58.3438H648.102C648.102 58.6481 648.238 58.8944 648.509 59.0825C648.78 59.2707 649.134 59.3647 649.572 59.3647C649.998 59.3647 650.33 59.2651 650.568 59.0659C650.806 58.8667 650.925 58.6066 650.925 58.2856C650.925 57.8927 650.811 57.6133 650.584 57.4473C650.357 57.2757 650.017 57.1899 649.563 57.1899H648.26V55.6294H649.646C650.393 55.6073 650.767 55.2863 650.767 54.6665ZM658.138 57.605L659.798 52.0186H662.371L658.761 62.3945L658.561 62.8677C658.025 64.0409 657.139 64.6274 655.905 64.6274C655.556 64.6274 655.202 64.5749 654.843 64.4697V62.6519L655.208 62.6602C655.662 62.6602 655.999 62.591 656.221 62.4526C656.447 62.3143 656.624 62.0846 656.752 61.7637L657.034 61.0249L653.888 52.0186H656.47L658.138 57.605ZM664.654 53.3384L666.978 56.5757V56.7334L664.654 59.9707H663.102L665.094 56.6587L663.102 53.3384H664.654ZM667.916 53.3384L670.241 56.5757V56.7334L667.916 59.9707H666.364L668.356 56.6587L666.364 53.3384H667.916Z" fill="#FAFAFA"/>
<rect x="196.621" width="1.84549" height="67.802" rx="0.922743" fill="#FAFAFA"/>
</mask>
<g mask="url(#mask0)">
<path d="M-8 -11H719V80H-8V-11Z" fill="url(#paint0_linear)"/>
</g>
<defs>
<linearGradient id="paint0_linear" x1="147.213" y1="3.49192" x2="203.821" y2="201.802" gradientUnits="userSpaceOnUse">
<stop stop-color="#00C0FF"/>
<stop offset="1" stop-color="#5581F1"/>
</linearGradient>
</defs>
</svg>
