<svg width="364" height="74" viewBox="0 0 364 74" fill="none" xmlns="http://www.w3.org/2000/svg">
<mask id="mask0" mask-type="alpha" maskUnits="userSpaceOnUse" x="0" y="0" width="363" height="74">
<path d="M80.0753 29.4631V29.4631C80.1516 29.3905 80.2183 29.3084 80.2737 29.2188L89.8174 13.7776C90.7284 12.3036 92.3377 11.4064 94.0705 11.4064H96.4717" stroke="white" stroke-width="2"/>
<path d="M124.798 65.0504H140.222" stroke="white" stroke-width="2"/>
<circle cx="124.257" cy="65.0515" r="1.35297" fill="white"/>
<circle cx="140.763" cy="65.0506" r="1.35297" fill="white"/>
<path d="M121.451 65.0482C121.451 65.7954 120.845 66.4011 120.098 66.4011C119.35 66.4011 118.745 65.7954 118.745 65.0482C118.745 64.3009 119.35 63.6952 120.098 63.6952C120.845 63.6952 121.451 64.3009 121.451 65.0482Z" fill="white"/>
<circle cx="188.522" cy="55.7366" r="1.48827" fill="white"/>
<circle cx="188.522" cy="17.3124" r="1.48827" fill="white"/>
<circle cx="158.216" cy="56.0068" r="1.48827" fill="white"/>
<circle cx="99.9034" cy="6.89399" r="1.35297" fill="white"/>
<circle cx="146.446" cy="7.16535" r="1.35297" fill="white"/>
<path d="M61.7498 33.4126H79.1598C80.8718 33.4126 82.4647 34.2885 83.3818 35.7341L97.0962 57.3516C97.6043 58.1526 97.8741 59.0816 97.8741 60.0301V65.7486" stroke="white" stroke-width="2"/>
<path d="M61.7498 29.3538H71.9564C73.6862 29.3538 75.293 28.4597 76.205 26.9899L87.2072 9.25823C88.1192 7.78844 89.7261 6.89441 91.4558 6.89441H99.3624" stroke="white" stroke-width="2"/>
<circle cx="61.7494" cy="62.9074" r="1.35297" fill="white"/>
<path d="M61.7498 6.35278V62.6365" stroke="white" stroke-width="2"/>
<circle cx="61.7493" cy="6.35297" r="1.35297" fill="white"/>
<circle cx="96.3723" cy="11.306" r="1.35297" fill="white"/>
<circle cx="80.183" cy="29.1553" r="1.35297" fill="white"/>
<circle cx="97.8737" cy="66.0193" r="1.21768" fill="white"/>
<circle cx="92.3085" cy="63.7372" r="1.35297" fill="white"/>
<path d="M75.2614 38.1279H76.6787C78.4057 38.1279 80.0105 39.0192 80.9233 40.4853L91.5534 57.5595C92.0472 58.3525 92.3088 59.268 92.3088 60.2022V64.105" stroke="white" stroke-width="2"/>
<circle cx="75.0902" cy="38.2965" r="1.21768" fill="white"/>
<circle cx="57.353" cy="13.8809" r="1.35297" fill="white"/>
<circle cx="57.353" cy="65.5648" r="1.35297" fill="white"/>
<path d="M57.3528 14.1517V65.0235" stroke="white" stroke-width="2"/>
<path d="M158.352 56.4128V12.8943V12.1646C158.352 9.40313 160.591 7.16455 163.352 7.16455H201.106" stroke="white" stroke-width="2"/>
<circle cx="154.158" cy="7.29064" r="1.48827" fill="white"/>
<circle cx="154.293" cy="63.1504" r="1.62357" fill="white"/>
<path d="M154.158 7.81305L154.293 63.6908" stroke="white" stroke-width="2"/>
<circle cx="192.81" cy="11.8567" r="1.48827" fill="white"/>
<circle cx="192.945" cy="67.7165" r="1.62357" fill="white"/>
<path d="M192.81 12.3798L192.945 68.2575" stroke="white" stroke-width="2"/>
<circle cx="201.512" cy="7.30065" r="1.48827" fill="white"/>
<path d="M119.862 65.2909H118.704C115.942 65.2909 113.704 63.0523 113.704 60.2909V11.0882V11.0882C113.704 9.19289 115.015 7.49542 116.886 7.18984C116.985 7.17369 117.055 7.16455 117.086 7.16455C117.357 7.16455 145.769 7.16455 145.769 7.16455" stroke="white" stroke-width="2"/>
<circle cx="140.83" cy="13.0268" r="1.35297" fill="white"/>
<circle cx="122.97" cy="13.027" r="1.35297" fill="white"/>
<path d="M123.782 13.0266L139.747 13.0266" stroke="white" stroke-width="2"/>
<path d="M137.494 39.7599H122.788C120.026 39.7599 117.788 41.9985 117.788 44.7599V55.1853C117.788 57.9468 120.026 60.1853 122.788 60.1853H146.192" stroke="white" stroke-width="2"/>
<circle cx="138.29" cy="39.8361" r="1.35297" fill="white"/>
<circle cx="146.269" cy="60.2615" r="1.35297" fill="white"/>
<rect x="108.302" y="12.8865" width="1.9302" height="51.057" fill="#FAFAFA"/>
<circle cx="109.08" cy="12.3991" r="1.6085" fill="#FAFAFA"/>
<circle cx="109.08" cy="63.477" r="1.6085" fill="#FAFAFA"/>
<path d="M118.106 13.5892V28.3763C118.106 31.1378 120.345 33.3763 123.106 33.3763H133.745" stroke="white" stroke-width="2"/>
<ellipse cx="118.179" cy="13.1591" rx="1.35297" ry="1.39397" fill="white"/>
<ellipse cx="133.502" cy="33.4941" rx="1.35297" ry="1.39397" fill="white"/>
<path d="M188.658 17.9886V55.3307" stroke="white" stroke-width="2"/>
<circle cx="184.907" cy="13.2069" r="1.35297" fill="white"/>
<circle cx="163.8" cy="13.2075" r="1.35297" fill="white"/>
<path d="M184.365 13.2067H163.8" stroke="white" stroke-width="2"/>
<path d="M28.306 10C57.3564 10.0001 57.7383 52.758 28.688 52.758" stroke="#FAFAFA" stroke-width="2"/>
<path d="M28.4182 15C50.1911 15.0001 51.2573 48 29.4844 48" stroke="#FAFAFA" stroke-width="2"/>
<path d="M23.1697 10C-5.88067 10.0001 -6.2626 52.758 22.7878 52.758" stroke="#FAFAFA" stroke-width="2"/>
<path d="M22.5541 15C1.36341 15.0001 0.317874 48 21.5086 48" stroke="#FAFAFA" stroke-width="2"/>
<path d="M23 6V41" stroke="#FAFAFA" stroke-width="2"/>
<path d="M28 23V66" stroke="#FAFAFA" stroke-width="2"/>
<circle cx="22.953" cy="6.35297" r="1.35297" fill="white"/>
<circle cx="27.953" cy="65.4529" r="1.35297" fill="white"/>
<circle cx="21.353" cy="47.9529" r="1.35297" fill="white"/>
<circle cx="28.353" cy="14.9529" r="1.35297" fill="white"/>
<path d="M229.439 15.9902H229.59C230.355 15.9902 231.05 16.1634 231.675 16.5098C232.304 16.8516 232.791 17.3346 233.138 17.959C233.489 18.5833 233.664 19.2852 233.664 20.0645C233.664 20.8392 233.489 21.5365 233.138 22.1562C232.791 22.7715 232.308 23.25 231.688 23.5918C231.073 23.9336 230.383 24.1068 229.617 24.1113H229.439V25.4102H227.778V24.1113H227.614C226.844 24.1113 226.145 23.9404 225.516 23.5986C224.887 23.2523 224.399 22.7715 224.053 22.1562C223.711 21.541 223.54 20.8483 223.54 20.0781C223.54 19.2988 223.713 18.597 224.06 17.9727C224.406 17.3483 224.891 16.863 225.516 16.5166C226.14 16.1657 226.84 15.9902 227.614 15.9902H227.778V14.6367H229.439V15.9902ZM227.614 17.3779C226.849 17.3779 226.249 17.6172 225.816 18.0957C225.388 18.5742 225.174 19.235 225.174 20.0781C225.174 20.8984 225.388 21.5456 225.816 22.0195C226.245 22.4889 226.851 22.7236 227.635 22.7236H227.778V17.3779H227.614ZM229.439 17.3779V22.7236H229.604C230.369 22.7236 230.964 22.4844 231.388 22.0059C231.816 21.5273 232.03 20.8802 232.03 20.0645C232.03 19.2305 231.816 18.5742 231.388 18.0957C230.964 17.6172 230.362 17.3779 229.583 17.3779H229.439ZM239.427 25C239.354 24.8587 239.29 24.6286 239.235 24.3096C238.707 24.861 238.06 25.1367 237.294 25.1367C236.551 25.1367 235.945 24.9248 235.476 24.501C235.006 24.0771 234.771 23.5531 234.771 22.9287C234.771 22.1403 235.063 21.5365 235.646 21.1172C236.234 20.6934 237.073 20.4814 238.162 20.4814H239.181V19.9961C239.181 19.6133 239.074 19.3079 238.859 19.0801C238.645 18.8477 238.319 18.7314 237.882 18.7314C237.504 18.7314 237.194 18.8271 236.952 19.0186C236.711 19.2054 236.59 19.4447 236.59 19.7363H234.929C234.929 19.3307 235.063 18.9525 235.332 18.6016C235.601 18.2461 235.965 17.9681 236.426 17.7676C236.891 17.5671 237.408 17.4668 237.978 17.4668C238.843 17.4668 239.534 17.6855 240.049 18.123C240.564 18.556 240.828 19.1667 240.842 19.9551V23.291C240.842 23.9564 240.935 24.4873 241.122 24.8838V25H239.427ZM237.602 23.8037C237.93 23.8037 238.237 23.724 238.524 23.5645C238.816 23.4049 239.035 23.1908 239.181 22.9219V21.5273H238.285C237.67 21.5273 237.207 21.6344 236.897 21.8486C236.588 22.0628 236.433 22.3659 236.433 22.7578C236.433 23.0768 236.537 23.332 236.747 23.5234C236.961 23.7103 237.246 23.8037 237.602 23.8037ZM245.237 20.0371L246.646 17.6035H248.491L246.229 21.2471L248.566 25H246.734L245.258 22.4707L243.788 25H241.942L244.28 21.2471L242.024 17.6035H243.856L245.237 20.0371ZM249.038 21.2334C249.038 20.5088 249.182 19.8571 249.469 19.2783C249.756 18.695 250.159 18.2484 250.679 17.9385C251.198 17.624 251.795 17.4668 252.47 17.4668C253.468 17.4668 254.277 17.7881 254.896 18.4307C255.521 19.0732 255.858 19.9255 255.908 20.9873L255.915 21.377C255.915 22.1061 255.774 22.7578 255.491 23.332C255.213 23.9062 254.812 24.3506 254.288 24.665C253.769 24.9795 253.167 25.1367 252.483 25.1367C251.44 25.1367 250.604 24.7904 249.975 24.0977C249.35 23.4004 249.038 22.473 249.038 21.3154V21.2334ZM250.699 21.377C250.699 22.138 250.856 22.735 251.171 23.168C251.485 23.5964 251.923 23.8105 252.483 23.8105C253.044 23.8105 253.479 23.5918 253.789 23.1543C254.104 22.7168 254.261 22.0765 254.261 21.2334C254.261 20.486 254.099 19.8936 253.775 19.4561C253.456 19.0186 253.021 18.7998 252.47 18.7998C251.927 18.7998 251.497 19.0163 251.178 19.4492C250.859 19.8776 250.699 20.5202 250.699 21.377ZM257.446 25V17.6035H260.447C261.459 17.6035 262.229 17.7812 262.758 18.1367C263.286 18.4876 263.551 18.9935 263.551 19.6543C263.551 19.9961 263.444 20.3037 263.229 20.5771C263.02 20.846 262.708 21.0534 262.293 21.1992C262.776 21.2995 263.159 21.5023 263.441 21.8076C263.724 22.113 263.865 22.473 263.865 22.8877C263.865 23.5758 263.61 24.0999 263.1 24.46C262.594 24.82 261.865 25 260.912 25H257.446ZM259.107 21.8486V23.6875H260.926C261.778 23.6875 262.204 23.3822 262.204 22.7715C262.204 22.1562 261.771 21.8486 260.905 21.8486H259.107ZM259.107 20.6592H260.475C261.418 20.6592 261.89 20.3812 261.89 19.8252C261.89 19.2419 261.443 18.9411 260.55 18.9229H259.107V20.6592ZM269.922 17.6035H271.576V25H269.922V20.0645L267.023 25H265.369V17.6035H267.023V22.5391L269.922 17.6035ZM277.961 17.6035H279.615V25H277.961V20.0645L275.062 25H273.408V17.6035H275.062V22.5391L277.961 17.6035ZM278.74 14.7666C278.74 15.3408 278.54 15.8057 278.139 16.1611C277.738 16.5166 277.202 16.6943 276.532 16.6943C275.862 16.6943 275.327 16.5166 274.926 16.1611C274.525 15.8057 274.324 15.3408 274.324 14.7666H275.568C275.568 15.0674 275.653 15.3021 275.821 15.4707C275.994 15.6348 276.231 15.7168 276.532 15.7168C276.833 15.7168 277.068 15.6348 277.236 15.4707C277.405 15.3021 277.489 15.0674 277.489 14.7666H278.74ZM287.497 22.0742H286.656V25H284.995V17.6035H286.656V20.5566H287.388L289.432 17.6035H291.482L288.81 21.1445L291.708 25H289.548L287.497 22.0742ZM291.913 21.2334C291.913 20.5088 292.057 19.8571 292.344 19.2783C292.631 18.695 293.034 18.2484 293.554 17.9385C294.073 17.624 294.67 17.4668 295.345 17.4668C296.343 17.4668 297.152 17.7881 297.771 18.4307C298.396 19.0732 298.733 19.9255 298.783 20.9873L298.79 21.377C298.79 22.1061 298.649 22.7578 298.366 23.332C298.088 23.9062 297.687 24.3506 297.163 24.665C296.644 24.9795 296.042 25.1367 295.358 25.1367C294.315 25.1367 293.479 24.7904 292.85 24.0977C292.225 23.4004 291.913 22.473 291.913 21.3154V21.2334ZM293.574 21.377C293.574 22.138 293.731 22.735 294.046 23.168C294.36 23.5964 294.798 23.8105 295.358 23.8105C295.919 23.8105 296.354 23.5918 296.664 23.1543C296.979 22.7168 297.136 22.0765 297.136 21.2334C297.136 20.486 296.974 19.8936 296.65 19.4561C296.331 19.0186 295.896 18.7998 295.345 18.7998C294.802 18.7998 294.372 19.0163 294.053 19.4492C293.734 19.8776 293.574 20.5202 293.574 21.377ZM306.371 17.6035V25H304.71V18.9434H302.618L302.481 21.5205C302.395 22.7601 302.156 23.651 301.764 24.1934C301.376 24.7311 300.782 25 299.979 25H299.467L299.46 23.6191L299.802 23.585C300.166 23.5348 300.431 23.3138 300.595 22.9219C300.763 22.5254 300.87 21.8053 300.916 20.7617L301.053 17.6035H306.371ZM311.396 25.1367C310.343 25.1367 309.488 24.8063 308.832 24.1455C308.18 23.4801 307.854 22.596 307.854 21.4932V21.2881C307.854 20.5498 307.996 19.8913 308.278 19.3125C308.565 18.7292 308.966 18.2757 309.481 17.9521C309.996 17.6286 310.571 17.4668 311.204 17.4668C312.211 17.4668 312.988 17.7881 313.535 18.4307C314.087 19.0732 314.362 19.9824 314.362 21.1582V21.8281H309.529C309.579 22.4388 309.782 22.9219 310.138 23.2773C310.498 23.6328 310.949 23.8105 311.491 23.8105C312.252 23.8105 312.872 23.5029 313.351 22.8877L314.246 23.7422C313.95 24.1842 313.553 24.5283 313.057 24.7744C312.564 25.016 312.011 25.1367 311.396 25.1367ZM311.197 18.7998C310.742 18.7998 310.372 18.9593 310.09 19.2783C309.812 19.5973 309.634 20.0417 309.557 20.6113H312.722V20.4883C312.685 19.9323 312.537 19.513 312.277 19.2305C312.018 18.9434 311.658 18.7998 311.197 18.7998ZM315.688 23.6738C316.149 23.1589 316.456 22.6712 316.611 22.2109C316.771 21.7461 316.867 21.1536 316.898 20.4336L316.994 17.6035H322.128V23.6738H323.153V27.2012H321.499V25H316.755V27.2012H315.073L315.08 23.6738H315.688ZM317.637 23.6738H320.474V19.0322H318.607L318.56 20.4473C318.496 21.8053 318.188 22.8809 317.637 23.6738ZM330.851 22.0264H329.969V25H328.308V22.0264H327.433L325.73 25H323.693L326.147 21.1514L323.823 17.6035H325.854L327.528 20.5088H328.308V17.6035H329.969V20.5088H330.755L332.437 17.6035H334.467L332.149 21.1309L334.617 25H332.553L330.851 22.0264ZM227.108 43.1367C226.056 43.1367 225.201 42.8063 224.545 42.1455C223.893 41.4801 223.567 40.596 223.567 39.4932V39.2881C223.567 38.5498 223.709 37.8913 223.991 37.3125C224.278 36.7292 224.679 36.2757 225.194 35.9521C225.709 35.6286 226.284 35.4668 226.917 35.4668C227.924 35.4668 228.701 35.7881 229.248 36.4307C229.799 37.0732 230.075 37.9824 230.075 39.1582V39.8281H225.242C225.292 40.4388 225.495 40.9219 225.851 41.2773C226.211 41.6328 226.662 41.8105 227.204 41.8105C227.965 41.8105 228.585 41.5029 229.063 40.8877L229.959 41.7422C229.663 42.1842 229.266 42.5283 228.77 42.7744C228.277 43.016 227.724 43.1367 227.108 43.1367ZM226.91 36.7998C226.454 36.7998 226.085 36.9593 225.803 37.2783C225.525 37.5973 225.347 38.0417 225.27 38.6113H228.435V38.4883C228.398 37.9323 228.25 37.513 227.99 37.2305C227.73 36.9434 227.37 36.7998 226.91 36.7998ZM237.656 35.6035V43H235.995V36.9434H233.903L233.767 39.5205C233.68 40.7601 233.441 41.651 233.049 42.1934C232.661 42.7311 232.067 43 231.265 43H230.752L230.745 41.6191L231.087 41.585C231.451 41.5348 231.716 41.3138 231.88 40.9219C232.049 40.5254 232.156 39.8053 232.201 38.7617L232.338 35.6035H237.656ZM242.681 43.1367C241.628 43.1367 240.773 42.8063 240.117 42.1455C239.465 41.4801 239.14 40.596 239.14 39.4932V39.2881C239.14 38.5498 239.281 37.8913 239.563 37.3125C239.851 36.7292 240.252 36.2757 240.767 35.9521C241.282 35.6286 241.856 35.4668 242.489 35.4668C243.496 35.4668 244.273 35.7881 244.82 36.4307C245.372 37.0732 245.647 37.9824 245.647 39.1582V39.8281H240.814C240.865 40.4388 241.067 40.9219 241.423 41.2773C241.783 41.6328 242.234 41.8105 242.776 41.8105C243.537 41.8105 244.157 41.5029 244.636 40.8877L245.531 41.7422C245.235 42.1842 244.839 42.5283 244.342 42.7744C243.85 43.016 243.296 43.1367 242.681 43.1367ZM242.482 36.7998C242.027 36.7998 241.658 36.9593 241.375 37.2783C241.097 37.5973 240.919 38.0417 240.842 38.6113H244.007V38.4883C243.97 37.9323 243.822 37.513 243.562 37.2305C243.303 36.9434 242.943 36.7998 242.482 36.7998ZM249.571 40.0742H248.73V43H247.069V35.6035H248.73V38.5566H249.462L251.506 35.6035H253.557L250.884 39.1445L253.782 43H251.622L249.571 40.0742ZM260.516 36.9229H258.116V43H256.455V36.9229H254.083V35.6035H260.516V36.9229ZM268.104 39.377C268.104 40.5208 267.844 41.4346 267.324 42.1182C266.805 42.7972 266.107 43.1367 265.232 43.1367C264.421 43.1367 263.772 42.8701 263.284 42.3369V45.8438H261.623V35.6035H263.154L263.223 36.3555C263.71 35.763 264.373 35.4668 265.212 35.4668C266.114 35.4668 266.821 35.804 267.331 36.4785C267.846 37.1484 268.104 38.0804 268.104 39.2744V39.377ZM266.449 39.2334C266.449 38.4951 266.301 37.9095 266.005 37.4766C265.713 37.0436 265.294 36.8271 264.747 36.8271C264.068 36.8271 263.58 37.1074 263.284 37.668V40.9492C263.585 41.5234 264.077 41.8105 264.761 41.8105C265.289 41.8105 265.702 41.5986 265.998 41.1748C266.299 40.7464 266.449 40.0993 266.449 39.2334ZM269.204 39.2334C269.204 38.5088 269.348 37.8571 269.635 37.2783C269.922 36.695 270.325 36.2484 270.845 35.9385C271.364 35.624 271.961 35.4668 272.636 35.4668C273.634 35.4668 274.443 35.7881 275.062 36.4307C275.687 37.0732 276.024 37.9255 276.074 38.9873L276.081 39.377C276.081 40.1061 275.94 40.7578 275.657 41.332C275.379 41.9062 274.978 42.3506 274.454 42.665C273.935 42.9795 273.333 43.1367 272.649 43.1367C271.606 43.1367 270.77 42.7904 270.141 42.0977C269.516 41.4004 269.204 40.473 269.204 39.3154V39.2334ZM270.865 39.377C270.865 40.138 271.022 40.735 271.337 41.168C271.651 41.5964 272.089 41.8105 272.649 41.8105C273.21 41.8105 273.645 41.5918 273.955 41.1543C274.27 40.7168 274.427 40.0765 274.427 39.2334C274.427 38.486 274.265 37.8936 273.941 37.4561C273.622 37.0186 273.187 36.7998 272.636 36.7998C272.093 36.7998 271.663 37.0163 271.344 37.4492C271.025 37.8776 270.865 38.5202 270.865 39.377ZM283.751 43H282.09V40.0127H279.212V43H277.551V35.6035H279.212V38.6865H282.09V35.6035H283.751V43ZM290.143 35.6035H291.797V43H290.143V38.0645L287.244 43H285.59V35.6035H287.244V40.5391L290.143 35.6035ZM296.22 38.0371L297.628 35.6035H299.474L297.211 39.2471L299.549 43H297.717L296.24 40.4707L294.771 43H292.925L295.263 39.2471L293.007 35.6035H294.839L296.22 38.0371ZM310.363 43H308.702V36.9434H305.817V43H304.156V35.6035H310.363V43ZM318.607 39.377C318.607 40.5208 318.348 41.4346 317.828 42.1182C317.309 42.7972 316.611 43.1367 315.736 43.1367C314.925 43.1367 314.276 42.8701 313.788 42.3369V45.8438H312.127V35.6035H313.658L313.727 36.3555C314.214 35.763 314.877 35.4668 315.716 35.4668C316.618 35.4668 317.325 35.804 317.835 36.4785C318.35 37.1484 318.607 38.0804 318.607 39.2744V39.377ZM316.953 39.2334C316.953 38.4951 316.805 37.9095 316.509 37.4766C316.217 37.0436 315.798 36.8271 315.251 36.8271C314.572 36.8271 314.084 37.1074 313.788 37.668V40.9492C314.089 41.5234 314.581 41.8105 315.265 41.8105C315.793 41.8105 316.206 41.5986 316.502 41.1748C316.803 40.7464 316.953 40.0993 316.953 39.2334ZM324.637 35.6035H326.291V43H324.637V38.0645L321.738 43H320.084V35.6035H321.738V40.5391L324.637 35.6035ZM334.344 35.6035V43H332.683V36.9434H330.591L330.454 39.5205C330.368 40.7601 330.128 41.651 329.736 42.1934C329.349 42.7311 328.754 43 327.952 43H327.439L327.433 41.6191L327.774 41.585C328.139 41.5348 328.403 41.3138 328.567 40.9219C328.736 40.5254 328.843 39.8053 328.889 38.7617L329.025 35.6035H334.344ZM340.53 43C340.457 42.8587 340.394 42.6286 340.339 42.3096C339.81 42.861 339.163 43.1367 338.397 43.1367C337.655 43.1367 337.049 42.9248 336.579 42.501C336.11 42.0771 335.875 41.5531 335.875 40.9287C335.875 40.1403 336.167 39.5365 336.75 39.1172C337.338 38.6934 338.176 38.4814 339.266 38.4814H340.284V37.9961C340.284 37.6133 340.177 37.3079 339.963 37.0801C339.749 36.8477 339.423 36.7314 338.985 36.7314C338.607 36.7314 338.297 36.8271 338.056 37.0186C337.814 37.2054 337.693 37.4447 337.693 37.7363H336.032C336.032 37.3307 336.167 36.9525 336.436 36.6016C336.704 36.2461 337.069 35.9681 337.529 35.7676C337.994 35.5671 338.511 35.4668 339.081 35.4668C339.947 35.4668 340.637 35.6855 341.152 36.123C341.667 36.556 341.932 37.1667 341.945 37.9551V41.291C341.945 41.9564 342.039 42.4873 342.226 42.8838V43H340.53ZM338.705 41.8037C339.033 41.8037 339.341 41.724 339.628 41.5645C339.92 41.4049 340.138 41.1908 340.284 40.9219V39.5273H339.389C338.773 39.5273 338.311 39.6344 338.001 39.8486C337.691 40.0628 337.536 40.3659 337.536 40.7578C337.536 41.0768 337.641 41.332 337.851 41.5234C338.065 41.7103 338.35 41.8037 338.705 41.8037ZM343.716 41.6738C344.176 41.1589 344.484 40.6712 344.639 40.2109C344.798 39.7461 344.894 39.1536 344.926 38.4336L345.021 35.6035H350.155V41.6738H351.181V45.2012H349.526V43H344.782V45.2012H343.101L343.107 41.6738H343.716ZM345.664 41.6738H348.501V37.0322H346.635L346.587 38.4473C346.523 39.8053 346.215 40.8809 345.664 41.6738ZM354.134 43H352.473V35.6035H354.134V43ZM352.37 33.6826C352.37 33.4274 352.45 33.2155 352.609 33.0469C352.773 32.8783 353.006 32.7939 353.307 32.7939C353.607 32.7939 353.84 32.8783 354.004 33.0469C354.168 33.2155 354.25 33.4274 354.25 33.6826C354.25 33.9333 354.168 34.1429 354.004 34.3115C353.84 34.4756 353.607 34.5576 353.307 34.5576C353.006 34.5576 352.773 34.4756 352.609 34.3115C352.45 34.1429 352.37 33.9333 352.37 33.6826ZM356.075 43V35.6035H359.076C360.088 35.6035 360.858 35.7812 361.387 36.1367C361.915 36.4876 362.18 36.9935 362.18 37.6543C362.18 37.9961 362.073 38.3037 361.858 38.5771C361.649 38.846 361.337 39.0534 360.922 39.1992C361.405 39.2995 361.788 39.5023 362.07 39.8076C362.353 40.113 362.494 40.473 362.494 40.8877C362.494 41.5758 362.239 42.0999 361.729 42.46C361.223 42.82 360.493 43 359.541 43H356.075ZM357.736 39.8486V41.6875H359.555C360.407 41.6875 360.833 41.3822 360.833 40.7715C360.833 40.1562 360.4 39.8486 359.534 39.8486H357.736ZM357.736 38.6592H359.104C360.047 38.6592 360.519 38.3812 360.519 37.8252C360.519 37.2419 360.072 36.9411 359.179 36.9229H357.736V38.6592ZM225.837 61H224.114V51.0469H225.837V61ZM233.391 51.9902H233.541C234.307 51.9902 235.002 52.1634 235.626 52.5098C236.255 52.8516 236.743 53.3346 237.089 53.959C237.44 54.5833 237.615 55.2852 237.615 56.0645C237.615 56.8392 237.44 57.5365 237.089 58.1562C236.743 58.7715 236.259 59.25 235.64 59.5918C235.024 59.9336 234.334 60.1068 233.568 60.1113H233.391V61.4102H231.729V60.1113H231.565C230.795 60.1113 230.096 59.9404 229.467 59.5986C228.838 59.2523 228.35 58.7715 228.004 58.1562C227.662 57.541 227.491 56.8483 227.491 56.0781C227.491 55.2988 227.664 54.597 228.011 53.9727C228.357 53.3483 228.842 52.863 229.467 52.5166C230.091 52.1657 230.791 51.9902 231.565 51.9902H231.729V50.6367H233.391V51.9902ZM231.565 53.3779C230.8 53.3779 230.201 53.6172 229.768 54.0957C229.339 54.5742 229.125 55.235 229.125 56.0781C229.125 56.8984 229.339 57.5456 229.768 58.0195C230.196 58.4889 230.802 58.7236 231.586 58.7236H231.729V53.3779H231.565ZM233.391 53.3779V58.7236H233.555C234.32 58.7236 234.915 58.4844 235.339 58.0059C235.767 57.5273 235.981 56.8802 235.981 56.0645C235.981 55.2305 235.767 54.5742 235.339 54.0957C234.915 53.6172 234.313 53.3779 233.534 53.3779H233.391ZM247.021 61H245.299V56.5771H240.849V61H239.119V51.0469H240.849V55.1895H245.299V51.0469H247.021V61ZM256.059 52.4414H252.955V61H251.239V52.4414H248.163V51.0469H256.059V52.4414ZM260.953 56.249L262.949 51.0469H264.87L261.404 59.3047L261.09 59.9268C260.634 60.738 259.896 61.1436 258.875 61.1436L258.164 61.1025L258.178 59.7354C258.287 59.7536 258.481 59.7627 258.759 59.7627C259.251 59.7627 259.597 59.5531 259.798 59.1338L260.153 58.293L256.749 51.0469H258.636L260.953 56.249ZM274.092 61H272.369V56.5771H267.919V61H266.189V51.0469H267.919V55.1895H272.369V51.0469H274.092V61ZM282.507 52.4414H277.913V61H276.19V51.0469H282.507V52.4414Z" fill="#FAFAFA"/>
<rect x="214" width="2" height="74" rx="1" fill="#FAFAFA"/>
</mask>
<g mask="url(#mask0)">
<path d="M-8 -12H379V87H-8V-12Z" fill="url(#paint0_linear)"/>
</g>
<defs>
<linearGradient id="paint0_linear" x1="74.6235" y1="3.76594" x2="176.178" y2="177.845" gradientUnits="userSpaceOnUse">
<stop stop-color="#00C0FF"/>
<stop offset="1" stop-color="#5581F1"/>
</linearGradient>
</defs>
</svg>
